M48
;DRILL file {Pcbnew (2012-01-19 BZR 3256)-stable} date Fri 08 Jun 2012 05:07:46 PM EEST
;FORMAT={3:2/ absolute / metric / suppress leading zeros}
FMAT,2
METRIC,TZ
T1C0.599
T2C0.800
T3C1.100
T4C1.300
T5C2.200
T6C3.000
%
G90
G05
M71
T1
X13120Y6945
X13125Y7775
X13125Y8545
X13125Y9325
X13125Y10015
X13125Y10715
X13125Y11105
X13190Y6345
X13190Y6630
X13500Y6345
X13870Y11110
X14297Y8898
X14305Y10105
X14305Y10500
X14310Y9925
X14330Y8345
X14385Y7890
X14400Y11110
X14490Y10625
X14582Y7889
X14670Y10822
X14670Y8357
X14673Y8222
X14733Y9440
X14777Y8635
X14830Y9610
X14865Y11115
X14905Y8635
X14915Y8783
X14990Y8195
X15035Y8882
X15170Y7015
X15295Y11115
X15377Y8528
X15380Y8357
X15575Y7485
X15593Y11168
X15600Y7100
X15723Y9612
X15850Y9920
X15865Y9455
X15905Y8355
X15920Y10330
X15970Y9985
X15970Y10130
X15990Y8455
X15995Y8210
X16008Y10465
X16015Y8075
X16075Y6915
X16130Y10195
X16155Y8625
X16160Y8765
X16230Y9340
X16232Y9133
X16280Y8765
X16295Y8905
X16350Y9595
X16360Y9340
X16390Y8535
X16405Y7833
X16425Y10525
X16455Y9125
X16470Y8115
X16490Y9340
X16530Y8920
X16540Y7492
X16590Y7915
X16620Y9340
X16635Y7405
X16753Y9332
X16760Y9965
X16765Y7865
X16768Y7445
X16855Y10070
X16880Y9340
X16990Y10200
X17010Y9260
X17025Y7760
X17150Y10230
X17243Y7513
X17282Y7395
X17340Y10230
X17350Y9965
X17460Y7505
X17520Y7680
X17520Y10230
X17525Y9965
X17530Y7815
X17640Y7330
X17690Y9965
X17795Y7495
X17840Y10285
X17955Y9510
X17965Y9715
X17965Y9920
X17965Y10140
X17965Y10285
X18107Y8347
X18190Y7470
X18200Y7300
X18270Y8675
X18275Y7965
X18300Y7600
X18300Y7800
X18308Y8848
X18380Y7420
X18397Y8010
X18400Y9000
X18403Y8127
X18407Y8680
X18430Y8845
X18438Y8563
X18500Y7700
X18500Y9200
X18500Y9500
X18500Y9800
X18525Y10070
X18525Y10280
X18537Y8010
X18540Y8630
X18543Y8133
X18563Y8845
X18600Y7200
X18700Y7500
X18700Y7800
X18700Y9200
X18700Y9500
X18800Y9000
X18800Y9800
X18900Y7000
X18900Y9500
X19000Y7200
X19000Y7500
X19000Y7800
X19000Y8115
X19000Y9200
X19000Y10600
X19005Y8700
X19070Y8870
X19100Y9500
X19100Y9800
X19133Y8703
X19135Y8115
X19200Y6345
X19200Y6600
X19200Y6900
X19200Y9000
X19300Y7200
X19300Y7500
X19300Y7800
X19300Y9200
X19300Y9500
X19300Y9900
X19300Y10200
X19300Y10500
X19300Y10800
X19305Y11160
X19400Y10965
X19500Y6345
X19500Y6600
X19500Y6900
X19500Y7200
X19500Y7500
X19500Y7800
X19500Y9000
X19500Y9200
X19500Y9400
X19500Y9600
X19500Y9800
X19500Y10000
X19500Y10200
X19500Y10400
X19500Y10600
X19500Y10800
X19510Y11160
X19565Y8315
X19565Y8520
T2
X13805Y10178
X13805Y10432
X14005Y10178
X14005Y10432
X14878Y10826
X15132Y10826
X15850Y10823
X15850Y11077
X16104Y10823
X16104Y11077
T3
X14740Y7273
X14740Y7723
X15386Y6423
X15386Y6677
X15390Y7273
X15390Y7723
X15640Y6423
X15640Y6677
X15894Y6423
X15894Y6677
X16657Y6423
X16657Y6677
X16657Y10823
X16657Y11077
X16911Y6423
X16911Y6677
X16911Y10823
X16911Y11077
X17165Y6423
X17165Y6677
X17165Y10823
X17165Y11077
X17260Y8335
X17260Y8480
X17260Y8625
X17419Y6423
X17419Y6677
X17419Y10823
X17419Y11077
X17450Y8335
X17450Y8480
X17450Y8625
X17640Y8335
X17640Y8480
X17640Y8625
X17673Y6423
X17673Y6677
X17673Y10823
X17673Y11077
X17927Y6423
X17927Y6677
X17927Y10823
X17927Y11077
X18181Y6423
X18181Y6677
X18181Y10823
X18181Y11077
X18435Y6423
X18435Y6677
X18435Y10823
X18435Y11077
X18689Y6423
X18689Y6677
X18689Y10823
X18689Y11077
X18943Y6423
X18943Y6677
X18943Y10823
X18943Y11077
T4
X13533Y7061
X13533Y7315
X13533Y7569
X13533Y7823
X13533Y8077
X13533Y8331
X13533Y8585
X13533Y8839
X13787Y7061
X13787Y7315
X13787Y7569
X13787Y7823
X13787Y8077
X13787Y8331
X13787Y8585
X13787Y8839
X19065Y8408
T5
X13535Y9705
X13535Y10905
X18760Y8103
X18760Y8713
X19370Y8103
X19370Y8713
T6
X14410Y6730
X18850Y10250
T0
M30
