M48
;DRILL file {Pcbnew (2012-01-19 BZR 3256)-stable} date Mon 11 Jun 2012 01:47:22 PM EEST
;FORMAT={-:-/ absolute / metric / decimal}
FMAT,2
METRIC,TZ
T1C0.599
T2C0.800
T3C1.100
T4C1.300
T5C2.200
T6C3.000
%
G90
G05
M71
T1
X130.000Y65.001
X130.000Y71.001
X130.000Y78.001
X130.000Y84.000
X130.000Y91.001
X130.000Y98.001
X130.000Y104.000
X130.000Y110.000
X138.001Y67.000
X138.001Y91.999
X138.001Y110.000
X141.000Y95.001
X142.974Y88.976
X142.999Y71.999
X143.050Y101.049
X143.050Y105.001
X143.101Y99.251
X143.299Y83.449
X143.850Y78.900
X144.899Y106.251
X145.819Y78.890
X146.698Y108.222
X146.700Y83.574
X146.726Y82.225
X147.325Y94.399
X147.775Y86.350
X148.300Y96.101
X148.999Y100.000
X148.999Y101.999
X148.999Y104.000
X149.050Y86.350
X149.149Y87.826
X149.901Y81.951
X150.350Y88.824
X151.000Y100.000
X151.000Y101.750
X151.699Y70.150
X153.774Y85.275
X153.800Y83.574
X155.750Y74.851
X155.999Y71.001
X157.226Y96.124
X158.575Y99.400
X158.651Y94.549
X159.050Y83.551
X159.200Y103.299
X159.901Y84.549
X159.949Y82.100
X160.076Y104.651
X160.150Y80.749
X160.325Y100.000
X160.749Y69.149
X161.549Y86.251
X161.600Y87.650
X161.600Y102.601
X162.301Y93.401
X162.324Y91.326
X162.799Y87.650
X162.951Y89.050
X163.500Y95.951
X163.599Y93.401
X163.901Y85.349
X164.051Y78.326
X164.249Y107.749
X164.249Y111.001
X164.549Y91.250
X164.701Y81.150
X164.899Y93.401
X165.301Y89.200
X165.400Y74.925
X165.900Y79.149
X166.200Y93.401
X166.350Y74.051
X167.526Y93.325
X167.599Y99.649
X167.650Y78.651
X167.676Y74.450
X168.549Y100.701
X168.801Y93.401
X169.901Y101.999
X170.101Y92.601
X170.251Y77.600
X171.501Y102.301
X172.425Y75.126
X172.824Y73.950
X173.401Y102.301
X173.500Y99.649
X174.600Y75.049
X175.199Y76.799
X175.199Y102.301
X175.250Y99.649
X175.301Y78.151
X176.901Y99.649
X177.950Y74.950
X178.399Y102.850
X179.550Y95.100
X179.649Y97.150
X179.649Y99.200
X179.649Y101.399
X179.649Y102.850
X181.074Y83.475
X181.900Y74.699
X182.001Y73.000
X182.700Y86.751
X182.750Y79.649
X182.999Y75.999
X182.999Y78.001
X183.076Y88.476
X183.799Y74.201
X183.975Y80.099
X184.000Y90.000
X184.026Y81.275
X184.074Y86.799
X184.300Y88.450
X184.424Y85.575
X185.001Y77.000
X185.001Y91.999
X185.001Y95.001
X185.001Y98.001
X185.001Y101.001
X185.374Y80.099
X185.400Y86.299
X185.425Y81.326
X185.626Y88.450
X185.999Y71.999
X187.000Y75.001
X187.000Y78.001
X187.000Y90.000
X187.000Y91.999
X187.000Y95.001
X187.000Y98.001
X188.999Y70.000
X190.000Y71.999
X190.000Y75.001
X190.000Y78.001
X190.000Y81.150
X190.000Y87.000
X190.000Y90.000
X190.000Y91.999
X190.000Y95.001
X190.000Y98.001
X191.249Y87.000
X191.351Y81.150
X192.001Y63.449
X192.001Y65.999
X192.001Y68.999
X192.999Y71.999
X192.999Y75.001
X192.999Y78.001
X192.999Y90.000
X192.999Y91.999
X192.999Y95.001
X192.999Y98.001
X192.999Y101.001
X192.999Y104.000
X192.999Y107.000
X192.999Y111.001
X194.000Y108.999
X195.001Y63.449
X195.001Y65.999
X195.001Y68.999
X195.001Y71.999
X195.001Y75.001
X195.001Y78.001
X195.001Y90.000
X195.001Y91.999
X195.001Y95.001
X195.001Y98.001
X195.001Y101.001
X195.001Y104.000
X195.001Y107.000
X195.001Y111.001
X195.651Y83.149
X195.651Y85.199
T2
X138.049Y101.780
X138.049Y104.320
X140.048Y101.780
X140.048Y104.320
X148.778Y108.260
X151.318Y108.260
X158.501Y108.229
X158.501Y110.769
X161.041Y108.229
X161.041Y110.769
T3
X147.399Y72.725
X147.399Y77.226
X153.861Y64.229
X153.861Y66.769
X153.901Y72.725
X153.901Y77.226
X156.401Y64.229
X156.401Y66.769
X158.941Y64.229
X158.941Y66.769
X166.571Y64.229
X166.571Y66.769
X166.571Y108.229
X166.571Y110.769
X169.111Y64.229
X169.111Y66.769
X169.111Y108.229
X169.111Y110.769
X171.651Y64.229
X171.651Y66.769
X171.651Y108.229
X171.651Y110.769
X172.596Y83.353
X172.596Y84.803
X172.596Y86.253
X174.191Y64.229
X174.191Y66.769
X174.191Y108.229
X174.191Y110.769
X174.495Y83.353
X174.495Y84.803
X174.495Y86.253
X176.395Y83.353
X176.395Y84.803
X176.395Y86.253
X176.731Y64.229
X176.731Y66.769
X176.731Y108.229
X176.731Y110.769
X179.271Y64.229
X179.271Y66.769
X179.271Y108.229
X179.271Y110.769
X181.811Y64.229
X181.811Y66.769
X181.811Y108.229
X181.811Y110.769
X184.351Y64.229
X184.351Y66.769
X184.351Y108.229
X184.351Y110.769
X186.891Y64.229
X186.891Y66.769
X186.891Y108.229
X186.891Y110.769
X189.431Y64.229
X189.431Y66.769
X189.431Y108.229
X189.431Y110.769
T4
X135.331Y70.609
X135.331Y73.149
X135.331Y75.689
X135.331Y78.229
X135.331Y80.769
X135.331Y83.309
X135.331Y85.849
X135.331Y88.389
X137.871Y70.609
X137.871Y73.149
X137.871Y75.689
X137.871Y78.229
X137.871Y80.769
X137.871Y83.309
X137.871Y85.849
X137.871Y88.389
X190.650Y84.077
T5
X135.349Y97.051
X135.349Y109.050
X187.599Y81.026
X187.599Y87.127
X193.700Y81.026
X193.700Y87.127
T6
X144.099Y67.300
X188.501Y102.499
T0
M30
