G04 (created by PCBNEW-RS274X (2012-01-19 BZR 3256)-stable) date Fri 08 Jun 2012 05:03:52 PM EEST*
G01*
G70*
G90*
%MOIN*%
G04 Gerber Fmt 3.4, Leading zero omitted, Abs format*
%FSLAX34Y34*%
G04 APERTURE LIST*
%ADD10C,0.006000*%
%ADD11C,0.014800*%
%ADD12C,0.019700*%
%ADD13C,0.007900*%
%ADD14C,0.009800*%
%ADD15C,0.015000*%
%ADD16C,0.005000*%
%ADD17C,0.012000*%
%ADD18C,0.100000*%
%ADD19C,0.007500*%
%ADD20C,0.001600*%
%ADD21C,0.005900*%
G04 APERTURE END LIST*
G54D10*
G54D11*
X71426Y-27582D02*
X71426Y-26991D01*
X72129Y-26963D02*
X71622Y-27722D01*
X72438Y-26991D02*
X72551Y-26991D01*
X72607Y-27019D01*
X72663Y-27075D01*
X72692Y-27188D01*
X72692Y-27385D01*
X72663Y-27497D01*
X72607Y-27554D01*
X72551Y-27582D01*
X72438Y-27582D01*
X72382Y-27554D01*
X72326Y-27497D01*
X72298Y-27385D01*
X72298Y-27188D01*
X72326Y-27075D01*
X72382Y-27019D01*
X72438Y-26991D01*
X72917Y-27554D02*
X72973Y-27582D01*
X73085Y-27582D01*
X73142Y-27554D01*
X73170Y-27497D01*
X73170Y-27469D01*
X73142Y-27413D01*
X73085Y-27385D01*
X73001Y-27385D01*
X72945Y-27357D01*
X72917Y-27300D01*
X72917Y-27272D01*
X72945Y-27216D01*
X73001Y-27188D01*
X73085Y-27188D01*
X73142Y-27216D01*
X73816Y-26991D02*
X74182Y-26991D01*
X73985Y-27216D01*
X74070Y-27216D01*
X74126Y-27244D01*
X74154Y-27272D01*
X74182Y-27328D01*
X74182Y-27469D01*
X74154Y-27525D01*
X74126Y-27554D01*
X74070Y-27582D01*
X73901Y-27582D01*
X73845Y-27554D01*
X73816Y-27525D01*
X74436Y-27525D02*
X74464Y-27554D01*
X74436Y-27582D01*
X74408Y-27554D01*
X74436Y-27525D01*
X74436Y-27582D01*
X74660Y-26991D02*
X75026Y-26991D01*
X74829Y-27216D01*
X74914Y-27216D01*
X74970Y-27244D01*
X74998Y-27272D01*
X75026Y-27328D01*
X75026Y-27469D01*
X74998Y-27525D01*
X74970Y-27554D01*
X74914Y-27582D01*
X74745Y-27582D01*
X74689Y-27554D01*
X74660Y-27525D01*
X75195Y-26991D02*
X75392Y-27582D01*
X75589Y-26991D01*
G54D12*
X69619Y-41893D02*
X69619Y-41368D01*
X69619Y-41518D02*
X69657Y-41443D01*
X69694Y-41406D01*
X69769Y-41368D01*
X69844Y-41368D01*
X70444Y-41893D02*
X70444Y-41106D01*
X70444Y-41856D02*
X70369Y-41893D01*
X70219Y-41893D01*
X70144Y-41856D01*
X70106Y-41818D01*
X70069Y-41743D01*
X70069Y-41518D01*
X70106Y-41443D01*
X70144Y-41406D01*
X70219Y-41368D01*
X70369Y-41368D01*
X70444Y-41406D01*
X70818Y-41893D02*
X70818Y-41368D01*
X70818Y-41518D02*
X70856Y-41443D01*
X70893Y-41406D01*
X70968Y-41368D01*
X71043Y-41368D01*
X71418Y-41893D02*
X71343Y-41856D01*
X71305Y-41781D01*
X71305Y-41106D01*
X72055Y-41893D02*
X72055Y-41481D01*
X72017Y-41406D01*
X71942Y-41368D01*
X71792Y-41368D01*
X71717Y-41406D01*
X72055Y-41856D02*
X71980Y-41893D01*
X71792Y-41893D01*
X71717Y-41856D01*
X71680Y-41781D01*
X71680Y-41706D01*
X71717Y-41631D01*
X71792Y-41593D01*
X71980Y-41593D01*
X72055Y-41556D01*
X72429Y-41893D02*
X72429Y-41106D01*
X72429Y-41406D02*
X72504Y-41368D01*
X72654Y-41368D01*
X72729Y-41406D01*
X72767Y-41443D01*
X72804Y-41518D01*
X72804Y-41743D01*
X72767Y-41818D01*
X72729Y-41856D01*
X72654Y-41893D01*
X72504Y-41893D01*
X72429Y-41856D01*
X73141Y-41818D02*
X73179Y-41856D01*
X73141Y-41893D01*
X73104Y-41856D01*
X73141Y-41818D01*
X73141Y-41893D01*
X73854Y-41856D02*
X73779Y-41893D01*
X73629Y-41893D01*
X73554Y-41856D01*
X73516Y-41818D01*
X73479Y-41743D01*
X73479Y-41518D01*
X73516Y-41443D01*
X73554Y-41406D01*
X73629Y-41368D01*
X73779Y-41368D01*
X73854Y-41406D01*
X74304Y-41893D02*
X74229Y-41856D01*
X74191Y-41818D01*
X74154Y-41743D01*
X74154Y-41518D01*
X74191Y-41443D01*
X74229Y-41406D01*
X74304Y-41368D01*
X74416Y-41368D01*
X74491Y-41406D01*
X74529Y-41443D01*
X74566Y-41518D01*
X74566Y-41743D01*
X74529Y-41818D01*
X74491Y-41856D01*
X74416Y-41893D01*
X74304Y-41893D01*
X74903Y-41893D02*
X74903Y-41368D01*
X74903Y-41443D02*
X74941Y-41406D01*
X75016Y-41368D01*
X75128Y-41368D01*
X75203Y-41406D01*
X75241Y-41481D01*
X75241Y-41893D01*
X75241Y-41481D02*
X75278Y-41406D01*
X75353Y-41368D01*
X75466Y-41368D01*
X75540Y-41406D01*
X75578Y-41481D01*
X75578Y-41893D01*
G54D13*
X64103Y-28888D02*
X63953Y-28993D01*
X64103Y-29068D02*
X63788Y-29068D01*
X63788Y-28948D01*
X63803Y-28918D01*
X63818Y-28903D01*
X63848Y-28888D01*
X63893Y-28888D01*
X63923Y-28903D01*
X63938Y-28918D01*
X63953Y-28948D01*
X63953Y-29068D01*
X63938Y-28648D02*
X63938Y-28753D01*
X64103Y-28753D02*
X63788Y-28753D01*
X63788Y-28603D01*
X64103Y-28303D02*
X63953Y-28408D01*
X64103Y-28483D02*
X63788Y-28483D01*
X63788Y-28363D01*
X63803Y-28333D01*
X63818Y-28318D01*
X63848Y-28303D01*
X63893Y-28303D01*
X63923Y-28318D01*
X63938Y-28333D01*
X63953Y-28363D01*
X63953Y-28483D01*
X63788Y-28198D02*
X64103Y-27988D01*
X63788Y-27988D02*
X64103Y-28198D01*
X62233Y-28850D02*
X62083Y-28955D01*
X62233Y-29030D02*
X61918Y-29030D01*
X61918Y-28910D01*
X61933Y-28880D01*
X61948Y-28865D01*
X61978Y-28850D01*
X62023Y-28850D01*
X62053Y-28865D01*
X62068Y-28880D01*
X62083Y-28910D01*
X62083Y-29030D01*
X62068Y-28610D02*
X62068Y-28715D01*
X62233Y-28715D02*
X61918Y-28715D01*
X61918Y-28565D01*
X61918Y-28490D02*
X61918Y-28310D01*
X62233Y-28400D02*
X61918Y-28400D01*
X61918Y-28235D02*
X62233Y-28025D01*
X61918Y-28025D02*
X62233Y-28235D01*
X58540Y-36426D02*
X58720Y-36426D01*
X58630Y-36741D02*
X58630Y-36426D01*
X58795Y-36426D02*
X59005Y-36741D01*
X59005Y-36426D02*
X58795Y-36741D01*
X59350Y-36411D02*
X59080Y-36816D01*
X59635Y-36741D02*
X59530Y-36591D01*
X59455Y-36741D02*
X59455Y-36426D01*
X59575Y-36426D01*
X59605Y-36441D01*
X59620Y-36456D01*
X59635Y-36486D01*
X59635Y-36531D01*
X59620Y-36561D01*
X59605Y-36576D01*
X59575Y-36591D01*
X59455Y-36591D01*
X59740Y-36426D02*
X59950Y-36741D01*
X59950Y-36426D02*
X59740Y-36741D01*
X57651Y-38907D02*
X57651Y-38592D01*
X57771Y-38592D01*
X57801Y-38607D01*
X57816Y-38622D01*
X57831Y-38652D01*
X57831Y-38697D01*
X57816Y-38727D01*
X57801Y-38742D01*
X57771Y-38757D01*
X57651Y-38757D01*
X57936Y-38592D02*
X58011Y-38907D01*
X58071Y-38682D01*
X58131Y-38907D01*
X58206Y-38592D01*
X58506Y-38907D02*
X58401Y-38757D01*
X58326Y-38907D02*
X58326Y-38592D01*
X58446Y-38592D01*
X58476Y-38607D01*
X58491Y-38622D01*
X58506Y-38652D01*
X58506Y-38697D01*
X58491Y-38727D01*
X58476Y-38742D01*
X58446Y-38757D01*
X58326Y-38757D01*
X58992Y-28080D02*
X58887Y-27930D01*
X58812Y-28080D02*
X58812Y-27765D01*
X58932Y-27765D01*
X58962Y-27780D01*
X58977Y-27795D01*
X58992Y-27825D01*
X58992Y-27870D01*
X58977Y-27900D01*
X58962Y-27915D01*
X58932Y-27930D01*
X58812Y-27930D01*
X59127Y-27915D02*
X59232Y-27915D01*
X59277Y-28080D02*
X59127Y-28080D01*
X59127Y-27765D01*
X59277Y-27765D01*
X59397Y-28065D02*
X59442Y-28080D01*
X59517Y-28080D01*
X59547Y-28065D01*
X59562Y-28050D01*
X59577Y-28020D01*
X59577Y-27990D01*
X59562Y-27960D01*
X59547Y-27945D01*
X59517Y-27930D01*
X59457Y-27915D01*
X59427Y-27900D01*
X59412Y-27885D01*
X59397Y-27855D01*
X59397Y-27825D01*
X59412Y-27795D01*
X59427Y-27780D01*
X59457Y-27765D01*
X59532Y-27765D01*
X59577Y-27780D01*
X59712Y-27915D02*
X59817Y-27915D01*
X59862Y-28080D02*
X59712Y-28080D01*
X59712Y-27765D01*
X59862Y-27765D01*
X59952Y-27765D02*
X60132Y-27765D01*
X60042Y-28080D02*
X60042Y-27765D01*
X63551Y-41942D02*
X63551Y-41792D01*
X63641Y-41972D02*
X63326Y-41867D01*
X63641Y-41762D01*
X63326Y-41702D02*
X63326Y-41522D01*
X63641Y-41612D02*
X63326Y-41612D01*
X63641Y-41417D02*
X63326Y-41417D01*
X63551Y-41312D01*
X63326Y-41207D01*
X63641Y-41207D01*
X63476Y-41057D02*
X63476Y-40952D01*
X63641Y-40907D02*
X63641Y-41057D01*
X63326Y-41057D01*
X63326Y-40907D01*
X63341Y-40607D02*
X63326Y-40637D01*
X63326Y-40682D01*
X63341Y-40727D01*
X63371Y-40757D01*
X63401Y-40772D01*
X63461Y-40787D01*
X63506Y-40787D01*
X63566Y-40772D01*
X63596Y-40757D01*
X63626Y-40727D01*
X63641Y-40682D01*
X63641Y-40652D01*
X63626Y-40607D01*
X63611Y-40592D01*
X63506Y-40592D01*
X63506Y-40652D01*
X63551Y-40472D02*
X63551Y-40322D01*
X63641Y-40502D02*
X63326Y-40397D01*
X63641Y-40292D01*
X62432Y-41783D02*
X62432Y-41888D01*
X62597Y-41888D02*
X62282Y-41888D01*
X62282Y-41738D01*
X62282Y-41663D02*
X62282Y-41483D01*
X62597Y-41573D02*
X62282Y-41573D01*
X62597Y-41378D02*
X62282Y-41378D01*
X62282Y-41303D01*
X62297Y-41258D01*
X62327Y-41228D01*
X62357Y-41213D01*
X62417Y-41198D01*
X62462Y-41198D01*
X62522Y-41213D01*
X62552Y-41228D01*
X62582Y-41258D01*
X62597Y-41303D01*
X62597Y-41378D01*
X62597Y-41063D02*
X62282Y-41063D01*
X58260Y-43345D02*
X58320Y-43345D01*
X58350Y-43360D01*
X58380Y-43390D01*
X58395Y-43450D01*
X58395Y-43555D01*
X58380Y-43615D01*
X58350Y-43645D01*
X58320Y-43660D01*
X58260Y-43660D01*
X58230Y-43645D01*
X58200Y-43615D01*
X58185Y-43555D01*
X58185Y-43450D01*
X58200Y-43390D01*
X58230Y-43360D01*
X58260Y-43345D01*
X58530Y-43660D02*
X58530Y-43345D01*
X58710Y-43660D01*
X58710Y-43345D01*
X59085Y-43330D02*
X58815Y-43735D01*
X59250Y-43345D02*
X59310Y-43345D01*
X59340Y-43360D01*
X59370Y-43390D01*
X59385Y-43450D01*
X59385Y-43555D01*
X59370Y-43615D01*
X59340Y-43645D01*
X59310Y-43660D01*
X59250Y-43660D01*
X59220Y-43645D01*
X59190Y-43615D01*
X59175Y-43555D01*
X59175Y-43450D01*
X59190Y-43390D01*
X59220Y-43360D01*
X59250Y-43345D01*
X59625Y-43495D02*
X59520Y-43495D01*
X59520Y-43660D02*
X59520Y-43345D01*
X59670Y-43345D01*
X59895Y-43495D02*
X59790Y-43495D01*
X59790Y-43660D02*
X59790Y-43345D01*
X59940Y-43345D01*
G54D14*
X67477Y-44965D02*
X67533Y-44983D01*
X67627Y-44983D01*
X67665Y-44965D01*
X67683Y-44946D01*
X67702Y-44908D01*
X67702Y-44871D01*
X67683Y-44833D01*
X67665Y-44815D01*
X67627Y-44796D01*
X67552Y-44777D01*
X67515Y-44758D01*
X67496Y-44740D01*
X67477Y-44702D01*
X67477Y-44665D01*
X67496Y-44627D01*
X67515Y-44608D01*
X67552Y-44589D01*
X67646Y-44589D01*
X67702Y-44608D01*
X67871Y-44983D02*
X67871Y-44589D01*
X68246Y-44983D02*
X68059Y-44983D01*
X68059Y-44589D01*
X68378Y-44983D02*
X68378Y-44589D01*
X68603Y-44983D02*
X68434Y-44758D01*
X68603Y-44589D02*
X68378Y-44815D01*
X69053Y-44965D02*
X69109Y-44983D01*
X69203Y-44983D01*
X69241Y-44965D01*
X69259Y-44946D01*
X69278Y-44908D01*
X69278Y-44871D01*
X69259Y-44833D01*
X69241Y-44815D01*
X69203Y-44796D01*
X69128Y-44777D01*
X69091Y-44758D01*
X69072Y-44740D01*
X69053Y-44702D01*
X69053Y-44665D01*
X69072Y-44627D01*
X69091Y-44608D01*
X69128Y-44589D01*
X69222Y-44589D01*
X69278Y-44608D01*
X69672Y-44946D02*
X69653Y-44965D01*
X69597Y-44983D01*
X69559Y-44983D01*
X69503Y-44965D01*
X69466Y-44927D01*
X69447Y-44890D01*
X69428Y-44815D01*
X69428Y-44758D01*
X69447Y-44683D01*
X69466Y-44646D01*
X69503Y-44608D01*
X69559Y-44589D01*
X69597Y-44589D01*
X69653Y-44608D01*
X69672Y-44627D01*
X70066Y-44983D02*
X69935Y-44796D01*
X69841Y-44983D02*
X69841Y-44589D01*
X69991Y-44589D01*
X70028Y-44608D01*
X70047Y-44627D01*
X70066Y-44665D01*
X70066Y-44721D01*
X70047Y-44758D01*
X70028Y-44777D01*
X69991Y-44796D01*
X69841Y-44796D01*
X70235Y-44777D02*
X70366Y-44777D01*
X70422Y-44983D02*
X70235Y-44983D01*
X70235Y-44589D01*
X70422Y-44589D01*
X70591Y-44777D02*
X70722Y-44777D01*
X70778Y-44983D02*
X70591Y-44983D01*
X70591Y-44589D01*
X70778Y-44589D01*
X70947Y-44983D02*
X70947Y-44589D01*
X71172Y-44983D01*
X71172Y-44589D01*
X71791Y-44777D02*
X71660Y-44777D01*
X71660Y-44983D02*
X71660Y-44589D01*
X71847Y-44589D01*
X72223Y-44983D02*
X72092Y-44796D01*
X71998Y-44983D02*
X71998Y-44589D01*
X72148Y-44589D01*
X72185Y-44608D01*
X72204Y-44627D01*
X72223Y-44665D01*
X72223Y-44721D01*
X72204Y-44758D01*
X72185Y-44777D01*
X72148Y-44796D01*
X71998Y-44796D01*
X72467Y-44589D02*
X72542Y-44589D01*
X72579Y-44608D01*
X72617Y-44646D01*
X72636Y-44721D01*
X72636Y-44852D01*
X72617Y-44927D01*
X72579Y-44965D01*
X72542Y-44983D01*
X72467Y-44983D01*
X72429Y-44965D01*
X72392Y-44927D01*
X72373Y-44852D01*
X72373Y-44721D01*
X72392Y-44646D01*
X72429Y-44608D01*
X72467Y-44589D01*
X72805Y-44983D02*
X72805Y-44589D01*
X73030Y-44983D01*
X73030Y-44589D01*
X73162Y-44589D02*
X73387Y-44589D01*
X73274Y-44983D02*
X73274Y-44589D01*
G54D15*
X57676Y-26379D02*
X57662Y-26297D01*
X57641Y-26217D01*
X57614Y-26138D01*
X57579Y-26063D01*
X57538Y-25991D01*
X57491Y-25922D01*
X57438Y-25858D01*
X57380Y-25799D01*
X57316Y-25745D01*
X57249Y-25697D01*
X57177Y-25655D01*
X57102Y-25620D01*
X57024Y-25591D01*
X56944Y-25569D01*
X56862Y-25554D01*
X56780Y-25546D01*
X56698Y-25545D01*
X56615Y-25552D01*
X56533Y-25566D01*
X56453Y-25587D01*
X56374Y-25614D01*
X56299Y-25649D01*
X56227Y-25690D01*
X56158Y-25737D01*
X56094Y-25790D01*
X56035Y-25848D01*
X55981Y-25912D01*
X55933Y-25979D01*
X55891Y-26051D01*
X55856Y-26126D01*
X55827Y-26204D01*
X55805Y-26284D01*
X55790Y-26366D01*
X55782Y-26448D01*
X55781Y-26530D01*
X55788Y-26613D01*
X55802Y-26695D01*
X55823Y-26775D01*
X55850Y-26854D01*
X55885Y-26929D01*
X55926Y-27001D01*
X55973Y-27070D01*
X56026Y-27134D01*
X56084Y-27193D01*
X56148Y-27247D01*
X56215Y-27295D01*
X56287Y-27337D01*
X56362Y-27372D01*
X56440Y-27401D01*
X56520Y-27423D01*
X56602Y-27438D01*
X56684Y-27446D01*
X56766Y-27447D01*
X56849Y-27440D01*
X56931Y-27426D01*
X57011Y-27405D01*
X57090Y-27378D01*
X57165Y-27343D01*
X57237Y-27302D01*
X57306Y-27255D01*
X57370Y-27202D01*
X57429Y-27144D01*
X57483Y-27080D01*
X57531Y-27013D01*
X57573Y-26941D01*
X57608Y-26866D01*
X57637Y-26788D01*
X57659Y-26708D01*
X57674Y-26626D01*
X57682Y-26544D01*
X57683Y-26462D01*
X57676Y-26379D01*
X75197Y-40354D02*
X75178Y-40545D01*
X75122Y-40728D01*
X75032Y-40898D01*
X74911Y-41047D01*
X74763Y-41169D01*
X74594Y-41261D01*
X74410Y-41317D01*
X74219Y-41337D01*
X74029Y-41320D01*
X73845Y-41266D01*
X73675Y-41177D01*
X73525Y-41057D01*
X73402Y-40909D01*
X73309Y-40741D01*
X73251Y-40558D01*
X73230Y-40367D01*
X73246Y-40177D01*
X73299Y-39992D01*
X73386Y-39821D01*
X73506Y-39671D01*
X73652Y-39546D01*
X73820Y-39453D01*
X74002Y-39393D01*
X74193Y-39371D01*
X74383Y-39385D01*
X74568Y-39437D01*
X74740Y-39524D01*
X74891Y-39642D01*
X75017Y-39787D01*
X75111Y-39954D01*
X75172Y-40136D01*
X75196Y-40327D01*
X75197Y-40354D01*
G54D16*
X57736Y-31989D02*
X57733Y-32016D01*
X57725Y-32042D01*
X57712Y-32067D01*
X57695Y-32088D01*
X57673Y-32105D01*
X57649Y-32118D01*
X57623Y-32127D01*
X57595Y-32129D01*
X57569Y-32127D01*
X57543Y-32119D01*
X57518Y-32106D01*
X57497Y-32089D01*
X57479Y-32068D01*
X57466Y-32044D01*
X57458Y-32018D01*
X57455Y-31990D01*
X57457Y-31964D01*
X57464Y-31938D01*
X57477Y-31913D01*
X57494Y-31892D01*
X57515Y-31874D01*
X57539Y-31860D01*
X57565Y-31852D01*
X57593Y-31849D01*
X57619Y-31851D01*
X57645Y-31858D01*
X57670Y-31870D01*
X57692Y-31887D01*
X57710Y-31908D01*
X57723Y-31932D01*
X57732Y-31958D01*
X57735Y-31986D01*
X57736Y-31989D01*
X58695Y-31789D02*
X58695Y-32089D01*
X58695Y-32089D02*
X58195Y-32089D01*
X58195Y-32089D02*
X58195Y-31789D01*
X57395Y-35839D02*
X57395Y-31789D01*
X59495Y-31789D02*
X59495Y-35839D01*
X59495Y-31789D02*
X57395Y-31789D01*
X59495Y-35839D02*
X57395Y-35839D01*
X63315Y-38907D02*
X63315Y-37707D01*
X63315Y-37707D02*
X63615Y-37707D01*
X63615Y-37707D02*
X63615Y-38907D01*
X63615Y-38907D02*
X63315Y-38907D01*
G54D13*
X77618Y-31920D02*
X77618Y-34282D01*
X79685Y-34184D02*
X79390Y-34184D01*
X79390Y-33298D02*
X78898Y-34479D01*
X79390Y-32510D02*
X78504Y-34479D01*
X79291Y-31920D02*
X78110Y-34479D01*
X78996Y-31723D02*
X77716Y-34479D01*
X78602Y-31723D02*
X77618Y-33888D01*
X79390Y-32018D02*
X79390Y-34184D01*
X78209Y-31723D02*
X77618Y-33101D01*
X77913Y-31723D02*
X77618Y-32412D01*
X77618Y-34184D02*
X77716Y-34479D01*
X79685Y-32018D02*
X79685Y-34184D01*
X79390Y-34184D02*
X79094Y-34479D01*
X79094Y-34479D02*
X77716Y-34479D01*
X77618Y-34282D02*
X76831Y-34282D01*
X79685Y-32018D02*
X79390Y-32018D01*
X79390Y-32018D02*
X79094Y-31723D01*
X79094Y-31723D02*
X77716Y-31723D01*
X77716Y-31723D02*
X77618Y-32018D01*
X77618Y-31920D02*
X76831Y-31920D01*
X73287Y-33101D02*
X73287Y-31329D01*
X73287Y-31329D02*
X76831Y-31329D01*
X76831Y-31329D02*
X76831Y-34873D01*
X76831Y-34873D02*
X73287Y-34873D01*
X73287Y-34873D02*
X73287Y-33101D01*
G54D16*
X58688Y-26795D02*
X59008Y-26795D01*
X58998Y-26355D02*
X58688Y-26355D01*
X59008Y-26255D02*
X59008Y-26895D01*
X59008Y-26895D02*
X58688Y-26895D01*
X58688Y-26895D02*
X58688Y-26255D01*
X58688Y-26255D02*
X59008Y-26255D01*
X61178Y-32035D02*
X61178Y-32355D01*
X61618Y-32345D02*
X61618Y-32035D01*
X61718Y-32355D02*
X61078Y-32355D01*
X61078Y-32355D02*
X61078Y-32035D01*
X61078Y-32035D02*
X61718Y-32035D01*
X61718Y-32035D02*
X61718Y-32355D01*
X61178Y-32547D02*
X61178Y-32867D01*
X61618Y-32857D02*
X61618Y-32547D01*
X61718Y-32867D02*
X61078Y-32867D01*
X61078Y-32867D02*
X61078Y-32547D01*
X61078Y-32547D02*
X61718Y-32547D01*
X61718Y-32547D02*
X61718Y-32867D01*
X60350Y-37074D02*
X60350Y-37394D01*
X60790Y-37384D02*
X60790Y-37074D01*
X60890Y-37394D02*
X60250Y-37394D01*
X60250Y-37394D02*
X60250Y-37074D01*
X60250Y-37074D02*
X60890Y-37074D01*
X60890Y-37074D02*
X60890Y-37394D01*
X60927Y-42397D02*
X60607Y-42397D01*
X60617Y-42837D02*
X60927Y-42837D01*
X60607Y-42937D02*
X60607Y-42297D01*
X60607Y-42297D02*
X60927Y-42297D01*
X60927Y-42297D02*
X60927Y-42937D01*
X60927Y-42937D02*
X60607Y-42937D01*
X60350Y-37684D02*
X60350Y-38004D01*
X60790Y-37994D02*
X60790Y-37684D01*
X60890Y-38004D02*
X60250Y-38004D01*
X60250Y-38004D02*
X60250Y-37684D01*
X60250Y-37684D02*
X60890Y-37684D01*
X60890Y-37684D02*
X60890Y-38004D01*
X67543Y-39530D02*
X67543Y-39210D01*
X67103Y-39220D02*
X67103Y-39530D01*
X67003Y-39210D02*
X67643Y-39210D01*
X67643Y-39210D02*
X67643Y-39530D01*
X67643Y-39530D02*
X67003Y-39530D01*
X67003Y-39530D02*
X67003Y-39210D01*
X69984Y-30160D02*
X69984Y-29840D01*
X69544Y-29850D02*
X69544Y-30160D01*
X69444Y-29840D02*
X70084Y-29840D01*
X70084Y-29840D02*
X70084Y-30160D01*
X70084Y-30160D02*
X69444Y-30160D01*
X69444Y-30160D02*
X69444Y-29840D01*
X57021Y-37261D02*
X56701Y-37261D01*
X56711Y-37701D02*
X57021Y-37701D01*
X56701Y-37801D02*
X56701Y-37161D01*
X56701Y-37161D02*
X57021Y-37161D01*
X57021Y-37161D02*
X57021Y-37801D01*
X57021Y-37801D02*
X56701Y-37801D01*
X57563Y-37261D02*
X57243Y-37261D01*
X57253Y-37701D02*
X57563Y-37701D01*
X57243Y-37801D02*
X57243Y-37161D01*
X57243Y-37161D02*
X57563Y-37161D01*
X57563Y-37161D02*
X57563Y-37801D01*
X57563Y-37801D02*
X57243Y-37801D01*
X60790Y-38762D02*
X60790Y-38442D01*
X60350Y-38452D02*
X60350Y-38762D01*
X60250Y-38442D02*
X60890Y-38442D01*
X60890Y-38442D02*
X60890Y-38762D01*
X60890Y-38762D02*
X60250Y-38762D01*
X60250Y-38762D02*
X60250Y-38442D01*
X63526Y-29485D02*
X63206Y-29485D01*
X63216Y-29925D02*
X63526Y-29925D01*
X63206Y-30025D02*
X63206Y-29385D01*
X63206Y-29385D02*
X63526Y-29385D01*
X63526Y-29385D02*
X63526Y-30025D01*
X63526Y-30025D02*
X63206Y-30025D01*
X62847Y-29485D02*
X62527Y-29485D01*
X62537Y-29925D02*
X62847Y-29925D01*
X62527Y-30025D02*
X62527Y-29385D01*
X62527Y-29385D02*
X62847Y-29385D01*
X62847Y-29385D02*
X62847Y-30025D01*
X62847Y-30025D02*
X62527Y-30025D01*
G54D15*
X64398Y-44102D02*
X75618Y-44102D01*
X64398Y-42134D02*
X75618Y-42134D01*
X75618Y-42126D02*
X75618Y-44094D01*
X64398Y-44094D02*
X64398Y-42126D01*
X64398Y-26779D02*
X75618Y-26779D01*
X64398Y-24811D02*
X75618Y-24811D01*
X75618Y-24803D02*
X75618Y-26771D01*
X64398Y-26771D02*
X64398Y-24803D01*
G54D13*
X59183Y-37993D02*
X59183Y-37679D01*
X59419Y-37993D02*
X59419Y-37679D01*
X59419Y-37679D02*
X59183Y-37836D01*
X59183Y-37836D02*
X59419Y-37993D01*
X59892Y-37541D02*
X58710Y-37541D01*
X58671Y-37541D02*
X58671Y-38131D01*
X58710Y-38131D02*
X59892Y-38131D01*
X59931Y-38131D02*
X59931Y-37541D01*
X59183Y-37324D02*
X59183Y-37010D01*
X59419Y-37324D02*
X59419Y-37010D01*
X59419Y-37010D02*
X59183Y-37167D01*
X59183Y-37167D02*
X59419Y-37324D01*
X59892Y-36872D02*
X58710Y-36872D01*
X58671Y-36872D02*
X58671Y-37462D01*
X58710Y-37462D02*
X59892Y-37462D01*
X59931Y-37462D02*
X59931Y-36872D01*
X62530Y-28327D02*
X62844Y-28327D01*
X62530Y-28563D02*
X62844Y-28563D01*
X62844Y-28563D02*
X62687Y-28327D01*
X62687Y-28327D02*
X62530Y-28563D01*
X62982Y-29036D02*
X62982Y-27854D01*
X62982Y-27815D02*
X62392Y-27815D01*
X62392Y-27854D02*
X62392Y-29036D01*
X62392Y-29075D02*
X62982Y-29075D01*
X63209Y-28327D02*
X63523Y-28327D01*
X63209Y-28563D02*
X63523Y-28563D01*
X63523Y-28563D02*
X63366Y-28327D01*
X63366Y-28327D02*
X63209Y-28563D01*
X63661Y-29036D02*
X63661Y-27854D01*
X63661Y-27815D02*
X63071Y-27815D01*
X63071Y-27854D02*
X63071Y-29036D01*
X63071Y-29075D02*
X63661Y-29075D01*
X59173Y-38759D02*
X59173Y-38445D01*
X59409Y-38759D02*
X59409Y-38445D01*
X59409Y-38445D02*
X59173Y-38602D01*
X59173Y-38602D02*
X59409Y-38759D01*
X59882Y-38307D02*
X58700Y-38307D01*
X58661Y-38307D02*
X58661Y-38897D01*
X58700Y-38897D02*
X59882Y-38897D01*
X59921Y-38897D02*
X59921Y-38307D01*
G54D15*
X63902Y-42110D02*
X63902Y-44110D01*
X63902Y-44110D02*
X62902Y-44110D01*
X62902Y-44110D02*
X62902Y-42110D01*
X62902Y-42110D02*
X63902Y-42110D01*
X58074Y-42122D02*
X60074Y-42122D01*
X60074Y-42122D02*
X60074Y-43122D01*
X60074Y-43122D02*
X58074Y-43122D01*
X58074Y-43122D02*
X58074Y-42122D01*
X62902Y-42110D02*
X62902Y-44110D01*
X62902Y-44110D02*
X61902Y-44110D01*
X61902Y-44110D02*
X61902Y-42110D01*
X61902Y-42110D02*
X62902Y-42110D01*
G54D14*
X66437Y-37402D02*
X69389Y-37402D01*
X69389Y-37402D02*
X69389Y-38976D01*
X69389Y-38976D02*
X66437Y-38976D01*
X66437Y-38976D02*
X66437Y-37402D01*
G54D16*
X61698Y-40121D02*
X61698Y-39621D01*
X62198Y-40121D02*
X62198Y-39631D01*
X62348Y-40121D02*
X61548Y-40121D01*
X61548Y-40121D02*
X61548Y-39621D01*
X61548Y-39621D02*
X62348Y-39621D01*
X62348Y-39621D02*
X62348Y-40121D01*
X61167Y-34414D02*
X61167Y-33914D01*
X61667Y-34414D02*
X61667Y-33924D01*
X61817Y-34414D02*
X61017Y-34414D01*
X61017Y-34414D02*
X61017Y-33914D01*
X61017Y-33914D02*
X61817Y-33914D01*
X61817Y-33914D02*
X61817Y-34414D01*
X61178Y-33413D02*
X61178Y-33733D01*
X61618Y-33723D02*
X61618Y-33413D01*
X61718Y-33733D02*
X61078Y-33733D01*
X61078Y-33733D02*
X61078Y-33413D01*
X61078Y-33413D02*
X61718Y-33413D01*
X61718Y-33413D02*
X61718Y-33733D01*
X61158Y-34594D02*
X61158Y-34914D01*
X61598Y-34904D02*
X61598Y-34594D01*
X61698Y-34914D02*
X61058Y-34914D01*
X61058Y-34914D02*
X61058Y-34594D01*
X61058Y-34594D02*
X61698Y-34594D01*
X61698Y-34594D02*
X61698Y-34914D01*
X69491Y-36355D02*
X69171Y-36355D01*
X69181Y-36795D02*
X69491Y-36795D01*
X69171Y-36895D02*
X69171Y-36255D01*
X69171Y-36255D02*
X69491Y-36255D01*
X69491Y-36255D02*
X69491Y-36895D01*
X69491Y-36895D02*
X69171Y-36895D01*
X71787Y-32347D02*
X72107Y-32347D01*
X72097Y-31907D02*
X71787Y-31907D01*
X72107Y-31807D02*
X72107Y-32447D01*
X72107Y-32447D02*
X71787Y-32447D01*
X71787Y-32447D02*
X71787Y-31807D01*
X71787Y-31807D02*
X72107Y-31807D01*
X61434Y-42402D02*
X61114Y-42402D01*
X61124Y-42842D02*
X61434Y-42842D01*
X61114Y-42942D02*
X61114Y-42302D01*
X61114Y-42302D02*
X61434Y-42302D01*
X61434Y-42302D02*
X61434Y-42942D01*
X61434Y-42942D02*
X61114Y-42942D01*
X72554Y-32977D02*
X72874Y-32977D01*
X72864Y-32537D02*
X72554Y-32537D01*
X72874Y-32437D02*
X72874Y-33077D01*
X72874Y-33077D02*
X72554Y-33077D01*
X72554Y-33077D02*
X72554Y-32437D01*
X72554Y-32437D02*
X72874Y-32437D01*
X70180Y-36394D02*
X69860Y-36394D01*
X69870Y-36834D02*
X70180Y-36834D01*
X69860Y-36934D02*
X69860Y-36294D01*
X69860Y-36294D02*
X70180Y-36294D01*
X70180Y-36294D02*
X70180Y-36934D01*
X70180Y-36934D02*
X69860Y-36934D01*
X70672Y-36394D02*
X70352Y-36394D01*
X70362Y-36834D02*
X70672Y-36834D01*
X70352Y-36934D02*
X70352Y-36294D01*
X70352Y-36294D02*
X70672Y-36294D01*
X70672Y-36294D02*
X70672Y-36934D01*
X70672Y-36934D02*
X70352Y-36934D01*
X61158Y-35086D02*
X61158Y-35406D01*
X61598Y-35396D02*
X61598Y-35086D01*
X61698Y-35406D02*
X61058Y-35406D01*
X61058Y-35406D02*
X61058Y-35086D01*
X61058Y-35086D02*
X61698Y-35086D01*
X61698Y-35086D02*
X61698Y-35406D01*
X65929Y-32129D02*
X65929Y-31809D01*
X65489Y-31819D02*
X65489Y-32129D01*
X65389Y-31809D02*
X66029Y-31809D01*
X66029Y-31809D02*
X66029Y-32129D01*
X66029Y-32129D02*
X65389Y-32129D01*
X65389Y-32129D02*
X65389Y-31809D01*
X65810Y-34249D02*
X65490Y-34249D01*
X65500Y-34689D02*
X65810Y-34689D01*
X65490Y-34789D02*
X65490Y-34149D01*
X65490Y-34149D02*
X65810Y-34149D01*
X65810Y-34149D02*
X65810Y-34789D01*
X65810Y-34789D02*
X65490Y-34789D01*
X68015Y-36617D02*
X68015Y-36297D01*
X67575Y-36307D02*
X67575Y-36617D01*
X67475Y-36297D02*
X68115Y-36297D01*
X68115Y-36297D02*
X68115Y-36617D01*
X68115Y-36617D02*
X67475Y-36617D01*
X67475Y-36617D02*
X67475Y-36297D01*
X61178Y-31425D02*
X61178Y-31745D01*
X61618Y-31735D02*
X61618Y-31425D01*
X61718Y-31745D02*
X61078Y-31745D01*
X61078Y-31745D02*
X61078Y-31425D01*
X61078Y-31425D02*
X61718Y-31425D01*
X61718Y-31425D02*
X61718Y-31745D01*
X69544Y-30312D02*
X69544Y-30632D01*
X69984Y-30622D02*
X69984Y-30312D01*
X70084Y-30632D02*
X69444Y-30632D01*
X69444Y-30632D02*
X69444Y-30312D01*
X69444Y-30312D02*
X70084Y-30312D01*
X70084Y-30312D02*
X70084Y-30632D01*
X65942Y-38507D02*
X66262Y-38507D01*
X66252Y-38067D02*
X65942Y-38067D01*
X66262Y-37967D02*
X66262Y-38607D01*
X66262Y-38607D02*
X65942Y-38607D01*
X65942Y-38607D02*
X65942Y-37967D01*
X65942Y-37967D02*
X66262Y-37967D01*
X69845Y-38087D02*
X69525Y-38087D01*
X69535Y-38527D02*
X69845Y-38527D01*
X69525Y-38627D02*
X69525Y-37987D01*
X69525Y-37987D02*
X69845Y-37987D01*
X69845Y-37987D02*
X69845Y-38627D01*
X69845Y-38627D02*
X69525Y-38627D01*
G54D15*
X59980Y-40373D02*
X59980Y-41554D01*
X59980Y-41554D02*
X57815Y-41554D01*
X57815Y-41554D02*
X57815Y-39192D01*
X57815Y-39192D02*
X59980Y-39192D01*
X59980Y-39192D02*
X59980Y-40373D01*
G54D13*
X71573Y-32856D02*
X72321Y-32856D01*
X71573Y-33918D02*
X72321Y-33918D01*
X72321Y-32875D02*
X72321Y-33879D01*
X71572Y-32875D02*
X71572Y-33879D01*
G54D15*
X59406Y-26811D02*
X63579Y-26811D01*
X59406Y-24763D02*
X63579Y-24763D01*
X63614Y-24803D02*
X63614Y-26771D01*
X59394Y-26771D02*
X59394Y-24803D01*
G54D16*
X49237Y-38171D02*
X49237Y-42971D01*
X49237Y-42971D02*
X55937Y-42971D01*
X55937Y-42971D02*
X55937Y-38171D01*
X55937Y-38171D02*
X49237Y-38171D01*
G54D13*
X49280Y-32299D02*
X49780Y-32299D01*
X49780Y-32299D02*
X49780Y-30299D01*
X49780Y-30299D02*
X49280Y-30299D01*
X52780Y-37299D02*
X54780Y-37299D01*
X52780Y-25299D02*
X54780Y-25299D01*
X52780Y-31299D02*
X52780Y-25299D01*
X52780Y-25299D02*
X49280Y-25299D01*
X49280Y-25299D02*
X49280Y-30299D01*
X52780Y-37299D02*
X49280Y-37299D01*
X52780Y-31299D02*
X52780Y-37299D01*
X54780Y-31299D02*
X54780Y-37299D01*
X54780Y-31299D02*
X54780Y-25299D01*
X49280Y-30299D02*
X49280Y-37299D01*
X66899Y-35587D02*
X66499Y-35587D01*
X66499Y-35587D02*
X66499Y-35187D01*
X70899Y-35187D02*
X70899Y-35587D01*
X70899Y-35587D02*
X70499Y-35587D01*
X66899Y-31187D02*
X66499Y-31187D01*
X66499Y-31187D02*
X66499Y-31587D01*
X70899Y-31587D02*
X70899Y-31187D01*
X70899Y-31187D02*
X70499Y-31187D01*
X70675Y-35225D02*
X70673Y-35244D01*
X70667Y-35262D01*
X70658Y-35279D01*
X70646Y-35294D01*
X70631Y-35306D01*
X70614Y-35315D01*
X70596Y-35320D01*
X70577Y-35322D01*
X70559Y-35321D01*
X70541Y-35315D01*
X70524Y-35307D01*
X70509Y-35295D01*
X70497Y-35280D01*
X70487Y-35263D01*
X70482Y-35245D01*
X70480Y-35226D01*
X70481Y-35208D01*
X70486Y-35189D01*
X70495Y-35172D01*
X70507Y-35157D01*
X70522Y-35145D01*
X70538Y-35136D01*
X70556Y-35130D01*
X70575Y-35128D01*
X70594Y-35129D01*
X70612Y-35134D01*
X70629Y-35143D01*
X70644Y-35155D01*
X70657Y-35169D01*
X70666Y-35186D01*
X70672Y-35204D01*
X70674Y-35223D01*
X70675Y-35225D01*
X70871Y-33387D02*
X70871Y-35159D01*
X70471Y-35559D02*
X66927Y-35559D01*
X66527Y-35159D02*
X66527Y-31615D01*
X66927Y-31215D02*
X70471Y-31215D01*
X70871Y-31615D02*
X70871Y-33387D01*
G54D17*
X58111Y-30718D02*
X58111Y-28318D01*
X58111Y-28318D02*
X60511Y-28318D01*
X60511Y-28318D02*
X60511Y-30718D01*
X60511Y-30718D02*
X58111Y-30718D01*
G54D18*
X59627Y-29518D02*
X59620Y-29579D01*
X59603Y-29638D01*
X59574Y-29692D01*
X59535Y-29740D01*
X59487Y-29779D01*
X59433Y-29809D01*
X59374Y-29827D01*
X59313Y-29833D01*
X59252Y-29828D01*
X59193Y-29810D01*
X59138Y-29782D01*
X59090Y-29743D01*
X59051Y-29696D01*
X59021Y-29642D01*
X59002Y-29583D01*
X58996Y-29522D01*
X59001Y-29461D01*
X59018Y-29402D01*
X59046Y-29347D01*
X59084Y-29299D01*
X59131Y-29259D01*
X59185Y-29229D01*
X59244Y-29210D01*
X59305Y-29203D01*
X59365Y-29207D01*
X59425Y-29224D01*
X59480Y-29252D01*
X59528Y-29290D01*
X59569Y-29336D01*
X59599Y-29390D01*
X59619Y-29448D01*
X59626Y-29510D01*
X59627Y-29518D01*
G54D13*
X57437Y-31357D02*
X57437Y-31612D01*
X57452Y-31642D01*
X57467Y-31657D01*
X57497Y-31672D01*
X57557Y-31672D01*
X57587Y-31657D01*
X57602Y-31642D01*
X57617Y-31612D01*
X57617Y-31357D01*
X57737Y-31357D02*
X57947Y-31357D01*
X57812Y-31672D01*
G54D19*
X62837Y-37301D02*
X62837Y-37544D01*
X62852Y-37573D01*
X62866Y-37587D01*
X62895Y-37601D01*
X62952Y-37601D01*
X62980Y-37587D01*
X62995Y-37573D01*
X63009Y-37544D01*
X63009Y-37301D01*
X63309Y-37601D02*
X63137Y-37601D01*
X63223Y-37601D02*
X63223Y-37301D01*
X63194Y-37344D01*
X63166Y-37373D01*
X63137Y-37387D01*
X63409Y-37301D02*
X63595Y-37301D01*
X63495Y-37416D01*
X63537Y-37416D01*
X63566Y-37430D01*
X63580Y-37444D01*
X63595Y-37473D01*
X63595Y-37544D01*
X63580Y-37573D01*
X63566Y-37587D01*
X63537Y-37601D01*
X63452Y-37601D01*
X63423Y-37587D01*
X63409Y-37573D01*
G54D13*
X73249Y-35009D02*
X73459Y-35324D01*
X73459Y-35009D02*
X73249Y-35324D01*
X73744Y-35324D02*
X73564Y-35324D01*
X73654Y-35324D02*
X73654Y-35009D01*
X73624Y-35054D01*
X73594Y-35084D01*
X73564Y-35099D01*
X58592Y-26627D02*
X58442Y-26732D01*
X58592Y-26807D02*
X58277Y-26807D01*
X58277Y-26687D01*
X58292Y-26657D01*
X58307Y-26642D01*
X58337Y-26627D01*
X58382Y-26627D01*
X58412Y-26642D01*
X58427Y-26657D01*
X58442Y-26687D01*
X58442Y-26807D01*
X58382Y-26357D02*
X58592Y-26357D01*
X58262Y-26432D02*
X58487Y-26507D01*
X58487Y-26312D01*
X62200Y-32312D02*
X62095Y-32162D01*
X62020Y-32312D02*
X62020Y-31997D01*
X62140Y-31997D01*
X62170Y-32012D01*
X62185Y-32027D01*
X62200Y-32057D01*
X62200Y-32102D01*
X62185Y-32132D01*
X62170Y-32147D01*
X62140Y-32162D01*
X62020Y-32162D01*
X62500Y-32312D02*
X62320Y-32312D01*
X62410Y-32312D02*
X62410Y-31997D01*
X62380Y-32042D01*
X62350Y-32072D01*
X62320Y-32087D01*
X62695Y-31997D02*
X62725Y-31997D01*
X62755Y-32012D01*
X62770Y-32027D01*
X62785Y-32057D01*
X62800Y-32117D01*
X62800Y-32192D01*
X62785Y-32252D01*
X62770Y-32282D01*
X62755Y-32297D01*
X62725Y-32312D01*
X62695Y-32312D01*
X62665Y-32297D01*
X62650Y-32282D01*
X62635Y-32252D01*
X62620Y-32192D01*
X62620Y-32117D01*
X62635Y-32057D01*
X62650Y-32027D01*
X62665Y-32012D01*
X62695Y-31997D01*
X62200Y-32903D02*
X62095Y-32753D01*
X62020Y-32903D02*
X62020Y-32588D01*
X62140Y-32588D01*
X62170Y-32603D01*
X62185Y-32618D01*
X62200Y-32648D01*
X62200Y-32693D01*
X62185Y-32723D01*
X62170Y-32738D01*
X62140Y-32753D01*
X62020Y-32753D01*
X62500Y-32903D02*
X62320Y-32903D01*
X62410Y-32903D02*
X62410Y-32588D01*
X62380Y-32633D01*
X62350Y-32663D01*
X62320Y-32678D01*
X62800Y-32903D02*
X62620Y-32903D01*
X62710Y-32903D02*
X62710Y-32588D01*
X62680Y-32633D01*
X62650Y-32663D01*
X62620Y-32678D01*
X61544Y-37210D02*
X61394Y-37315D01*
X61544Y-37390D02*
X61229Y-37390D01*
X61229Y-37270D01*
X61244Y-37240D01*
X61259Y-37225D01*
X61289Y-37210D01*
X61334Y-37210D01*
X61364Y-37225D01*
X61379Y-37240D01*
X61394Y-37270D01*
X61394Y-37390D01*
X61544Y-36910D02*
X61544Y-37090D01*
X61544Y-37000D02*
X61229Y-37000D01*
X61274Y-37030D01*
X61304Y-37060D01*
X61319Y-37090D01*
X61229Y-36805D02*
X61229Y-36610D01*
X61349Y-36715D01*
X61349Y-36670D01*
X61364Y-36640D01*
X61379Y-36625D01*
X61409Y-36610D01*
X61484Y-36610D01*
X61514Y-36625D01*
X61529Y-36640D01*
X61544Y-36670D01*
X61544Y-36760D01*
X61529Y-36790D01*
X61514Y-36805D01*
X60905Y-43526D02*
X60755Y-43631D01*
X60905Y-43706D02*
X60590Y-43706D01*
X60590Y-43586D01*
X60605Y-43556D01*
X60620Y-43541D01*
X60650Y-43526D01*
X60695Y-43526D01*
X60725Y-43541D01*
X60740Y-43556D01*
X60755Y-43586D01*
X60755Y-43706D01*
X60620Y-43406D02*
X60605Y-43391D01*
X60590Y-43361D01*
X60590Y-43286D01*
X60605Y-43256D01*
X60620Y-43241D01*
X60650Y-43226D01*
X60680Y-43226D01*
X60725Y-43241D01*
X60905Y-43421D01*
X60905Y-43226D01*
X61544Y-38194D02*
X61394Y-38299D01*
X61544Y-38374D02*
X61229Y-38374D01*
X61229Y-38254D01*
X61244Y-38224D01*
X61259Y-38209D01*
X61289Y-38194D01*
X61334Y-38194D01*
X61364Y-38209D01*
X61379Y-38224D01*
X61394Y-38254D01*
X61394Y-38374D01*
X61544Y-37894D02*
X61544Y-38074D01*
X61544Y-37984D02*
X61229Y-37984D01*
X61274Y-38014D01*
X61304Y-38044D01*
X61319Y-38074D01*
X61334Y-37624D02*
X61544Y-37624D01*
X61214Y-37699D02*
X61439Y-37774D01*
X61439Y-37579D01*
X68157Y-39792D02*
X68052Y-39642D01*
X67977Y-39792D02*
X67977Y-39477D01*
X68097Y-39477D01*
X68127Y-39492D01*
X68142Y-39507D01*
X68157Y-39537D01*
X68157Y-39582D01*
X68142Y-39612D01*
X68127Y-39627D01*
X68097Y-39642D01*
X67977Y-39642D01*
X68262Y-39477D02*
X68457Y-39477D01*
X68352Y-39597D01*
X68397Y-39597D01*
X68427Y-39612D01*
X68442Y-39627D01*
X68457Y-39657D01*
X68457Y-39732D01*
X68442Y-39762D01*
X68427Y-39777D01*
X68397Y-39792D01*
X68307Y-39792D01*
X68277Y-39777D01*
X68262Y-39762D01*
X70529Y-30137D02*
X70424Y-29987D01*
X70349Y-30137D02*
X70349Y-29822D01*
X70469Y-29822D01*
X70499Y-29837D01*
X70514Y-29852D01*
X70529Y-29882D01*
X70529Y-29927D01*
X70514Y-29957D01*
X70499Y-29972D01*
X70469Y-29987D01*
X70349Y-29987D01*
X70814Y-29822D02*
X70664Y-29822D01*
X70649Y-29972D01*
X70664Y-29957D01*
X70694Y-29942D01*
X70769Y-29942D01*
X70799Y-29957D01*
X70814Y-29972D01*
X70829Y-30002D01*
X70829Y-30077D01*
X70814Y-30107D01*
X70799Y-30122D01*
X70769Y-30137D01*
X70694Y-30137D01*
X70664Y-30122D01*
X70649Y-30107D01*
X57007Y-38349D02*
X56857Y-38454D01*
X57007Y-38529D02*
X56692Y-38529D01*
X56692Y-38409D01*
X56707Y-38379D01*
X56722Y-38364D01*
X56752Y-38349D01*
X56797Y-38349D01*
X56827Y-38364D01*
X56842Y-38379D01*
X56857Y-38409D01*
X56857Y-38529D01*
X56692Y-38244D02*
X56692Y-38034D01*
X57007Y-38169D01*
G54D20*
X57518Y-38043D02*
X57492Y-38006D01*
X57473Y-38043D02*
X57473Y-37964D01*
X57503Y-37964D01*
X57510Y-37968D01*
X57514Y-37972D01*
X57518Y-37980D01*
X57518Y-37991D01*
X57514Y-37998D01*
X57510Y-38002D01*
X57503Y-38006D01*
X57473Y-38006D01*
X57586Y-37964D02*
X57571Y-37964D01*
X57563Y-37968D01*
X57559Y-37972D01*
X57552Y-37983D01*
X57548Y-37998D01*
X57548Y-38028D01*
X57552Y-38036D01*
X57556Y-38040D01*
X57563Y-38043D01*
X57578Y-38043D01*
X57586Y-38040D01*
X57589Y-38036D01*
X57593Y-38028D01*
X57593Y-38010D01*
X57589Y-38002D01*
X57586Y-37998D01*
X57578Y-37995D01*
X57563Y-37995D01*
X57556Y-37998D01*
X57552Y-38002D01*
X57548Y-38010D01*
G54D13*
X61544Y-38832D02*
X61394Y-38937D01*
X61544Y-39012D02*
X61229Y-39012D01*
X61229Y-38892D01*
X61244Y-38862D01*
X61259Y-38847D01*
X61289Y-38832D01*
X61334Y-38832D01*
X61364Y-38847D01*
X61379Y-38862D01*
X61394Y-38892D01*
X61394Y-39012D01*
X61544Y-38532D02*
X61544Y-38712D01*
X61544Y-38622D02*
X61229Y-38622D01*
X61274Y-38652D01*
X61304Y-38682D01*
X61319Y-38712D01*
X64005Y-29973D02*
X63855Y-30078D01*
X64005Y-30153D02*
X63690Y-30153D01*
X63690Y-30033D01*
X63705Y-30003D01*
X63720Y-29988D01*
X63750Y-29973D01*
X63795Y-29973D01*
X63825Y-29988D01*
X63840Y-30003D01*
X63855Y-30033D01*
X63855Y-30153D01*
X64005Y-29823D02*
X64005Y-29763D01*
X63990Y-29733D01*
X63975Y-29718D01*
X63930Y-29688D01*
X63870Y-29673D01*
X63750Y-29673D01*
X63720Y-29688D01*
X63705Y-29703D01*
X63690Y-29733D01*
X63690Y-29793D01*
X63705Y-29823D01*
X63720Y-29838D01*
X63750Y-29853D01*
X63825Y-29853D01*
X63855Y-29838D01*
X63870Y-29823D01*
X63885Y-29793D01*
X63885Y-29733D01*
X63870Y-29703D01*
X63855Y-29688D01*
X63825Y-29673D01*
X62332Y-29973D02*
X62182Y-30078D01*
X62332Y-30153D02*
X62017Y-30153D01*
X62017Y-30033D01*
X62032Y-30003D01*
X62047Y-29988D01*
X62077Y-29973D01*
X62122Y-29973D01*
X62152Y-29988D01*
X62167Y-30003D01*
X62182Y-30033D01*
X62182Y-30153D01*
X62152Y-29793D02*
X62137Y-29823D01*
X62122Y-29838D01*
X62092Y-29853D01*
X62077Y-29853D01*
X62047Y-29838D01*
X62032Y-29823D01*
X62017Y-29793D01*
X62017Y-29733D01*
X62032Y-29703D01*
X62047Y-29688D01*
X62077Y-29673D01*
X62092Y-29673D01*
X62122Y-29688D01*
X62137Y-29703D01*
X62152Y-29733D01*
X62152Y-29793D01*
X62167Y-29823D01*
X62182Y-29838D01*
X62212Y-29853D01*
X62272Y-29853D01*
X62302Y-29838D01*
X62317Y-29823D01*
X62332Y-29793D01*
X62332Y-29733D01*
X62317Y-29703D01*
X62302Y-29688D01*
X62272Y-29673D01*
X62212Y-29673D01*
X62182Y-29688D01*
X62167Y-29703D01*
X62152Y-29733D01*
X64487Y-41643D02*
X64697Y-41958D01*
X64697Y-41643D02*
X64487Y-41958D01*
X64772Y-41643D02*
X64952Y-41643D01*
X64862Y-41958D02*
X64862Y-41643D01*
X65042Y-41673D02*
X65057Y-41658D01*
X65087Y-41643D01*
X65162Y-41643D01*
X65192Y-41658D01*
X65207Y-41673D01*
X65222Y-41703D01*
X65222Y-41733D01*
X65207Y-41778D01*
X65027Y-41958D01*
X65222Y-41958D01*
X64586Y-26977D02*
X64796Y-27292D01*
X64796Y-26977D02*
X64586Y-27292D01*
X64871Y-26977D02*
X65051Y-26977D01*
X64961Y-27292D02*
X64961Y-26977D01*
X65126Y-26977D02*
X65321Y-26977D01*
X65216Y-27097D01*
X65261Y-27097D01*
X65291Y-27112D01*
X65306Y-27127D01*
X65321Y-27157D01*
X65321Y-27232D01*
X65306Y-27262D01*
X65291Y-27277D01*
X65261Y-27292D01*
X65171Y-27292D01*
X65141Y-27277D01*
X65126Y-27262D01*
X66394Y-37017D02*
X66394Y-37272D01*
X66409Y-37302D01*
X66424Y-37317D01*
X66454Y-37332D01*
X66514Y-37332D01*
X66544Y-37317D01*
X66559Y-37302D01*
X66574Y-37272D01*
X66574Y-37017D01*
X66694Y-37017D02*
X66889Y-37017D01*
X66784Y-37137D01*
X66829Y-37137D01*
X66859Y-37152D01*
X66874Y-37167D01*
X66889Y-37197D01*
X66889Y-37272D01*
X66874Y-37302D01*
X66859Y-37317D01*
X66829Y-37332D01*
X66739Y-37332D01*
X66709Y-37317D01*
X66694Y-37302D01*
G54D21*
X61796Y-39452D02*
X61785Y-39463D01*
X61751Y-39475D01*
X61729Y-39475D01*
X61695Y-39463D01*
X61672Y-39441D01*
X61661Y-39418D01*
X61650Y-39373D01*
X61650Y-39340D01*
X61661Y-39295D01*
X61672Y-39272D01*
X61695Y-39250D01*
X61729Y-39239D01*
X61751Y-39239D01*
X61785Y-39250D01*
X61796Y-39261D01*
X62021Y-39475D02*
X61886Y-39475D01*
X61953Y-39475D02*
X61953Y-39239D01*
X61931Y-39272D01*
X61908Y-39295D01*
X61886Y-39306D01*
X62246Y-39475D02*
X62111Y-39475D01*
X62178Y-39475D02*
X62178Y-39239D01*
X62156Y-39272D01*
X62133Y-39295D01*
X62111Y-39306D01*
G54D13*
X62396Y-34251D02*
X62381Y-34266D01*
X62336Y-34281D01*
X62306Y-34281D01*
X62261Y-34266D01*
X62231Y-34236D01*
X62216Y-34206D01*
X62201Y-34146D01*
X62201Y-34101D01*
X62216Y-34041D01*
X62231Y-34011D01*
X62261Y-33981D01*
X62306Y-33966D01*
X62336Y-33966D01*
X62381Y-33981D01*
X62396Y-33996D01*
X62696Y-34281D02*
X62516Y-34281D01*
X62606Y-34281D02*
X62606Y-33966D01*
X62576Y-34011D01*
X62546Y-34041D01*
X62516Y-34056D01*
X62801Y-33966D02*
X62996Y-33966D01*
X62891Y-34086D01*
X62936Y-34086D01*
X62966Y-34101D01*
X62981Y-34116D01*
X62996Y-34146D01*
X62996Y-34221D01*
X62981Y-34251D01*
X62966Y-34266D01*
X62936Y-34281D01*
X62846Y-34281D01*
X62816Y-34266D01*
X62801Y-34251D01*
X62200Y-33660D02*
X62185Y-33675D01*
X62140Y-33690D01*
X62110Y-33690D01*
X62065Y-33675D01*
X62035Y-33645D01*
X62020Y-33615D01*
X62005Y-33555D01*
X62005Y-33510D01*
X62020Y-33450D01*
X62035Y-33420D01*
X62065Y-33390D01*
X62110Y-33375D01*
X62140Y-33375D01*
X62185Y-33390D01*
X62200Y-33405D01*
X62500Y-33690D02*
X62320Y-33690D01*
X62410Y-33690D02*
X62410Y-33375D01*
X62380Y-33420D01*
X62350Y-33450D01*
X62320Y-33465D01*
X62770Y-33480D02*
X62770Y-33690D01*
X62695Y-33360D02*
X62620Y-33585D01*
X62815Y-33585D01*
X62200Y-34841D02*
X62185Y-34856D01*
X62140Y-34871D01*
X62110Y-34871D01*
X62065Y-34856D01*
X62035Y-34826D01*
X62020Y-34796D01*
X62005Y-34736D01*
X62005Y-34691D01*
X62020Y-34631D01*
X62035Y-34601D01*
X62065Y-34571D01*
X62110Y-34556D01*
X62140Y-34556D01*
X62185Y-34571D01*
X62200Y-34586D01*
X62500Y-34871D02*
X62320Y-34871D01*
X62410Y-34871D02*
X62410Y-34556D01*
X62380Y-34601D01*
X62350Y-34631D01*
X62320Y-34646D01*
X62785Y-34556D02*
X62635Y-34556D01*
X62620Y-34706D01*
X62635Y-34691D01*
X62665Y-34676D01*
X62740Y-34676D01*
X62770Y-34691D01*
X62785Y-34706D01*
X62800Y-34736D01*
X62800Y-34811D01*
X62785Y-34841D01*
X62770Y-34856D01*
X62740Y-34871D01*
X62665Y-34871D01*
X62635Y-34856D01*
X62620Y-34841D01*
X68995Y-36863D02*
X69010Y-36878D01*
X69025Y-36923D01*
X69025Y-36953D01*
X69010Y-36998D01*
X68980Y-37028D01*
X68950Y-37043D01*
X68890Y-37058D01*
X68845Y-37058D01*
X68785Y-37043D01*
X68755Y-37028D01*
X68725Y-36998D01*
X68710Y-36953D01*
X68710Y-36923D01*
X68725Y-36878D01*
X68740Y-36863D01*
X68815Y-36593D02*
X69025Y-36593D01*
X68695Y-36668D02*
X68920Y-36743D01*
X68920Y-36548D01*
X71613Y-32131D02*
X71628Y-32146D01*
X71643Y-32191D01*
X71643Y-32221D01*
X71628Y-32266D01*
X71598Y-32296D01*
X71568Y-32311D01*
X71508Y-32326D01*
X71463Y-32326D01*
X71403Y-32311D01*
X71373Y-32296D01*
X71343Y-32266D01*
X71328Y-32221D01*
X71328Y-32191D01*
X71343Y-32146D01*
X71358Y-32131D01*
X71643Y-31831D02*
X71643Y-32011D01*
X71643Y-31921D02*
X71328Y-31921D01*
X71373Y-31951D01*
X71403Y-31981D01*
X71418Y-32011D01*
X71328Y-31726D02*
X71328Y-31516D01*
X71643Y-31651D01*
X61396Y-43517D02*
X61411Y-43532D01*
X61426Y-43577D01*
X61426Y-43607D01*
X61411Y-43652D01*
X61381Y-43682D01*
X61351Y-43697D01*
X61291Y-43712D01*
X61246Y-43712D01*
X61186Y-43697D01*
X61156Y-43682D01*
X61126Y-43652D01*
X61111Y-43607D01*
X61111Y-43577D01*
X61126Y-43532D01*
X61141Y-43517D01*
X61426Y-43217D02*
X61426Y-43397D01*
X61426Y-43307D02*
X61111Y-43307D01*
X61156Y-43337D01*
X61186Y-43367D01*
X61201Y-43397D01*
X72853Y-31974D02*
X72868Y-31989D01*
X72883Y-32034D01*
X72883Y-32064D01*
X72868Y-32109D01*
X72838Y-32139D01*
X72808Y-32154D01*
X72748Y-32169D01*
X72703Y-32169D01*
X72643Y-32154D01*
X72613Y-32139D01*
X72583Y-32109D01*
X72568Y-32064D01*
X72568Y-32034D01*
X72583Y-31989D01*
X72598Y-31974D01*
X72883Y-31674D02*
X72883Y-31854D01*
X72883Y-31764D02*
X72568Y-31764D01*
X72613Y-31794D01*
X72643Y-31824D01*
X72658Y-31854D01*
X72703Y-31494D02*
X72688Y-31524D01*
X72673Y-31539D01*
X72643Y-31554D01*
X72628Y-31554D01*
X72598Y-31539D01*
X72583Y-31524D01*
X72568Y-31494D01*
X72568Y-31434D01*
X72583Y-31404D01*
X72598Y-31389D01*
X72628Y-31374D01*
X72643Y-31374D01*
X72673Y-31389D01*
X72688Y-31404D01*
X72703Y-31434D01*
X72703Y-31494D01*
X72718Y-31524D01*
X72733Y-31539D01*
X72763Y-31554D01*
X72823Y-31554D01*
X72853Y-31539D01*
X72868Y-31524D01*
X72883Y-31494D01*
X72883Y-31434D01*
X72868Y-31404D01*
X72853Y-31389D01*
X72823Y-31374D01*
X72763Y-31374D01*
X72733Y-31389D01*
X72718Y-31404D01*
X72703Y-31434D01*
X70294Y-37473D02*
X70309Y-37488D01*
X70324Y-37533D01*
X70324Y-37563D01*
X70309Y-37608D01*
X70279Y-37638D01*
X70249Y-37653D01*
X70189Y-37668D01*
X70144Y-37668D01*
X70084Y-37653D01*
X70054Y-37638D01*
X70024Y-37608D01*
X70009Y-37563D01*
X70009Y-37533D01*
X70024Y-37488D01*
X70039Y-37473D01*
X70009Y-37188D02*
X70009Y-37338D01*
X70159Y-37353D01*
X70144Y-37338D01*
X70129Y-37308D01*
X70129Y-37233D01*
X70144Y-37203D01*
X70159Y-37188D01*
X70189Y-37173D01*
X70264Y-37173D01*
X70294Y-37188D01*
X70309Y-37203D01*
X70324Y-37233D01*
X70324Y-37308D01*
X70309Y-37338D01*
X70294Y-37353D01*
X71081Y-36902D02*
X71096Y-36917D01*
X71111Y-36962D01*
X71111Y-36992D01*
X71096Y-37037D01*
X71066Y-37067D01*
X71036Y-37082D01*
X70976Y-37097D01*
X70931Y-37097D01*
X70871Y-37082D01*
X70841Y-37067D01*
X70811Y-37037D01*
X70796Y-36992D01*
X70796Y-36962D01*
X70811Y-36917D01*
X70826Y-36902D01*
X70796Y-36632D02*
X70796Y-36692D01*
X70811Y-36722D01*
X70826Y-36737D01*
X70871Y-36767D01*
X70931Y-36782D01*
X71051Y-36782D01*
X71081Y-36767D01*
X71096Y-36752D01*
X71111Y-36722D01*
X71111Y-36662D01*
X71096Y-36632D01*
X71081Y-36617D01*
X71051Y-36602D01*
X70976Y-36602D01*
X70946Y-36617D01*
X70931Y-36632D01*
X70916Y-36662D01*
X70916Y-36722D01*
X70931Y-36752D01*
X70946Y-36767D01*
X70976Y-36782D01*
X62200Y-35333D02*
X62185Y-35348D01*
X62140Y-35363D01*
X62110Y-35363D01*
X62065Y-35348D01*
X62035Y-35318D01*
X62020Y-35288D01*
X62005Y-35228D01*
X62005Y-35183D01*
X62020Y-35123D01*
X62035Y-35093D01*
X62065Y-35063D01*
X62110Y-35048D01*
X62140Y-35048D01*
X62185Y-35063D01*
X62200Y-35078D01*
X62500Y-35363D02*
X62320Y-35363D01*
X62410Y-35363D02*
X62410Y-35048D01*
X62380Y-35093D01*
X62350Y-35123D01*
X62320Y-35138D01*
X62770Y-35048D02*
X62710Y-35048D01*
X62680Y-35063D01*
X62665Y-35078D01*
X62635Y-35123D01*
X62620Y-35183D01*
X62620Y-35303D01*
X62635Y-35333D01*
X62650Y-35348D01*
X62680Y-35363D01*
X62740Y-35363D01*
X62770Y-35348D01*
X62785Y-35333D01*
X62800Y-35303D01*
X62800Y-35228D01*
X62785Y-35198D01*
X62770Y-35183D01*
X62740Y-35168D01*
X62680Y-35168D01*
X62650Y-35183D01*
X62635Y-35198D01*
X62620Y-35228D01*
X65607Y-32538D02*
X65592Y-32553D01*
X65547Y-32568D01*
X65517Y-32568D01*
X65472Y-32553D01*
X65442Y-32523D01*
X65427Y-32493D01*
X65412Y-32433D01*
X65412Y-32388D01*
X65427Y-32328D01*
X65442Y-32298D01*
X65472Y-32268D01*
X65517Y-32253D01*
X65547Y-32253D01*
X65592Y-32268D01*
X65607Y-32283D01*
X65712Y-32253D02*
X65922Y-32253D01*
X65787Y-32568D01*
X65598Y-35333D02*
X65583Y-35348D01*
X65538Y-35363D01*
X65508Y-35363D01*
X65463Y-35348D01*
X65433Y-35318D01*
X65418Y-35288D01*
X65403Y-35228D01*
X65403Y-35183D01*
X65418Y-35123D01*
X65433Y-35093D01*
X65463Y-35063D01*
X65508Y-35048D01*
X65538Y-35048D01*
X65583Y-35063D01*
X65598Y-35078D01*
X65778Y-35183D02*
X65748Y-35168D01*
X65733Y-35153D01*
X65718Y-35123D01*
X65718Y-35108D01*
X65733Y-35078D01*
X65748Y-35063D01*
X65778Y-35048D01*
X65838Y-35048D01*
X65868Y-35063D01*
X65883Y-35078D01*
X65898Y-35108D01*
X65898Y-35123D01*
X65883Y-35153D01*
X65868Y-35168D01*
X65838Y-35183D01*
X65778Y-35183D01*
X65748Y-35198D01*
X65733Y-35213D01*
X65718Y-35243D01*
X65718Y-35303D01*
X65733Y-35333D01*
X65748Y-35348D01*
X65778Y-35363D01*
X65838Y-35363D01*
X65868Y-35348D01*
X65883Y-35333D01*
X65898Y-35303D01*
X65898Y-35243D01*
X65883Y-35213D01*
X65868Y-35198D01*
X65838Y-35183D01*
X67468Y-36121D02*
X67453Y-36136D01*
X67408Y-36151D01*
X67378Y-36151D01*
X67333Y-36136D01*
X67303Y-36106D01*
X67288Y-36076D01*
X67273Y-36016D01*
X67273Y-35971D01*
X67288Y-35911D01*
X67303Y-35881D01*
X67333Y-35851D01*
X67378Y-35836D01*
X67408Y-35836D01*
X67453Y-35851D01*
X67468Y-35866D01*
X67618Y-36151D02*
X67678Y-36151D01*
X67708Y-36136D01*
X67723Y-36121D01*
X67753Y-36076D01*
X67768Y-36016D01*
X67768Y-35896D01*
X67753Y-35866D01*
X67738Y-35851D01*
X67708Y-35836D01*
X67648Y-35836D01*
X67618Y-35851D01*
X67603Y-35866D01*
X67588Y-35896D01*
X67588Y-35971D01*
X67603Y-36001D01*
X67618Y-36016D01*
X67648Y-36031D01*
X67708Y-36031D01*
X67738Y-36016D01*
X67753Y-36001D01*
X67768Y-35971D01*
X62200Y-31691D02*
X62185Y-31706D01*
X62140Y-31721D01*
X62110Y-31721D01*
X62065Y-31706D01*
X62035Y-31676D01*
X62020Y-31646D01*
X62005Y-31586D01*
X62005Y-31541D01*
X62020Y-31481D01*
X62035Y-31451D01*
X62065Y-31421D01*
X62110Y-31406D01*
X62140Y-31406D01*
X62185Y-31421D01*
X62200Y-31436D01*
X62500Y-31721D02*
X62320Y-31721D01*
X62410Y-31721D02*
X62410Y-31406D01*
X62380Y-31451D01*
X62350Y-31481D01*
X62320Y-31496D01*
X62650Y-31721D02*
X62710Y-31721D01*
X62740Y-31706D01*
X62755Y-31691D01*
X62785Y-31646D01*
X62800Y-31586D01*
X62800Y-31466D01*
X62785Y-31436D01*
X62770Y-31421D01*
X62740Y-31406D01*
X62680Y-31406D01*
X62650Y-31421D01*
X62635Y-31436D01*
X62620Y-31466D01*
X62620Y-31541D01*
X62635Y-31571D01*
X62650Y-31586D01*
X62680Y-31601D01*
X62740Y-31601D01*
X62770Y-31586D01*
X62785Y-31571D01*
X62800Y-31541D01*
X70536Y-30599D02*
X70521Y-30614D01*
X70476Y-30629D01*
X70446Y-30629D01*
X70401Y-30614D01*
X70371Y-30584D01*
X70356Y-30554D01*
X70341Y-30494D01*
X70341Y-30449D01*
X70356Y-30389D01*
X70371Y-30359D01*
X70401Y-30329D01*
X70446Y-30314D01*
X70476Y-30314D01*
X70521Y-30329D01*
X70536Y-30344D01*
X70836Y-30629D02*
X70656Y-30629D01*
X70746Y-30629D02*
X70746Y-30314D01*
X70716Y-30359D01*
X70686Y-30389D01*
X70656Y-30404D01*
X71031Y-30314D02*
X71061Y-30314D01*
X71091Y-30329D01*
X71106Y-30344D01*
X71121Y-30374D01*
X71136Y-30434D01*
X71136Y-30509D01*
X71121Y-30569D01*
X71106Y-30599D01*
X71091Y-30614D01*
X71061Y-30629D01*
X71031Y-30629D01*
X71001Y-30614D01*
X70986Y-30599D01*
X70971Y-30569D01*
X70956Y-30509D01*
X70956Y-30434D01*
X70971Y-30374D01*
X70986Y-30344D01*
X71001Y-30329D01*
X71031Y-30314D01*
X65991Y-37695D02*
X65976Y-37710D01*
X65931Y-37725D01*
X65901Y-37725D01*
X65856Y-37710D01*
X65826Y-37680D01*
X65811Y-37650D01*
X65796Y-37590D01*
X65796Y-37545D01*
X65811Y-37485D01*
X65826Y-37455D01*
X65856Y-37425D01*
X65901Y-37410D01*
X65931Y-37410D01*
X65976Y-37425D01*
X65991Y-37440D01*
X66096Y-37410D02*
X66291Y-37410D01*
X66186Y-37530D01*
X66231Y-37530D01*
X66261Y-37545D01*
X66276Y-37560D01*
X66291Y-37590D01*
X66291Y-37665D01*
X66276Y-37695D01*
X66261Y-37710D01*
X66231Y-37725D01*
X66141Y-37725D01*
X66111Y-37710D01*
X66096Y-37695D01*
X70274Y-38635D02*
X70289Y-38650D01*
X70304Y-38695D01*
X70304Y-38725D01*
X70289Y-38770D01*
X70259Y-38800D01*
X70229Y-38815D01*
X70169Y-38830D01*
X70124Y-38830D01*
X70064Y-38815D01*
X70034Y-38800D01*
X70004Y-38770D01*
X69989Y-38725D01*
X69989Y-38695D01*
X70004Y-38650D01*
X70019Y-38635D01*
X70019Y-38515D02*
X70004Y-38500D01*
X69989Y-38470D01*
X69989Y-38395D01*
X70004Y-38365D01*
X70019Y-38350D01*
X70049Y-38335D01*
X70079Y-38335D01*
X70124Y-38350D01*
X70304Y-38530D01*
X70304Y-38335D01*
G54D14*
X56261Y-40959D02*
X56580Y-40959D01*
X56618Y-40940D01*
X56637Y-40922D01*
X56655Y-40884D01*
X56655Y-40809D01*
X56637Y-40772D01*
X56618Y-40753D01*
X56580Y-40734D01*
X56261Y-40734D01*
X56393Y-40377D02*
X56655Y-40377D01*
X56243Y-40471D02*
X56524Y-40565D01*
X56524Y-40321D01*
G54D13*
X70980Y-33670D02*
X70980Y-33925D01*
X70995Y-33955D01*
X71010Y-33970D01*
X71040Y-33985D01*
X71100Y-33985D01*
X71130Y-33970D01*
X71145Y-33955D01*
X71160Y-33925D01*
X71160Y-33670D01*
X71355Y-33805D02*
X71325Y-33790D01*
X71310Y-33775D01*
X71295Y-33745D01*
X71295Y-33730D01*
X71310Y-33700D01*
X71325Y-33685D01*
X71355Y-33670D01*
X71415Y-33670D01*
X71445Y-33685D01*
X71460Y-33700D01*
X71475Y-33730D01*
X71475Y-33745D01*
X71460Y-33775D01*
X71445Y-33790D01*
X71415Y-33805D01*
X71355Y-33805D01*
X71325Y-33820D01*
X71310Y-33835D01*
X71295Y-33865D01*
X71295Y-33925D01*
X71310Y-33955D01*
X71325Y-33970D01*
X71355Y-33985D01*
X71415Y-33985D01*
X71445Y-33970D01*
X71460Y-33955D01*
X71475Y-33925D01*
X71475Y-33865D01*
X71460Y-33835D01*
X71445Y-33820D01*
X71415Y-33805D01*
X59468Y-26977D02*
X59678Y-27292D01*
X59678Y-26977D02*
X59468Y-27292D01*
X59753Y-26977D02*
X59933Y-26977D01*
X59843Y-27292D02*
X59843Y-26977D01*
X60188Y-26977D02*
X60038Y-26977D01*
X60023Y-27127D01*
X60038Y-27112D01*
X60068Y-27097D01*
X60143Y-27097D01*
X60173Y-27112D01*
X60188Y-27127D01*
X60203Y-27157D01*
X60203Y-27232D01*
X60188Y-27262D01*
X60173Y-27277D01*
X60143Y-27292D01*
X60068Y-27292D01*
X60038Y-27277D01*
X60023Y-27262D01*
X55235Y-43099D02*
X55445Y-43414D01*
X55445Y-43099D02*
X55235Y-43414D01*
X55520Y-43099D02*
X55700Y-43099D01*
X55610Y-43414D02*
X55610Y-43099D01*
X55970Y-43414D02*
X55790Y-43414D01*
X55880Y-43414D02*
X55880Y-43099D01*
X55850Y-43144D01*
X55820Y-43174D01*
X55790Y-43189D01*
X54891Y-26044D02*
X55206Y-25834D01*
X54891Y-25834D02*
X55206Y-26044D01*
X54891Y-25759D02*
X54891Y-25579D01*
X55206Y-25669D02*
X54891Y-25669D01*
X54996Y-25339D02*
X55206Y-25339D01*
X54876Y-25414D02*
X55101Y-25489D01*
X55101Y-25294D01*
X66512Y-35658D02*
X66512Y-35913D01*
X66527Y-35943D01*
X66542Y-35958D01*
X66572Y-35973D01*
X66632Y-35973D01*
X66662Y-35958D01*
X66677Y-35943D01*
X66692Y-35913D01*
X66692Y-35658D01*
X66977Y-35658D02*
X66917Y-35658D01*
X66887Y-35673D01*
X66872Y-35688D01*
X66842Y-35733D01*
X66827Y-35793D01*
X66827Y-35913D01*
X66842Y-35943D01*
X66857Y-35958D01*
X66887Y-35973D01*
X66947Y-35973D01*
X66977Y-35958D01*
X66992Y-35943D01*
X67007Y-35913D01*
X67007Y-35838D01*
X66992Y-35808D01*
X66977Y-35793D01*
X66947Y-35778D01*
X66887Y-35778D01*
X66857Y-35793D01*
X66842Y-35808D01*
X66827Y-35838D01*
M02*
