G04 (created by PCBNEW-RS274X (2012-01-19 BZR 3256)-stable) date Thu 07 Jun 2012 01:37:20 PM EEST*
G01*
G70*
G90*
%MOIN*%
G04 Gerber Fmt 3.4, Leading zero omitted, Abs format*
%FSLAX34Y34*%
G04 APERTURE LIST*
%ADD10C,0.006000*%
%ADD11C,0.015000*%
%ADD12C,0.000400*%
%ADD13C,0.009800*%
G04 APERTURE END LIST*
G54D10*
G54D11*
X57676Y-26379D02*
X57662Y-26297D01*
X57641Y-26217D01*
X57614Y-26138D01*
X57579Y-26063D01*
X57538Y-25991D01*
X57491Y-25922D01*
X57438Y-25858D01*
X57380Y-25799D01*
X57316Y-25745D01*
X57249Y-25697D01*
X57177Y-25655D01*
X57102Y-25620D01*
X57024Y-25591D01*
X56944Y-25569D01*
X56862Y-25554D01*
X56780Y-25546D01*
X56698Y-25545D01*
X56615Y-25552D01*
X56533Y-25566D01*
X56453Y-25587D01*
X56374Y-25614D01*
X56299Y-25649D01*
X56227Y-25690D01*
X56158Y-25737D01*
X56094Y-25790D01*
X56035Y-25848D01*
X55981Y-25912D01*
X55933Y-25979D01*
X55891Y-26051D01*
X55856Y-26126D01*
X55827Y-26204D01*
X55805Y-26284D01*
X55790Y-26366D01*
X55782Y-26448D01*
X55781Y-26530D01*
X55788Y-26613D01*
X55802Y-26695D01*
X55823Y-26775D01*
X55850Y-26854D01*
X55885Y-26929D01*
X55926Y-27001D01*
X55973Y-27070D01*
X56026Y-27134D01*
X56084Y-27193D01*
X56148Y-27247D01*
X56215Y-27295D01*
X56287Y-27337D01*
X56362Y-27372D01*
X56440Y-27401D01*
X56520Y-27423D01*
X56602Y-27438D01*
X56684Y-27446D01*
X56766Y-27447D01*
X56849Y-27440D01*
X56931Y-27426D01*
X57011Y-27405D01*
X57090Y-27378D01*
X57165Y-27343D01*
X57237Y-27302D01*
X57306Y-27255D01*
X57370Y-27202D01*
X57429Y-27144D01*
X57483Y-27080D01*
X57531Y-27013D01*
X57573Y-26941D01*
X57608Y-26866D01*
X57637Y-26788D01*
X57659Y-26708D01*
X57674Y-26626D01*
X57682Y-26544D01*
X57683Y-26462D01*
X57676Y-26379D01*
X75197Y-40354D02*
X75178Y-40545D01*
X75122Y-40728D01*
X75032Y-40898D01*
X74911Y-41047D01*
X74763Y-41169D01*
X74594Y-41261D01*
X74410Y-41317D01*
X74219Y-41337D01*
X74029Y-41320D01*
X73845Y-41266D01*
X73675Y-41177D01*
X73525Y-41057D01*
X73402Y-40909D01*
X73309Y-40741D01*
X73251Y-40558D01*
X73230Y-40367D01*
X73246Y-40177D01*
X73299Y-39992D01*
X73386Y-39821D01*
X73506Y-39671D01*
X73652Y-39546D01*
X73820Y-39453D01*
X74002Y-39393D01*
X74193Y-39371D01*
X74383Y-39385D01*
X74568Y-39437D01*
X74740Y-39524D01*
X74891Y-39642D01*
X75017Y-39787D01*
X75111Y-39954D01*
X75172Y-40136D01*
X75196Y-40327D01*
X75197Y-40354D01*
G54D12*
X62579Y-26220D02*
X62579Y-24705D01*
G54D13*
X50802Y-45386D02*
X50671Y-45386D01*
X50671Y-45592D02*
X50671Y-45198D01*
X50858Y-45198D01*
X51234Y-45592D02*
X51103Y-45405D01*
X51009Y-45592D02*
X51009Y-45198D01*
X51159Y-45198D01*
X51196Y-45217D01*
X51215Y-45236D01*
X51234Y-45274D01*
X51234Y-45330D01*
X51215Y-45367D01*
X51196Y-45386D01*
X51159Y-45405D01*
X51009Y-45405D01*
X51572Y-45330D02*
X51572Y-45592D01*
X51478Y-45180D02*
X51384Y-45461D01*
X51628Y-45461D01*
X52359Y-45180D02*
X52022Y-45686D01*
X52997Y-45592D02*
X52772Y-45592D01*
X52885Y-45592D02*
X52885Y-45198D01*
X52847Y-45255D01*
X52810Y-45292D01*
X52772Y-45311D01*
X53166Y-45592D02*
X53166Y-45330D01*
X53166Y-45367D02*
X53185Y-45349D01*
X53222Y-45330D01*
X53278Y-45330D01*
X53316Y-45349D01*
X53335Y-45386D01*
X53335Y-45592D01*
X53335Y-45386D02*
X53353Y-45349D01*
X53391Y-45330D01*
X53447Y-45330D01*
X53485Y-45349D01*
X53504Y-45386D01*
X53504Y-45592D01*
X53691Y-45592D02*
X53691Y-45330D01*
X53691Y-45367D02*
X53710Y-45349D01*
X53747Y-45330D01*
X53803Y-45330D01*
X53841Y-45349D01*
X53860Y-45386D01*
X53860Y-45592D01*
X53860Y-45386D02*
X53878Y-45349D01*
X53916Y-45330D01*
X53972Y-45330D01*
X54010Y-45349D01*
X54029Y-45386D01*
X54029Y-45592D01*
X54460Y-45330D02*
X54610Y-45330D01*
X54516Y-45198D02*
X54516Y-45536D01*
X54535Y-45574D01*
X54572Y-45592D01*
X54610Y-45592D01*
X54741Y-45592D02*
X54741Y-45198D01*
X54910Y-45592D02*
X54910Y-45386D01*
X54891Y-45349D01*
X54853Y-45330D01*
X54797Y-45330D01*
X54760Y-45349D01*
X54741Y-45367D01*
X55097Y-45592D02*
X55097Y-45330D01*
X55097Y-45198D02*
X55078Y-45217D01*
X55097Y-45236D01*
X55116Y-45217D01*
X55097Y-45198D01*
X55097Y-45236D01*
X55454Y-45574D02*
X55416Y-45592D01*
X55341Y-45592D01*
X55304Y-45574D01*
X55285Y-45555D01*
X55266Y-45517D01*
X55266Y-45405D01*
X55285Y-45367D01*
X55304Y-45349D01*
X55341Y-45330D01*
X55416Y-45330D01*
X55454Y-45349D01*
X55623Y-45592D02*
X55623Y-45198D01*
X55660Y-45442D02*
X55773Y-45592D01*
X55773Y-45330D02*
X55623Y-45480D01*
X55942Y-45330D02*
X55942Y-45592D01*
X55942Y-45367D02*
X55961Y-45349D01*
X55998Y-45330D01*
X56054Y-45330D01*
X56092Y-45349D01*
X56111Y-45386D01*
X56111Y-45592D01*
X56448Y-45574D02*
X56410Y-45592D01*
X56335Y-45592D01*
X56298Y-45574D01*
X56279Y-45536D01*
X56279Y-45386D01*
X56298Y-45349D01*
X56335Y-45330D01*
X56410Y-45330D01*
X56448Y-45349D01*
X56467Y-45386D01*
X56467Y-45424D01*
X56279Y-45461D01*
X56617Y-45574D02*
X56655Y-45592D01*
X56730Y-45592D01*
X56767Y-45574D01*
X56786Y-45536D01*
X56786Y-45517D01*
X56767Y-45480D01*
X56730Y-45461D01*
X56673Y-45461D01*
X56636Y-45442D01*
X56617Y-45405D01*
X56617Y-45386D01*
X56636Y-45349D01*
X56673Y-45330D01*
X56730Y-45330D01*
X56767Y-45349D01*
X56936Y-45574D02*
X56974Y-45592D01*
X57049Y-45592D01*
X57086Y-45574D01*
X57105Y-45536D01*
X57105Y-45517D01*
X57086Y-45480D01*
X57049Y-45461D01*
X56992Y-45461D01*
X56955Y-45442D01*
X56936Y-45405D01*
X56936Y-45386D01*
X56955Y-45349D01*
X56992Y-45330D01*
X57049Y-45330D01*
X57086Y-45349D01*
M02*
