G04 (created by PCBNEW-RS274X (2012-01-19 BZR 3256)-stable) date Thu 07 Jun 2012 01:37:20 PM EEST*
G01*
G70*
G90*
%MOIN*%
G04 Gerber Fmt 3.4, Leading zero omitted, Abs format*
%FSLAX34Y34*%
G04 APERTURE LIST*
%ADD10C,0.006000*%
%ADD11C,0.009800*%
%ADD12C,0.000400*%
G04 APERTURE END LIST*
G54D10*
G54D11*
X73770Y-44982D02*
X73770Y-44588D01*
X73920Y-44588D01*
X73957Y-44607D01*
X73976Y-44626D01*
X73995Y-44664D01*
X73995Y-44720D01*
X73976Y-44757D01*
X73957Y-44776D01*
X73920Y-44795D01*
X73770Y-44795D01*
X74389Y-44945D02*
X74370Y-44964D01*
X74314Y-44982D01*
X74276Y-44982D01*
X74220Y-44964D01*
X74183Y-44926D01*
X74164Y-44889D01*
X74145Y-44814D01*
X74145Y-44757D01*
X74164Y-44682D01*
X74183Y-44645D01*
X74220Y-44607D01*
X74276Y-44588D01*
X74314Y-44588D01*
X74370Y-44607D01*
X74389Y-44626D01*
X74689Y-44776D02*
X74745Y-44795D01*
X74764Y-44814D01*
X74783Y-44851D01*
X74783Y-44907D01*
X74764Y-44945D01*
X74745Y-44964D01*
X74708Y-44982D01*
X74558Y-44982D01*
X74558Y-44588D01*
X74689Y-44588D01*
X74727Y-44607D01*
X74745Y-44626D01*
X74764Y-44664D01*
X74764Y-44701D01*
X74745Y-44739D01*
X74727Y-44757D01*
X74689Y-44776D01*
X74558Y-44776D01*
X75252Y-44776D02*
X75383Y-44776D01*
X75439Y-44982D02*
X75252Y-44982D01*
X75252Y-44588D01*
X75439Y-44588D01*
X75608Y-44982D02*
X75608Y-44588D01*
X75702Y-44588D01*
X75758Y-44607D01*
X75795Y-44645D01*
X75814Y-44682D01*
X75833Y-44757D01*
X75833Y-44814D01*
X75814Y-44889D01*
X75795Y-44926D01*
X75758Y-44964D01*
X75702Y-44982D01*
X75608Y-44982D01*
X76208Y-44607D02*
X76171Y-44588D01*
X76114Y-44588D01*
X76058Y-44607D01*
X76021Y-44645D01*
X76002Y-44682D01*
X75983Y-44757D01*
X75983Y-44814D01*
X76002Y-44889D01*
X76021Y-44926D01*
X76058Y-44964D01*
X76114Y-44982D01*
X76152Y-44982D01*
X76208Y-44964D01*
X76227Y-44945D01*
X76227Y-44814D01*
X76152Y-44814D01*
X76396Y-44776D02*
X76527Y-44776D01*
X76583Y-44982D02*
X76396Y-44982D01*
X76396Y-44588D01*
X76583Y-44588D01*
X76733Y-44964D02*
X76789Y-44982D01*
X76883Y-44982D01*
X76921Y-44964D01*
X76939Y-44945D01*
X76958Y-44907D01*
X76958Y-44870D01*
X76939Y-44832D01*
X76921Y-44814D01*
X76883Y-44795D01*
X76808Y-44776D01*
X76771Y-44757D01*
X76752Y-44739D01*
X76733Y-44701D01*
X76733Y-44664D01*
X76752Y-44626D01*
X76771Y-44607D01*
X76808Y-44588D01*
X76902Y-44588D01*
X76958Y-44607D01*
G54D12*
X50640Y-44360D02*
X77244Y-44360D01*
X50640Y-24537D02*
X77244Y-24537D01*
X50640Y-44360D02*
X50640Y-24537D01*
X77244Y-44360D02*
X77244Y-24537D01*
M02*
