G04 (created by PCBNEW-RS274X (2012-01-19 BZR 3256)-stable) date Thu 07 Jun 2012 01:37:20 PM EEST*
G01*
G70*
G90*
%MOIN*%
G04 Gerber Fmt 3.4, Leading zero omitted, Abs format*
%FSLAX34Y34*%
G04 APERTURE LIST*
%ADD10C,0.006000*%
%ADD11C,0.009800*%
%ADD12R,0.036000X0.036000*%
%ADD13O,0.074800X0.074800*%
%ADD14O,0.118100X0.118100*%
%ADD15R,0.039400X0.035400*%
%ADD16R,0.070900X0.070900*%
%ADD17C,0.070900*%
%ADD18R,0.118100X0.049200*%
%ADD19R,0.055100X0.055100*%
%ADD20C,0.055100*%
%ADD21R,0.035400X0.039400*%
%ADD22C,0.060000*%
%ADD23C,0.106300*%
%ADD24R,0.224400X0.189000*%
%ADD25C,0.063000*%
%ADD26C,0.078700*%
%ADD27C,0.039400*%
%ADD28C,0.141700*%
%ADD29C,0.007900*%
%ADD30C,0.008000*%
%ADD31C,0.011800*%
%ADD32C,0.019700*%
%ADD33C,0.031500*%
G04 APERTURE END LIST*
G54D10*
G54D11*
X54019Y-44777D02*
X53963Y-44796D01*
X53944Y-44815D01*
X53925Y-44852D01*
X53925Y-44908D01*
X53944Y-44946D01*
X53963Y-44965D01*
X54000Y-44983D01*
X54150Y-44983D01*
X54150Y-44589D01*
X54019Y-44589D01*
X53981Y-44608D01*
X53963Y-44627D01*
X53944Y-44665D01*
X53944Y-44702D01*
X53963Y-44740D01*
X53981Y-44758D01*
X54019Y-44777D01*
X54150Y-44777D01*
X53775Y-44871D02*
X53587Y-44871D01*
X53812Y-44983D02*
X53681Y-44589D01*
X53550Y-44983D01*
X53193Y-44946D02*
X53212Y-44965D01*
X53268Y-44983D01*
X53306Y-44983D01*
X53362Y-44965D01*
X53399Y-44927D01*
X53418Y-44890D01*
X53437Y-44815D01*
X53437Y-44758D01*
X53418Y-44683D01*
X53399Y-44646D01*
X53362Y-44608D01*
X53306Y-44589D01*
X53268Y-44589D01*
X53212Y-44608D01*
X53193Y-44627D01*
X53024Y-44983D02*
X53024Y-44589D01*
X52799Y-44983D02*
X52968Y-44758D01*
X52799Y-44589D02*
X53024Y-44815D01*
G54D12*
X63065Y-37957D03*
X63065Y-38657D03*
X63865Y-38307D03*
G54D13*
X75059Y-33101D03*
G54D14*
X73858Y-31900D03*
X76260Y-31900D03*
X76260Y-34302D03*
X73858Y-34302D03*
G54D15*
X58016Y-31733D03*
X58016Y-31141D03*
X63878Y-38917D03*
X63878Y-39509D03*
X64370Y-38917D03*
X64370Y-39509D03*
G54D16*
X65579Y-43610D03*
G54D17*
X66579Y-43610D03*
X67579Y-43610D03*
X68579Y-43610D03*
X69579Y-43610D03*
X70579Y-43610D03*
X71579Y-43610D03*
X72579Y-43610D03*
X73579Y-43610D03*
X74579Y-43610D03*
X74579Y-42610D03*
X73579Y-42610D03*
X72579Y-42610D03*
X71579Y-42610D03*
X70579Y-42610D03*
X69579Y-42610D03*
X68579Y-42610D03*
X67579Y-42610D03*
X66579Y-42610D03*
X65579Y-42610D03*
G54D16*
X65579Y-26287D03*
G54D17*
X66579Y-26287D03*
X67579Y-26287D03*
X68579Y-26287D03*
X69579Y-26287D03*
X70579Y-26287D03*
X71579Y-26287D03*
X72579Y-26287D03*
X73579Y-26287D03*
X74579Y-26287D03*
X74579Y-25287D03*
X73579Y-25287D03*
X72579Y-25287D03*
X71579Y-25287D03*
X70579Y-25287D03*
X69579Y-25287D03*
X68579Y-25287D03*
X67579Y-25287D03*
X66579Y-25287D03*
X65579Y-25287D03*
G54D18*
X56791Y-40541D03*
X56791Y-42607D03*
G54D19*
X63402Y-42610D03*
G54D20*
X63402Y-43610D03*
G54D19*
X58574Y-42622D03*
G54D20*
X59574Y-42622D03*
G54D19*
X62402Y-42610D03*
G54D20*
X62402Y-43610D03*
G54D21*
X58228Y-32903D03*
X58820Y-32903D03*
G54D16*
X60575Y-26287D03*
G54D17*
X61575Y-26287D03*
X62575Y-26287D03*
X62575Y-25287D03*
X61575Y-25287D03*
X60575Y-25287D03*
G54D22*
X55137Y-41071D03*
X55137Y-40071D03*
X54350Y-40071D03*
X54350Y-41071D03*
G54D23*
X53287Y-42933D03*
X53287Y-38209D03*
G54D16*
X54280Y-27799D03*
G54D17*
X53280Y-27799D03*
X54280Y-28799D03*
X53280Y-28799D03*
X54280Y-29799D03*
X53280Y-29799D03*
X54280Y-30799D03*
X53280Y-30799D03*
X54280Y-31799D03*
X53280Y-31799D03*
X54280Y-32799D03*
X53280Y-32799D03*
X54280Y-33799D03*
X53280Y-33799D03*
X54280Y-34799D03*
X53280Y-34799D03*
G54D24*
X68699Y-33387D03*
G54D25*
X69447Y-33958D03*
X68699Y-33958D03*
X67951Y-33958D03*
X69447Y-33387D03*
X68699Y-33387D03*
X67951Y-33387D03*
X69447Y-32816D03*
X68699Y-32816D03*
X67951Y-32816D03*
G54D26*
X58031Y-30404D03*
X60591Y-28632D03*
X58031Y-28632D03*
X60591Y-30404D03*
G54D27*
X51673Y-42185D03*
X58524Y-43760D03*
X69449Y-28858D03*
X76772Y-35433D03*
X74803Y-36220D03*
X72835Y-38583D03*
X76811Y-43937D03*
X74016Y-35433D03*
X74409Y-37402D03*
X76772Y-36220D03*
X51654Y-27343D03*
X72933Y-40472D03*
X75079Y-34921D03*
X75984Y-38976D03*
X75984Y-37402D03*
X51673Y-39429D03*
X73622Y-37402D03*
X64665Y-41437D03*
X62402Y-39055D03*
X62874Y-39311D03*
X63504Y-40138D03*
X62874Y-39882D03*
X74823Y-34252D03*
X51673Y-33642D03*
X74016Y-38583D03*
X76772Y-37008D03*
X76772Y-38583D03*
X75984Y-40157D03*
X51929Y-24980D03*
X51929Y-26102D03*
X76772Y-41732D03*
X72933Y-39646D03*
X75591Y-35433D03*
X76004Y-43937D03*
X51673Y-43720D03*
X74803Y-41732D03*
X72589Y-33711D03*
X51673Y-36713D03*
X76772Y-39370D03*
X75984Y-36220D03*
X76772Y-40945D03*
X72835Y-37402D03*
X61388Y-43967D03*
X76378Y-43169D03*
X75197Y-38583D03*
X75984Y-41339D03*
X60217Y-43760D03*
X75984Y-42520D03*
X76772Y-40157D03*
X75325Y-34262D03*
X54606Y-43740D03*
X76772Y-37795D03*
X51673Y-30610D03*
X56693Y-43740D03*
X76772Y-42520D03*
X53150Y-24980D03*
X75197Y-37402D03*
X58179Y-33996D03*
X58002Y-37165D03*
X58681Y-33996D03*
X58386Y-37835D03*
X56289Y-35030D03*
X63622Y-34508D03*
X63602Y-33957D03*
X62953Y-33287D03*
X62972Y-32323D03*
X63051Y-31791D03*
X62618Y-32894D03*
X68041Y-29114D03*
X65492Y-29154D03*
X66014Y-29311D03*
X67884Y-29577D03*
X63898Y-36772D03*
X67028Y-30551D03*
X68740Y-29547D03*
X64409Y-36772D03*
X64921Y-36772D03*
X65433Y-36772D03*
X65955Y-36742D03*
X66457Y-36772D03*
X64528Y-33602D03*
X64094Y-34508D03*
X57409Y-31059D03*
X56634Y-31063D03*
X64587Y-30837D03*
X70059Y-29508D03*
X71614Y-29409D03*
X57766Y-32372D03*
X63907Y-35955D03*
X56417Y-32854D03*
X64783Y-35925D03*
X64370Y-37776D03*
X70728Y-38248D03*
X70689Y-37441D03*
X70728Y-40492D03*
X70728Y-39921D03*
X70236Y-40492D03*
X77028Y-32736D03*
X71929Y-34154D03*
X72431Y-31535D03*
X72982Y-31535D03*
X71949Y-31358D03*
G54D28*
X56732Y-26496D03*
G54D27*
X59016Y-32264D03*
X70728Y-39055D03*
X69016Y-30768D03*
X72470Y-34173D03*
X60551Y-32903D03*
X62677Y-40669D03*
X65079Y-35118D03*
X66969Y-36457D03*
X72451Y-31998D03*
X57047Y-41831D03*
G54D28*
X74213Y-40354D03*
G54D27*
X58720Y-34577D03*
X73002Y-32018D03*
X71289Y-32864D03*
X72992Y-33976D03*
X67520Y-40276D03*
X68307Y-39232D03*
X66890Y-40157D03*
X69646Y-39232D03*
X56319Y-41339D03*
X65984Y-39232D03*
X75335Y-31949D03*
X63287Y-27224D03*
X56339Y-39075D03*
X65315Y-31161D03*
X63022Y-41201D03*
X66358Y-39646D03*
X72441Y-35433D03*
X61417Y-27953D03*
X68268Y-40276D03*
X61319Y-29469D03*
X72835Y-30315D03*
X68996Y-39232D03*
X64843Y-31949D03*
X72835Y-36220D03*
X68976Y-40276D03*
X77028Y-33543D03*
X76772Y-28346D03*
X72047Y-29921D03*
X59724Y-27618D03*
X72559Y-34823D03*
X72077Y-34833D03*
X75984Y-29528D03*
X75984Y-28346D03*
X76772Y-25984D03*
X72047Y-30709D03*
X74803Y-29528D03*
X56319Y-39783D03*
X74803Y-31949D03*
X73081Y-34823D03*
X73622Y-30709D03*
X75591Y-27165D03*
X75591Y-25984D03*
X74409Y-27559D03*
X72362Y-29213D03*
X76772Y-29528D03*
X76772Y-30709D03*
X75984Y-30709D03*
X76772Y-27165D03*
X74803Y-28346D03*
X73622Y-29528D03*
X71654Y-28740D03*
X75591Y-24980D03*
X76772Y-24980D03*
X73622Y-36220D03*
X73228Y-28346D03*
X74803Y-30709D03*
X65118Y-29498D03*
X66004Y-30965D03*
X68976Y-30236D03*
X62461Y-37224D03*
X64154Y-35059D03*
X60541Y-33573D03*
X61900Y-37844D03*
X57755Y-42607D03*
X57756Y-32903D03*
X59193Y-34970D03*
G54D29*
X72933Y-39646D02*
X72933Y-40472D01*
X73819Y-38937D02*
X73150Y-38937D01*
X56693Y-43740D02*
X56713Y-43760D01*
X76093Y-41605D02*
X76093Y-40738D01*
X75197Y-38583D02*
X75138Y-38917D01*
X75798Y-38130D02*
X76772Y-37795D01*
G54D30*
X72372Y-34213D02*
X71900Y-34213D01*
X74823Y-35630D02*
X74823Y-35177D01*
X74016Y-35433D02*
X74213Y-35630D01*
X74213Y-35630D02*
X74823Y-35630D01*
X75591Y-35433D02*
X76211Y-35620D01*
G54D29*
X51673Y-39429D02*
X51673Y-42185D01*
X76772Y-36220D02*
X76772Y-36999D01*
X76112Y-43869D02*
X76004Y-43937D01*
X76772Y-36999D02*
X76772Y-37008D01*
X51300Y-43740D02*
X54606Y-43740D01*
X62874Y-39882D02*
X62874Y-39311D01*
X63504Y-40689D02*
X63504Y-40138D01*
X63524Y-40709D02*
X63504Y-40689D01*
X76624Y-38898D02*
X75984Y-38976D01*
X76772Y-42520D02*
X76772Y-43307D01*
X74016Y-38583D02*
X73819Y-38937D01*
X75984Y-42520D02*
X74803Y-41732D01*
X75984Y-36220D02*
X76132Y-36417D01*
X72835Y-38583D02*
X72992Y-38061D01*
X76772Y-38583D02*
X76624Y-38898D01*
X74941Y-37215D02*
X74951Y-37126D01*
G54D30*
X72372Y-34006D02*
X72589Y-33711D01*
G54D29*
X74173Y-36417D02*
X74803Y-36220D01*
X76772Y-40945D02*
X76850Y-41269D01*
X74409Y-37402D02*
X75049Y-38091D01*
X51673Y-33642D02*
X51673Y-36713D01*
X76250Y-37136D02*
X75984Y-37402D01*
G54D30*
X74823Y-35630D02*
X74823Y-34252D01*
G54D29*
X51654Y-27343D02*
X51673Y-30610D01*
X73622Y-37402D02*
X72835Y-37402D01*
G54D30*
X74823Y-35177D02*
X75079Y-34921D01*
G54D29*
X74951Y-37126D02*
X74409Y-37402D01*
G54D30*
X72372Y-34213D02*
X72372Y-34006D01*
G54D29*
X56713Y-43760D02*
X58524Y-43760D01*
X76772Y-39370D02*
X76772Y-40157D01*
X76093Y-40738D02*
X75984Y-41339D01*
X76850Y-41269D02*
X76772Y-41732D01*
X75197Y-37402D02*
X75798Y-38130D01*
X60591Y-43386D02*
X61388Y-43967D01*
X75138Y-38917D02*
X74469Y-38917D01*
X60217Y-43760D02*
X60591Y-43386D01*
X76280Y-37234D02*
X76250Y-37136D01*
X51929Y-24980D02*
X51929Y-26102D01*
X51673Y-43720D02*
X51300Y-43740D01*
X75984Y-42520D02*
X76093Y-41605D01*
X72992Y-38061D02*
X73622Y-38061D01*
X76772Y-43307D02*
X76378Y-43169D01*
X76811Y-43937D02*
X76112Y-43869D01*
X56053Y-33996D02*
X58179Y-33996D01*
X55128Y-33071D02*
X55128Y-32116D01*
G54D31*
X58179Y-33996D02*
X58179Y-36988D01*
G54D29*
X54811Y-31799D02*
X55128Y-32116D01*
X54280Y-31799D02*
X54811Y-31799D01*
G54D31*
X58179Y-36988D02*
X58002Y-37165D01*
G54D29*
X56053Y-33996D02*
X55128Y-33071D01*
X53790Y-31299D02*
X54557Y-31299D01*
X54557Y-31299D02*
X55295Y-32037D01*
X55295Y-32037D02*
X55295Y-32962D01*
X55295Y-32962D02*
X55975Y-33642D01*
X53280Y-31799D02*
X53290Y-31799D01*
X58031Y-33642D02*
X58327Y-33642D01*
X53280Y-31799D02*
X53280Y-31803D01*
X53290Y-31799D02*
X53790Y-31299D01*
G54D31*
X58681Y-33996D02*
X58386Y-34291D01*
G54D29*
X58327Y-33642D02*
X58681Y-33996D01*
X55975Y-33642D02*
X58031Y-33642D01*
G54D31*
X58386Y-34291D02*
X58386Y-37835D01*
G54D29*
X54817Y-32799D02*
X54970Y-32952D01*
X54817Y-32799D02*
X54280Y-32799D01*
X54970Y-33160D02*
X56289Y-34479D01*
X56289Y-34479D02*
X56289Y-35030D01*
X54970Y-32952D02*
X54970Y-33160D01*
X63917Y-31339D02*
X63917Y-29488D01*
X63917Y-34213D02*
X63622Y-34508D01*
X63917Y-33150D02*
X63917Y-34213D01*
X70798Y-27805D02*
X72087Y-26516D01*
X65600Y-27805D02*
X70798Y-27805D01*
X64704Y-28701D02*
X63917Y-29488D01*
G54D30*
X72087Y-25779D02*
X72579Y-25287D01*
X72087Y-26516D02*
X72087Y-25779D01*
G54D29*
X63917Y-31339D02*
X63917Y-31339D01*
X63917Y-31339D02*
X63917Y-33150D01*
X64704Y-28701D02*
X65600Y-27805D01*
G54D30*
X71083Y-25783D02*
X71579Y-25287D01*
G54D29*
X64626Y-28543D02*
X65541Y-27628D01*
X64625Y-28543D02*
X63740Y-29428D01*
X64625Y-28543D02*
X64626Y-28543D01*
X65541Y-27628D02*
X69961Y-27628D01*
X63740Y-31398D02*
X63740Y-29428D01*
X63740Y-31398D02*
X63740Y-31398D01*
G54D30*
X71083Y-26506D02*
X71083Y-25783D01*
G54D29*
X69961Y-27628D02*
X71083Y-26506D01*
X63740Y-33012D02*
X63740Y-33780D01*
X63740Y-31398D02*
X63740Y-33012D01*
X63740Y-33780D02*
X63602Y-33957D01*
G54D30*
X70079Y-25787D02*
X70579Y-25287D01*
G54D29*
X63563Y-32677D02*
X62953Y-33287D01*
X64547Y-28385D02*
X64979Y-27953D01*
X63563Y-31496D02*
X63563Y-29369D01*
X63563Y-31496D02*
X63563Y-31496D01*
G54D30*
X69133Y-27461D02*
X65471Y-27461D01*
G54D29*
X64546Y-28386D02*
X63563Y-29369D01*
G54D30*
X65471Y-27461D02*
X64979Y-27953D01*
G54D29*
X63563Y-31496D02*
X63563Y-32677D01*
X64547Y-28386D02*
X64546Y-28386D01*
G54D30*
X70079Y-26515D02*
X69133Y-27461D01*
G54D29*
X64547Y-28386D02*
X64547Y-28385D01*
G54D30*
X70079Y-25787D02*
X70079Y-26515D01*
X65395Y-27283D02*
X68359Y-27283D01*
X68359Y-27283D02*
X69075Y-26567D01*
G54D29*
X63386Y-31574D02*
X63386Y-31574D01*
G54D30*
X69075Y-26567D02*
X69075Y-25791D01*
G54D29*
X63386Y-31909D02*
X62972Y-32323D01*
G54D30*
X63386Y-29292D02*
X65395Y-27283D01*
X63386Y-29310D02*
X63386Y-29292D01*
G54D29*
X63386Y-29310D02*
X63387Y-29310D01*
G54D30*
X69075Y-25791D02*
X69579Y-25287D01*
G54D29*
X63386Y-31574D02*
X63386Y-29310D01*
X63386Y-31574D02*
X63386Y-31909D01*
G54D30*
X68071Y-25795D02*
X68579Y-25287D01*
G54D29*
X63052Y-31791D02*
X63228Y-31615D01*
X63228Y-29213D02*
X64371Y-28070D01*
X63228Y-31615D02*
X63228Y-29213D01*
G54D30*
X68071Y-26564D02*
X67529Y-27106D01*
X68071Y-25795D02*
X68071Y-26564D01*
G54D29*
X64371Y-28070D02*
X65335Y-27106D01*
X67529Y-27106D02*
X65335Y-27106D01*
X63051Y-31791D02*
X63052Y-31791D01*
G54D30*
X67087Y-26605D02*
X66753Y-26939D01*
X67087Y-25779D02*
X67087Y-26605D01*
G54D29*
X65266Y-26939D02*
X66753Y-26939D01*
X64293Y-27912D02*
X65266Y-26939D01*
X64291Y-27913D02*
X64293Y-27913D01*
G54D30*
X67579Y-25287D02*
X67087Y-25779D01*
G54D29*
X64293Y-27912D02*
X64293Y-27913D01*
X63071Y-29134D02*
X63071Y-31280D01*
X62618Y-31732D02*
X62618Y-32894D01*
X64292Y-27914D02*
X63071Y-29134D01*
X64293Y-27913D02*
X64292Y-27914D01*
X63071Y-31280D02*
X62618Y-31732D01*
X65709Y-28937D02*
X67864Y-28937D01*
X67864Y-28937D02*
X68041Y-29114D01*
X65492Y-29154D02*
X65709Y-28937D01*
X67607Y-29103D02*
X67697Y-29193D01*
X67697Y-29193D02*
X67697Y-29390D01*
G54D30*
X66221Y-29103D02*
X66014Y-29311D01*
G54D29*
X66221Y-29103D02*
X67607Y-29103D01*
X67697Y-29390D02*
X67884Y-29577D01*
X69579Y-43605D02*
X69075Y-43101D01*
G54D30*
X66613Y-41781D02*
X68483Y-41781D01*
X64685Y-39804D02*
X64685Y-39853D01*
X69075Y-43101D02*
X69075Y-42373D01*
G54D29*
X64685Y-37559D02*
X63898Y-36772D01*
G54D30*
X68483Y-41781D02*
X69075Y-42373D01*
G54D29*
X63898Y-36772D02*
X63898Y-36772D01*
X69579Y-43610D02*
X69579Y-43605D01*
X64685Y-39804D02*
X64685Y-37894D01*
G54D30*
X64685Y-39853D02*
X66613Y-41781D01*
G54D29*
X64685Y-37894D02*
X64685Y-37559D01*
G54D30*
X68209Y-30551D02*
X68346Y-30414D01*
X68346Y-29941D02*
X68740Y-29547D01*
X67028Y-30551D02*
X67480Y-30551D01*
X68346Y-30414D02*
X68346Y-29941D01*
X67480Y-30551D02*
X68209Y-30551D01*
G54D29*
X70578Y-43610D02*
X70079Y-43111D01*
G54D30*
X70079Y-42412D02*
X69281Y-41614D01*
X70079Y-43111D02*
X70079Y-42412D01*
G54D29*
X64409Y-37049D02*
X64409Y-36772D01*
X64843Y-37483D02*
X64409Y-37049D01*
X64843Y-39725D02*
X64843Y-37483D01*
G54D30*
X64843Y-39725D02*
X64843Y-39784D01*
X64843Y-39784D02*
X66673Y-41614D01*
G54D29*
X70578Y-43610D02*
X70579Y-43610D01*
G54D30*
X69281Y-41614D02*
X66682Y-41614D01*
X66682Y-41614D02*
X66673Y-41614D01*
G54D29*
X65118Y-37382D02*
X65118Y-36968D01*
X71579Y-43606D02*
X71083Y-43110D01*
X65000Y-39645D02*
X65000Y-37500D01*
G54D30*
X66732Y-41447D02*
X70227Y-41447D01*
G54D29*
X65000Y-37500D02*
X65118Y-37382D01*
G54D30*
X65000Y-39715D02*
X66732Y-41447D01*
G54D29*
X65118Y-36968D02*
X64921Y-36772D01*
X71579Y-43610D02*
X71579Y-43606D01*
G54D30*
X65000Y-39645D02*
X65000Y-39715D01*
X70227Y-41447D02*
X71083Y-42303D01*
X71083Y-42303D02*
X71083Y-43110D01*
X65158Y-39568D02*
X65158Y-39637D01*
X71054Y-41280D02*
X72087Y-42313D01*
G54D29*
X65158Y-37578D02*
X65433Y-37303D01*
X65433Y-37303D02*
X65433Y-36772D01*
G54D30*
X72087Y-42313D02*
X72087Y-43120D01*
X65158Y-39637D02*
X66801Y-41280D01*
G54D29*
X65158Y-39568D02*
X65158Y-37578D01*
X72577Y-43610D02*
X72087Y-43120D01*
X72579Y-43610D02*
X72577Y-43610D01*
G54D30*
X66801Y-41280D02*
X71054Y-41280D01*
X73081Y-42402D02*
X73081Y-43112D01*
X73081Y-43112D02*
X73579Y-43610D01*
X65317Y-39559D02*
X66870Y-41112D01*
X65955Y-37028D02*
X65317Y-37666D01*
X65317Y-37666D02*
X65317Y-39480D01*
X66870Y-41112D02*
X71791Y-41112D01*
X71791Y-41112D02*
X73081Y-42402D01*
X65955Y-36742D02*
X65955Y-37028D01*
X65317Y-39480D02*
X65317Y-39559D01*
X66457Y-36772D02*
X66446Y-36772D01*
X65482Y-37736D02*
X65482Y-39498D01*
X66446Y-36772D02*
X65482Y-37736D01*
X66929Y-40945D02*
X72638Y-40945D01*
X74075Y-43106D02*
X74579Y-43610D01*
X65482Y-39498D02*
X66929Y-40945D01*
X72638Y-40945D02*
X74075Y-42382D01*
X74075Y-42382D02*
X74075Y-43106D01*
X74075Y-26553D02*
X72479Y-28149D01*
G54D29*
X64252Y-29626D02*
X64255Y-29623D01*
X64862Y-29016D02*
X64255Y-29623D01*
G54D30*
X74075Y-25791D02*
X74075Y-26553D01*
G54D29*
X64252Y-33327D02*
X64528Y-33602D01*
X64252Y-31181D02*
X64252Y-33327D01*
X65729Y-28149D02*
X64862Y-29016D01*
X64252Y-31181D02*
X64252Y-29626D01*
X64862Y-29016D02*
X64862Y-29016D01*
G54D30*
X74579Y-25287D02*
X74075Y-25791D01*
G54D29*
X65729Y-28149D02*
X72479Y-28149D01*
X64094Y-31260D02*
X64094Y-33525D01*
G54D30*
X73071Y-26524D02*
X73071Y-25795D01*
G54D29*
X64094Y-31260D02*
X64094Y-29548D01*
G54D30*
X73071Y-25795D02*
X73579Y-25287D01*
G54D29*
X64784Y-28858D02*
X65660Y-27982D01*
X64784Y-28858D02*
X64094Y-29548D01*
X71613Y-27982D02*
X73071Y-26524D01*
X64094Y-33525D02*
X64094Y-34508D01*
X65660Y-27982D02*
X71613Y-27982D01*
X64094Y-31260D02*
X64094Y-31260D01*
G54D31*
X57405Y-31063D02*
X57409Y-31059D01*
X56634Y-31063D02*
X57405Y-31063D01*
G54D30*
X65807Y-28327D02*
X70059Y-28327D01*
G54D29*
X71417Y-29213D02*
X70974Y-28770D01*
G54D30*
X70059Y-28327D02*
X70531Y-28327D01*
G54D29*
X64419Y-30659D02*
X64587Y-30837D01*
G54D31*
X58016Y-31141D02*
X58016Y-30419D01*
G54D30*
X71417Y-29213D02*
X71614Y-29409D01*
G54D31*
X58016Y-30419D02*
X58031Y-30404D01*
G54D29*
X65807Y-28327D02*
X64419Y-29715D01*
X64419Y-29715D02*
X64419Y-30659D01*
G54D30*
X70531Y-28327D02*
X70974Y-28770D01*
X70059Y-28327D02*
X70059Y-29508D01*
G54D31*
X58016Y-32122D02*
X57766Y-32372D01*
X58016Y-31733D02*
X58016Y-32122D01*
X63878Y-37618D02*
X63366Y-37106D01*
X63317Y-36309D02*
X63317Y-37057D01*
X63878Y-38320D02*
X63878Y-38917D01*
X63907Y-35955D02*
X63671Y-35955D01*
X63878Y-38320D02*
X63878Y-37618D01*
X63671Y-35955D02*
X63317Y-36309D01*
X63317Y-37057D02*
X63366Y-37106D01*
X53280Y-27350D02*
X53280Y-27799D01*
X54804Y-27176D02*
X53454Y-27176D01*
X54892Y-27264D02*
X54804Y-27176D01*
X56417Y-32854D02*
X54892Y-31329D01*
X53454Y-27176D02*
X53280Y-27350D01*
X54892Y-31329D02*
X54892Y-27264D01*
X64370Y-37776D02*
X63563Y-36969D01*
X63563Y-36969D02*
X63563Y-36516D01*
X64596Y-36358D02*
X63721Y-36358D01*
X64783Y-35925D02*
X64783Y-36171D01*
X63721Y-36358D02*
X63563Y-36516D01*
X64783Y-36171D02*
X64596Y-36358D01*
X64370Y-38917D02*
X64370Y-37776D01*
G54D29*
X70728Y-39921D02*
X70728Y-40492D01*
X70709Y-37461D02*
X70728Y-38248D01*
X70689Y-37441D02*
X70709Y-37461D01*
X56319Y-39095D02*
X56319Y-39783D01*
X70728Y-39055D02*
X70689Y-39193D01*
X70689Y-39193D02*
X70728Y-39921D01*
G54D31*
X63065Y-36972D02*
X62972Y-36879D01*
X67539Y-34380D02*
X67470Y-34380D01*
X73858Y-34302D02*
X73858Y-38149D01*
G54D30*
X72441Y-35433D02*
X72687Y-35640D01*
G54D29*
X56339Y-39075D02*
X56319Y-39095D01*
G54D32*
X58820Y-32460D02*
X58820Y-32903D01*
G54D30*
X73081Y-34823D02*
X72559Y-34823D01*
G54D31*
X73858Y-38149D02*
X74213Y-40354D01*
X62972Y-36879D02*
X62972Y-35729D01*
G54D30*
X72687Y-35640D02*
X73386Y-35640D01*
G54D31*
X69862Y-34380D02*
X67539Y-34380D01*
G54D30*
X72372Y-34144D02*
X72470Y-34173D01*
X71929Y-34154D02*
X72372Y-34144D01*
G54D29*
X68976Y-39902D02*
X68976Y-40276D01*
G54D31*
X68699Y-32394D02*
X68682Y-32411D01*
X67539Y-34380D02*
X67539Y-32411D01*
X69862Y-32411D02*
X69862Y-34380D01*
G54D33*
X62575Y-26287D02*
X61575Y-26287D01*
X60575Y-26287D02*
X61575Y-26287D01*
G54D31*
X68682Y-32411D02*
X67500Y-32411D01*
G54D30*
X72382Y-31516D02*
X72431Y-31535D01*
G54D31*
X65079Y-35118D02*
X65079Y-35148D01*
G54D30*
X71289Y-32864D02*
X71299Y-32854D01*
G54D31*
X63065Y-36972D02*
X63065Y-37957D01*
G54D30*
X71299Y-32854D02*
X71319Y-32854D01*
G54D31*
X67539Y-32411D02*
X67500Y-32411D01*
G54D32*
X58820Y-32460D02*
X59016Y-32264D01*
G54D29*
X63209Y-41201D02*
X62677Y-40669D01*
G54D31*
X64715Y-35512D02*
X63189Y-35512D01*
G54D30*
X72224Y-31358D02*
X72382Y-31516D01*
X72992Y-32008D02*
X72992Y-31998D01*
X73002Y-32018D02*
X72992Y-32008D01*
G54D31*
X69862Y-34380D02*
X69862Y-34409D01*
X68699Y-32411D02*
X69862Y-32411D01*
G54D29*
X68307Y-39232D02*
X68996Y-39232D01*
X77028Y-32736D02*
X77028Y-33543D01*
X56319Y-41339D02*
X56811Y-41831D01*
G54D30*
X72982Y-31535D02*
X72972Y-31535D01*
G54D29*
X63022Y-41201D02*
X63209Y-41201D01*
X66379Y-39646D02*
X66358Y-39646D01*
X74803Y-31949D02*
X74823Y-31969D01*
X74823Y-31969D02*
X75335Y-31949D01*
X59646Y-27224D02*
X63287Y-27224D01*
X66890Y-40157D02*
X66379Y-39646D01*
X61417Y-27953D02*
X61319Y-28405D01*
X61319Y-28405D02*
X61319Y-29469D01*
X56811Y-41831D02*
X57047Y-41831D01*
X59724Y-27618D02*
X59646Y-27224D01*
G54D31*
X63189Y-35512D02*
X62972Y-35729D01*
G54D29*
X68268Y-40276D02*
X67520Y-40276D01*
X65315Y-31161D02*
X64843Y-31633D01*
X69646Y-39232D02*
X68976Y-39902D01*
X64843Y-31633D02*
X64843Y-31949D01*
X75984Y-28346D02*
X74803Y-28346D01*
G54D31*
X65079Y-35148D02*
X64715Y-35512D01*
G54D29*
X72047Y-29921D02*
X72047Y-30709D01*
X76772Y-27165D02*
X76772Y-25984D01*
G54D30*
X71929Y-34468D02*
X71929Y-34154D01*
G54D31*
X68699Y-32411D02*
X68699Y-32394D01*
G54D29*
X72835Y-36220D02*
X73622Y-36220D01*
X74803Y-29528D02*
X75984Y-29528D01*
G54D30*
X71929Y-34468D02*
X72077Y-34833D01*
G54D29*
X75591Y-25984D02*
X75591Y-27165D01*
X73622Y-30709D02*
X74803Y-30709D01*
G54D30*
X71949Y-31358D02*
X72224Y-31358D01*
G54D29*
X76772Y-29528D02*
X76772Y-28346D01*
X75984Y-30709D02*
X76772Y-30709D01*
X72441Y-28740D02*
X72362Y-29213D01*
X72835Y-30315D02*
X73622Y-29528D01*
X71654Y-28740D02*
X72441Y-28740D01*
G54D31*
X68699Y-33387D02*
X68699Y-32411D01*
G54D29*
X76772Y-24980D02*
X75591Y-24980D01*
X73622Y-28346D02*
X73228Y-28346D01*
X74409Y-27559D02*
X73622Y-28346D01*
G54D33*
X62461Y-35059D02*
X62520Y-35059D01*
X60575Y-25287D02*
X54004Y-25287D01*
X62575Y-25287D02*
X63200Y-25287D01*
G54D32*
X68976Y-30236D02*
X68739Y-30236D01*
X66004Y-30965D02*
X66004Y-30965D01*
G54D33*
X52224Y-27067D02*
X52224Y-33743D01*
G54D31*
X62461Y-37224D02*
X62461Y-38053D01*
G54D32*
X65433Y-29813D02*
X65433Y-30000D01*
G54D33*
X62520Y-35059D02*
X64154Y-35059D01*
G54D32*
X66004Y-30965D02*
X66358Y-30965D01*
G54D33*
X54004Y-25287D02*
X52224Y-27067D01*
G54D32*
X68642Y-30333D02*
X68642Y-30729D01*
X68739Y-30236D02*
X68642Y-30333D01*
X66358Y-30965D02*
X68406Y-30965D01*
X66004Y-30965D02*
X65433Y-30394D01*
G54D33*
X52224Y-33743D02*
X53280Y-34799D01*
G54D32*
X68642Y-30729D02*
X68406Y-30965D01*
G54D33*
X61969Y-34508D02*
X62520Y-35059D01*
X61968Y-29715D02*
X61968Y-31900D01*
X62461Y-37224D02*
X62461Y-35059D01*
X63200Y-25287D02*
X63201Y-25287D01*
X63967Y-27716D02*
X61968Y-29715D01*
X61969Y-31899D02*
X61969Y-34508D01*
X63201Y-25287D02*
X63967Y-26053D01*
G54D32*
X65118Y-29498D02*
X65433Y-29813D01*
X53280Y-34799D02*
X53280Y-34806D01*
G54D31*
X62461Y-38053D02*
X63065Y-38657D01*
G54D32*
X65433Y-30000D02*
X65433Y-30394D01*
G54D33*
X63967Y-26053D02*
X63967Y-27716D01*
X61968Y-31900D02*
X61969Y-31899D01*
G54D32*
X54280Y-34801D02*
X58239Y-38760D01*
G54D33*
X61900Y-38651D02*
X61742Y-38809D01*
G54D32*
X58239Y-38760D02*
X61772Y-38760D01*
G54D33*
X60541Y-33573D02*
X60541Y-33926D01*
X61956Y-43610D02*
X61742Y-43396D01*
X61742Y-43396D02*
X61742Y-38809D01*
G54D31*
X61900Y-37844D02*
X61909Y-37844D01*
G54D33*
X61909Y-35294D02*
X61909Y-37844D01*
X60541Y-33926D02*
X61909Y-35294D01*
X61900Y-37844D02*
X61900Y-38651D01*
G54D32*
X54280Y-34799D02*
X54280Y-34801D01*
G54D33*
X61956Y-43610D02*
X62402Y-43610D01*
G54D29*
X67576Y-43610D02*
X67579Y-43610D01*
X63878Y-39509D02*
X63878Y-39764D01*
X63957Y-39843D02*
X64213Y-39843D01*
X63878Y-39764D02*
X63957Y-39843D01*
X66477Y-42107D02*
X64685Y-40315D01*
X67576Y-43610D02*
X67087Y-43121D01*
X66819Y-42107D02*
X66477Y-42107D01*
X67087Y-42375D02*
X66819Y-42107D01*
X67087Y-43121D02*
X67087Y-42375D01*
X64213Y-39843D02*
X64685Y-40315D01*
G54D30*
X64370Y-39744D02*
X64370Y-39764D01*
X64370Y-39764D02*
X66556Y-41950D01*
G54D29*
X68579Y-43608D02*
X68579Y-43610D01*
G54D30*
X67639Y-41949D02*
X66555Y-41949D01*
G54D29*
X68579Y-43608D02*
X68071Y-43100D01*
G54D30*
X66555Y-41949D02*
X66556Y-41950D01*
X68071Y-43100D02*
X68071Y-42381D01*
G54D29*
X67639Y-41949D02*
X68071Y-42381D01*
X64370Y-39509D02*
X64370Y-39744D01*
G54D33*
X56093Y-40541D02*
X55561Y-41073D01*
X55561Y-41073D02*
X55138Y-41073D01*
X56791Y-40541D02*
X56093Y-40541D01*
X57755Y-42607D02*
X56791Y-42607D01*
G54D32*
X58642Y-33376D02*
X58318Y-33376D01*
X58228Y-33286D02*
X58228Y-32903D01*
X58228Y-33286D02*
X58318Y-33376D01*
X59193Y-33927D02*
X58642Y-33376D01*
X58228Y-32903D02*
X57756Y-32903D01*
X59193Y-34970D02*
X59193Y-33927D01*
G54D10*
G36*
X63564Y-27549D02*
X63049Y-28064D01*
X63049Y-26371D01*
X63045Y-26183D01*
X62982Y-26027D01*
X62913Y-25990D01*
X62616Y-26287D01*
X62913Y-26584D01*
X62982Y-26547D01*
X63049Y-26371D01*
X63049Y-28064D01*
X62872Y-28241D01*
X62872Y-26625D01*
X62575Y-26328D01*
X62534Y-26369D01*
X62534Y-26287D01*
X62237Y-25990D01*
X62168Y-26027D01*
X62101Y-26203D01*
X62105Y-26391D01*
X62168Y-26547D01*
X62237Y-26584D01*
X62534Y-26287D01*
X62534Y-26369D01*
X62278Y-26625D01*
X62315Y-26694D01*
X62491Y-26761D01*
X62679Y-26757D01*
X62835Y-26694D01*
X62872Y-26625D01*
X62872Y-28241D01*
X62049Y-29064D01*
X62049Y-26371D01*
X62045Y-26183D01*
X61982Y-26027D01*
X61913Y-25990D01*
X61616Y-26287D01*
X61913Y-26584D01*
X61982Y-26547D01*
X62049Y-26371D01*
X62049Y-29064D01*
X61872Y-29241D01*
X61872Y-26625D01*
X61575Y-26328D01*
X61534Y-26369D01*
X61534Y-26287D01*
X61237Y-25990D01*
X61168Y-26027D01*
X61101Y-26203D01*
X61105Y-26391D01*
X61168Y-26547D01*
X61237Y-26584D01*
X61534Y-26287D01*
X61534Y-26369D01*
X61278Y-26625D01*
X61315Y-26694D01*
X61491Y-26761D01*
X61679Y-26757D01*
X61835Y-26694D01*
X61872Y-26625D01*
X61872Y-29241D01*
X61683Y-29430D01*
X61596Y-29561D01*
X61565Y-29715D01*
X61565Y-31900D01*
X61566Y-31904D01*
X61566Y-34381D01*
X61230Y-34045D01*
X61230Y-30532D01*
X61230Y-30278D01*
X61230Y-28760D01*
X61230Y-28506D01*
X61133Y-28271D01*
X61057Y-28194D01*
X61057Y-26667D01*
X61057Y-26616D01*
X61057Y-26348D01*
X61025Y-26316D01*
X60604Y-26316D01*
X60604Y-26737D01*
X60636Y-26769D01*
X60954Y-26769D01*
X61001Y-26750D01*
X61037Y-26714D01*
X61057Y-26667D01*
X61057Y-28194D01*
X60954Y-28091D01*
X60719Y-27993D01*
X60546Y-27993D01*
X60546Y-26737D01*
X60546Y-26316D01*
X60125Y-26316D01*
X60093Y-26348D01*
X60093Y-26616D01*
X60093Y-26667D01*
X60113Y-26714D01*
X60149Y-26750D01*
X60196Y-26769D01*
X60514Y-26769D01*
X60546Y-26737D01*
X60546Y-27993D01*
X60465Y-27993D01*
X60230Y-28090D01*
X60050Y-28269D01*
X59952Y-28504D01*
X59952Y-28758D01*
X60049Y-28993D01*
X60228Y-29173D01*
X60463Y-29271D01*
X60717Y-29271D01*
X60952Y-29174D01*
X61132Y-28995D01*
X61230Y-28760D01*
X61230Y-30278D01*
X61133Y-30043D01*
X60954Y-29863D01*
X60719Y-29765D01*
X60465Y-29765D01*
X60230Y-29862D01*
X60050Y-30041D01*
X59952Y-30276D01*
X59952Y-30530D01*
X60049Y-30765D01*
X60228Y-30945D01*
X60463Y-31043D01*
X60717Y-31043D01*
X60952Y-30946D01*
X61132Y-30767D01*
X61230Y-30532D01*
X61230Y-34045D01*
X60944Y-33759D01*
X60944Y-33755D01*
X60983Y-33661D01*
X60983Y-33485D01*
X60916Y-33323D01*
X60791Y-33198D01*
X60629Y-33131D01*
X60453Y-33131D01*
X60291Y-33198D01*
X60166Y-33323D01*
X60099Y-33485D01*
X60099Y-33661D01*
X60138Y-33755D01*
X60138Y-33926D01*
X60169Y-34080D01*
X60256Y-34211D01*
X61506Y-35461D01*
X61506Y-37639D01*
X61458Y-37756D01*
X61458Y-37932D01*
X61497Y-38026D01*
X61497Y-38416D01*
X58381Y-38416D01*
X58204Y-38238D01*
X58298Y-38277D01*
X58474Y-38277D01*
X58636Y-38210D01*
X58761Y-38085D01*
X58828Y-37923D01*
X58828Y-37747D01*
X58761Y-37585D01*
X58691Y-37515D01*
X58691Y-34438D01*
X58769Y-34438D01*
X58849Y-34404D01*
X58849Y-34689D01*
X58818Y-34720D01*
X58751Y-34882D01*
X58751Y-35058D01*
X58818Y-35220D01*
X58943Y-35345D01*
X59105Y-35412D01*
X59281Y-35412D01*
X59443Y-35345D01*
X59568Y-35220D01*
X59635Y-35058D01*
X59635Y-34882D01*
X59568Y-34720D01*
X59537Y-34689D01*
X59537Y-33927D01*
X59511Y-33795D01*
X59436Y-33684D01*
X58980Y-33228D01*
X59022Y-33228D01*
X59069Y-33209D01*
X59105Y-33173D01*
X59125Y-33126D01*
X59125Y-33075D01*
X59125Y-32964D01*
X59125Y-32842D01*
X59125Y-32731D01*
X59125Y-32680D01*
X59105Y-32633D01*
X59069Y-32597D01*
X59022Y-32578D01*
X58881Y-32578D01*
X58849Y-32610D01*
X58849Y-32874D01*
X59093Y-32874D01*
X59125Y-32842D01*
X59125Y-32964D01*
X59093Y-32932D01*
X58898Y-32932D01*
X58849Y-32932D01*
X58791Y-32932D01*
X58791Y-32874D01*
X58791Y-32825D01*
X58791Y-32610D01*
X58759Y-32578D01*
X58618Y-32578D01*
X58617Y-32578D01*
X58613Y-32567D01*
X58544Y-32498D01*
X58453Y-32461D01*
X58356Y-32461D01*
X58207Y-32461D01*
X58208Y-32460D01*
X58208Y-32361D01*
X58229Y-32339D01*
X58231Y-32338D01*
X58232Y-32338D01*
X58298Y-32239D01*
X58319Y-32131D01*
X58352Y-32118D01*
X58421Y-32049D01*
X58458Y-31958D01*
X58458Y-31861D01*
X58458Y-31507D01*
X58429Y-31436D01*
X58458Y-31366D01*
X58458Y-31269D01*
X58458Y-30915D01*
X58447Y-30890D01*
X58572Y-30767D01*
X58670Y-30532D01*
X58670Y-30278D01*
X58670Y-28760D01*
X58670Y-28506D01*
X58573Y-28271D01*
X58394Y-28091D01*
X58159Y-27993D01*
X57905Y-27993D01*
X57670Y-28090D01*
X57490Y-28269D01*
X57392Y-28504D01*
X57392Y-28758D01*
X57489Y-28993D01*
X57668Y-29173D01*
X57903Y-29271D01*
X58157Y-29271D01*
X58392Y-29174D01*
X58572Y-28995D01*
X58670Y-28760D01*
X58670Y-30278D01*
X58573Y-30043D01*
X58394Y-29863D01*
X58159Y-29765D01*
X57905Y-29765D01*
X57670Y-29862D01*
X57490Y-30041D01*
X57392Y-30276D01*
X57392Y-30530D01*
X57427Y-30617D01*
X57321Y-30617D01*
X57159Y-30684D01*
X57085Y-30758D01*
X56954Y-30758D01*
X56884Y-30688D01*
X56722Y-30621D01*
X56546Y-30621D01*
X56384Y-30688D01*
X56259Y-30813D01*
X56192Y-30975D01*
X56192Y-31151D01*
X56259Y-31313D01*
X56384Y-31438D01*
X56546Y-31505D01*
X56722Y-31505D01*
X56884Y-31438D01*
X56954Y-31368D01*
X57093Y-31368D01*
X57159Y-31434D01*
X57321Y-31501D01*
X57497Y-31501D01*
X57592Y-31461D01*
X57574Y-31508D01*
X57574Y-31605D01*
X57574Y-31959D01*
X57578Y-31970D01*
X57516Y-31997D01*
X57391Y-32122D01*
X57324Y-32284D01*
X57324Y-32460D01*
X57391Y-32622D01*
X57401Y-32632D01*
X57381Y-32653D01*
X57314Y-32815D01*
X57314Y-32991D01*
X57381Y-33153D01*
X57506Y-33278D01*
X57668Y-33345D01*
X57844Y-33345D01*
X57891Y-33325D01*
X57897Y-33357D01*
X56093Y-33357D01*
X55580Y-32843D01*
X55580Y-32448D01*
X55975Y-32843D01*
X55975Y-32942D01*
X56042Y-33104D01*
X56167Y-33229D01*
X56329Y-33296D01*
X56505Y-33296D01*
X56667Y-33229D01*
X56792Y-33104D01*
X56859Y-32942D01*
X56859Y-32766D01*
X56792Y-32604D01*
X56667Y-32479D01*
X56505Y-32412D01*
X56406Y-32412D01*
X55197Y-31202D01*
X55197Y-27264D01*
X55174Y-27147D01*
X55108Y-27048D01*
X55105Y-27046D01*
X55020Y-26960D01*
X54921Y-26894D01*
X54804Y-26871D01*
X53454Y-26871D01*
X53337Y-26894D01*
X53238Y-26960D01*
X53064Y-27134D01*
X52998Y-27233D01*
X52990Y-27270D01*
X52941Y-27291D01*
X52772Y-27460D01*
X52681Y-27680D01*
X52681Y-27918D01*
X52772Y-28138D01*
X52933Y-28299D01*
X52772Y-28460D01*
X52681Y-28680D01*
X52681Y-28918D01*
X52772Y-29138D01*
X52933Y-29299D01*
X52772Y-29460D01*
X52681Y-29680D01*
X52681Y-29918D01*
X52772Y-30138D01*
X52933Y-30299D01*
X52772Y-30460D01*
X52681Y-30680D01*
X52681Y-30918D01*
X52772Y-31138D01*
X52933Y-31299D01*
X52772Y-31460D01*
X52681Y-31680D01*
X52681Y-31918D01*
X52772Y-32138D01*
X52933Y-32299D01*
X52772Y-32460D01*
X52681Y-32680D01*
X52681Y-32918D01*
X52772Y-33138D01*
X52941Y-33307D01*
X53084Y-33366D01*
X53020Y-33392D01*
X52983Y-33461D01*
X53280Y-33758D01*
X53577Y-33461D01*
X53540Y-33392D01*
X53474Y-33366D01*
X53619Y-33307D01*
X53780Y-33146D01*
X53933Y-33299D01*
X53772Y-33460D01*
X53712Y-33603D01*
X53687Y-33539D01*
X53618Y-33502D01*
X53321Y-33799D01*
X53618Y-34096D01*
X53687Y-34059D01*
X53712Y-33993D01*
X53772Y-34138D01*
X53933Y-34299D01*
X53780Y-34452D01*
X53619Y-34291D01*
X53475Y-34231D01*
X53540Y-34206D01*
X53577Y-34137D01*
X53315Y-33875D01*
X53280Y-33840D01*
X53239Y-33799D01*
X53204Y-33764D01*
X52942Y-33502D01*
X52873Y-33539D01*
X52806Y-33715D01*
X52806Y-33755D01*
X52627Y-33576D01*
X52627Y-27234D01*
X54171Y-25690D01*
X60131Y-25690D01*
X60236Y-25795D01*
X60260Y-25805D01*
X60196Y-25805D01*
X60149Y-25824D01*
X60113Y-25860D01*
X60093Y-25907D01*
X60093Y-25958D01*
X60093Y-26226D01*
X60125Y-26258D01*
X60497Y-26258D01*
X60546Y-26258D01*
X60604Y-26258D01*
X60653Y-26258D01*
X61025Y-26258D01*
X61057Y-26226D01*
X61057Y-25958D01*
X61057Y-25907D01*
X61037Y-25860D01*
X61001Y-25824D01*
X60954Y-25805D01*
X60889Y-25805D01*
X60914Y-25795D01*
X61075Y-25634D01*
X61236Y-25795D01*
X61379Y-25854D01*
X61315Y-25880D01*
X61278Y-25949D01*
X61575Y-26246D01*
X61872Y-25949D01*
X61835Y-25880D01*
X61769Y-25854D01*
X61914Y-25795D01*
X62075Y-25634D01*
X62236Y-25795D01*
X62379Y-25854D01*
X62315Y-25880D01*
X62278Y-25949D01*
X62575Y-26246D01*
X62872Y-25949D01*
X62835Y-25880D01*
X62769Y-25854D01*
X62914Y-25795D01*
X63019Y-25690D01*
X63034Y-25690D01*
X63564Y-26220D01*
X63564Y-27549D01*
X63564Y-27549D01*
G37*
G54D11*
X63564Y-27549D02*
X63049Y-28064D01*
X63049Y-26371D01*
X63045Y-26183D01*
X62982Y-26027D01*
X62913Y-25990D01*
X62616Y-26287D01*
X62913Y-26584D01*
X62982Y-26547D01*
X63049Y-26371D01*
X63049Y-28064D01*
X62872Y-28241D01*
X62872Y-26625D01*
X62575Y-26328D01*
X62534Y-26369D01*
X62534Y-26287D01*
X62237Y-25990D01*
X62168Y-26027D01*
X62101Y-26203D01*
X62105Y-26391D01*
X62168Y-26547D01*
X62237Y-26584D01*
X62534Y-26287D01*
X62534Y-26369D01*
X62278Y-26625D01*
X62315Y-26694D01*
X62491Y-26761D01*
X62679Y-26757D01*
X62835Y-26694D01*
X62872Y-26625D01*
X62872Y-28241D01*
X62049Y-29064D01*
X62049Y-26371D01*
X62045Y-26183D01*
X61982Y-26027D01*
X61913Y-25990D01*
X61616Y-26287D01*
X61913Y-26584D01*
X61982Y-26547D01*
X62049Y-26371D01*
X62049Y-29064D01*
X61872Y-29241D01*
X61872Y-26625D01*
X61575Y-26328D01*
X61534Y-26369D01*
X61534Y-26287D01*
X61237Y-25990D01*
X61168Y-26027D01*
X61101Y-26203D01*
X61105Y-26391D01*
X61168Y-26547D01*
X61237Y-26584D01*
X61534Y-26287D01*
X61534Y-26369D01*
X61278Y-26625D01*
X61315Y-26694D01*
X61491Y-26761D01*
X61679Y-26757D01*
X61835Y-26694D01*
X61872Y-26625D01*
X61872Y-29241D01*
X61683Y-29430D01*
X61596Y-29561D01*
X61565Y-29715D01*
X61565Y-31900D01*
X61566Y-31904D01*
X61566Y-34381D01*
X61230Y-34045D01*
X61230Y-30532D01*
X61230Y-30278D01*
X61230Y-28760D01*
X61230Y-28506D01*
X61133Y-28271D01*
X61057Y-28194D01*
X61057Y-26667D01*
X61057Y-26616D01*
X61057Y-26348D01*
X61025Y-26316D01*
X60604Y-26316D01*
X60604Y-26737D01*
X60636Y-26769D01*
X60954Y-26769D01*
X61001Y-26750D01*
X61037Y-26714D01*
X61057Y-26667D01*
X61057Y-28194D01*
X60954Y-28091D01*
X60719Y-27993D01*
X60546Y-27993D01*
X60546Y-26737D01*
X60546Y-26316D01*
X60125Y-26316D01*
X60093Y-26348D01*
X60093Y-26616D01*
X60093Y-26667D01*
X60113Y-26714D01*
X60149Y-26750D01*
X60196Y-26769D01*
X60514Y-26769D01*
X60546Y-26737D01*
X60546Y-27993D01*
X60465Y-27993D01*
X60230Y-28090D01*
X60050Y-28269D01*
X59952Y-28504D01*
X59952Y-28758D01*
X60049Y-28993D01*
X60228Y-29173D01*
X60463Y-29271D01*
X60717Y-29271D01*
X60952Y-29174D01*
X61132Y-28995D01*
X61230Y-28760D01*
X61230Y-30278D01*
X61133Y-30043D01*
X60954Y-29863D01*
X60719Y-29765D01*
X60465Y-29765D01*
X60230Y-29862D01*
X60050Y-30041D01*
X59952Y-30276D01*
X59952Y-30530D01*
X60049Y-30765D01*
X60228Y-30945D01*
X60463Y-31043D01*
X60717Y-31043D01*
X60952Y-30946D01*
X61132Y-30767D01*
X61230Y-30532D01*
X61230Y-34045D01*
X60944Y-33759D01*
X60944Y-33755D01*
X60983Y-33661D01*
X60983Y-33485D01*
X60916Y-33323D01*
X60791Y-33198D01*
X60629Y-33131D01*
X60453Y-33131D01*
X60291Y-33198D01*
X60166Y-33323D01*
X60099Y-33485D01*
X60099Y-33661D01*
X60138Y-33755D01*
X60138Y-33926D01*
X60169Y-34080D01*
X60256Y-34211D01*
X61506Y-35461D01*
X61506Y-37639D01*
X61458Y-37756D01*
X61458Y-37932D01*
X61497Y-38026D01*
X61497Y-38416D01*
X58381Y-38416D01*
X58204Y-38238D01*
X58298Y-38277D01*
X58474Y-38277D01*
X58636Y-38210D01*
X58761Y-38085D01*
X58828Y-37923D01*
X58828Y-37747D01*
X58761Y-37585D01*
X58691Y-37515D01*
X58691Y-34438D01*
X58769Y-34438D01*
X58849Y-34404D01*
X58849Y-34689D01*
X58818Y-34720D01*
X58751Y-34882D01*
X58751Y-35058D01*
X58818Y-35220D01*
X58943Y-35345D01*
X59105Y-35412D01*
X59281Y-35412D01*
X59443Y-35345D01*
X59568Y-35220D01*
X59635Y-35058D01*
X59635Y-34882D01*
X59568Y-34720D01*
X59537Y-34689D01*
X59537Y-33927D01*
X59511Y-33795D01*
X59436Y-33684D01*
X58980Y-33228D01*
X59022Y-33228D01*
X59069Y-33209D01*
X59105Y-33173D01*
X59125Y-33126D01*
X59125Y-33075D01*
X59125Y-32964D01*
X59125Y-32842D01*
X59125Y-32731D01*
X59125Y-32680D01*
X59105Y-32633D01*
X59069Y-32597D01*
X59022Y-32578D01*
X58881Y-32578D01*
X58849Y-32610D01*
X58849Y-32874D01*
X59093Y-32874D01*
X59125Y-32842D01*
X59125Y-32964D01*
X59093Y-32932D01*
X58898Y-32932D01*
X58849Y-32932D01*
X58791Y-32932D01*
X58791Y-32874D01*
X58791Y-32825D01*
X58791Y-32610D01*
X58759Y-32578D01*
X58618Y-32578D01*
X58617Y-32578D01*
X58613Y-32567D01*
X58544Y-32498D01*
X58453Y-32461D01*
X58356Y-32461D01*
X58207Y-32461D01*
X58208Y-32460D01*
X58208Y-32361D01*
X58229Y-32339D01*
X58231Y-32338D01*
X58232Y-32338D01*
X58298Y-32239D01*
X58319Y-32131D01*
X58352Y-32118D01*
X58421Y-32049D01*
X58458Y-31958D01*
X58458Y-31861D01*
X58458Y-31507D01*
X58429Y-31436D01*
X58458Y-31366D01*
X58458Y-31269D01*
X58458Y-30915D01*
X58447Y-30890D01*
X58572Y-30767D01*
X58670Y-30532D01*
X58670Y-30278D01*
X58670Y-28760D01*
X58670Y-28506D01*
X58573Y-28271D01*
X58394Y-28091D01*
X58159Y-27993D01*
X57905Y-27993D01*
X57670Y-28090D01*
X57490Y-28269D01*
X57392Y-28504D01*
X57392Y-28758D01*
X57489Y-28993D01*
X57668Y-29173D01*
X57903Y-29271D01*
X58157Y-29271D01*
X58392Y-29174D01*
X58572Y-28995D01*
X58670Y-28760D01*
X58670Y-30278D01*
X58573Y-30043D01*
X58394Y-29863D01*
X58159Y-29765D01*
X57905Y-29765D01*
X57670Y-29862D01*
X57490Y-30041D01*
X57392Y-30276D01*
X57392Y-30530D01*
X57427Y-30617D01*
X57321Y-30617D01*
X57159Y-30684D01*
X57085Y-30758D01*
X56954Y-30758D01*
X56884Y-30688D01*
X56722Y-30621D01*
X56546Y-30621D01*
X56384Y-30688D01*
X56259Y-30813D01*
X56192Y-30975D01*
X56192Y-31151D01*
X56259Y-31313D01*
X56384Y-31438D01*
X56546Y-31505D01*
X56722Y-31505D01*
X56884Y-31438D01*
X56954Y-31368D01*
X57093Y-31368D01*
X57159Y-31434D01*
X57321Y-31501D01*
X57497Y-31501D01*
X57592Y-31461D01*
X57574Y-31508D01*
X57574Y-31605D01*
X57574Y-31959D01*
X57578Y-31970D01*
X57516Y-31997D01*
X57391Y-32122D01*
X57324Y-32284D01*
X57324Y-32460D01*
X57391Y-32622D01*
X57401Y-32632D01*
X57381Y-32653D01*
X57314Y-32815D01*
X57314Y-32991D01*
X57381Y-33153D01*
X57506Y-33278D01*
X57668Y-33345D01*
X57844Y-33345D01*
X57891Y-33325D01*
X57897Y-33357D01*
X56093Y-33357D01*
X55580Y-32843D01*
X55580Y-32448D01*
X55975Y-32843D01*
X55975Y-32942D01*
X56042Y-33104D01*
X56167Y-33229D01*
X56329Y-33296D01*
X56505Y-33296D01*
X56667Y-33229D01*
X56792Y-33104D01*
X56859Y-32942D01*
X56859Y-32766D01*
X56792Y-32604D01*
X56667Y-32479D01*
X56505Y-32412D01*
X56406Y-32412D01*
X55197Y-31202D01*
X55197Y-27264D01*
X55174Y-27147D01*
X55108Y-27048D01*
X55105Y-27046D01*
X55020Y-26960D01*
X54921Y-26894D01*
X54804Y-26871D01*
X53454Y-26871D01*
X53337Y-26894D01*
X53238Y-26960D01*
X53064Y-27134D01*
X52998Y-27233D01*
X52990Y-27270D01*
X52941Y-27291D01*
X52772Y-27460D01*
X52681Y-27680D01*
X52681Y-27918D01*
X52772Y-28138D01*
X52933Y-28299D01*
X52772Y-28460D01*
X52681Y-28680D01*
X52681Y-28918D01*
X52772Y-29138D01*
X52933Y-29299D01*
X52772Y-29460D01*
X52681Y-29680D01*
X52681Y-29918D01*
X52772Y-30138D01*
X52933Y-30299D01*
X52772Y-30460D01*
X52681Y-30680D01*
X52681Y-30918D01*
X52772Y-31138D01*
X52933Y-31299D01*
X52772Y-31460D01*
X52681Y-31680D01*
X52681Y-31918D01*
X52772Y-32138D01*
X52933Y-32299D01*
X52772Y-32460D01*
X52681Y-32680D01*
X52681Y-32918D01*
X52772Y-33138D01*
X52941Y-33307D01*
X53084Y-33366D01*
X53020Y-33392D01*
X52983Y-33461D01*
X53280Y-33758D01*
X53577Y-33461D01*
X53540Y-33392D01*
X53474Y-33366D01*
X53619Y-33307D01*
X53780Y-33146D01*
X53933Y-33299D01*
X53772Y-33460D01*
X53712Y-33603D01*
X53687Y-33539D01*
X53618Y-33502D01*
X53321Y-33799D01*
X53618Y-34096D01*
X53687Y-34059D01*
X53712Y-33993D01*
X53772Y-34138D01*
X53933Y-34299D01*
X53780Y-34452D01*
X53619Y-34291D01*
X53475Y-34231D01*
X53540Y-34206D01*
X53577Y-34137D01*
X53315Y-33875D01*
X53280Y-33840D01*
X53239Y-33799D01*
X53204Y-33764D01*
X52942Y-33502D01*
X52873Y-33539D01*
X52806Y-33715D01*
X52806Y-33755D01*
X52627Y-33576D01*
X52627Y-27234D01*
X54171Y-25690D01*
X60131Y-25690D01*
X60236Y-25795D01*
X60260Y-25805D01*
X60196Y-25805D01*
X60149Y-25824D01*
X60113Y-25860D01*
X60093Y-25907D01*
X60093Y-25958D01*
X60093Y-26226D01*
X60125Y-26258D01*
X60497Y-26258D01*
X60546Y-26258D01*
X60604Y-26258D01*
X60653Y-26258D01*
X61025Y-26258D01*
X61057Y-26226D01*
X61057Y-25958D01*
X61057Y-25907D01*
X61037Y-25860D01*
X61001Y-25824D01*
X60954Y-25805D01*
X60889Y-25805D01*
X60914Y-25795D01*
X61075Y-25634D01*
X61236Y-25795D01*
X61379Y-25854D01*
X61315Y-25880D01*
X61278Y-25949D01*
X61575Y-26246D01*
X61872Y-25949D01*
X61835Y-25880D01*
X61769Y-25854D01*
X61914Y-25795D01*
X62075Y-25634D01*
X62236Y-25795D01*
X62379Y-25854D01*
X62315Y-25880D01*
X62278Y-25949D01*
X62575Y-26246D01*
X62872Y-25949D01*
X62835Y-25880D01*
X62769Y-25854D01*
X62914Y-25795D01*
X63019Y-25690D01*
X63034Y-25690D01*
X63564Y-26220D01*
X63564Y-27549D01*
G54D10*
G36*
X67992Y-33387D02*
X67963Y-33416D01*
X67939Y-33416D01*
X67910Y-33387D01*
X67939Y-33358D01*
X67963Y-33358D01*
X67992Y-33387D01*
X67992Y-33387D01*
G37*
G54D11*
X67992Y-33387D02*
X67963Y-33416D01*
X67939Y-33416D01*
X67910Y-33387D01*
X67939Y-33358D01*
X67963Y-33358D01*
X67992Y-33387D01*
G54D10*
G36*
X68728Y-32828D02*
X68699Y-32857D01*
X68670Y-32828D01*
X68670Y-32804D01*
X68699Y-32775D01*
X68728Y-32804D01*
X68728Y-32828D01*
X68728Y-32828D01*
G37*
G54D11*
X68728Y-32828D02*
X68699Y-32857D01*
X68670Y-32828D01*
X68670Y-32804D01*
X68699Y-32775D01*
X68728Y-32804D01*
X68728Y-32828D01*
G54D10*
G36*
X68728Y-33970D02*
X68699Y-33999D01*
X68670Y-33970D01*
X68670Y-33946D01*
X68699Y-33917D01*
X68728Y-33946D01*
X68728Y-33970D01*
X68728Y-33970D01*
G37*
G54D11*
X68728Y-33970D02*
X68699Y-33999D01*
X68670Y-33970D01*
X68670Y-33946D01*
X68699Y-33917D01*
X68728Y-33946D01*
X68728Y-33970D01*
G54D10*
G36*
X68740Y-33387D02*
X68699Y-33428D01*
X68658Y-33387D01*
X68699Y-33346D01*
X68740Y-33387D01*
X68740Y-33387D01*
G37*
G54D11*
X68740Y-33387D02*
X68699Y-33428D01*
X68658Y-33387D01*
X68699Y-33346D01*
X68740Y-33387D01*
G54D10*
G36*
X69488Y-33387D02*
X69459Y-33416D01*
X69435Y-33416D01*
X69406Y-33387D01*
X69435Y-33358D01*
X69459Y-33358D01*
X69488Y-33387D01*
X69488Y-33387D01*
G37*
G54D11*
X69488Y-33387D02*
X69459Y-33416D01*
X69435Y-33416D01*
X69406Y-33387D01*
X69435Y-33358D01*
X69459Y-33358D01*
X69488Y-33387D01*
G54D10*
G36*
X77185Y-44301D02*
X76968Y-44301D01*
X76968Y-34443D01*
X76968Y-34161D01*
X76968Y-32041D01*
X76968Y-31759D01*
X76860Y-31499D01*
X76661Y-31300D01*
X76401Y-31196D01*
X76289Y-31215D01*
X76289Y-31871D01*
X76949Y-31871D01*
X76968Y-31759D01*
X76968Y-32041D01*
X76949Y-31929D01*
X76289Y-31929D01*
X76289Y-32585D01*
X76401Y-32604D01*
X76661Y-32500D01*
X76860Y-32301D01*
X76968Y-32041D01*
X76968Y-34161D01*
X76860Y-33901D01*
X76661Y-33702D01*
X76401Y-33598D01*
X76289Y-33617D01*
X76289Y-34273D01*
X76949Y-34273D01*
X76968Y-34161D01*
X76968Y-34443D01*
X76949Y-34331D01*
X76289Y-34331D01*
X76289Y-34987D01*
X76401Y-35006D01*
X76661Y-34902D01*
X76860Y-34703D01*
X76968Y-34443D01*
X76968Y-44301D01*
X76231Y-44301D01*
X76231Y-34987D01*
X76231Y-34331D01*
X76231Y-34273D01*
X76231Y-33617D01*
X76231Y-32585D01*
X76231Y-31929D01*
X76231Y-31871D01*
X76231Y-31215D01*
X76119Y-31196D01*
X75859Y-31300D01*
X75660Y-31499D01*
X75552Y-31759D01*
X75571Y-31871D01*
X76231Y-31871D01*
X76231Y-31929D01*
X75571Y-31929D01*
X75552Y-32041D01*
X75660Y-32301D01*
X75859Y-32500D01*
X76119Y-32604D01*
X76231Y-32585D01*
X76231Y-33617D01*
X76119Y-33598D01*
X75860Y-33701D01*
X75860Y-33277D01*
X75860Y-32958D01*
X75860Y-32926D01*
X75738Y-32632D01*
X75513Y-32406D01*
X75219Y-32284D01*
X74900Y-32284D01*
X74606Y-32406D01*
X74566Y-32445D01*
X74566Y-32041D01*
X74566Y-31759D01*
X74458Y-31499D01*
X74259Y-31300D01*
X73999Y-31196D01*
X73887Y-31215D01*
X73887Y-31871D01*
X74547Y-31871D01*
X74566Y-31759D01*
X74566Y-32041D01*
X74547Y-31929D01*
X73887Y-31929D01*
X73887Y-32585D01*
X73999Y-32604D01*
X74259Y-32500D01*
X74458Y-32301D01*
X74566Y-32041D01*
X74566Y-32445D01*
X74380Y-32631D01*
X74258Y-32925D01*
X74258Y-33244D01*
X74258Y-33276D01*
X74380Y-33570D01*
X74605Y-33796D01*
X74899Y-33918D01*
X75218Y-33918D01*
X75512Y-33796D01*
X75738Y-33571D01*
X75860Y-33277D01*
X75860Y-33701D01*
X75859Y-33702D01*
X75660Y-33901D01*
X75552Y-34161D01*
X75571Y-34273D01*
X76231Y-34273D01*
X76231Y-34331D01*
X75571Y-34331D01*
X75552Y-34443D01*
X75660Y-34703D01*
X75859Y-34902D01*
X76119Y-35006D01*
X76231Y-34987D01*
X76231Y-44301D01*
X75178Y-44301D01*
X75178Y-43729D01*
X75178Y-43491D01*
X75087Y-43271D01*
X74926Y-43110D01*
X75087Y-42949D01*
X75178Y-42729D01*
X75178Y-42491D01*
X75087Y-42271D01*
X74918Y-42102D01*
X74698Y-42011D01*
X74566Y-42011D01*
X74566Y-34443D01*
X74566Y-34161D01*
X74458Y-33901D01*
X74259Y-33702D01*
X73999Y-33598D01*
X73887Y-33617D01*
X73887Y-34273D01*
X74547Y-34273D01*
X74566Y-34161D01*
X74566Y-34443D01*
X74547Y-34331D01*
X73887Y-34331D01*
X73887Y-34987D01*
X73999Y-35006D01*
X74259Y-34902D01*
X74458Y-34703D01*
X74566Y-34443D01*
X74566Y-42011D01*
X74460Y-42011D01*
X74240Y-42102D01*
X74219Y-42122D01*
X73829Y-41732D01*
X73829Y-34987D01*
X73829Y-34331D01*
X73829Y-34273D01*
X73829Y-33617D01*
X73829Y-32585D01*
X73829Y-31929D01*
X73829Y-31871D01*
X73829Y-31215D01*
X73717Y-31196D01*
X73457Y-31300D01*
X73258Y-31499D01*
X73150Y-31759D01*
X73169Y-31871D01*
X73829Y-31871D01*
X73829Y-31929D01*
X73169Y-31929D01*
X73150Y-32041D01*
X73258Y-32301D01*
X73457Y-32500D01*
X73717Y-32604D01*
X73829Y-32585D01*
X73829Y-33617D01*
X73717Y-33598D01*
X73457Y-33702D01*
X73258Y-33901D01*
X73150Y-34161D01*
X73169Y-34273D01*
X73829Y-34273D01*
X73829Y-34331D01*
X73169Y-34331D01*
X73150Y-34443D01*
X73258Y-34703D01*
X73457Y-34902D01*
X73717Y-35006D01*
X73829Y-34987D01*
X73829Y-41732D01*
X72840Y-40743D01*
X72748Y-40681D01*
X72638Y-40659D01*
X69949Y-40659D01*
X69949Y-34358D01*
X69949Y-34307D01*
X69949Y-33448D01*
X69917Y-33416D01*
X69882Y-33416D01*
X69880Y-33358D01*
X69917Y-33358D01*
X69949Y-33326D01*
X69949Y-32467D01*
X69949Y-32416D01*
X69929Y-32369D01*
X69893Y-32333D01*
X69846Y-32314D01*
X68760Y-32314D01*
X68728Y-32346D01*
X68728Y-32380D01*
X68670Y-32382D01*
X68670Y-32346D01*
X68638Y-32314D01*
X67552Y-32314D01*
X67505Y-32333D01*
X67469Y-32369D01*
X67449Y-32416D01*
X67449Y-32467D01*
X67449Y-33326D01*
X67481Y-33358D01*
X67515Y-33358D01*
X67517Y-33416D01*
X67481Y-33416D01*
X67449Y-33448D01*
X67449Y-34307D01*
X67449Y-34358D01*
X67469Y-34405D01*
X67505Y-34441D01*
X67552Y-34460D01*
X68638Y-34460D01*
X68670Y-34428D01*
X68670Y-34393D01*
X68728Y-34391D01*
X68728Y-34428D01*
X68760Y-34460D01*
X69846Y-34460D01*
X69893Y-34441D01*
X69929Y-34405D01*
X69949Y-34358D01*
X69949Y-40659D01*
X67047Y-40659D01*
X65768Y-39380D01*
X65768Y-37854D01*
X66408Y-37214D01*
X66545Y-37214D01*
X66707Y-37147D01*
X66832Y-37022D01*
X66899Y-36860D01*
X66899Y-36684D01*
X66832Y-36522D01*
X66707Y-36397D01*
X66545Y-36330D01*
X66369Y-36330D01*
X66226Y-36388D01*
X66205Y-36367D01*
X66043Y-36300D01*
X65867Y-36300D01*
X65705Y-36367D01*
X65677Y-36394D01*
X65521Y-36330D01*
X65345Y-36330D01*
X65183Y-36397D01*
X65177Y-36403D01*
X65171Y-36397D01*
X65030Y-36339D01*
X65065Y-36288D01*
X65069Y-36263D01*
X65158Y-36175D01*
X65225Y-36013D01*
X65225Y-35837D01*
X65158Y-35675D01*
X65033Y-35550D01*
X64871Y-35483D01*
X64695Y-35483D01*
X64533Y-35550D01*
X64408Y-35675D01*
X64341Y-35837D01*
X64341Y-35847D01*
X64282Y-35705D01*
X64157Y-35580D01*
X63995Y-35513D01*
X63819Y-35513D01*
X63657Y-35580D01*
X63566Y-35670D01*
X63554Y-35673D01*
X63455Y-35739D01*
X63453Y-35741D01*
X63101Y-36093D01*
X63035Y-36192D01*
X63012Y-36309D01*
X63012Y-37057D01*
X63035Y-37174D01*
X63101Y-37273D01*
X63148Y-37319D01*
X63150Y-37322D01*
X63573Y-37745D01*
X63573Y-37907D01*
X63546Y-37919D01*
X63477Y-37988D01*
X63440Y-38079D01*
X63440Y-38176D01*
X63440Y-38325D01*
X63384Y-38269D01*
X63320Y-38242D01*
X63354Y-38209D01*
X63373Y-38162D01*
X63373Y-38018D01*
X63373Y-37896D01*
X63373Y-37752D01*
X63354Y-37705D01*
X63318Y-37669D01*
X63271Y-37649D01*
X63220Y-37649D01*
X63126Y-37649D01*
X63094Y-37681D01*
X63094Y-37928D01*
X63341Y-37928D01*
X63373Y-37896D01*
X63373Y-38018D01*
X63341Y-37986D01*
X63143Y-37986D01*
X63094Y-37986D01*
X63036Y-37986D01*
X63036Y-37928D01*
X63036Y-37879D01*
X63036Y-37681D01*
X63004Y-37649D01*
X62910Y-37649D01*
X62859Y-37649D01*
X62812Y-37669D01*
X62776Y-37705D01*
X62766Y-37729D01*
X62766Y-37544D01*
X62836Y-37474D01*
X62903Y-37312D01*
X62903Y-37136D01*
X62864Y-37041D01*
X62864Y-35462D01*
X63971Y-35462D01*
X64066Y-35501D01*
X64242Y-35501D01*
X64404Y-35434D01*
X64529Y-35309D01*
X64596Y-35147D01*
X64596Y-34971D01*
X64529Y-34809D01*
X64471Y-34751D01*
X64536Y-34596D01*
X64536Y-34420D01*
X64469Y-34258D01*
X64379Y-34168D01*
X64379Y-34018D01*
X64440Y-34044D01*
X64616Y-34044D01*
X64778Y-33977D01*
X64903Y-33852D01*
X64970Y-33690D01*
X64970Y-33514D01*
X64903Y-33352D01*
X64778Y-33227D01*
X64616Y-33160D01*
X64537Y-33160D01*
X64537Y-31279D01*
X64675Y-31279D01*
X64837Y-31212D01*
X64962Y-31087D01*
X65029Y-30925D01*
X65029Y-30749D01*
X64962Y-30587D01*
X64837Y-30462D01*
X64704Y-30406D01*
X64704Y-29833D01*
X64766Y-29771D01*
X64868Y-29873D01*
X65030Y-29940D01*
X65073Y-29940D01*
X65089Y-29955D01*
X65089Y-30000D01*
X65089Y-30394D01*
X65115Y-30526D01*
X65190Y-30637D01*
X65562Y-31009D01*
X65562Y-31053D01*
X65629Y-31215D01*
X65754Y-31340D01*
X65916Y-31407D01*
X66092Y-31407D01*
X66254Y-31340D01*
X66285Y-31309D01*
X66358Y-31309D01*
X68406Y-31309D01*
X68538Y-31283D01*
X68649Y-31208D01*
X68885Y-30973D01*
X68885Y-30972D01*
X68960Y-30861D01*
X68985Y-30730D01*
X68986Y-30729D01*
X68986Y-30678D01*
X69064Y-30678D01*
X69226Y-30611D01*
X69351Y-30486D01*
X69418Y-30324D01*
X69418Y-30148D01*
X69351Y-29986D01*
X69226Y-29861D01*
X69102Y-29809D01*
X69115Y-29797D01*
X69182Y-29635D01*
X69182Y-29459D01*
X69115Y-29297D01*
X68990Y-29172D01*
X68828Y-29105D01*
X68652Y-29105D01*
X68490Y-29172D01*
X68483Y-29179D01*
X68483Y-29026D01*
X68416Y-28864D01*
X68291Y-28739D01*
X68129Y-28672D01*
X67963Y-28672D01*
X67864Y-28651D01*
X67859Y-28652D01*
X65885Y-28652D01*
X65924Y-28613D01*
X69773Y-28613D01*
X69773Y-29169D01*
X69684Y-29258D01*
X69617Y-29420D01*
X69617Y-29596D01*
X69684Y-29758D01*
X69809Y-29883D01*
X69971Y-29950D01*
X70147Y-29950D01*
X70309Y-29883D01*
X70434Y-29758D01*
X70501Y-29596D01*
X70501Y-29420D01*
X70434Y-29258D01*
X70345Y-29169D01*
X70345Y-28613D01*
X70412Y-28613D01*
X70771Y-28972D01*
X70772Y-28972D01*
X70773Y-28973D01*
X71172Y-29371D01*
X71172Y-29497D01*
X71239Y-29659D01*
X71364Y-29784D01*
X71526Y-29851D01*
X71702Y-29851D01*
X71864Y-29784D01*
X71989Y-29659D01*
X72056Y-29497D01*
X72056Y-29321D01*
X71989Y-29159D01*
X71864Y-29034D01*
X71702Y-28967D01*
X71574Y-28967D01*
X71177Y-28569D01*
X71176Y-28568D01*
X71176Y-28567D01*
X71042Y-28434D01*
X72474Y-28434D01*
X72479Y-28435D01*
X72479Y-28434D01*
X72589Y-28413D01*
X72681Y-28351D01*
X74238Y-26793D01*
X74240Y-26795D01*
X74460Y-26886D01*
X74698Y-26886D01*
X74918Y-26795D01*
X75087Y-26626D01*
X75178Y-26406D01*
X75178Y-26168D01*
X75087Y-25948D01*
X74926Y-25787D01*
X75087Y-25626D01*
X75178Y-25406D01*
X75178Y-25168D01*
X75087Y-24948D01*
X74918Y-24779D01*
X74698Y-24688D01*
X74460Y-24688D01*
X74240Y-24779D01*
X74079Y-24940D01*
X73918Y-24779D01*
X73698Y-24688D01*
X73460Y-24688D01*
X73240Y-24779D01*
X73079Y-24940D01*
X72918Y-24779D01*
X72698Y-24688D01*
X72460Y-24688D01*
X72240Y-24779D01*
X72079Y-24940D01*
X71918Y-24779D01*
X71698Y-24688D01*
X71460Y-24688D01*
X71240Y-24779D01*
X71079Y-24940D01*
X70918Y-24779D01*
X70698Y-24688D01*
X70460Y-24688D01*
X70240Y-24779D01*
X70079Y-24940D01*
X69918Y-24779D01*
X69698Y-24688D01*
X69460Y-24688D01*
X69240Y-24779D01*
X69079Y-24940D01*
X68918Y-24779D01*
X68698Y-24688D01*
X68460Y-24688D01*
X68240Y-24779D01*
X68079Y-24940D01*
X67918Y-24779D01*
X67698Y-24688D01*
X67460Y-24688D01*
X67240Y-24779D01*
X67079Y-24940D01*
X66918Y-24779D01*
X66698Y-24688D01*
X66460Y-24688D01*
X66240Y-24779D01*
X66079Y-24940D01*
X65918Y-24779D01*
X65698Y-24688D01*
X65460Y-24688D01*
X65240Y-24779D01*
X65071Y-24948D01*
X64980Y-25168D01*
X64980Y-25406D01*
X65071Y-25626D01*
X65145Y-25700D01*
X65086Y-25725D01*
X65017Y-25794D01*
X64980Y-25885D01*
X64980Y-25982D01*
X64980Y-26690D01*
X65017Y-26780D01*
X65019Y-26782D01*
X64370Y-27431D01*
X64370Y-26053D01*
X64339Y-25899D01*
X64252Y-25768D01*
X63486Y-25002D01*
X63355Y-24915D01*
X63201Y-24884D01*
X63200Y-24884D01*
X63019Y-24884D01*
X62914Y-24779D01*
X62694Y-24688D01*
X62456Y-24688D01*
X62236Y-24779D01*
X62075Y-24940D01*
X61914Y-24779D01*
X61694Y-24688D01*
X61456Y-24688D01*
X61236Y-24779D01*
X61075Y-24940D01*
X60914Y-24779D01*
X60694Y-24688D01*
X60456Y-24688D01*
X60236Y-24779D01*
X60131Y-24884D01*
X54004Y-24884D01*
X53850Y-24915D01*
X53719Y-25002D01*
X51939Y-26782D01*
X51852Y-26913D01*
X51821Y-27067D01*
X51821Y-33743D01*
X51852Y-33897D01*
X51939Y-34028D01*
X52681Y-34770D01*
X52681Y-34918D01*
X52772Y-35138D01*
X52941Y-35307D01*
X53161Y-35398D01*
X53399Y-35398D01*
X53619Y-35307D01*
X53780Y-35146D01*
X53941Y-35307D01*
X54161Y-35398D01*
X54390Y-35398D01*
X57995Y-39003D01*
X57996Y-39003D01*
X58107Y-39078D01*
X58238Y-39103D01*
X58239Y-39104D01*
X61339Y-39104D01*
X61339Y-43396D01*
X61370Y-43550D01*
X61457Y-43681D01*
X61671Y-43895D01*
X61801Y-43981D01*
X61802Y-43982D01*
X61956Y-44013D01*
X62068Y-44013D01*
X62106Y-44051D01*
X62298Y-44131D01*
X62505Y-44131D01*
X62697Y-44052D01*
X62843Y-43906D01*
X62902Y-43764D01*
X62960Y-43905D01*
X63106Y-44051D01*
X63298Y-44131D01*
X63505Y-44131D01*
X63697Y-44052D01*
X63843Y-43906D01*
X63923Y-43714D01*
X63923Y-43507D01*
X63844Y-43315D01*
X63698Y-43169D01*
X63604Y-43130D01*
X63726Y-43130D01*
X63816Y-43093D01*
X63885Y-43024D01*
X63922Y-42933D01*
X63922Y-42836D01*
X63922Y-42286D01*
X63885Y-42196D01*
X63816Y-42127D01*
X63725Y-42090D01*
X63628Y-42090D01*
X63078Y-42090D01*
X62988Y-42127D01*
X62919Y-42196D01*
X62902Y-42237D01*
X62885Y-42196D01*
X62816Y-42127D01*
X62725Y-42090D01*
X62628Y-42090D01*
X62145Y-42090D01*
X62145Y-38976D01*
X62185Y-38936D01*
X62272Y-38805D01*
X62303Y-38651D01*
X62303Y-38327D01*
X62640Y-38664D01*
X62640Y-38886D01*
X62677Y-38976D01*
X62746Y-39045D01*
X62837Y-39082D01*
X62934Y-39082D01*
X63294Y-39082D01*
X63384Y-39045D01*
X63436Y-38993D01*
X63436Y-39143D01*
X63464Y-39213D01*
X63436Y-39284D01*
X63436Y-39381D01*
X63436Y-39735D01*
X63473Y-39825D01*
X63542Y-39894D01*
X63633Y-39931D01*
X63653Y-39931D01*
X63676Y-39966D01*
X63753Y-40042D01*
X63755Y-40045D01*
X63848Y-40106D01*
X63956Y-40128D01*
X63956Y-40127D01*
X63957Y-40128D01*
X64094Y-40128D01*
X64481Y-40514D01*
X64483Y-40517D01*
X66154Y-42187D01*
X66071Y-42271D01*
X66011Y-42414D01*
X65986Y-42350D01*
X65917Y-42313D01*
X65876Y-42354D01*
X65876Y-42272D01*
X65839Y-42203D01*
X65663Y-42136D01*
X65475Y-42140D01*
X65319Y-42203D01*
X65282Y-42272D01*
X65579Y-42569D01*
X65876Y-42272D01*
X65876Y-42354D01*
X65620Y-42610D01*
X65917Y-42907D01*
X65986Y-42870D01*
X66011Y-42804D01*
X66071Y-42949D01*
X66232Y-43110D01*
X66071Y-43271D01*
X66061Y-43295D01*
X66061Y-43281D01*
X66061Y-43230D01*
X66041Y-43183D01*
X66005Y-43147D01*
X65958Y-43128D01*
X65876Y-43128D01*
X65876Y-42948D01*
X65579Y-42651D01*
X65538Y-42692D01*
X65538Y-42610D01*
X65241Y-42313D01*
X65172Y-42350D01*
X65105Y-42526D01*
X65109Y-42714D01*
X65172Y-42870D01*
X65241Y-42907D01*
X65538Y-42610D01*
X65538Y-42692D01*
X65282Y-42948D01*
X65319Y-43017D01*
X65495Y-43084D01*
X65683Y-43080D01*
X65839Y-43017D01*
X65876Y-42948D01*
X65876Y-43128D01*
X65640Y-43128D01*
X65608Y-43160D01*
X65608Y-43532D01*
X65608Y-43581D01*
X65608Y-43639D01*
X65608Y-43688D01*
X65608Y-44060D01*
X65640Y-44092D01*
X65958Y-44092D01*
X66005Y-44073D01*
X66041Y-44037D01*
X66061Y-43990D01*
X66061Y-43939D01*
X66061Y-43924D01*
X66071Y-43949D01*
X66240Y-44118D01*
X66460Y-44209D01*
X66698Y-44209D01*
X66918Y-44118D01*
X67079Y-43957D01*
X67240Y-44118D01*
X67460Y-44209D01*
X67698Y-44209D01*
X67918Y-44118D01*
X68079Y-43957D01*
X68240Y-44118D01*
X68460Y-44209D01*
X68698Y-44209D01*
X68918Y-44118D01*
X69079Y-43957D01*
X69240Y-44118D01*
X69460Y-44209D01*
X69698Y-44209D01*
X69918Y-44118D01*
X70079Y-43957D01*
X70240Y-44118D01*
X70460Y-44209D01*
X70698Y-44209D01*
X70918Y-44118D01*
X71079Y-43957D01*
X71240Y-44118D01*
X71460Y-44209D01*
X71698Y-44209D01*
X71918Y-44118D01*
X72079Y-43957D01*
X72240Y-44118D01*
X72460Y-44209D01*
X72698Y-44209D01*
X72918Y-44118D01*
X73079Y-43957D01*
X73240Y-44118D01*
X73460Y-44209D01*
X73698Y-44209D01*
X73918Y-44118D01*
X74079Y-43957D01*
X74240Y-44118D01*
X74460Y-44209D01*
X74698Y-44209D01*
X74918Y-44118D01*
X75087Y-43949D01*
X75178Y-43729D01*
X75178Y-44301D01*
X65550Y-44301D01*
X65550Y-44060D01*
X65550Y-43639D01*
X65550Y-43581D01*
X65550Y-43160D01*
X65518Y-43128D01*
X65200Y-43128D01*
X65153Y-43147D01*
X65117Y-43183D01*
X65097Y-43230D01*
X65097Y-43281D01*
X65097Y-43549D01*
X65129Y-43581D01*
X65550Y-43581D01*
X65550Y-43639D01*
X65129Y-43639D01*
X65097Y-43671D01*
X65097Y-43939D01*
X65097Y-43990D01*
X65117Y-44037D01*
X65153Y-44073D01*
X65200Y-44092D01*
X65518Y-44092D01*
X65550Y-44060D01*
X65550Y-44301D01*
X60095Y-44301D01*
X60095Y-42726D01*
X60095Y-42519D01*
X60016Y-42327D01*
X59870Y-42181D01*
X59678Y-42101D01*
X59471Y-42101D01*
X59279Y-42180D01*
X59133Y-42326D01*
X59094Y-42419D01*
X59094Y-42298D01*
X59057Y-42208D01*
X58988Y-42139D01*
X58897Y-42102D01*
X58800Y-42102D01*
X58250Y-42102D01*
X58160Y-42139D01*
X58091Y-42208D01*
X58059Y-42286D01*
X58005Y-42232D01*
X57843Y-42165D01*
X57667Y-42165D01*
X57626Y-42181D01*
X57626Y-40835D01*
X57626Y-40738D01*
X57626Y-40246D01*
X57589Y-40156D01*
X57520Y-40087D01*
X57429Y-40050D01*
X57332Y-40050D01*
X56152Y-40050D01*
X56062Y-40087D01*
X55993Y-40156D01*
X55992Y-40158D01*
X55939Y-40169D01*
X55808Y-40256D01*
X55450Y-40613D01*
X55446Y-40609D01*
X55353Y-40570D01*
X55445Y-40533D01*
X55599Y-40380D01*
X55682Y-40180D01*
X55682Y-39963D01*
X55599Y-39763D01*
X55446Y-39609D01*
X55246Y-39526D01*
X55029Y-39526D01*
X54829Y-39609D01*
X54743Y-39693D01*
X54659Y-39609D01*
X54459Y-39526D01*
X54242Y-39526D01*
X54042Y-39609D01*
X53933Y-39717D01*
X53933Y-38333D01*
X53931Y-38077D01*
X53836Y-37846D01*
X53750Y-37787D01*
X53709Y-37828D01*
X53709Y-37746D01*
X53650Y-37660D01*
X53411Y-37563D01*
X53155Y-37565D01*
X52924Y-37660D01*
X52865Y-37746D01*
X53287Y-38168D01*
X53709Y-37746D01*
X53709Y-37828D01*
X53328Y-38209D01*
X53750Y-38631D01*
X53836Y-38572D01*
X53933Y-38333D01*
X53933Y-39717D01*
X53888Y-39762D01*
X53805Y-39962D01*
X53805Y-40179D01*
X53888Y-40379D01*
X54041Y-40533D01*
X54241Y-40616D01*
X54458Y-40616D01*
X54658Y-40533D01*
X54743Y-40448D01*
X54828Y-40533D01*
X54920Y-40571D01*
X54829Y-40609D01*
X54675Y-40762D01*
X54653Y-40814D01*
X54649Y-40813D01*
X54608Y-40854D01*
X54608Y-40772D01*
X54578Y-40709D01*
X54422Y-40650D01*
X54255Y-40654D01*
X54122Y-40709D01*
X54092Y-40772D01*
X54350Y-41030D01*
X54608Y-40772D01*
X54608Y-40854D01*
X54391Y-41071D01*
X54649Y-41329D01*
X54653Y-41326D01*
X54675Y-41379D01*
X54828Y-41533D01*
X55028Y-41616D01*
X55245Y-41616D01*
X55445Y-41533D01*
X55502Y-41476D01*
X55561Y-41476D01*
X55715Y-41445D01*
X55846Y-41358D01*
X56172Y-41032D01*
X56250Y-41032D01*
X57430Y-41032D01*
X57520Y-40995D01*
X57589Y-40926D01*
X57626Y-40835D01*
X57626Y-42181D01*
X57572Y-42204D01*
X57571Y-42204D01*
X57520Y-42153D01*
X57429Y-42116D01*
X57332Y-42116D01*
X56152Y-42116D01*
X56062Y-42153D01*
X55993Y-42222D01*
X55956Y-42313D01*
X55956Y-42410D01*
X55956Y-42902D01*
X55993Y-42992D01*
X56062Y-43061D01*
X56153Y-43098D01*
X56250Y-43098D01*
X57430Y-43098D01*
X57520Y-43061D01*
X57571Y-43010D01*
X57572Y-43010D01*
X57667Y-43049D01*
X57843Y-43049D01*
X58005Y-42982D01*
X58054Y-42933D01*
X58054Y-42946D01*
X58091Y-43036D01*
X58160Y-43105D01*
X58251Y-43142D01*
X58348Y-43142D01*
X58898Y-43142D01*
X58988Y-43105D01*
X59057Y-43036D01*
X59094Y-42945D01*
X59094Y-42848D01*
X59094Y-42824D01*
X59132Y-42917D01*
X59278Y-43063D01*
X59470Y-43143D01*
X59677Y-43143D01*
X59869Y-43064D01*
X60015Y-42918D01*
X60095Y-42726D01*
X60095Y-44301D01*
X54608Y-44301D01*
X54608Y-41370D01*
X54350Y-41112D01*
X54309Y-41153D01*
X54309Y-41071D01*
X54051Y-40813D01*
X53988Y-40843D01*
X53929Y-40999D01*
X53933Y-41166D01*
X53988Y-41299D01*
X54051Y-41329D01*
X54309Y-41071D01*
X54309Y-41153D01*
X54092Y-41370D01*
X54122Y-41433D01*
X54278Y-41492D01*
X54445Y-41488D01*
X54578Y-41433D01*
X54608Y-41370D01*
X54608Y-44301D01*
X53933Y-44301D01*
X53933Y-43057D01*
X53931Y-42801D01*
X53836Y-42570D01*
X53750Y-42511D01*
X53709Y-42552D01*
X53709Y-42470D01*
X53709Y-38672D01*
X53287Y-38250D01*
X53246Y-38291D01*
X53246Y-38209D01*
X52824Y-37787D01*
X52738Y-37846D01*
X52641Y-38085D01*
X52643Y-38341D01*
X52738Y-38572D01*
X52824Y-38631D01*
X53246Y-38209D01*
X53246Y-38291D01*
X52865Y-38672D01*
X52924Y-38758D01*
X53163Y-38855D01*
X53419Y-38853D01*
X53650Y-38758D01*
X53709Y-38672D01*
X53709Y-42470D01*
X53650Y-42384D01*
X53411Y-42287D01*
X53155Y-42289D01*
X52924Y-42384D01*
X52865Y-42470D01*
X53287Y-42892D01*
X53709Y-42470D01*
X53709Y-42552D01*
X53328Y-42933D01*
X53750Y-43355D01*
X53836Y-43296D01*
X53933Y-43057D01*
X53933Y-44301D01*
X53709Y-44301D01*
X53709Y-43396D01*
X53287Y-42974D01*
X53246Y-43015D01*
X53246Y-42933D01*
X52824Y-42511D01*
X52738Y-42570D01*
X52641Y-42809D01*
X52643Y-43065D01*
X52738Y-43296D01*
X52824Y-43355D01*
X53246Y-42933D01*
X53246Y-43015D01*
X52865Y-43396D01*
X52924Y-43482D01*
X53163Y-43579D01*
X53419Y-43577D01*
X53650Y-43482D01*
X53709Y-43396D01*
X53709Y-44301D01*
X50699Y-44301D01*
X50699Y-24596D01*
X77185Y-24596D01*
X77185Y-44301D01*
X77185Y-44301D01*
G37*
G54D11*
X77185Y-44301D02*
X76968Y-44301D01*
X76968Y-34443D01*
X76968Y-34161D01*
X76968Y-32041D01*
X76968Y-31759D01*
X76860Y-31499D01*
X76661Y-31300D01*
X76401Y-31196D01*
X76289Y-31215D01*
X76289Y-31871D01*
X76949Y-31871D01*
X76968Y-31759D01*
X76968Y-32041D01*
X76949Y-31929D01*
X76289Y-31929D01*
X76289Y-32585D01*
X76401Y-32604D01*
X76661Y-32500D01*
X76860Y-32301D01*
X76968Y-32041D01*
X76968Y-34161D01*
X76860Y-33901D01*
X76661Y-33702D01*
X76401Y-33598D01*
X76289Y-33617D01*
X76289Y-34273D01*
X76949Y-34273D01*
X76968Y-34161D01*
X76968Y-34443D01*
X76949Y-34331D01*
X76289Y-34331D01*
X76289Y-34987D01*
X76401Y-35006D01*
X76661Y-34902D01*
X76860Y-34703D01*
X76968Y-34443D01*
X76968Y-44301D01*
X76231Y-44301D01*
X76231Y-34987D01*
X76231Y-34331D01*
X76231Y-34273D01*
X76231Y-33617D01*
X76231Y-32585D01*
X76231Y-31929D01*
X76231Y-31871D01*
X76231Y-31215D01*
X76119Y-31196D01*
X75859Y-31300D01*
X75660Y-31499D01*
X75552Y-31759D01*
X75571Y-31871D01*
X76231Y-31871D01*
X76231Y-31929D01*
X75571Y-31929D01*
X75552Y-32041D01*
X75660Y-32301D01*
X75859Y-32500D01*
X76119Y-32604D01*
X76231Y-32585D01*
X76231Y-33617D01*
X76119Y-33598D01*
X75860Y-33701D01*
X75860Y-33277D01*
X75860Y-32958D01*
X75860Y-32926D01*
X75738Y-32632D01*
X75513Y-32406D01*
X75219Y-32284D01*
X74900Y-32284D01*
X74606Y-32406D01*
X74566Y-32445D01*
X74566Y-32041D01*
X74566Y-31759D01*
X74458Y-31499D01*
X74259Y-31300D01*
X73999Y-31196D01*
X73887Y-31215D01*
X73887Y-31871D01*
X74547Y-31871D01*
X74566Y-31759D01*
X74566Y-32041D01*
X74547Y-31929D01*
X73887Y-31929D01*
X73887Y-32585D01*
X73999Y-32604D01*
X74259Y-32500D01*
X74458Y-32301D01*
X74566Y-32041D01*
X74566Y-32445D01*
X74380Y-32631D01*
X74258Y-32925D01*
X74258Y-33244D01*
X74258Y-33276D01*
X74380Y-33570D01*
X74605Y-33796D01*
X74899Y-33918D01*
X75218Y-33918D01*
X75512Y-33796D01*
X75738Y-33571D01*
X75860Y-33277D01*
X75860Y-33701D01*
X75859Y-33702D01*
X75660Y-33901D01*
X75552Y-34161D01*
X75571Y-34273D01*
X76231Y-34273D01*
X76231Y-34331D01*
X75571Y-34331D01*
X75552Y-34443D01*
X75660Y-34703D01*
X75859Y-34902D01*
X76119Y-35006D01*
X76231Y-34987D01*
X76231Y-44301D01*
X75178Y-44301D01*
X75178Y-43729D01*
X75178Y-43491D01*
X75087Y-43271D01*
X74926Y-43110D01*
X75087Y-42949D01*
X75178Y-42729D01*
X75178Y-42491D01*
X75087Y-42271D01*
X74918Y-42102D01*
X74698Y-42011D01*
X74566Y-42011D01*
X74566Y-34443D01*
X74566Y-34161D01*
X74458Y-33901D01*
X74259Y-33702D01*
X73999Y-33598D01*
X73887Y-33617D01*
X73887Y-34273D01*
X74547Y-34273D01*
X74566Y-34161D01*
X74566Y-34443D01*
X74547Y-34331D01*
X73887Y-34331D01*
X73887Y-34987D01*
X73999Y-35006D01*
X74259Y-34902D01*
X74458Y-34703D01*
X74566Y-34443D01*
X74566Y-42011D01*
X74460Y-42011D01*
X74240Y-42102D01*
X74219Y-42122D01*
X73829Y-41732D01*
X73829Y-34987D01*
X73829Y-34331D01*
X73829Y-34273D01*
X73829Y-33617D01*
X73829Y-32585D01*
X73829Y-31929D01*
X73829Y-31871D01*
X73829Y-31215D01*
X73717Y-31196D01*
X73457Y-31300D01*
X73258Y-31499D01*
X73150Y-31759D01*
X73169Y-31871D01*
X73829Y-31871D01*
X73829Y-31929D01*
X73169Y-31929D01*
X73150Y-32041D01*
X73258Y-32301D01*
X73457Y-32500D01*
X73717Y-32604D01*
X73829Y-32585D01*
X73829Y-33617D01*
X73717Y-33598D01*
X73457Y-33702D01*
X73258Y-33901D01*
X73150Y-34161D01*
X73169Y-34273D01*
X73829Y-34273D01*
X73829Y-34331D01*
X73169Y-34331D01*
X73150Y-34443D01*
X73258Y-34703D01*
X73457Y-34902D01*
X73717Y-35006D01*
X73829Y-34987D01*
X73829Y-41732D01*
X72840Y-40743D01*
X72748Y-40681D01*
X72638Y-40659D01*
X69949Y-40659D01*
X69949Y-34358D01*
X69949Y-34307D01*
X69949Y-33448D01*
X69917Y-33416D01*
X69882Y-33416D01*
X69880Y-33358D01*
X69917Y-33358D01*
X69949Y-33326D01*
X69949Y-32467D01*
X69949Y-32416D01*
X69929Y-32369D01*
X69893Y-32333D01*
X69846Y-32314D01*
X68760Y-32314D01*
X68728Y-32346D01*
X68728Y-32380D01*
X68670Y-32382D01*
X68670Y-32346D01*
X68638Y-32314D01*
X67552Y-32314D01*
X67505Y-32333D01*
X67469Y-32369D01*
X67449Y-32416D01*
X67449Y-32467D01*
X67449Y-33326D01*
X67481Y-33358D01*
X67515Y-33358D01*
X67517Y-33416D01*
X67481Y-33416D01*
X67449Y-33448D01*
X67449Y-34307D01*
X67449Y-34358D01*
X67469Y-34405D01*
X67505Y-34441D01*
X67552Y-34460D01*
X68638Y-34460D01*
X68670Y-34428D01*
X68670Y-34393D01*
X68728Y-34391D01*
X68728Y-34428D01*
X68760Y-34460D01*
X69846Y-34460D01*
X69893Y-34441D01*
X69929Y-34405D01*
X69949Y-34358D01*
X69949Y-40659D01*
X67047Y-40659D01*
X65768Y-39380D01*
X65768Y-37854D01*
X66408Y-37214D01*
X66545Y-37214D01*
X66707Y-37147D01*
X66832Y-37022D01*
X66899Y-36860D01*
X66899Y-36684D01*
X66832Y-36522D01*
X66707Y-36397D01*
X66545Y-36330D01*
X66369Y-36330D01*
X66226Y-36388D01*
X66205Y-36367D01*
X66043Y-36300D01*
X65867Y-36300D01*
X65705Y-36367D01*
X65677Y-36394D01*
X65521Y-36330D01*
X65345Y-36330D01*
X65183Y-36397D01*
X65177Y-36403D01*
X65171Y-36397D01*
X65030Y-36339D01*
X65065Y-36288D01*
X65069Y-36263D01*
X65158Y-36175D01*
X65225Y-36013D01*
X65225Y-35837D01*
X65158Y-35675D01*
X65033Y-35550D01*
X64871Y-35483D01*
X64695Y-35483D01*
X64533Y-35550D01*
X64408Y-35675D01*
X64341Y-35837D01*
X64341Y-35847D01*
X64282Y-35705D01*
X64157Y-35580D01*
X63995Y-35513D01*
X63819Y-35513D01*
X63657Y-35580D01*
X63566Y-35670D01*
X63554Y-35673D01*
X63455Y-35739D01*
X63453Y-35741D01*
X63101Y-36093D01*
X63035Y-36192D01*
X63012Y-36309D01*
X63012Y-37057D01*
X63035Y-37174D01*
X63101Y-37273D01*
X63148Y-37319D01*
X63150Y-37322D01*
X63573Y-37745D01*
X63573Y-37907D01*
X63546Y-37919D01*
X63477Y-37988D01*
X63440Y-38079D01*
X63440Y-38176D01*
X63440Y-38325D01*
X63384Y-38269D01*
X63320Y-38242D01*
X63354Y-38209D01*
X63373Y-38162D01*
X63373Y-38018D01*
X63373Y-37896D01*
X63373Y-37752D01*
X63354Y-37705D01*
X63318Y-37669D01*
X63271Y-37649D01*
X63220Y-37649D01*
X63126Y-37649D01*
X63094Y-37681D01*
X63094Y-37928D01*
X63341Y-37928D01*
X63373Y-37896D01*
X63373Y-38018D01*
X63341Y-37986D01*
X63143Y-37986D01*
X63094Y-37986D01*
X63036Y-37986D01*
X63036Y-37928D01*
X63036Y-37879D01*
X63036Y-37681D01*
X63004Y-37649D01*
X62910Y-37649D01*
X62859Y-37649D01*
X62812Y-37669D01*
X62776Y-37705D01*
X62766Y-37729D01*
X62766Y-37544D01*
X62836Y-37474D01*
X62903Y-37312D01*
X62903Y-37136D01*
X62864Y-37041D01*
X62864Y-35462D01*
X63971Y-35462D01*
X64066Y-35501D01*
X64242Y-35501D01*
X64404Y-35434D01*
X64529Y-35309D01*
X64596Y-35147D01*
X64596Y-34971D01*
X64529Y-34809D01*
X64471Y-34751D01*
X64536Y-34596D01*
X64536Y-34420D01*
X64469Y-34258D01*
X64379Y-34168D01*
X64379Y-34018D01*
X64440Y-34044D01*
X64616Y-34044D01*
X64778Y-33977D01*
X64903Y-33852D01*
X64970Y-33690D01*
X64970Y-33514D01*
X64903Y-33352D01*
X64778Y-33227D01*
X64616Y-33160D01*
X64537Y-33160D01*
X64537Y-31279D01*
X64675Y-31279D01*
X64837Y-31212D01*
X64962Y-31087D01*
X65029Y-30925D01*
X65029Y-30749D01*
X64962Y-30587D01*
X64837Y-30462D01*
X64704Y-30406D01*
X64704Y-29833D01*
X64766Y-29771D01*
X64868Y-29873D01*
X65030Y-29940D01*
X65073Y-29940D01*
X65089Y-29955D01*
X65089Y-30000D01*
X65089Y-30394D01*
X65115Y-30526D01*
X65190Y-30637D01*
X65562Y-31009D01*
X65562Y-31053D01*
X65629Y-31215D01*
X65754Y-31340D01*
X65916Y-31407D01*
X66092Y-31407D01*
X66254Y-31340D01*
X66285Y-31309D01*
X66358Y-31309D01*
X68406Y-31309D01*
X68538Y-31283D01*
X68649Y-31208D01*
X68885Y-30973D01*
X68885Y-30972D01*
X68960Y-30861D01*
X68985Y-30730D01*
X68986Y-30729D01*
X68986Y-30678D01*
X69064Y-30678D01*
X69226Y-30611D01*
X69351Y-30486D01*
X69418Y-30324D01*
X69418Y-30148D01*
X69351Y-29986D01*
X69226Y-29861D01*
X69102Y-29809D01*
X69115Y-29797D01*
X69182Y-29635D01*
X69182Y-29459D01*
X69115Y-29297D01*
X68990Y-29172D01*
X68828Y-29105D01*
X68652Y-29105D01*
X68490Y-29172D01*
X68483Y-29179D01*
X68483Y-29026D01*
X68416Y-28864D01*
X68291Y-28739D01*
X68129Y-28672D01*
X67963Y-28672D01*
X67864Y-28651D01*
X67859Y-28652D01*
X65885Y-28652D01*
X65924Y-28613D01*
X69773Y-28613D01*
X69773Y-29169D01*
X69684Y-29258D01*
X69617Y-29420D01*
X69617Y-29596D01*
X69684Y-29758D01*
X69809Y-29883D01*
X69971Y-29950D01*
X70147Y-29950D01*
X70309Y-29883D01*
X70434Y-29758D01*
X70501Y-29596D01*
X70501Y-29420D01*
X70434Y-29258D01*
X70345Y-29169D01*
X70345Y-28613D01*
X70412Y-28613D01*
X70771Y-28972D01*
X70772Y-28972D01*
X70773Y-28973D01*
X71172Y-29371D01*
X71172Y-29497D01*
X71239Y-29659D01*
X71364Y-29784D01*
X71526Y-29851D01*
X71702Y-29851D01*
X71864Y-29784D01*
X71989Y-29659D01*
X72056Y-29497D01*
X72056Y-29321D01*
X71989Y-29159D01*
X71864Y-29034D01*
X71702Y-28967D01*
X71574Y-28967D01*
X71177Y-28569D01*
X71176Y-28568D01*
X71176Y-28567D01*
X71042Y-28434D01*
X72474Y-28434D01*
X72479Y-28435D01*
X72479Y-28434D01*
X72589Y-28413D01*
X72681Y-28351D01*
X74238Y-26793D01*
X74240Y-26795D01*
X74460Y-26886D01*
X74698Y-26886D01*
X74918Y-26795D01*
X75087Y-26626D01*
X75178Y-26406D01*
X75178Y-26168D01*
X75087Y-25948D01*
X74926Y-25787D01*
X75087Y-25626D01*
X75178Y-25406D01*
X75178Y-25168D01*
X75087Y-24948D01*
X74918Y-24779D01*
X74698Y-24688D01*
X74460Y-24688D01*
X74240Y-24779D01*
X74079Y-24940D01*
X73918Y-24779D01*
X73698Y-24688D01*
X73460Y-24688D01*
X73240Y-24779D01*
X73079Y-24940D01*
X72918Y-24779D01*
X72698Y-24688D01*
X72460Y-24688D01*
X72240Y-24779D01*
X72079Y-24940D01*
X71918Y-24779D01*
X71698Y-24688D01*
X71460Y-24688D01*
X71240Y-24779D01*
X71079Y-24940D01*
X70918Y-24779D01*
X70698Y-24688D01*
X70460Y-24688D01*
X70240Y-24779D01*
X70079Y-24940D01*
X69918Y-24779D01*
X69698Y-24688D01*
X69460Y-24688D01*
X69240Y-24779D01*
X69079Y-24940D01*
X68918Y-24779D01*
X68698Y-24688D01*
X68460Y-24688D01*
X68240Y-24779D01*
X68079Y-24940D01*
X67918Y-24779D01*
X67698Y-24688D01*
X67460Y-24688D01*
X67240Y-24779D01*
X67079Y-24940D01*
X66918Y-24779D01*
X66698Y-24688D01*
X66460Y-24688D01*
X66240Y-24779D01*
X66079Y-24940D01*
X65918Y-24779D01*
X65698Y-24688D01*
X65460Y-24688D01*
X65240Y-24779D01*
X65071Y-24948D01*
X64980Y-25168D01*
X64980Y-25406D01*
X65071Y-25626D01*
X65145Y-25700D01*
X65086Y-25725D01*
X65017Y-25794D01*
X64980Y-25885D01*
X64980Y-25982D01*
X64980Y-26690D01*
X65017Y-26780D01*
X65019Y-26782D01*
X64370Y-27431D01*
X64370Y-26053D01*
X64339Y-25899D01*
X64252Y-25768D01*
X63486Y-25002D01*
X63355Y-24915D01*
X63201Y-24884D01*
X63200Y-24884D01*
X63019Y-24884D01*
X62914Y-24779D01*
X62694Y-24688D01*
X62456Y-24688D01*
X62236Y-24779D01*
X62075Y-24940D01*
X61914Y-24779D01*
X61694Y-24688D01*
X61456Y-24688D01*
X61236Y-24779D01*
X61075Y-24940D01*
X60914Y-24779D01*
X60694Y-24688D01*
X60456Y-24688D01*
X60236Y-24779D01*
X60131Y-24884D01*
X54004Y-24884D01*
X53850Y-24915D01*
X53719Y-25002D01*
X51939Y-26782D01*
X51852Y-26913D01*
X51821Y-27067D01*
X51821Y-33743D01*
X51852Y-33897D01*
X51939Y-34028D01*
X52681Y-34770D01*
X52681Y-34918D01*
X52772Y-35138D01*
X52941Y-35307D01*
X53161Y-35398D01*
X53399Y-35398D01*
X53619Y-35307D01*
X53780Y-35146D01*
X53941Y-35307D01*
X54161Y-35398D01*
X54390Y-35398D01*
X57995Y-39003D01*
X57996Y-39003D01*
X58107Y-39078D01*
X58238Y-39103D01*
X58239Y-39104D01*
X61339Y-39104D01*
X61339Y-43396D01*
X61370Y-43550D01*
X61457Y-43681D01*
X61671Y-43895D01*
X61801Y-43981D01*
X61802Y-43982D01*
X61956Y-44013D01*
X62068Y-44013D01*
X62106Y-44051D01*
X62298Y-44131D01*
X62505Y-44131D01*
X62697Y-44052D01*
X62843Y-43906D01*
X62902Y-43764D01*
X62960Y-43905D01*
X63106Y-44051D01*
X63298Y-44131D01*
X63505Y-44131D01*
X63697Y-44052D01*
X63843Y-43906D01*
X63923Y-43714D01*
X63923Y-43507D01*
X63844Y-43315D01*
X63698Y-43169D01*
X63604Y-43130D01*
X63726Y-43130D01*
X63816Y-43093D01*
X63885Y-43024D01*
X63922Y-42933D01*
X63922Y-42836D01*
X63922Y-42286D01*
X63885Y-42196D01*
X63816Y-42127D01*
X63725Y-42090D01*
X63628Y-42090D01*
X63078Y-42090D01*
X62988Y-42127D01*
X62919Y-42196D01*
X62902Y-42237D01*
X62885Y-42196D01*
X62816Y-42127D01*
X62725Y-42090D01*
X62628Y-42090D01*
X62145Y-42090D01*
X62145Y-38976D01*
X62185Y-38936D01*
X62272Y-38805D01*
X62303Y-38651D01*
X62303Y-38327D01*
X62640Y-38664D01*
X62640Y-38886D01*
X62677Y-38976D01*
X62746Y-39045D01*
X62837Y-39082D01*
X62934Y-39082D01*
X63294Y-39082D01*
X63384Y-39045D01*
X63436Y-38993D01*
X63436Y-39143D01*
X63464Y-39213D01*
X63436Y-39284D01*
X63436Y-39381D01*
X63436Y-39735D01*
X63473Y-39825D01*
X63542Y-39894D01*
X63633Y-39931D01*
X63653Y-39931D01*
X63676Y-39966D01*
X63753Y-40042D01*
X63755Y-40045D01*
X63848Y-40106D01*
X63956Y-40128D01*
X63956Y-40127D01*
X63957Y-40128D01*
X64094Y-40128D01*
X64481Y-40514D01*
X64483Y-40517D01*
X66154Y-42187D01*
X66071Y-42271D01*
X66011Y-42414D01*
X65986Y-42350D01*
X65917Y-42313D01*
X65876Y-42354D01*
X65876Y-42272D01*
X65839Y-42203D01*
X65663Y-42136D01*
X65475Y-42140D01*
X65319Y-42203D01*
X65282Y-42272D01*
X65579Y-42569D01*
X65876Y-42272D01*
X65876Y-42354D01*
X65620Y-42610D01*
X65917Y-42907D01*
X65986Y-42870D01*
X66011Y-42804D01*
X66071Y-42949D01*
X66232Y-43110D01*
X66071Y-43271D01*
X66061Y-43295D01*
X66061Y-43281D01*
X66061Y-43230D01*
X66041Y-43183D01*
X66005Y-43147D01*
X65958Y-43128D01*
X65876Y-43128D01*
X65876Y-42948D01*
X65579Y-42651D01*
X65538Y-42692D01*
X65538Y-42610D01*
X65241Y-42313D01*
X65172Y-42350D01*
X65105Y-42526D01*
X65109Y-42714D01*
X65172Y-42870D01*
X65241Y-42907D01*
X65538Y-42610D01*
X65538Y-42692D01*
X65282Y-42948D01*
X65319Y-43017D01*
X65495Y-43084D01*
X65683Y-43080D01*
X65839Y-43017D01*
X65876Y-42948D01*
X65876Y-43128D01*
X65640Y-43128D01*
X65608Y-43160D01*
X65608Y-43532D01*
X65608Y-43581D01*
X65608Y-43639D01*
X65608Y-43688D01*
X65608Y-44060D01*
X65640Y-44092D01*
X65958Y-44092D01*
X66005Y-44073D01*
X66041Y-44037D01*
X66061Y-43990D01*
X66061Y-43939D01*
X66061Y-43924D01*
X66071Y-43949D01*
X66240Y-44118D01*
X66460Y-44209D01*
X66698Y-44209D01*
X66918Y-44118D01*
X67079Y-43957D01*
X67240Y-44118D01*
X67460Y-44209D01*
X67698Y-44209D01*
X67918Y-44118D01*
X68079Y-43957D01*
X68240Y-44118D01*
X68460Y-44209D01*
X68698Y-44209D01*
X68918Y-44118D01*
X69079Y-43957D01*
X69240Y-44118D01*
X69460Y-44209D01*
X69698Y-44209D01*
X69918Y-44118D01*
X70079Y-43957D01*
X70240Y-44118D01*
X70460Y-44209D01*
X70698Y-44209D01*
X70918Y-44118D01*
X71079Y-43957D01*
X71240Y-44118D01*
X71460Y-44209D01*
X71698Y-44209D01*
X71918Y-44118D01*
X72079Y-43957D01*
X72240Y-44118D01*
X72460Y-44209D01*
X72698Y-44209D01*
X72918Y-44118D01*
X73079Y-43957D01*
X73240Y-44118D01*
X73460Y-44209D01*
X73698Y-44209D01*
X73918Y-44118D01*
X74079Y-43957D01*
X74240Y-44118D01*
X74460Y-44209D01*
X74698Y-44209D01*
X74918Y-44118D01*
X75087Y-43949D01*
X75178Y-43729D01*
X75178Y-44301D01*
X65550Y-44301D01*
X65550Y-44060D01*
X65550Y-43639D01*
X65550Y-43581D01*
X65550Y-43160D01*
X65518Y-43128D01*
X65200Y-43128D01*
X65153Y-43147D01*
X65117Y-43183D01*
X65097Y-43230D01*
X65097Y-43281D01*
X65097Y-43549D01*
X65129Y-43581D01*
X65550Y-43581D01*
X65550Y-43639D01*
X65129Y-43639D01*
X65097Y-43671D01*
X65097Y-43939D01*
X65097Y-43990D01*
X65117Y-44037D01*
X65153Y-44073D01*
X65200Y-44092D01*
X65518Y-44092D01*
X65550Y-44060D01*
X65550Y-44301D01*
X60095Y-44301D01*
X60095Y-42726D01*
X60095Y-42519D01*
X60016Y-42327D01*
X59870Y-42181D01*
X59678Y-42101D01*
X59471Y-42101D01*
X59279Y-42180D01*
X59133Y-42326D01*
X59094Y-42419D01*
X59094Y-42298D01*
X59057Y-42208D01*
X58988Y-42139D01*
X58897Y-42102D01*
X58800Y-42102D01*
X58250Y-42102D01*
X58160Y-42139D01*
X58091Y-42208D01*
X58059Y-42286D01*
X58005Y-42232D01*
X57843Y-42165D01*
X57667Y-42165D01*
X57626Y-42181D01*
X57626Y-40835D01*
X57626Y-40738D01*
X57626Y-40246D01*
X57589Y-40156D01*
X57520Y-40087D01*
X57429Y-40050D01*
X57332Y-40050D01*
X56152Y-40050D01*
X56062Y-40087D01*
X55993Y-40156D01*
X55992Y-40158D01*
X55939Y-40169D01*
X55808Y-40256D01*
X55450Y-40613D01*
X55446Y-40609D01*
X55353Y-40570D01*
X55445Y-40533D01*
X55599Y-40380D01*
X55682Y-40180D01*
X55682Y-39963D01*
X55599Y-39763D01*
X55446Y-39609D01*
X55246Y-39526D01*
X55029Y-39526D01*
X54829Y-39609D01*
X54743Y-39693D01*
X54659Y-39609D01*
X54459Y-39526D01*
X54242Y-39526D01*
X54042Y-39609D01*
X53933Y-39717D01*
X53933Y-38333D01*
X53931Y-38077D01*
X53836Y-37846D01*
X53750Y-37787D01*
X53709Y-37828D01*
X53709Y-37746D01*
X53650Y-37660D01*
X53411Y-37563D01*
X53155Y-37565D01*
X52924Y-37660D01*
X52865Y-37746D01*
X53287Y-38168D01*
X53709Y-37746D01*
X53709Y-37828D01*
X53328Y-38209D01*
X53750Y-38631D01*
X53836Y-38572D01*
X53933Y-38333D01*
X53933Y-39717D01*
X53888Y-39762D01*
X53805Y-39962D01*
X53805Y-40179D01*
X53888Y-40379D01*
X54041Y-40533D01*
X54241Y-40616D01*
X54458Y-40616D01*
X54658Y-40533D01*
X54743Y-40448D01*
X54828Y-40533D01*
X54920Y-40571D01*
X54829Y-40609D01*
X54675Y-40762D01*
X54653Y-40814D01*
X54649Y-40813D01*
X54608Y-40854D01*
X54608Y-40772D01*
X54578Y-40709D01*
X54422Y-40650D01*
X54255Y-40654D01*
X54122Y-40709D01*
X54092Y-40772D01*
X54350Y-41030D01*
X54608Y-40772D01*
X54608Y-40854D01*
X54391Y-41071D01*
X54649Y-41329D01*
X54653Y-41326D01*
X54675Y-41379D01*
X54828Y-41533D01*
X55028Y-41616D01*
X55245Y-41616D01*
X55445Y-41533D01*
X55502Y-41476D01*
X55561Y-41476D01*
X55715Y-41445D01*
X55846Y-41358D01*
X56172Y-41032D01*
X56250Y-41032D01*
X57430Y-41032D01*
X57520Y-40995D01*
X57589Y-40926D01*
X57626Y-40835D01*
X57626Y-42181D01*
X57572Y-42204D01*
X57571Y-42204D01*
X57520Y-42153D01*
X57429Y-42116D01*
X57332Y-42116D01*
X56152Y-42116D01*
X56062Y-42153D01*
X55993Y-42222D01*
X55956Y-42313D01*
X55956Y-42410D01*
X55956Y-42902D01*
X55993Y-42992D01*
X56062Y-43061D01*
X56153Y-43098D01*
X56250Y-43098D01*
X57430Y-43098D01*
X57520Y-43061D01*
X57571Y-43010D01*
X57572Y-43010D01*
X57667Y-43049D01*
X57843Y-43049D01*
X58005Y-42982D01*
X58054Y-42933D01*
X58054Y-42946D01*
X58091Y-43036D01*
X58160Y-43105D01*
X58251Y-43142D01*
X58348Y-43142D01*
X58898Y-43142D01*
X58988Y-43105D01*
X59057Y-43036D01*
X59094Y-42945D01*
X59094Y-42848D01*
X59094Y-42824D01*
X59132Y-42917D01*
X59278Y-43063D01*
X59470Y-43143D01*
X59677Y-43143D01*
X59869Y-43064D01*
X60015Y-42918D01*
X60095Y-42726D01*
X60095Y-44301D01*
X54608Y-44301D01*
X54608Y-41370D01*
X54350Y-41112D01*
X54309Y-41153D01*
X54309Y-41071D01*
X54051Y-40813D01*
X53988Y-40843D01*
X53929Y-40999D01*
X53933Y-41166D01*
X53988Y-41299D01*
X54051Y-41329D01*
X54309Y-41071D01*
X54309Y-41153D01*
X54092Y-41370D01*
X54122Y-41433D01*
X54278Y-41492D01*
X54445Y-41488D01*
X54578Y-41433D01*
X54608Y-41370D01*
X54608Y-44301D01*
X53933Y-44301D01*
X53933Y-43057D01*
X53931Y-42801D01*
X53836Y-42570D01*
X53750Y-42511D01*
X53709Y-42552D01*
X53709Y-42470D01*
X53709Y-38672D01*
X53287Y-38250D01*
X53246Y-38291D01*
X53246Y-38209D01*
X52824Y-37787D01*
X52738Y-37846D01*
X52641Y-38085D01*
X52643Y-38341D01*
X52738Y-38572D01*
X52824Y-38631D01*
X53246Y-38209D01*
X53246Y-38291D01*
X52865Y-38672D01*
X52924Y-38758D01*
X53163Y-38855D01*
X53419Y-38853D01*
X53650Y-38758D01*
X53709Y-38672D01*
X53709Y-42470D01*
X53650Y-42384D01*
X53411Y-42287D01*
X53155Y-42289D01*
X52924Y-42384D01*
X52865Y-42470D01*
X53287Y-42892D01*
X53709Y-42470D01*
X53709Y-42552D01*
X53328Y-42933D01*
X53750Y-43355D01*
X53836Y-43296D01*
X53933Y-43057D01*
X53933Y-44301D01*
X53709Y-44301D01*
X53709Y-43396D01*
X53287Y-42974D01*
X53246Y-43015D01*
X53246Y-42933D01*
X52824Y-42511D01*
X52738Y-42570D01*
X52641Y-42809D01*
X52643Y-43065D01*
X52738Y-43296D01*
X52824Y-43355D01*
X53246Y-42933D01*
X53246Y-43015D01*
X52865Y-43396D01*
X52924Y-43482D01*
X53163Y-43579D01*
X53419Y-43577D01*
X53650Y-43482D01*
X53709Y-43396D01*
X53709Y-44301D01*
X50699Y-44301D01*
X50699Y-24596D01*
X77185Y-24596D01*
X77185Y-44301D01*
M02*
