G04 (created by PCBNEW-RS274X (2012-01-19 BZR 3256)-stable) date Fri 08 Jun 2012 05:03:52 PM EEST*
G01*
G70*
G90*
%MOIN*%
G04 Gerber Fmt 3.4, Leading zero omitted, Abs format*
%FSLAX34Y34*%
G04 APERTURE LIST*
%ADD10C,0.006000*%
%ADD11C,0.009800*%
%ADD12R,0.050000X0.016000*%
%ADD13R,0.036000X0.036000*%
%ADD14O,0.074800X0.074800*%
%ADD15O,0.118100X0.118100*%
%ADD16R,0.039400X0.035400*%
%ADD17R,0.035400X0.039400*%
%ADD18R,0.070900X0.070900*%
%ADD19C,0.070900*%
%ADD20R,0.039400X0.051200*%
%ADD21R,0.051200X0.039400*%
%ADD22R,0.055100X0.055100*%
%ADD23C,0.055100*%
%ADD24R,0.078700X0.043300*%
%ADD25R,0.051200X0.059000*%
%ADD26R,0.118100X0.216500*%
%ADD27R,0.031500X0.019700*%
%ADD28R,0.098400X0.023600*%
%ADD29R,0.011800X0.031500*%
%ADD30R,0.007900X0.007900*%
%ADD31C,0.060000*%
%ADD32C,0.106300*%
%ADD33O,0.055100X0.011800*%
%ADD34O,0.011800X0.055100*%
%ADD35R,0.224400X0.189000*%
%ADD36C,0.063000*%
%ADD37C,0.078700*%
%ADD38C,0.039400*%
%ADD39C,0.141700*%
%ADD40C,0.007900*%
%ADD41C,0.008000*%
%ADD42C,0.075600*%
%ADD43C,0.011800*%
%ADD44C,0.031500*%
%ADD45C,0.019700*%
%ADD46C,0.015700*%
%ADD47C,0.001000*%
%ADD48C,0.013800*%
G04 APERTURE END LIST*
G54D10*
G54D11*
X50812Y-44777D02*
X50681Y-44777D01*
X50681Y-44983D02*
X50681Y-44589D01*
X50868Y-44589D01*
X51244Y-44983D02*
X51113Y-44796D01*
X51019Y-44983D02*
X51019Y-44589D01*
X51169Y-44589D01*
X51206Y-44608D01*
X51225Y-44627D01*
X51244Y-44665D01*
X51244Y-44721D01*
X51225Y-44758D01*
X51206Y-44777D01*
X51169Y-44796D01*
X51019Y-44796D01*
X51488Y-44589D02*
X51563Y-44589D01*
X51600Y-44608D01*
X51638Y-44646D01*
X51657Y-44721D01*
X51657Y-44852D01*
X51638Y-44927D01*
X51600Y-44965D01*
X51563Y-44983D01*
X51488Y-44983D01*
X51450Y-44965D01*
X51413Y-44927D01*
X51394Y-44852D01*
X51394Y-44721D01*
X51413Y-44646D01*
X51450Y-44608D01*
X51488Y-44589D01*
X51826Y-44983D02*
X51826Y-44589D01*
X52051Y-44983D01*
X52051Y-44589D01*
X52183Y-44589D02*
X52408Y-44589D01*
X52295Y-44983D02*
X52295Y-44589D01*
G54D12*
X57045Y-32139D03*
X57045Y-32389D03*
X57045Y-32649D03*
X57045Y-32909D03*
X57045Y-33159D03*
X57045Y-33419D03*
X57045Y-33679D03*
X57045Y-33929D03*
X57045Y-34189D03*
X57045Y-34439D03*
X57045Y-34699D03*
X57045Y-34959D03*
X57045Y-35209D03*
X57045Y-35469D03*
X59845Y-35469D03*
X59845Y-35209D03*
X59845Y-34969D03*
X59845Y-34699D03*
X59845Y-34439D03*
X59845Y-34189D03*
X59845Y-33929D03*
X59845Y-33679D03*
X59845Y-33419D03*
X59845Y-33159D03*
X59845Y-32909D03*
X59845Y-32649D03*
X59845Y-32389D03*
X59845Y-32139D03*
G54D13*
X63065Y-38657D03*
X63065Y-37957D03*
X63865Y-38307D03*
G54D14*
X75059Y-33101D03*
G54D15*
X73858Y-31900D03*
X76260Y-31900D03*
X76260Y-34302D03*
X73858Y-34302D03*
G54D16*
X58848Y-26871D03*
X58848Y-26279D03*
G54D17*
X61102Y-32195D03*
X61694Y-32195D03*
X61102Y-32707D03*
X61694Y-32707D03*
X60274Y-37234D03*
X60866Y-37234D03*
G54D16*
X60767Y-42321D03*
X60767Y-42913D03*
G54D17*
X60274Y-37844D03*
X60866Y-37844D03*
X67619Y-39370D03*
X67027Y-39370D03*
X70060Y-30000D03*
X69468Y-30000D03*
G54D16*
X56861Y-37185D03*
X56861Y-37777D03*
X57403Y-37185D03*
X57403Y-37777D03*
G54D17*
X60866Y-38602D03*
X60274Y-38602D03*
G54D16*
X63366Y-29409D03*
X63366Y-30001D03*
X62687Y-29409D03*
X62687Y-30001D03*
G54D18*
X65579Y-43610D03*
G54D19*
X66579Y-43610D03*
X67579Y-43610D03*
X68579Y-43610D03*
X69579Y-43610D03*
X70579Y-43610D03*
X71579Y-43610D03*
X72579Y-43610D03*
X73579Y-43610D03*
X74579Y-43610D03*
X74579Y-42610D03*
X73579Y-42610D03*
X72579Y-42610D03*
X71579Y-42610D03*
X70579Y-42610D03*
X69579Y-42610D03*
X68579Y-42610D03*
X67579Y-42610D03*
X66579Y-42610D03*
X65579Y-42610D03*
G54D18*
X65579Y-26287D03*
G54D19*
X66579Y-26287D03*
X67579Y-26287D03*
X68579Y-26287D03*
X69579Y-26287D03*
X70579Y-26287D03*
X71579Y-26287D03*
X72579Y-26287D03*
X73579Y-26287D03*
X74579Y-26287D03*
X74579Y-25287D03*
X73579Y-25287D03*
X72579Y-25287D03*
X71579Y-25287D03*
X70579Y-25287D03*
X69579Y-25287D03*
X68579Y-25287D03*
X67579Y-25287D03*
X66579Y-25287D03*
X65579Y-25287D03*
G54D20*
X58907Y-37836D03*
X59695Y-37836D03*
X58907Y-37167D03*
X59695Y-37167D03*
G54D21*
X62687Y-28051D03*
X62687Y-28839D03*
X63366Y-28051D03*
X63366Y-28839D03*
G54D20*
X58897Y-38602D03*
X59685Y-38602D03*
G54D22*
X63402Y-42610D03*
G54D23*
X63402Y-43610D03*
G54D22*
X58574Y-42622D03*
G54D23*
X59574Y-42622D03*
G54D22*
X62402Y-42610D03*
G54D23*
X62402Y-43610D03*
G54D24*
X67007Y-38603D03*
X68819Y-38603D03*
X68819Y-37775D03*
X67007Y-37775D03*
G54D25*
X61573Y-39871D03*
X62323Y-39871D03*
X61042Y-34164D03*
X61792Y-34164D03*
G54D17*
X61102Y-33573D03*
X61694Y-33573D03*
X61082Y-34754D03*
X61674Y-34754D03*
G54D16*
X69331Y-36279D03*
X69331Y-36871D03*
X71947Y-32423D03*
X71947Y-31831D03*
X61274Y-42326D03*
X61274Y-42918D03*
X72714Y-33053D03*
X72714Y-32461D03*
X70020Y-36318D03*
X70020Y-36910D03*
X70512Y-36318D03*
X70512Y-36910D03*
G54D17*
X61082Y-35246D03*
X61674Y-35246D03*
X66005Y-31969D03*
X65413Y-31969D03*
G54D16*
X65650Y-34173D03*
X65650Y-34765D03*
G54D17*
X68091Y-36457D03*
X67499Y-36457D03*
X61102Y-31585D03*
X61694Y-31585D03*
X69468Y-30472D03*
X70060Y-30472D03*
G54D16*
X66102Y-38583D03*
X66102Y-37991D03*
X69685Y-38011D03*
X69685Y-38603D03*
G54D26*
X57421Y-40373D03*
G54D27*
X60236Y-40373D03*
G54D28*
X60571Y-40873D03*
X60571Y-41373D03*
X60571Y-39873D03*
X60571Y-39373D03*
G54D29*
X72203Y-33072D03*
X71947Y-33072D03*
X71691Y-33072D03*
X71691Y-33702D03*
X71947Y-33702D03*
X72203Y-33702D03*
G54D30*
X72203Y-33387D03*
G54D18*
X60575Y-26287D03*
G54D19*
X61575Y-26287D03*
X62575Y-26287D03*
X62575Y-25287D03*
X61575Y-25287D03*
X60575Y-25287D03*
G54D31*
X55137Y-41071D03*
X55137Y-40071D03*
X54350Y-40071D03*
X54350Y-41071D03*
G54D32*
X53287Y-42933D03*
X53287Y-38209D03*
G54D18*
X54280Y-27799D03*
G54D19*
X53280Y-27799D03*
X54280Y-28799D03*
X53280Y-28799D03*
X54280Y-29799D03*
X53280Y-29799D03*
X54280Y-30799D03*
X53280Y-30799D03*
X54280Y-31799D03*
X53280Y-31799D03*
X54280Y-32799D03*
X53280Y-32799D03*
X54280Y-33799D03*
X53280Y-33799D03*
X54280Y-34799D03*
X53280Y-34799D03*
G54D33*
X70549Y-33289D03*
X70549Y-33485D03*
X70549Y-33682D03*
X70549Y-33879D03*
X70549Y-34076D03*
X70549Y-34273D03*
X70549Y-34470D03*
X70549Y-34667D03*
X70549Y-34863D03*
X70549Y-33092D03*
X70549Y-32895D03*
X70549Y-32698D03*
X70549Y-32501D03*
X70549Y-32304D03*
X70549Y-32107D03*
X70549Y-31911D03*
G54D34*
X68797Y-35237D03*
X68994Y-35237D03*
X69191Y-35237D03*
X69388Y-35237D03*
X69585Y-35237D03*
X69782Y-35237D03*
X69979Y-35237D03*
X70175Y-35237D03*
X68601Y-35237D03*
X68404Y-35237D03*
X68207Y-35237D03*
X68010Y-35237D03*
X67813Y-35237D03*
X67616Y-35237D03*
X67419Y-35237D03*
X67223Y-35237D03*
X68797Y-31537D03*
X68994Y-31537D03*
X69191Y-31537D03*
X69388Y-31537D03*
X69585Y-31537D03*
X69782Y-31537D03*
X69979Y-31537D03*
X70175Y-31537D03*
X68601Y-31537D03*
X68404Y-31537D03*
X68207Y-31537D03*
X68010Y-31537D03*
X67813Y-31537D03*
X67616Y-31537D03*
X67419Y-31537D03*
X67223Y-31537D03*
G54D33*
X66849Y-33485D03*
X66849Y-33682D03*
X66849Y-33879D03*
X66849Y-34076D03*
X66849Y-34273D03*
X66849Y-34470D03*
X66849Y-34667D03*
X66849Y-34863D03*
X66849Y-33289D03*
X66849Y-33092D03*
X66849Y-32895D03*
X66849Y-32698D03*
X66849Y-32501D03*
X66849Y-32304D03*
X66849Y-32107D03*
X66849Y-31911D03*
G54D35*
X68699Y-33387D03*
G54D36*
X69447Y-33958D03*
X68699Y-33958D03*
X67951Y-33958D03*
X69447Y-33387D03*
X68699Y-33387D03*
X67951Y-33387D03*
X69447Y-32816D03*
X68699Y-32816D03*
X67951Y-32816D03*
G54D37*
X58031Y-30404D03*
X60591Y-28632D03*
X58031Y-28632D03*
X60591Y-30404D03*
G54D38*
X74803Y-41732D03*
X72589Y-33711D03*
X51673Y-36713D03*
X76772Y-39370D03*
X75984Y-36220D03*
X76772Y-40945D03*
X76772Y-41732D03*
X72933Y-39646D03*
X75591Y-35433D03*
X76004Y-43937D03*
X51673Y-43720D03*
X54606Y-43740D03*
X76772Y-37795D03*
X51673Y-30610D03*
X56693Y-43740D03*
X76772Y-42520D03*
X53150Y-24980D03*
X75197Y-37402D03*
X72835Y-37402D03*
X61388Y-43967D03*
X76378Y-43169D03*
X75197Y-38583D03*
X75984Y-41339D03*
X60217Y-43760D03*
X75984Y-42520D03*
X76772Y-40157D03*
X75325Y-34262D03*
X76811Y-43937D03*
X74016Y-35433D03*
X74409Y-37402D03*
X76772Y-36220D03*
X51654Y-27343D03*
X72933Y-40472D03*
X75079Y-34921D03*
X75984Y-38976D03*
X75984Y-37402D03*
X51673Y-42185D03*
X58524Y-43760D03*
X69449Y-28858D03*
X76772Y-35433D03*
X74803Y-36220D03*
X72835Y-38583D03*
X74823Y-34252D03*
X51673Y-33642D03*
X74016Y-38583D03*
X76772Y-37008D03*
X76772Y-38583D03*
X75984Y-40157D03*
X51929Y-24980D03*
X51929Y-26102D03*
X51673Y-39429D03*
X73622Y-37402D03*
X64665Y-41437D03*
X62874Y-39882D03*
X63504Y-40138D03*
X62402Y-39055D03*
X62874Y-39311D03*
X58179Y-33996D03*
X58002Y-37165D03*
X58681Y-33996D03*
X58386Y-37835D03*
X56289Y-35030D03*
X63622Y-34508D03*
X63602Y-33957D03*
X62953Y-33287D03*
X62972Y-32323D03*
X63051Y-31791D03*
X62618Y-32894D03*
X68041Y-29114D03*
X65492Y-29154D03*
X67884Y-29577D03*
X66014Y-29311D03*
X63898Y-36772D03*
X67028Y-30551D03*
X68740Y-29547D03*
X64409Y-36772D03*
X64921Y-36772D03*
X65433Y-36772D03*
X65955Y-36742D03*
X66457Y-36772D03*
X64528Y-33602D03*
X64094Y-34508D03*
X57409Y-31059D03*
X56634Y-31063D03*
X70059Y-29508D03*
X71614Y-29409D03*
X64587Y-30837D03*
X57766Y-32372D03*
X63907Y-35955D03*
X56417Y-32854D03*
X64370Y-37776D03*
X64783Y-35925D03*
X68268Y-40276D03*
X61319Y-29469D03*
X63022Y-41201D03*
X61417Y-27953D03*
X72441Y-35433D03*
X66358Y-39646D03*
X76772Y-28346D03*
X77028Y-33543D03*
X68976Y-40276D03*
X72835Y-36220D03*
X72835Y-30315D03*
X64843Y-31949D03*
X68996Y-39232D03*
X69646Y-39232D03*
X66890Y-40157D03*
X68307Y-39232D03*
X67520Y-40276D03*
X56339Y-39075D03*
X65315Y-31161D03*
X63287Y-27224D03*
X75335Y-31949D03*
X65984Y-39232D03*
X56319Y-41339D03*
X75984Y-30709D03*
X76772Y-30709D03*
X76772Y-29528D03*
X76772Y-27165D03*
X72362Y-29213D03*
X74409Y-27559D03*
X75591Y-25984D03*
X75591Y-27165D03*
X74803Y-30709D03*
X73228Y-28346D03*
X73622Y-36220D03*
X76772Y-24980D03*
X75591Y-24980D03*
X73622Y-30709D03*
X71654Y-28740D03*
X73622Y-29528D03*
X74803Y-28346D03*
X75984Y-29528D03*
X76772Y-25984D03*
X75984Y-28346D03*
X72077Y-34833D03*
X72559Y-34823D03*
X59724Y-27618D03*
X74803Y-29528D03*
X73081Y-34823D03*
X74803Y-31949D03*
X56319Y-39783D03*
X72047Y-29921D03*
X72047Y-30709D03*
X59016Y-32264D03*
X69016Y-30768D03*
X70728Y-39055D03*
G54D39*
X56732Y-26496D03*
G54D38*
X71949Y-31358D03*
X72982Y-31535D03*
X71929Y-34154D03*
X77028Y-32736D03*
X70236Y-40492D03*
X70728Y-39921D03*
X70728Y-40492D03*
X70689Y-37441D03*
X70728Y-38248D03*
X72431Y-31535D03*
G54D39*
X74213Y-40354D03*
G54D38*
X57047Y-41831D03*
X72451Y-31998D03*
X72992Y-33976D03*
X71289Y-32864D03*
X73002Y-32018D03*
X58720Y-34577D03*
X60551Y-32903D03*
X72470Y-34173D03*
X62677Y-40669D03*
X65079Y-35118D03*
X66969Y-36457D03*
X62461Y-37224D03*
X64154Y-35059D03*
X66004Y-30965D03*
X65118Y-29498D03*
X68976Y-30236D03*
X61900Y-37844D03*
X60541Y-33573D03*
X57755Y-42607D03*
X59193Y-34970D03*
X57756Y-32903D03*
G54D40*
X74803Y-36220D02*
X75984Y-36220D01*
G54D41*
X75325Y-35030D02*
X75325Y-34262D01*
G54D40*
X76772Y-37795D02*
X76634Y-38160D01*
X76772Y-43307D02*
X76466Y-43888D01*
X72835Y-37402D02*
X72835Y-38583D01*
X75984Y-41339D02*
X75866Y-40511D01*
X76102Y-42736D02*
X75984Y-42520D01*
X76772Y-37008D02*
X76280Y-37234D01*
X51673Y-30610D02*
X51673Y-33642D01*
G54D41*
X76211Y-35620D02*
X76418Y-35640D01*
G54D40*
X75984Y-38976D02*
X75837Y-38907D01*
X76772Y-40157D02*
X76841Y-40512D01*
X75984Y-37402D02*
X74941Y-37215D01*
X51929Y-26102D02*
X51654Y-27343D01*
X74459Y-38927D02*
X74016Y-38583D01*
X76811Y-43346D02*
X76772Y-43307D01*
X75049Y-38091D02*
X75068Y-38110D01*
X58524Y-43760D02*
X60217Y-43760D01*
X74409Y-37402D02*
X73622Y-37402D01*
X76466Y-43888D02*
X76811Y-43937D01*
G54D41*
X74823Y-35630D02*
X74941Y-35620D01*
G54D40*
X51673Y-36713D02*
X51673Y-39429D01*
X53150Y-24980D02*
X51929Y-24980D01*
X76841Y-40512D02*
X76772Y-40945D01*
X51673Y-42185D02*
X51673Y-43720D01*
X75068Y-38110D02*
X75197Y-37402D01*
G54D41*
X74941Y-35620D02*
X75591Y-35433D01*
G54D40*
X76634Y-38160D02*
X76772Y-38583D01*
X54606Y-43740D02*
X56693Y-43740D01*
X76772Y-41732D02*
X76772Y-42520D01*
X72933Y-39154D02*
X72933Y-39646D01*
X76811Y-43937D02*
X76811Y-43346D01*
X76634Y-39557D02*
X76772Y-39370D01*
G54D41*
X76418Y-35640D02*
X76772Y-35433D01*
G54D40*
X76772Y-38583D02*
X76634Y-39557D01*
X76004Y-43937D02*
X76102Y-42736D01*
X74469Y-38917D02*
X74459Y-38927D01*
G54D41*
X73386Y-35640D02*
X74016Y-35433D01*
G54D40*
X73652Y-38091D02*
X74409Y-37402D01*
X76132Y-36417D02*
X76772Y-36220D01*
X63248Y-39882D02*
X62874Y-39882D01*
X73150Y-38937D02*
X72933Y-39154D01*
X75837Y-38907D02*
X75197Y-38583D01*
X63504Y-40138D02*
X63248Y-39882D01*
G54D41*
X75522Y-35227D02*
X75325Y-35030D01*
X75591Y-35433D02*
X75522Y-35227D01*
G54D40*
X73622Y-38061D02*
X73652Y-38091D01*
X62874Y-39311D02*
X62658Y-39311D01*
X75866Y-40511D02*
X75984Y-40157D01*
X62658Y-39311D02*
X62402Y-39055D01*
G54D42*
X75059Y-33101D02*
X73297Y-33101D01*
G54D43*
X58002Y-37165D02*
X58033Y-37167D01*
X59845Y-33419D02*
X58756Y-33419D01*
X58756Y-33419D02*
X58179Y-33996D01*
X58033Y-37167D02*
X58907Y-37167D01*
X58436Y-37836D02*
X58907Y-37836D01*
X59845Y-33679D02*
X59843Y-33681D01*
X58386Y-37835D02*
X58436Y-37836D01*
X58996Y-33681D02*
X59843Y-33681D01*
X58681Y-33996D02*
X58996Y-33681D01*
G54D40*
X56469Y-35209D02*
X56289Y-35030D01*
X57045Y-35209D02*
X56469Y-35209D01*
X55834Y-34301D02*
X55975Y-34442D01*
X53280Y-32799D02*
X53281Y-32799D01*
X55975Y-34442D02*
X55975Y-35207D01*
X54026Y-34301D02*
X55834Y-34301D01*
X53780Y-34055D02*
X54026Y-34301D01*
X56237Y-35469D02*
X57045Y-35469D01*
X53281Y-32799D02*
X53780Y-33298D01*
X53780Y-33298D02*
X53780Y-34055D01*
X55975Y-35207D02*
X56237Y-35469D01*
X54280Y-33799D02*
X55562Y-33799D01*
X56722Y-34959D02*
X57045Y-34959D01*
X55562Y-33799D02*
X56722Y-34959D01*
X53780Y-31299D02*
X55453Y-31299D01*
X56697Y-34699D02*
X57045Y-34699D01*
X55591Y-33593D02*
X56697Y-34699D01*
X53280Y-30799D02*
X53780Y-31299D01*
X55453Y-31299D02*
X55591Y-31437D01*
X55591Y-31437D02*
X55591Y-33593D01*
X63996Y-34134D02*
X64824Y-34134D01*
X66397Y-33681D02*
X65277Y-33681D01*
X65277Y-33681D02*
X64824Y-34134D01*
X63622Y-34508D02*
X63996Y-34134D01*
X66849Y-33682D02*
X66398Y-33682D01*
X66398Y-33682D02*
X66397Y-33681D01*
X65216Y-33484D02*
X65413Y-33484D01*
X64744Y-33957D02*
X65216Y-33484D01*
X63602Y-33957D02*
X64744Y-33957D01*
X66849Y-33485D02*
X65413Y-33484D01*
X62953Y-33287D02*
X63149Y-33091D01*
X64646Y-33091D02*
X64647Y-33092D01*
X64647Y-33092D02*
X64646Y-33091D01*
X63149Y-33091D02*
X64646Y-33091D01*
X66849Y-33092D02*
X64647Y-33092D01*
X63347Y-32698D02*
X64627Y-32698D01*
X64627Y-32698D02*
X64626Y-32697D01*
X62972Y-32323D02*
X63347Y-32698D01*
X66849Y-32698D02*
X64627Y-32698D01*
X66849Y-32501D02*
X64607Y-32501D01*
X64607Y-32501D02*
X64606Y-32500D01*
X64606Y-32500D02*
X63760Y-32500D01*
X63760Y-32500D02*
X63051Y-31791D01*
X66849Y-32895D02*
X64647Y-32895D01*
X62618Y-32894D02*
X64646Y-32894D01*
X64647Y-32895D02*
X64646Y-32894D01*
X68602Y-31161D02*
X68602Y-30610D01*
G54D41*
X68602Y-30610D02*
X68602Y-30276D01*
G54D40*
X68789Y-24803D02*
X69075Y-25089D01*
X66579Y-25287D02*
X66579Y-25281D01*
X68601Y-31160D02*
X68602Y-31161D01*
G54D41*
X68602Y-30156D02*
X68602Y-30276D01*
G54D40*
X67057Y-24803D02*
X68789Y-24803D01*
X68601Y-31160D02*
X68601Y-31537D01*
G54D41*
X68602Y-30276D02*
X68602Y-30276D01*
X68602Y-30156D02*
X69075Y-29683D01*
G54D40*
X69075Y-25089D02*
X69075Y-25659D01*
G54D41*
X69075Y-29683D02*
X69075Y-25659D01*
G54D40*
X66579Y-25281D02*
X67057Y-24803D01*
X67795Y-25787D02*
X68071Y-26063D01*
X68071Y-26063D02*
X68071Y-26643D01*
G54D41*
X68404Y-30573D02*
X68404Y-26979D01*
G54D40*
X65579Y-25287D02*
X65582Y-25287D01*
X66082Y-25787D02*
X67795Y-25787D01*
G54D41*
X68404Y-26979D02*
X68071Y-26646D01*
X68071Y-26646D02*
X68071Y-26643D01*
X68404Y-30573D02*
X68404Y-31537D01*
G54D40*
X65582Y-25287D02*
X66082Y-25787D01*
G54D41*
X68207Y-30534D02*
X68209Y-29281D01*
G54D40*
X65579Y-27020D02*
X65492Y-27107D01*
X65492Y-27107D02*
X65492Y-29154D01*
G54D41*
X68207Y-30534D02*
X68207Y-31537D01*
G54D40*
X65579Y-26287D02*
X65579Y-27020D01*
G54D41*
X68209Y-29281D02*
X68041Y-29114D01*
G54D40*
X68010Y-29989D02*
X68010Y-30495D01*
X67884Y-29863D02*
X68010Y-29989D01*
X65669Y-27195D02*
X65669Y-28740D01*
G54D41*
X68010Y-30495D02*
X68010Y-31537D01*
G54D40*
X67884Y-29577D02*
X67884Y-29863D01*
X66014Y-29085D02*
X65669Y-28740D01*
X66579Y-26287D02*
X66577Y-26287D01*
X66577Y-26287D02*
X65669Y-27195D01*
X66014Y-29311D02*
X66014Y-29085D01*
X66535Y-34941D02*
X66535Y-35197D01*
X64409Y-36260D02*
X64941Y-36260D01*
X63898Y-36771D02*
X64409Y-36260D01*
X65315Y-35886D02*
X65846Y-35886D01*
X66613Y-34863D02*
X66535Y-34941D01*
X66613Y-34863D02*
X66849Y-34863D01*
X66535Y-35197D02*
X66162Y-35570D01*
X65846Y-35886D02*
X66162Y-35570D01*
X63898Y-36772D02*
X63898Y-36771D01*
X64941Y-36260D02*
X65315Y-35886D01*
G54D41*
X67559Y-27382D02*
X67559Y-27382D01*
X67559Y-27382D02*
X67559Y-29773D01*
X67815Y-30029D02*
X67815Y-30748D01*
X67559Y-26280D02*
X67559Y-27382D01*
X67815Y-30748D02*
X67813Y-31537D01*
X67559Y-29773D02*
X67815Y-30029D01*
X67224Y-30748D02*
X67224Y-30747D01*
X67224Y-30748D02*
X67223Y-31537D01*
G54D40*
X68579Y-26287D02*
X68579Y-29386D01*
G54D41*
X68740Y-29547D02*
X68579Y-29386D01*
X67224Y-30747D02*
X67028Y-30551D01*
G54D40*
X64409Y-36772D02*
X64685Y-36496D01*
X65020Y-36417D02*
X65374Y-36063D01*
X64764Y-36417D02*
X65020Y-36417D01*
X65374Y-36063D02*
X65906Y-36063D01*
X65906Y-36063D02*
X66241Y-35728D01*
X66634Y-35482D02*
X66487Y-35482D01*
X64685Y-36496D02*
X64764Y-36417D01*
X67185Y-35482D02*
X66634Y-35482D01*
G54D41*
X67223Y-35237D02*
X67223Y-35444D01*
X67223Y-35444D02*
X67185Y-35482D01*
G54D40*
X66487Y-35482D02*
X66241Y-35728D01*
X64921Y-36772D02*
X65354Y-36339D01*
X66561Y-35643D02*
X66654Y-35643D01*
X65964Y-36240D02*
X66319Y-35885D01*
G54D41*
X67404Y-35643D02*
X66654Y-35643D01*
X67419Y-35237D02*
X67419Y-35628D01*
G54D40*
X65354Y-36338D02*
X65452Y-36240D01*
G54D41*
X67419Y-35628D02*
X67404Y-35643D01*
G54D40*
X65452Y-36240D02*
X65964Y-36240D01*
X66561Y-35643D02*
X66319Y-35885D01*
X65354Y-36339D02*
X65354Y-36338D01*
G54D41*
X66654Y-35643D02*
X66634Y-35643D01*
G54D40*
X65433Y-36771D02*
X65806Y-36398D01*
X66634Y-35807D02*
X66399Y-36042D01*
G54D41*
X67616Y-35747D02*
X67616Y-35237D01*
G54D40*
X65433Y-36772D02*
X65433Y-36771D01*
X66043Y-36398D02*
X66399Y-36042D01*
X65806Y-36398D02*
X66043Y-36398D01*
G54D41*
X67559Y-35804D02*
X66634Y-35804D01*
X67616Y-35747D02*
X67559Y-35804D01*
G54D40*
X66634Y-35804D02*
X66634Y-35807D01*
G54D41*
X66723Y-35974D02*
X65955Y-36742D01*
X67813Y-35237D02*
X67813Y-35839D01*
X67813Y-35839D02*
X67678Y-35974D01*
X67678Y-35974D02*
X66723Y-35974D01*
G54D40*
X67917Y-36138D02*
X66816Y-36138D01*
X66457Y-36476D02*
X66457Y-36772D01*
X66556Y-36378D02*
X66555Y-36378D01*
X66555Y-36378D02*
X66457Y-36476D01*
X66796Y-36138D02*
X66556Y-36378D01*
G54D41*
X68010Y-35237D02*
X68010Y-36045D01*
X68010Y-36045D02*
X67917Y-36138D01*
G54D40*
X66816Y-36138D02*
X66796Y-36138D01*
X64528Y-33602D02*
X64843Y-33287D01*
X64843Y-33287D02*
X66849Y-33289D01*
X66849Y-33289D02*
X66847Y-33287D01*
X66849Y-33289D02*
X64961Y-33287D01*
X66847Y-33287D02*
X64961Y-33287D01*
X66849Y-33879D02*
X66360Y-33879D01*
X66320Y-33839D02*
X65355Y-33839D01*
X66360Y-33879D02*
X66320Y-33839D01*
X64094Y-34508D02*
X64686Y-34508D01*
X65355Y-33839D02*
X64686Y-34508D01*
X56691Y-34439D02*
X57045Y-34439D01*
X55758Y-31093D02*
X55758Y-33506D01*
X55464Y-30799D02*
X55758Y-31093D01*
X55758Y-33506D02*
X56691Y-34439D01*
X54280Y-30799D02*
X55464Y-30799D01*
G54D43*
X55137Y-40071D02*
X55137Y-39182D01*
X55776Y-38543D02*
X56891Y-38543D01*
X55137Y-39182D02*
X55776Y-38543D01*
X57403Y-38031D02*
X57403Y-37777D01*
X56891Y-38543D02*
X57403Y-38031D01*
X54350Y-39675D02*
X55698Y-38327D01*
X56300Y-38327D02*
X56861Y-37766D01*
X54350Y-40071D02*
X54350Y-39675D01*
X55698Y-38327D02*
X56300Y-38327D01*
X56861Y-37766D02*
X56861Y-37777D01*
G54D40*
X57045Y-34189D02*
X56699Y-34189D01*
X55567Y-29799D02*
X54280Y-29799D01*
X55925Y-30157D02*
X55567Y-29799D01*
X55925Y-33415D02*
X56699Y-34189D01*
X55925Y-33415D02*
X55925Y-30157D01*
G54D43*
X60837Y-31585D02*
X61102Y-31585D01*
G54D40*
X54754Y-28297D02*
X56142Y-29685D01*
X56634Y-31063D02*
X56634Y-30177D01*
G54D43*
X57610Y-31260D02*
X57409Y-31059D01*
X58691Y-31260D02*
X58691Y-31260D01*
X58691Y-31260D02*
X60512Y-31260D01*
G54D40*
X53280Y-28797D02*
X53280Y-28799D01*
G54D43*
X58691Y-31260D02*
X57610Y-31260D01*
X58691Y-31260D02*
X58691Y-31260D01*
X57045Y-32389D02*
X56700Y-32389D01*
G54D40*
X53280Y-28797D02*
X53780Y-28297D01*
X56634Y-30177D02*
X56142Y-29685D01*
G54D43*
X60512Y-31260D02*
X60837Y-31585D01*
G54D40*
X54695Y-28297D02*
X54754Y-28297D01*
X53780Y-28297D02*
X54695Y-28297D01*
G54D43*
X56700Y-32389D02*
X56634Y-32323D01*
X56634Y-32323D02*
X56634Y-31063D01*
X60591Y-30404D02*
X62736Y-30404D01*
X60787Y-31161D02*
X61555Y-31161D01*
G54D40*
X71397Y-32186D02*
X71397Y-30514D01*
G54D43*
X63168Y-30836D02*
X64458Y-30836D01*
X64459Y-30837D02*
X64587Y-30837D01*
G54D40*
X70549Y-32698D02*
X70885Y-32698D01*
X70885Y-32698D02*
X71397Y-32186D01*
G54D43*
X62736Y-30404D02*
X63168Y-30836D01*
G54D41*
X71398Y-29626D02*
X71614Y-29409D01*
G54D43*
X64458Y-30836D02*
X64459Y-30837D01*
X60591Y-30404D02*
X60591Y-30965D01*
X61555Y-31161D02*
X61694Y-31300D01*
G54D41*
X71397Y-30514D02*
X71398Y-29626D01*
G54D43*
X60591Y-30965D02*
X60787Y-31161D01*
X61694Y-31300D02*
X61694Y-31585D01*
G54D44*
X58031Y-30404D02*
X60591Y-30404D01*
G54D40*
X71614Y-29409D02*
X71614Y-29409D01*
G54D41*
X70059Y-29508D02*
X70060Y-30000D01*
G54D40*
X63366Y-30001D02*
X63387Y-30001D01*
X63387Y-30001D02*
X63711Y-30325D01*
G54D41*
X67618Y-30748D02*
X67618Y-30453D01*
G54D40*
X66260Y-30059D02*
X66476Y-30059D01*
G54D41*
X67616Y-31537D02*
X67618Y-30748D01*
X67618Y-30453D02*
X67224Y-30059D01*
X67224Y-30059D02*
X66476Y-30059D01*
G54D40*
X65994Y-30325D02*
X63917Y-30325D01*
G54D41*
X66476Y-30059D02*
X66457Y-30059D01*
G54D40*
X63711Y-30325D02*
X63917Y-30325D01*
X66260Y-30059D02*
X65994Y-30325D01*
X62687Y-30001D02*
X62718Y-30001D01*
G54D41*
X66457Y-30216D02*
X66437Y-30216D01*
G54D40*
X62718Y-30001D02*
X63199Y-30482D01*
G54D41*
X67159Y-30216D02*
X66457Y-30216D01*
G54D40*
X63199Y-30482D02*
X64015Y-30482D01*
G54D41*
X67421Y-30748D02*
X67421Y-30478D01*
G54D40*
X66339Y-30216D02*
X66457Y-30216D01*
X66073Y-30482D02*
X64015Y-30482D01*
G54D41*
X67421Y-30478D02*
X67159Y-30216D01*
G54D40*
X66339Y-30216D02*
X66073Y-30482D01*
G54D41*
X67419Y-31537D02*
X67421Y-30748D01*
G54D40*
X57045Y-33419D02*
X56538Y-33419D01*
X56093Y-32974D02*
X56538Y-33419D01*
X53281Y-29799D02*
X53779Y-29301D01*
X53280Y-29799D02*
X53283Y-29799D01*
X53281Y-29799D02*
X53280Y-29799D01*
X55295Y-29301D02*
X56093Y-30099D01*
X56093Y-32974D02*
X56093Y-30099D01*
X53779Y-29301D02*
X55295Y-29301D01*
X56289Y-32224D02*
X56289Y-30068D01*
G54D43*
X57490Y-32648D02*
X57045Y-32649D01*
G54D40*
X56714Y-32649D02*
X56289Y-32224D01*
X55020Y-28799D02*
X56289Y-30068D01*
G54D43*
X57490Y-32648D02*
X57766Y-32372D01*
G54D40*
X55020Y-28799D02*
X54280Y-28799D01*
X57045Y-32649D02*
X56714Y-32649D01*
G54D43*
X66278Y-34470D02*
X66161Y-34587D01*
X64537Y-35512D02*
X64350Y-35512D01*
X66849Y-34470D02*
X66278Y-34470D01*
X61694Y-32195D02*
X62096Y-32195D01*
X65669Y-35512D02*
X64537Y-35512D01*
X66161Y-34587D02*
X66161Y-35020D01*
X62096Y-32195D02*
X62264Y-32363D01*
X66161Y-35020D02*
X65669Y-35512D01*
X63140Y-35188D02*
X63907Y-35955D01*
X63140Y-34026D02*
X63140Y-35188D01*
X64350Y-35512D02*
X63907Y-35955D01*
X62264Y-32363D02*
X62264Y-33150D01*
X62480Y-33366D02*
X63140Y-34026D01*
X62264Y-33150D02*
X62480Y-33366D01*
X57045Y-33159D02*
X56713Y-33150D01*
X57045Y-33159D02*
X57440Y-33159D01*
X58916Y-31693D02*
X60316Y-31693D01*
X56713Y-33150D02*
X56417Y-32854D01*
X60778Y-32600D02*
X60885Y-32707D01*
X58150Y-33021D02*
X58150Y-32459D01*
X57539Y-33258D02*
X57913Y-33258D01*
X57913Y-33258D02*
X58150Y-33021D01*
X58150Y-32459D02*
X58916Y-31693D01*
X60316Y-31693D02*
X60778Y-32155D01*
X60885Y-32707D02*
X61102Y-32707D01*
X60778Y-32155D02*
X60778Y-32600D01*
X57440Y-33159D02*
X57539Y-33258D01*
X64458Y-35925D02*
X64783Y-35925D01*
X66396Y-34667D02*
X66849Y-34667D01*
X62904Y-35680D02*
X63533Y-36309D01*
X62904Y-34144D02*
X62904Y-35680D01*
X63533Y-36309D02*
X64074Y-36309D01*
X61694Y-32707D02*
X61969Y-32707D01*
X62057Y-33297D02*
X62638Y-33878D01*
X61969Y-32707D02*
X62057Y-32795D01*
X62638Y-33878D02*
X62904Y-34144D01*
X64999Y-35709D02*
X64783Y-35925D01*
X66358Y-35118D02*
X65767Y-35709D01*
G54D45*
X64370Y-37776D02*
X63976Y-37776D01*
G54D43*
X62057Y-32795D02*
X62057Y-33297D01*
X66358Y-34705D02*
X66358Y-35118D01*
G54D45*
X63865Y-37887D02*
X63865Y-38307D01*
X63976Y-37776D02*
X63865Y-37887D01*
G54D43*
X66396Y-34667D02*
X66358Y-34705D01*
X64458Y-35925D02*
X64074Y-36309D01*
X66847Y-34665D02*
X66849Y-34667D01*
X65767Y-35709D02*
X65276Y-35709D01*
X65276Y-35709D02*
X64999Y-35709D01*
X57314Y-31486D02*
X58819Y-31486D01*
X58819Y-31486D02*
X60394Y-31486D01*
G54D46*
X57038Y-30098D02*
X57038Y-31486D01*
X57038Y-31486D02*
X57038Y-32132D01*
G54D43*
X60728Y-31821D02*
X61102Y-32195D01*
X57038Y-31486D02*
X57314Y-31486D01*
X60728Y-31820D02*
X60394Y-31486D01*
G54D46*
X54739Y-27799D02*
X57038Y-30098D01*
G54D43*
X61102Y-32195D02*
X61102Y-32195D01*
G54D46*
X54280Y-27799D02*
X54739Y-27799D01*
G54D43*
X60728Y-31821D02*
X60728Y-31820D01*
G54D46*
X57038Y-32132D02*
X57045Y-32139D01*
G54D40*
X69979Y-35668D02*
X70079Y-35768D01*
X70552Y-35768D02*
X71398Y-36614D01*
X67579Y-42610D02*
X67579Y-42608D01*
X71398Y-36614D02*
X71398Y-40373D01*
X71201Y-41604D02*
X71398Y-41407D01*
X69979Y-35668D02*
X69979Y-35237D01*
X68583Y-41604D02*
X71201Y-41604D01*
X67579Y-42608D02*
X68583Y-41604D01*
X71398Y-41407D02*
X71398Y-40373D01*
X70079Y-35768D02*
X70552Y-35768D01*
X68579Y-42610D02*
X68579Y-42602D01*
X71555Y-40474D02*
X71555Y-40474D01*
X70175Y-35588D02*
X70175Y-35237D01*
X71556Y-40474D02*
X71555Y-40474D01*
X70198Y-35611D02*
X70617Y-35611D01*
X71556Y-41476D02*
X71556Y-40474D01*
X70175Y-35588D02*
X70198Y-35611D01*
X70617Y-35611D02*
X71555Y-36545D01*
X69409Y-41772D02*
X71260Y-41772D01*
X71555Y-36545D02*
X71555Y-40474D01*
X68579Y-42602D02*
X69409Y-41772D01*
X71260Y-41772D02*
X71556Y-41476D01*
X71713Y-41547D02*
X71713Y-40679D01*
X71713Y-40669D02*
X71713Y-40679D01*
X70912Y-34928D02*
X70912Y-35666D01*
X71713Y-41547D02*
X71321Y-41939D01*
X69579Y-42610D02*
X69579Y-42606D01*
X70847Y-34863D02*
X70912Y-34928D01*
X70549Y-34863D02*
X70847Y-34863D01*
X71713Y-40669D02*
X71713Y-40679D01*
X70246Y-41939D02*
X71321Y-41939D01*
X69579Y-42606D02*
X70246Y-41939D01*
X70912Y-35666D02*
X71713Y-36467D01*
X71713Y-36467D02*
X71713Y-40669D01*
X71870Y-36398D02*
X71870Y-41632D01*
X70887Y-34667D02*
X70549Y-34667D01*
X70579Y-42610D02*
X70579Y-42600D01*
X71077Y-42102D02*
X71400Y-42102D01*
X71076Y-34856D02*
X71076Y-35604D01*
X70579Y-42600D02*
X71077Y-42102D01*
X71076Y-35604D02*
X71870Y-36398D01*
X70887Y-34667D02*
X71076Y-34856D01*
X71870Y-41632D02*
X71400Y-42102D01*
X72028Y-41752D02*
X72028Y-36320D01*
X70927Y-34470D02*
X71233Y-34776D01*
X70927Y-34470D02*
X70549Y-34470D01*
X72028Y-42165D02*
X72028Y-41752D01*
X71233Y-34776D02*
X71233Y-35525D01*
X71583Y-42610D02*
X72028Y-42165D01*
X71233Y-35525D02*
X72028Y-36320D01*
X71579Y-42610D02*
X71583Y-42610D01*
X72579Y-42610D02*
X72579Y-42608D01*
X71390Y-35446D02*
X72185Y-36240D01*
X70952Y-34273D02*
X70549Y-34273D01*
X70952Y-34273D02*
X71390Y-34711D01*
X72185Y-41810D02*
X72185Y-36240D01*
X72579Y-42608D02*
X72185Y-42214D01*
X71390Y-34711D02*
X71390Y-35446D01*
X72185Y-42214D02*
X72185Y-41810D01*
X72342Y-41352D02*
X72342Y-36161D01*
X72342Y-41378D02*
X72342Y-41352D01*
X70977Y-34076D02*
X71547Y-34646D01*
X71547Y-34646D02*
X71547Y-35365D01*
X73574Y-42610D02*
X72342Y-41378D01*
X71547Y-35365D02*
X72342Y-36161D01*
X70977Y-34076D02*
X70549Y-34076D01*
X73579Y-42610D02*
X73574Y-42610D01*
X71706Y-35289D02*
X72500Y-36083D01*
X74579Y-42610D02*
X74075Y-42106D01*
X71005Y-33879D02*
X71706Y-34580D01*
X74075Y-42106D02*
X73337Y-42106D01*
X73337Y-42106D02*
X72499Y-41268D01*
X71706Y-34580D02*
X71706Y-35289D01*
X72499Y-41268D02*
X72499Y-40649D01*
X72500Y-36083D02*
X72500Y-40649D01*
X72499Y-40649D02*
X72499Y-40648D01*
X70549Y-33879D02*
X71005Y-33879D01*
X72499Y-40648D02*
X72500Y-40649D01*
G54D43*
X69782Y-35747D02*
X70000Y-35965D01*
X66579Y-42610D02*
X66579Y-42604D01*
X69782Y-35237D02*
X69782Y-35747D01*
X66579Y-42604D02*
X67766Y-41417D01*
X71220Y-41329D02*
X71220Y-40178D01*
X70512Y-36083D02*
X70512Y-36318D01*
X70000Y-35965D02*
X70394Y-35965D01*
X70394Y-35965D02*
X70512Y-36083D01*
X71132Y-41417D02*
X71220Y-41329D01*
X70787Y-36319D02*
X71220Y-36752D01*
X70787Y-36319D02*
X70512Y-36318D01*
X67766Y-41417D02*
X71132Y-41417D01*
X71220Y-36752D02*
X71220Y-40178D01*
G54D40*
X65984Y-39272D02*
X65984Y-39232D01*
G54D45*
X68699Y-32345D02*
X68642Y-32402D01*
X69823Y-34390D02*
X67500Y-34390D01*
X67500Y-32382D02*
X67500Y-32402D01*
X67500Y-32402D02*
X67500Y-32382D01*
G54D40*
X60575Y-26287D02*
X60575Y-26295D01*
X68996Y-39232D02*
X69646Y-39232D01*
G54D45*
X69843Y-32402D02*
X69823Y-32422D01*
X69823Y-32422D02*
X69823Y-34390D01*
X65650Y-35059D02*
X65591Y-35118D01*
G54D41*
X72714Y-32306D02*
X73002Y-32018D01*
G54D40*
X60575Y-26295D02*
X59724Y-27618D01*
G54D41*
X72077Y-34833D02*
X72549Y-34833D01*
G54D40*
X62854Y-27657D02*
X61417Y-27953D01*
G54D45*
X68699Y-33387D02*
X68699Y-32345D01*
G54D40*
X68819Y-38720D02*
X68307Y-39232D01*
X65413Y-31259D02*
X65315Y-31161D01*
G54D45*
X65591Y-35118D02*
X65079Y-35118D01*
G54D43*
X69583Y-31537D02*
X69585Y-31537D01*
X66849Y-34273D02*
X67813Y-34273D01*
G54D40*
X57421Y-40373D02*
X56633Y-40373D01*
X67401Y-40157D02*
X66890Y-40157D01*
G54D43*
X69331Y-36871D02*
X69331Y-37362D01*
G54D45*
X68642Y-32402D02*
X67500Y-32402D01*
G54D40*
X77028Y-30926D02*
X77028Y-32736D01*
X63287Y-27224D02*
X62854Y-27657D01*
G54D41*
X72714Y-32461D02*
X72714Y-32306D01*
G54D43*
X61674Y-34754D02*
X61674Y-35246D01*
X70020Y-37776D02*
X69942Y-37698D01*
G54D41*
X72982Y-31535D02*
X72431Y-31535D01*
G54D45*
X68699Y-33387D02*
X68699Y-32502D01*
G54D40*
X74803Y-30709D02*
X75984Y-30709D01*
G54D45*
X67500Y-34390D02*
X67500Y-32382D01*
G54D40*
X62717Y-40709D02*
X63524Y-40709D01*
G54D45*
X68799Y-32402D02*
X69843Y-32402D01*
G54D43*
X60545Y-32909D02*
X60551Y-32903D01*
G54D45*
X68699Y-32502D02*
X68799Y-32402D01*
G54D41*
X72549Y-34833D02*
X72559Y-34823D01*
G54D40*
X62323Y-40296D02*
X63022Y-41201D01*
X67520Y-40276D02*
X67401Y-40157D01*
X66358Y-39646D02*
X65984Y-39272D01*
X56319Y-39783D02*
X56319Y-41339D01*
X74803Y-30709D02*
X74803Y-31949D01*
X76772Y-30709D02*
X76772Y-29528D01*
X76772Y-28346D02*
X76772Y-27165D01*
X76772Y-25984D02*
X76772Y-24980D01*
X75197Y-27559D02*
X74409Y-27559D01*
X75591Y-27165D02*
X75197Y-27559D01*
X72834Y-28740D02*
X71654Y-28740D01*
G54D46*
X70512Y-37214D02*
X70512Y-36910D01*
G54D40*
X73228Y-28346D02*
X72834Y-28740D01*
X72982Y-31535D02*
X72982Y-31348D01*
X73622Y-36220D02*
X74173Y-36417D01*
G54D46*
X70492Y-37234D02*
X70512Y-37214D01*
G54D41*
X71258Y-32895D02*
X71289Y-32864D01*
G54D45*
X62435Y-39759D02*
X62323Y-39871D01*
G54D40*
X73622Y-29528D02*
X74803Y-29528D01*
G54D41*
X72077Y-34833D02*
X72077Y-35030D01*
G54D40*
X72884Y-35867D02*
X72835Y-36220D01*
X72441Y-30315D02*
X72835Y-30315D01*
X76811Y-30709D02*
X77028Y-30926D01*
G54D46*
X57045Y-33679D02*
X57798Y-33679D01*
G54D40*
X65413Y-31969D02*
X65413Y-31259D01*
X72441Y-35433D02*
X72667Y-35650D01*
X68819Y-38603D02*
X68819Y-38720D01*
X72667Y-35650D02*
X72884Y-35867D01*
X72047Y-30709D02*
X72441Y-30315D01*
X62677Y-40669D02*
X62717Y-40709D01*
X75591Y-24980D02*
X75591Y-25984D01*
X72440Y-29528D02*
X72047Y-29921D01*
G54D46*
X70118Y-37234D02*
X70492Y-37234D01*
X70020Y-37136D02*
X70118Y-37234D01*
G54D40*
X72362Y-29213D02*
X72440Y-29528D01*
G54D43*
X59845Y-32909D02*
X60545Y-32909D01*
X69331Y-36871D02*
X68994Y-36871D01*
G54D40*
X76772Y-30709D02*
X76811Y-30709D01*
G54D46*
X70020Y-36910D02*
X70020Y-37136D01*
G54D43*
X60297Y-32649D02*
X59845Y-32649D01*
G54D40*
X68404Y-36813D02*
X67442Y-37775D01*
X73621Y-30709D02*
X73622Y-30709D01*
X72982Y-31348D02*
X73621Y-30709D01*
X75984Y-29528D02*
X75984Y-28346D01*
G54D45*
X61694Y-33573D02*
X61694Y-34025D01*
G54D46*
X58365Y-32560D02*
X58661Y-32264D01*
G54D43*
X70549Y-32895D02*
X71003Y-32895D01*
G54D40*
X68994Y-33092D02*
X68699Y-33387D01*
G54D43*
X66849Y-32304D02*
X65492Y-32303D01*
G54D45*
X67007Y-37775D02*
X66318Y-37775D01*
G54D41*
X71947Y-31831D02*
X71947Y-31360D01*
X68404Y-33682D02*
X68699Y-33387D01*
G54D43*
X70020Y-38543D02*
X70020Y-37776D01*
X70549Y-33092D02*
X71031Y-33092D01*
G54D41*
X71947Y-34136D02*
X71929Y-34154D01*
G54D40*
X56339Y-40079D02*
X56339Y-39075D01*
G54D43*
X68994Y-35237D02*
X68994Y-33682D01*
G54D45*
X69685Y-38603D02*
X68819Y-38603D01*
G54D43*
X69311Y-37362D02*
X68992Y-37362D01*
G54D41*
X69585Y-34273D02*
X68699Y-33387D01*
G54D43*
X68992Y-37362D02*
X68994Y-37360D01*
G54D41*
X72786Y-34163D02*
X72992Y-33976D01*
G54D43*
X56959Y-26279D02*
X56752Y-26486D01*
X70549Y-33682D02*
X68994Y-33682D01*
X67813Y-34273D02*
X68699Y-33387D01*
G54D40*
X68799Y-30984D02*
X69016Y-30768D01*
X67442Y-37775D02*
X67007Y-37775D01*
G54D43*
X59016Y-32668D02*
X59016Y-32264D01*
X65492Y-32303D02*
X65413Y-32224D01*
X59845Y-32909D02*
X59257Y-32909D01*
G54D45*
X66318Y-37775D02*
X66102Y-37991D01*
G54D41*
X71947Y-31360D02*
X71949Y-31358D01*
X72077Y-35030D02*
X72441Y-35433D01*
G54D44*
X70549Y-32992D02*
X69094Y-32992D01*
G54D43*
X67579Y-32461D02*
X68699Y-33387D01*
X58730Y-34577D02*
X59380Y-33927D01*
G54D40*
X68404Y-35237D02*
X68404Y-36813D01*
X70355Y-40472D02*
X70236Y-40492D01*
X70728Y-39921D02*
X70355Y-40472D01*
G54D43*
X69016Y-36870D02*
X68994Y-36870D01*
G54D41*
X71947Y-33702D02*
X71947Y-34136D01*
G54D40*
X70512Y-36910D02*
X70512Y-37264D01*
X70512Y-37264D02*
X70689Y-37441D01*
X70728Y-38248D02*
X70728Y-39055D01*
X68976Y-40276D02*
X68268Y-40276D01*
G54D41*
X72470Y-34173D02*
X72786Y-34163D01*
G54D40*
X69094Y-32992D02*
X68699Y-33387D01*
G54D43*
X66849Y-34273D02*
X66161Y-34272D01*
X69389Y-37362D02*
X69311Y-37362D01*
G54D45*
X61694Y-34025D02*
X61832Y-34163D01*
G54D46*
X57798Y-33679D02*
X58365Y-33112D01*
X62687Y-28051D02*
X63366Y-28051D01*
G54D40*
X56633Y-40373D02*
X56339Y-40079D01*
G54D43*
X65413Y-32224D02*
X65413Y-31969D01*
G54D45*
X67499Y-36457D02*
X66969Y-36457D01*
G54D43*
X59350Y-34577D02*
X59472Y-34699D01*
X56752Y-26486D02*
X56732Y-26496D01*
X70060Y-30511D02*
X69583Y-30988D01*
G54D40*
X62323Y-39871D02*
X62323Y-40296D01*
G54D43*
X69585Y-35237D02*
X69585Y-34273D01*
X70060Y-30472D02*
X70060Y-30511D01*
G54D41*
X72714Y-32261D02*
X72451Y-31998D01*
G54D43*
X71031Y-33092D02*
X71033Y-33094D01*
G54D41*
X70549Y-33682D02*
X71133Y-33682D01*
X71664Y-34213D02*
X71900Y-34213D01*
G54D43*
X57421Y-38603D02*
X57422Y-38602D01*
X68404Y-35237D02*
X68404Y-33682D01*
X70020Y-38602D02*
X70020Y-38543D01*
G54D46*
X58661Y-32264D02*
X59016Y-32264D01*
G54D43*
X65906Y-34528D02*
X65906Y-34744D01*
X71947Y-31831D02*
X72057Y-31831D01*
X65906Y-34744D02*
X65650Y-34744D01*
G54D45*
X65650Y-34765D02*
X65650Y-35059D01*
G54D43*
X59401Y-32649D02*
X59016Y-32264D01*
X68994Y-36809D02*
X68994Y-35237D01*
G54D41*
X70549Y-32895D02*
X71258Y-32895D01*
G54D40*
X70549Y-32895D02*
X70549Y-32992D01*
G54D43*
X71003Y-32895D02*
X71004Y-32894D01*
X69585Y-32501D02*
X68699Y-33387D01*
G54D41*
X71258Y-32895D02*
X71289Y-32864D01*
G54D43*
X59380Y-33927D02*
X59845Y-33929D01*
G54D46*
X58365Y-33112D02*
X58365Y-32560D01*
G54D43*
X57422Y-38602D02*
X58897Y-38602D01*
G54D40*
X68797Y-31537D02*
X68799Y-30984D01*
G54D43*
X58848Y-26279D02*
X56959Y-26279D01*
X69725Y-37698D02*
X69389Y-37362D01*
X70549Y-33682D02*
X70992Y-33682D01*
X61792Y-34636D02*
X61674Y-34754D01*
X68994Y-37360D02*
X68994Y-36870D01*
G54D41*
X72714Y-32461D02*
X72714Y-32261D01*
G54D43*
X70992Y-33682D02*
X70994Y-33680D01*
X57421Y-40373D02*
X57421Y-38603D01*
X61792Y-34164D02*
X61792Y-34636D01*
G54D41*
X68994Y-33682D02*
X68699Y-33387D01*
G54D43*
X59257Y-32909D02*
X59016Y-32668D01*
X69585Y-31537D02*
X69585Y-32501D01*
X68995Y-36870D02*
X69016Y-36870D01*
X71947Y-31831D02*
X71821Y-31831D01*
G54D41*
X71133Y-33682D02*
X71664Y-34213D01*
G54D43*
X67500Y-32382D02*
X67579Y-32461D01*
X69942Y-37698D02*
X69725Y-37698D01*
X59845Y-32649D02*
X59401Y-32649D01*
G54D44*
X58848Y-26279D02*
X60581Y-26280D01*
G54D43*
X58720Y-34577D02*
X59350Y-34577D01*
X65650Y-34744D02*
X65650Y-34765D01*
X59845Y-34699D02*
X59472Y-34699D01*
X66849Y-32304D02*
X67422Y-32304D01*
X66161Y-34272D02*
X65906Y-34528D01*
X58720Y-34577D02*
X58730Y-34577D01*
X69583Y-30988D02*
X69583Y-31537D01*
G54D41*
X68797Y-33289D02*
X68699Y-33387D01*
G54D43*
X68994Y-36871D02*
X68995Y-36870D01*
G54D40*
X70549Y-32992D02*
X70549Y-33092D01*
G54D43*
X68994Y-33682D02*
X68699Y-33387D01*
X68994Y-36870D02*
X68994Y-36809D01*
X60297Y-32649D02*
X60551Y-32903D01*
X68797Y-31537D02*
X68797Y-33289D01*
X69685Y-38603D02*
X70020Y-38602D01*
X67422Y-32304D02*
X67500Y-32382D01*
G54D40*
X71240Y-32008D02*
X71240Y-29213D01*
X70944Y-32304D02*
X70549Y-32304D01*
X74579Y-26287D02*
X74579Y-26703D01*
X71240Y-27337D02*
X71343Y-27234D01*
X71240Y-29213D02*
X71240Y-27337D01*
X74048Y-27234D02*
X74579Y-26703D01*
X71343Y-27234D02*
X74048Y-27234D01*
X70944Y-32304D02*
X71240Y-32008D01*
X71084Y-27253D02*
X71270Y-27067D01*
X71270Y-27067D02*
X73217Y-27067D01*
X70904Y-32107D02*
X70549Y-32107D01*
X73217Y-27067D02*
X73579Y-26705D01*
X73579Y-26287D02*
X73579Y-26705D01*
X71084Y-31927D02*
X71084Y-29193D01*
X71084Y-29193D02*
X71084Y-27253D01*
X70904Y-32107D02*
X71084Y-31927D01*
X70926Y-31851D02*
X70926Y-29114D01*
X70926Y-27175D02*
X71191Y-26910D01*
X72579Y-26287D02*
X72579Y-26700D01*
X70926Y-29114D02*
X70926Y-27175D01*
X70866Y-31911D02*
X70926Y-31851D01*
X72369Y-26910D02*
X72579Y-26700D01*
X71191Y-26910D02*
X72369Y-26910D01*
X70866Y-31911D02*
X70549Y-31911D01*
X70767Y-27548D02*
X70768Y-27548D01*
X70175Y-31222D02*
X70175Y-31537D01*
X70768Y-29094D02*
X70768Y-27548D01*
X70175Y-31222D02*
X70275Y-31122D01*
X70768Y-27548D02*
X70768Y-27548D01*
X70768Y-30967D02*
X70768Y-29094D01*
X70767Y-27098D02*
X70767Y-27548D01*
X71579Y-26287D02*
X71578Y-26287D01*
X70613Y-31122D02*
X70768Y-30967D01*
X71578Y-26287D02*
X70767Y-27098D01*
X70275Y-31122D02*
X70613Y-31122D01*
X70611Y-29094D02*
X70610Y-27106D01*
X70610Y-27106D02*
X70610Y-26318D01*
X70611Y-30846D02*
X70611Y-29094D01*
X70610Y-26318D02*
X70579Y-26287D01*
X69979Y-31183D02*
X70197Y-30965D01*
X70197Y-30965D02*
X70492Y-30965D01*
X69979Y-31537D02*
X69979Y-31183D01*
X70492Y-30965D02*
X70611Y-30846D01*
X69782Y-31143D02*
X70117Y-30808D01*
X69579Y-26291D02*
X70454Y-27166D01*
X70394Y-30808D02*
X70454Y-30748D01*
X70454Y-27166D02*
X70454Y-27753D01*
X70454Y-27753D02*
X70454Y-29114D01*
X70117Y-30808D02*
X70394Y-30808D01*
X69782Y-31537D02*
X69782Y-31143D01*
X69579Y-26287D02*
X69579Y-26291D01*
X70454Y-29114D02*
X70454Y-29094D01*
X70454Y-30748D02*
X70454Y-29114D01*
G54D44*
X65118Y-29498D02*
X65108Y-29498D01*
G54D45*
X65395Y-34173D02*
X65650Y-34173D01*
G54D44*
X60575Y-25287D02*
X61575Y-25287D01*
G54D45*
X66005Y-31320D02*
X66005Y-31969D01*
G54D44*
X63071Y-37225D02*
X62462Y-37225D01*
G54D43*
X69191Y-31537D02*
X69191Y-31102D01*
G54D44*
X65108Y-29498D02*
X64665Y-29055D01*
X64665Y-29055D02*
X64665Y-25563D01*
G54D43*
X69388Y-31537D02*
X69388Y-31262D01*
X65039Y-40827D02*
X67049Y-40827D01*
G54D44*
X63930Y-43610D02*
X64094Y-43446D01*
G54D43*
X69193Y-31104D02*
X69193Y-31122D01*
X68994Y-31537D02*
X68994Y-31144D01*
G54D44*
X61575Y-25287D02*
X62575Y-25287D01*
G54D43*
X66849Y-32107D02*
X66318Y-32107D01*
G54D44*
X64094Y-41024D02*
X64291Y-40827D01*
G54D43*
X69843Y-37500D02*
X70039Y-37500D01*
X67049Y-40827D02*
X69233Y-40827D01*
G54D44*
X64291Y-40827D02*
X65000Y-40827D01*
G54D43*
X69370Y-31102D02*
X69388Y-31120D01*
G54D44*
X62462Y-37225D02*
X62461Y-37224D01*
G54D43*
X68994Y-31144D02*
X69036Y-31102D01*
X69388Y-31262D02*
X69388Y-31537D01*
X69191Y-35237D02*
X69191Y-36139D01*
G54D45*
X63065Y-37231D02*
X63071Y-37225D01*
G54D43*
X69685Y-37165D02*
X69685Y-37342D01*
X69685Y-37342D02*
X69843Y-37500D01*
X69388Y-31120D02*
X69388Y-31262D01*
G54D44*
X69468Y-30236D02*
X69468Y-30000D01*
G54D45*
X68091Y-36712D02*
X68012Y-36791D01*
X69449Y-30453D02*
X69468Y-30472D01*
X67598Y-37205D02*
X65039Y-37205D01*
G54D43*
X69233Y-40827D02*
X70217Y-39843D01*
X70217Y-37678D02*
X70217Y-39843D01*
X68207Y-35237D02*
X68207Y-36341D01*
X66103Y-32107D02*
X65965Y-31969D01*
G54D45*
X68012Y-36791D02*
X67598Y-37205D01*
G54D44*
X64389Y-25287D02*
X64665Y-25563D01*
G54D43*
X68207Y-36341D02*
X68091Y-36457D01*
X69428Y-36279D02*
X69331Y-36279D01*
X65000Y-40827D02*
X65039Y-40827D01*
G54D45*
X63091Y-37205D02*
X65039Y-37205D01*
G54D44*
X64094Y-43446D02*
X64094Y-42284D01*
G54D45*
X64509Y-35059D02*
X65395Y-34173D01*
G54D44*
X63402Y-43610D02*
X63930Y-43610D01*
X69468Y-30472D02*
X69468Y-30236D01*
G54D43*
X66849Y-31911D02*
X66514Y-31911D01*
X69428Y-36279D02*
X69685Y-36536D01*
G54D44*
X64389Y-25287D02*
X62575Y-25287D01*
G54D45*
X66004Y-30965D02*
X66005Y-31320D01*
G54D43*
X69036Y-31102D02*
X69193Y-31102D01*
X70039Y-37500D02*
X70217Y-37678D01*
X69191Y-36139D02*
X69331Y-36279D01*
X69685Y-36536D02*
X69685Y-37165D01*
G54D45*
X68091Y-36457D02*
X68091Y-36712D01*
G54D43*
X66849Y-34076D02*
X66181Y-34075D01*
X68994Y-31537D02*
X68994Y-31262D01*
X69191Y-31102D02*
X69370Y-31102D01*
X69388Y-30552D02*
X69468Y-30472D01*
G54D44*
X68976Y-30236D02*
X69468Y-30236D01*
G54D45*
X63071Y-37225D02*
X63091Y-37205D01*
X64154Y-35059D02*
X64509Y-35059D01*
G54D43*
X69191Y-31102D02*
X69193Y-31104D01*
X69193Y-31122D02*
X69193Y-31102D01*
X66318Y-32107D02*
X66103Y-32107D01*
G54D45*
X65039Y-40827D02*
X65039Y-37205D01*
G54D43*
X66181Y-34075D02*
X65709Y-34075D01*
G54D45*
X63065Y-37957D02*
X63065Y-37231D01*
G54D44*
X64094Y-42284D02*
X64094Y-41024D01*
G54D43*
X66514Y-31911D02*
X66318Y-32107D01*
X69388Y-31537D02*
X69388Y-30552D01*
X59845Y-34189D02*
X61056Y-34189D01*
X61056Y-34189D02*
X61082Y-34163D01*
X61076Y-34169D02*
X61082Y-34163D01*
G54D45*
X60541Y-33573D02*
X61102Y-33573D01*
X60866Y-37844D02*
X61900Y-37844D01*
G54D43*
X60866Y-37234D02*
X60866Y-37844D01*
G54D45*
X61102Y-33573D02*
X61102Y-34143D01*
X61102Y-34143D02*
X61082Y-34163D01*
G54D44*
X62402Y-41320D02*
X61573Y-40491D01*
X62402Y-42610D02*
X63402Y-42610D01*
G54D43*
X61573Y-38817D02*
X61573Y-39871D01*
G54D44*
X61571Y-39873D02*
X60571Y-39873D01*
X61573Y-40491D02*
X61573Y-39871D01*
X61573Y-39871D02*
X61571Y-39873D01*
X62402Y-42610D02*
X62402Y-41320D01*
G54D43*
X61358Y-38602D02*
X61573Y-38817D01*
X60866Y-38602D02*
X61358Y-38602D01*
X60767Y-41476D02*
X60664Y-41373D01*
X59692Y-42607D02*
X60187Y-42607D01*
X60473Y-42321D02*
X60767Y-42321D01*
X60664Y-41373D02*
X60571Y-41373D01*
X60767Y-42321D02*
X60767Y-41476D01*
X60187Y-42607D02*
X60473Y-42321D01*
X69667Y-35965D02*
X70020Y-36318D01*
X69449Y-35965D02*
X69667Y-35965D01*
X69388Y-35237D02*
X69388Y-35904D01*
X69388Y-35904D02*
X69449Y-35965D01*
G54D45*
X67007Y-39350D02*
X67027Y-39370D01*
G54D43*
X67598Y-38524D02*
X67519Y-38603D01*
X68601Y-35237D02*
X68601Y-36950D01*
G54D45*
X66987Y-38583D02*
X67007Y-38603D01*
G54D43*
X67598Y-37953D02*
X67598Y-38524D01*
G54D45*
X66102Y-38583D02*
X66987Y-38583D01*
X67007Y-38603D02*
X67007Y-39350D01*
G54D43*
X67519Y-38603D02*
X67007Y-38603D01*
X68601Y-36950D02*
X67598Y-37953D01*
X70549Y-33485D02*
X71610Y-33485D01*
X71610Y-33485D02*
X71611Y-33484D01*
X71691Y-33564D02*
X71691Y-33702D01*
X71612Y-33485D02*
X71611Y-33484D01*
X71611Y-33484D02*
X71691Y-33564D01*
X60512Y-34439D02*
X60827Y-34754D01*
X59845Y-34439D02*
X60512Y-34439D01*
X60827Y-34754D02*
X61082Y-34754D01*
X60274Y-37844D02*
X59703Y-37844D01*
X59703Y-37844D02*
X59695Y-37836D01*
X59762Y-37234D02*
X59695Y-37167D01*
X60274Y-37234D02*
X59762Y-37234D01*
X60274Y-38602D02*
X59685Y-38602D01*
X60227Y-36468D02*
X60492Y-36203D01*
X60492Y-35639D02*
X60322Y-35469D01*
X60492Y-36203D02*
X60492Y-35639D01*
X57194Y-36468D02*
X60227Y-36468D01*
X56861Y-36801D02*
X57194Y-36468D01*
X56861Y-37185D02*
X56861Y-36801D01*
X60322Y-35469D02*
X59845Y-35469D01*
X60364Y-36663D02*
X60709Y-36318D01*
X60709Y-36318D02*
X60709Y-35473D01*
X60709Y-35473D02*
X60445Y-35209D01*
X57550Y-36663D02*
X60364Y-36663D01*
X57403Y-36810D02*
X57550Y-36663D01*
X57403Y-37185D02*
X57403Y-36810D01*
X60445Y-35209D02*
X59845Y-35209D01*
G54D44*
X59474Y-41022D02*
X59474Y-41622D01*
X59474Y-41622D02*
X59274Y-41822D01*
X61274Y-42022D02*
X61474Y-41822D01*
X60571Y-40873D02*
X59623Y-40873D01*
X61325Y-40873D02*
X60571Y-40873D01*
X59623Y-40873D02*
X59474Y-41022D01*
X61474Y-41022D02*
X61325Y-40873D01*
X58874Y-41822D02*
X58574Y-42122D01*
X58574Y-42622D02*
X57770Y-42622D01*
X61474Y-41822D02*
X61474Y-41022D01*
X58574Y-42122D02*
X58574Y-42622D01*
G54D43*
X57770Y-42622D02*
X57755Y-42607D01*
G54D44*
X59274Y-41822D02*
X58874Y-41822D01*
X61274Y-42326D02*
X61274Y-42022D01*
G54D43*
X57644Y-32909D02*
X57750Y-32909D01*
G54D46*
X59845Y-34969D02*
X59194Y-34969D01*
G54D43*
X60827Y-35246D02*
X61082Y-35246D01*
X57750Y-32909D02*
X57756Y-32903D01*
X59845Y-34969D02*
X60550Y-34969D01*
X60550Y-34969D02*
X60827Y-35246D01*
X57644Y-32909D02*
X57045Y-32909D01*
X59193Y-34970D02*
X59194Y-34969D01*
X71947Y-33072D02*
X71947Y-32423D01*
G54D44*
X58848Y-28632D02*
X58031Y-28632D01*
X58848Y-26871D02*
X58848Y-28632D01*
X60591Y-28632D02*
X58848Y-28632D01*
G54D46*
X62687Y-29409D02*
X62687Y-28839D01*
X63366Y-29409D02*
X63366Y-28839D01*
G54D43*
X70549Y-33289D02*
X71611Y-33289D01*
X71611Y-33289D02*
X71691Y-33209D01*
X71691Y-33209D02*
X71691Y-33072D01*
X68209Y-37775D02*
X68819Y-37775D01*
X67619Y-38877D02*
X67874Y-38622D01*
G54D45*
X68819Y-37775D02*
X69449Y-37775D01*
G54D43*
X67874Y-38622D02*
X67874Y-38110D01*
X68797Y-35237D02*
X68797Y-37753D01*
G54D45*
X69449Y-37775D02*
X69685Y-38011D01*
G54D43*
X67874Y-38110D02*
X68209Y-37775D01*
X68797Y-37753D02*
X68819Y-37775D01*
X67619Y-39370D02*
X67619Y-38877D01*
G54D10*
G36*
X73005Y-33263D02*
X72223Y-33263D01*
X72149Y-33226D01*
X72149Y-32917D01*
X72223Y-32880D01*
X73005Y-32880D01*
X73005Y-33263D01*
X73005Y-33263D01*
G37*
G54D47*
X73005Y-33263D02*
X72223Y-33263D01*
X72149Y-33226D01*
X72149Y-32917D01*
X72223Y-32880D01*
X73005Y-32880D01*
X73005Y-33263D01*
G54D10*
G36*
X60854Y-33139D02*
X60786Y-33168D01*
X60766Y-33187D01*
X60629Y-33131D01*
X60453Y-33131D01*
X60340Y-33177D01*
X60340Y-33030D01*
X60303Y-32940D01*
X60234Y-32871D01*
X60223Y-32866D01*
X60223Y-32848D01*
X60223Y-32831D01*
X60223Y-32804D01*
X60212Y-32779D01*
X60223Y-32754D01*
X60223Y-32727D01*
X60223Y-32710D01*
X60223Y-32681D01*
X60234Y-32677D01*
X60303Y-32608D01*
X60340Y-32517D01*
X60340Y-32420D01*
X60340Y-32267D01*
X60340Y-32260D01*
X60340Y-32170D01*
X60340Y-32148D01*
X60473Y-32281D01*
X60473Y-32600D01*
X60496Y-32717D01*
X60562Y-32816D01*
X60667Y-32920D01*
X60669Y-32923D01*
X60680Y-32930D01*
X60680Y-32953D01*
X60717Y-33043D01*
X60786Y-33112D01*
X60854Y-33139D01*
X60854Y-33139D01*
G37*
G54D11*
X60854Y-33139D02*
X60786Y-33168D01*
X60766Y-33187D01*
X60629Y-33131D01*
X60453Y-33131D01*
X60340Y-33177D01*
X60340Y-33030D01*
X60303Y-32940D01*
X60234Y-32871D01*
X60223Y-32866D01*
X60223Y-32848D01*
X60223Y-32831D01*
X60223Y-32804D01*
X60212Y-32779D01*
X60223Y-32754D01*
X60223Y-32727D01*
X60223Y-32710D01*
X60223Y-32681D01*
X60234Y-32677D01*
X60303Y-32608D01*
X60340Y-32517D01*
X60340Y-32420D01*
X60340Y-32267D01*
X60340Y-32260D01*
X60340Y-32170D01*
X60340Y-32148D01*
X60473Y-32281D01*
X60473Y-32600D01*
X60496Y-32717D01*
X60562Y-32816D01*
X60667Y-32920D01*
X60669Y-32923D01*
X60680Y-32930D01*
X60680Y-32953D01*
X60717Y-33043D01*
X60786Y-33112D01*
X60854Y-33139D01*
G54D10*
G36*
X61752Y-33251D02*
X61723Y-33280D01*
X61723Y-33495D01*
X61723Y-33544D01*
X61723Y-33602D01*
X61665Y-33602D01*
X61665Y-33544D01*
X61665Y-33495D01*
X61665Y-33280D01*
X61633Y-33248D01*
X61492Y-33248D01*
X61491Y-33248D01*
X61487Y-33237D01*
X61418Y-33168D01*
X61349Y-33140D01*
X61398Y-33120D01*
X61469Y-33149D01*
X61566Y-33149D01*
X61752Y-33149D01*
X61752Y-33251D01*
X61752Y-33251D01*
G37*
G54D11*
X61752Y-33251D02*
X61723Y-33280D01*
X61723Y-33495D01*
X61723Y-33544D01*
X61723Y-33602D01*
X61665Y-33602D01*
X61665Y-33544D01*
X61665Y-33495D01*
X61665Y-33280D01*
X61633Y-33248D01*
X61492Y-33248D01*
X61491Y-33248D01*
X61487Y-33237D01*
X61418Y-33168D01*
X61349Y-33140D01*
X61398Y-33120D01*
X61469Y-33149D01*
X61566Y-33149D01*
X61752Y-33149D01*
X61752Y-33251D01*
G54D10*
G36*
X63488Y-36605D02*
X63456Y-36684D01*
X63456Y-36860D01*
X63456Y-36861D01*
X63237Y-36861D01*
X63225Y-36853D01*
X63071Y-36822D01*
X62645Y-36822D01*
X62549Y-36782D01*
X62373Y-36782D01*
X62211Y-36849D01*
X62086Y-36974D01*
X62019Y-37136D01*
X62019Y-37312D01*
X62070Y-37436D01*
X61988Y-37402D01*
X61979Y-37402D01*
X61979Y-35469D01*
X61979Y-35418D01*
X61979Y-35307D01*
X61979Y-35185D01*
X61979Y-35074D01*
X61979Y-35023D01*
X61969Y-35000D01*
X61979Y-34977D01*
X61979Y-34926D01*
X61979Y-34815D01*
X61947Y-34783D01*
X61703Y-34783D01*
X61703Y-34953D01*
X61703Y-35047D01*
X61703Y-35217D01*
X61947Y-35217D01*
X61979Y-35185D01*
X61979Y-35307D01*
X61947Y-35275D01*
X61703Y-35275D01*
X61703Y-35539D01*
X61735Y-35571D01*
X61876Y-35571D01*
X61923Y-35552D01*
X61959Y-35516D01*
X61979Y-35469D01*
X61979Y-37402D01*
X61812Y-37402D01*
X61650Y-37469D01*
X61619Y-37500D01*
X61279Y-37500D01*
X61288Y-37479D01*
X61288Y-37382D01*
X61288Y-36988D01*
X61251Y-36898D01*
X61182Y-36829D01*
X61091Y-36792D01*
X60994Y-36792D01*
X60666Y-36792D01*
X60922Y-36535D01*
X60924Y-36534D01*
X60925Y-36534D01*
X60990Y-36435D01*
X60991Y-36435D01*
X61010Y-36338D01*
X61014Y-36319D01*
X61013Y-36318D01*
X61014Y-36318D01*
X61014Y-35688D01*
X61308Y-35688D01*
X61398Y-35651D01*
X61467Y-35582D01*
X61471Y-35570D01*
X61472Y-35571D01*
X61613Y-35571D01*
X61645Y-35539D01*
X61645Y-35324D01*
X61645Y-35275D01*
X61645Y-35217D01*
X61645Y-35168D01*
X61645Y-35047D01*
X61645Y-34953D01*
X61645Y-34832D01*
X61645Y-34783D01*
X61645Y-34725D01*
X61703Y-34725D01*
X61752Y-34725D01*
X61947Y-34725D01*
X61979Y-34693D01*
X61979Y-34587D01*
X62073Y-34587D01*
X62120Y-34568D01*
X62156Y-34532D01*
X62176Y-34485D01*
X62176Y-34434D01*
X62176Y-34225D01*
X62144Y-34193D01*
X61870Y-34193D01*
X61821Y-34193D01*
X61763Y-34193D01*
X61763Y-34135D01*
X61821Y-34135D01*
X61870Y-34135D01*
X62144Y-34135D01*
X62176Y-34103D01*
X62176Y-33894D01*
X62176Y-33847D01*
X62420Y-34091D01*
X62422Y-34094D01*
X62599Y-34271D01*
X62599Y-35680D01*
X62622Y-35797D01*
X62688Y-35896D01*
X63315Y-36522D01*
X63317Y-36525D01*
X63416Y-36591D01*
X63488Y-36605D01*
X63488Y-36605D01*
G37*
G54D11*
X63488Y-36605D02*
X63456Y-36684D01*
X63456Y-36860D01*
X63456Y-36861D01*
X63237Y-36861D01*
X63225Y-36853D01*
X63071Y-36822D01*
X62645Y-36822D01*
X62549Y-36782D01*
X62373Y-36782D01*
X62211Y-36849D01*
X62086Y-36974D01*
X62019Y-37136D01*
X62019Y-37312D01*
X62070Y-37436D01*
X61988Y-37402D01*
X61979Y-37402D01*
X61979Y-35469D01*
X61979Y-35418D01*
X61979Y-35307D01*
X61979Y-35185D01*
X61979Y-35074D01*
X61979Y-35023D01*
X61969Y-35000D01*
X61979Y-34977D01*
X61979Y-34926D01*
X61979Y-34815D01*
X61947Y-34783D01*
X61703Y-34783D01*
X61703Y-34953D01*
X61703Y-35047D01*
X61703Y-35217D01*
X61947Y-35217D01*
X61979Y-35185D01*
X61979Y-35307D01*
X61947Y-35275D01*
X61703Y-35275D01*
X61703Y-35539D01*
X61735Y-35571D01*
X61876Y-35571D01*
X61923Y-35552D01*
X61959Y-35516D01*
X61979Y-35469D01*
X61979Y-37402D01*
X61812Y-37402D01*
X61650Y-37469D01*
X61619Y-37500D01*
X61279Y-37500D01*
X61288Y-37479D01*
X61288Y-37382D01*
X61288Y-36988D01*
X61251Y-36898D01*
X61182Y-36829D01*
X61091Y-36792D01*
X60994Y-36792D01*
X60666Y-36792D01*
X60922Y-36535D01*
X60924Y-36534D01*
X60925Y-36534D01*
X60990Y-36435D01*
X60991Y-36435D01*
X61010Y-36338D01*
X61014Y-36319D01*
X61013Y-36318D01*
X61014Y-36318D01*
X61014Y-35688D01*
X61308Y-35688D01*
X61398Y-35651D01*
X61467Y-35582D01*
X61471Y-35570D01*
X61472Y-35571D01*
X61613Y-35571D01*
X61645Y-35539D01*
X61645Y-35324D01*
X61645Y-35275D01*
X61645Y-35217D01*
X61645Y-35168D01*
X61645Y-35047D01*
X61645Y-34953D01*
X61645Y-34832D01*
X61645Y-34783D01*
X61645Y-34725D01*
X61703Y-34725D01*
X61752Y-34725D01*
X61947Y-34725D01*
X61979Y-34693D01*
X61979Y-34587D01*
X62073Y-34587D01*
X62120Y-34568D01*
X62156Y-34532D01*
X62176Y-34485D01*
X62176Y-34434D01*
X62176Y-34225D01*
X62144Y-34193D01*
X61870Y-34193D01*
X61821Y-34193D01*
X61763Y-34193D01*
X61763Y-34135D01*
X61821Y-34135D01*
X61870Y-34135D01*
X62144Y-34135D01*
X62176Y-34103D01*
X62176Y-33894D01*
X62176Y-33847D01*
X62420Y-34091D01*
X62422Y-34094D01*
X62599Y-34271D01*
X62599Y-35680D01*
X62622Y-35797D01*
X62688Y-35896D01*
X63315Y-36522D01*
X63317Y-36525D01*
X63416Y-36591D01*
X63488Y-36605D01*
G54D10*
G36*
X64695Y-40424D02*
X64291Y-40424D01*
X64136Y-40455D01*
X64006Y-40542D01*
X63809Y-40739D01*
X63722Y-40870D01*
X63691Y-41024D01*
X63691Y-42090D01*
X63628Y-42090D01*
X63373Y-42090D01*
X63373Y-38862D01*
X63373Y-38718D01*
X63341Y-38686D01*
X63094Y-38686D01*
X63094Y-38933D01*
X63126Y-38965D01*
X63220Y-38965D01*
X63271Y-38965D01*
X63318Y-38945D01*
X63354Y-38909D01*
X63373Y-38862D01*
X63373Y-42090D01*
X63078Y-42090D01*
X63036Y-42107D01*
X63036Y-38933D01*
X63036Y-38686D01*
X62789Y-38686D01*
X62757Y-38718D01*
X62757Y-38862D01*
X62776Y-38909D01*
X62812Y-38945D01*
X62859Y-38965D01*
X62910Y-38965D01*
X63004Y-38965D01*
X63036Y-38933D01*
X63036Y-42107D01*
X62988Y-42127D01*
X62919Y-42196D01*
X62914Y-42207D01*
X62889Y-42207D01*
X62885Y-42196D01*
X62816Y-42127D01*
X62805Y-42122D01*
X62805Y-41320D01*
X62774Y-41166D01*
X62707Y-41065D01*
X62707Y-40192D01*
X62707Y-40141D01*
X62707Y-39932D01*
X62707Y-39810D01*
X62707Y-39601D01*
X62707Y-39550D01*
X62687Y-39503D01*
X62651Y-39467D01*
X62604Y-39448D01*
X62384Y-39448D01*
X62352Y-39480D01*
X62352Y-39842D01*
X62675Y-39842D01*
X62707Y-39810D01*
X62707Y-39932D01*
X62675Y-39900D01*
X62352Y-39900D01*
X62352Y-40262D01*
X62384Y-40294D01*
X62604Y-40294D01*
X62651Y-40275D01*
X62687Y-40239D01*
X62707Y-40192D01*
X62707Y-41065D01*
X62687Y-41035D01*
X61997Y-40345D01*
X62037Y-40305D01*
X62041Y-40293D01*
X62042Y-40294D01*
X62262Y-40294D01*
X62294Y-40262D01*
X62294Y-39949D01*
X62294Y-39900D01*
X62294Y-39842D01*
X62294Y-39793D01*
X62294Y-39480D01*
X62262Y-39448D01*
X62042Y-39448D01*
X62041Y-39448D01*
X62037Y-39437D01*
X61968Y-39368D01*
X61878Y-39331D01*
X61878Y-38817D01*
X61855Y-38700D01*
X61789Y-38601D01*
X61574Y-38386D01*
X61475Y-38320D01*
X61358Y-38297D01*
X61263Y-38297D01*
X61251Y-38266D01*
X61208Y-38223D01*
X61243Y-38188D01*
X61619Y-38188D01*
X61650Y-38219D01*
X61812Y-38286D01*
X61988Y-38286D01*
X62150Y-38219D01*
X62275Y-38094D01*
X62342Y-37932D01*
X62342Y-37756D01*
X62290Y-37631D01*
X62373Y-37666D01*
X62549Y-37666D01*
X62640Y-37628D01*
X62687Y-37628D01*
X62677Y-37638D01*
X62640Y-37729D01*
X62640Y-37826D01*
X62640Y-38186D01*
X62677Y-38276D01*
X62746Y-38345D01*
X62809Y-38371D01*
X62776Y-38405D01*
X62757Y-38452D01*
X62757Y-38596D01*
X62789Y-38628D01*
X62987Y-38628D01*
X63036Y-38628D01*
X63094Y-38628D01*
X63143Y-38628D01*
X63341Y-38628D01*
X63373Y-38596D01*
X63373Y-38452D01*
X63354Y-38405D01*
X63320Y-38371D01*
X63384Y-38345D01*
X63440Y-38289D01*
X63440Y-38536D01*
X63477Y-38626D01*
X63546Y-38695D01*
X63637Y-38732D01*
X63734Y-38732D01*
X64094Y-38732D01*
X64184Y-38695D01*
X64253Y-38626D01*
X64290Y-38535D01*
X64290Y-38438D01*
X64290Y-38218D01*
X64458Y-38218D01*
X64620Y-38151D01*
X64695Y-38076D01*
X64695Y-40424D01*
X64695Y-40424D01*
G37*
G54D11*
X64695Y-40424D02*
X64291Y-40424D01*
X64136Y-40455D01*
X64006Y-40542D01*
X63809Y-40739D01*
X63722Y-40870D01*
X63691Y-41024D01*
X63691Y-42090D01*
X63628Y-42090D01*
X63373Y-42090D01*
X63373Y-38862D01*
X63373Y-38718D01*
X63341Y-38686D01*
X63094Y-38686D01*
X63094Y-38933D01*
X63126Y-38965D01*
X63220Y-38965D01*
X63271Y-38965D01*
X63318Y-38945D01*
X63354Y-38909D01*
X63373Y-38862D01*
X63373Y-42090D01*
X63078Y-42090D01*
X63036Y-42107D01*
X63036Y-38933D01*
X63036Y-38686D01*
X62789Y-38686D01*
X62757Y-38718D01*
X62757Y-38862D01*
X62776Y-38909D01*
X62812Y-38945D01*
X62859Y-38965D01*
X62910Y-38965D01*
X63004Y-38965D01*
X63036Y-38933D01*
X63036Y-42107D01*
X62988Y-42127D01*
X62919Y-42196D01*
X62914Y-42207D01*
X62889Y-42207D01*
X62885Y-42196D01*
X62816Y-42127D01*
X62805Y-42122D01*
X62805Y-41320D01*
X62774Y-41166D01*
X62707Y-41065D01*
X62707Y-40192D01*
X62707Y-40141D01*
X62707Y-39932D01*
X62707Y-39810D01*
X62707Y-39601D01*
X62707Y-39550D01*
X62687Y-39503D01*
X62651Y-39467D01*
X62604Y-39448D01*
X62384Y-39448D01*
X62352Y-39480D01*
X62352Y-39842D01*
X62675Y-39842D01*
X62707Y-39810D01*
X62707Y-39932D01*
X62675Y-39900D01*
X62352Y-39900D01*
X62352Y-40262D01*
X62384Y-40294D01*
X62604Y-40294D01*
X62651Y-40275D01*
X62687Y-40239D01*
X62707Y-40192D01*
X62707Y-41065D01*
X62687Y-41035D01*
X61997Y-40345D01*
X62037Y-40305D01*
X62041Y-40293D01*
X62042Y-40294D01*
X62262Y-40294D01*
X62294Y-40262D01*
X62294Y-39949D01*
X62294Y-39900D01*
X62294Y-39842D01*
X62294Y-39793D01*
X62294Y-39480D01*
X62262Y-39448D01*
X62042Y-39448D01*
X62041Y-39448D01*
X62037Y-39437D01*
X61968Y-39368D01*
X61878Y-39331D01*
X61878Y-38817D01*
X61855Y-38700D01*
X61789Y-38601D01*
X61574Y-38386D01*
X61475Y-38320D01*
X61358Y-38297D01*
X61263Y-38297D01*
X61251Y-38266D01*
X61208Y-38223D01*
X61243Y-38188D01*
X61619Y-38188D01*
X61650Y-38219D01*
X61812Y-38286D01*
X61988Y-38286D01*
X62150Y-38219D01*
X62275Y-38094D01*
X62342Y-37932D01*
X62342Y-37756D01*
X62290Y-37631D01*
X62373Y-37666D01*
X62549Y-37666D01*
X62640Y-37628D01*
X62687Y-37628D01*
X62677Y-37638D01*
X62640Y-37729D01*
X62640Y-37826D01*
X62640Y-38186D01*
X62677Y-38276D01*
X62746Y-38345D01*
X62809Y-38371D01*
X62776Y-38405D01*
X62757Y-38452D01*
X62757Y-38596D01*
X62789Y-38628D01*
X62987Y-38628D01*
X63036Y-38628D01*
X63094Y-38628D01*
X63143Y-38628D01*
X63341Y-38628D01*
X63373Y-38596D01*
X63373Y-38452D01*
X63354Y-38405D01*
X63320Y-38371D01*
X63384Y-38345D01*
X63440Y-38289D01*
X63440Y-38536D01*
X63477Y-38626D01*
X63546Y-38695D01*
X63637Y-38732D01*
X63734Y-38732D01*
X64094Y-38732D01*
X64184Y-38695D01*
X64253Y-38626D01*
X64290Y-38535D01*
X64290Y-38438D01*
X64290Y-38218D01*
X64458Y-38218D01*
X64620Y-38151D01*
X64695Y-38076D01*
X64695Y-40424D01*
G54D10*
G36*
X65661Y-31592D02*
X65620Y-31633D01*
X65615Y-31644D01*
X65474Y-31644D01*
X65442Y-31676D01*
X65442Y-31891D01*
X65442Y-31940D01*
X65442Y-31998D01*
X65384Y-31998D01*
X65384Y-31940D01*
X65384Y-31676D01*
X65352Y-31644D01*
X65211Y-31644D01*
X65164Y-31663D01*
X65128Y-31699D01*
X65108Y-31746D01*
X65108Y-31797D01*
X65108Y-31908D01*
X65140Y-31940D01*
X65384Y-31940D01*
X65384Y-31998D01*
X65335Y-31998D01*
X65140Y-31998D01*
X65108Y-32030D01*
X65108Y-32141D01*
X65108Y-32192D01*
X65118Y-32216D01*
X64615Y-32216D01*
X64606Y-32214D01*
X64601Y-32215D01*
X63878Y-32215D01*
X63493Y-31829D01*
X63493Y-31703D01*
X63426Y-31541D01*
X63301Y-31416D01*
X63139Y-31349D01*
X62963Y-31349D01*
X62801Y-31416D01*
X62676Y-31541D01*
X62609Y-31703D01*
X62609Y-31879D01*
X62662Y-32007D01*
X62597Y-32073D01*
X62533Y-32226D01*
X62480Y-32147D01*
X62477Y-32145D01*
X62312Y-31979D01*
X62213Y-31913D01*
X62096Y-31890D01*
X62092Y-31890D01*
X62091Y-31890D01*
X62091Y-31889D01*
X62116Y-31830D01*
X62116Y-31733D01*
X62116Y-31339D01*
X62079Y-31249D01*
X62010Y-31180D01*
X61960Y-31159D01*
X61910Y-31084D01*
X61907Y-31082D01*
X61771Y-30945D01*
X61672Y-30879D01*
X61555Y-30856D01*
X61042Y-30856D01*
X61132Y-30767D01*
X61156Y-30709D01*
X62609Y-30709D01*
X62950Y-31049D01*
X62952Y-31052D01*
X63051Y-31118D01*
X63147Y-31137D01*
X63167Y-31141D01*
X63167Y-31140D01*
X63168Y-31141D01*
X64266Y-31141D01*
X64337Y-31212D01*
X64499Y-31279D01*
X64675Y-31279D01*
X64837Y-31212D01*
X64962Y-31087D01*
X65029Y-30925D01*
X65029Y-30767D01*
X65607Y-30767D01*
X65562Y-30877D01*
X65562Y-31053D01*
X65629Y-31215D01*
X65660Y-31246D01*
X65661Y-31321D01*
X65661Y-31592D01*
X65661Y-31592D01*
G37*
G54D11*
X65661Y-31592D02*
X65620Y-31633D01*
X65615Y-31644D01*
X65474Y-31644D01*
X65442Y-31676D01*
X65442Y-31891D01*
X65442Y-31940D01*
X65442Y-31998D01*
X65384Y-31998D01*
X65384Y-31940D01*
X65384Y-31676D01*
X65352Y-31644D01*
X65211Y-31644D01*
X65164Y-31663D01*
X65128Y-31699D01*
X65108Y-31746D01*
X65108Y-31797D01*
X65108Y-31908D01*
X65140Y-31940D01*
X65384Y-31940D01*
X65384Y-31998D01*
X65335Y-31998D01*
X65140Y-31998D01*
X65108Y-32030D01*
X65108Y-32141D01*
X65108Y-32192D01*
X65118Y-32216D01*
X64615Y-32216D01*
X64606Y-32214D01*
X64601Y-32215D01*
X63878Y-32215D01*
X63493Y-31829D01*
X63493Y-31703D01*
X63426Y-31541D01*
X63301Y-31416D01*
X63139Y-31349D01*
X62963Y-31349D01*
X62801Y-31416D01*
X62676Y-31541D01*
X62609Y-31703D01*
X62609Y-31879D01*
X62662Y-32007D01*
X62597Y-32073D01*
X62533Y-32226D01*
X62480Y-32147D01*
X62477Y-32145D01*
X62312Y-31979D01*
X62213Y-31913D01*
X62096Y-31890D01*
X62092Y-31890D01*
X62091Y-31890D01*
X62091Y-31889D01*
X62116Y-31830D01*
X62116Y-31733D01*
X62116Y-31339D01*
X62079Y-31249D01*
X62010Y-31180D01*
X61960Y-31159D01*
X61910Y-31084D01*
X61907Y-31082D01*
X61771Y-30945D01*
X61672Y-30879D01*
X61555Y-30856D01*
X61042Y-30856D01*
X61132Y-30767D01*
X61156Y-30709D01*
X62609Y-30709D01*
X62950Y-31049D01*
X62952Y-31052D01*
X63051Y-31118D01*
X63147Y-31137D01*
X63167Y-31141D01*
X63167Y-31140D01*
X63168Y-31141D01*
X64266Y-31141D01*
X64337Y-31212D01*
X64499Y-31279D01*
X64675Y-31279D01*
X64837Y-31212D01*
X64962Y-31087D01*
X65029Y-30925D01*
X65029Y-30767D01*
X65607Y-30767D01*
X65562Y-30877D01*
X65562Y-31053D01*
X65629Y-31215D01*
X65660Y-31246D01*
X65661Y-31321D01*
X65661Y-31592D01*
G54D10*
G36*
X65695Y-35054D02*
X65621Y-35128D01*
X65621Y-35038D01*
X65621Y-34794D01*
X65357Y-34794D01*
X65325Y-34826D01*
X65325Y-34967D01*
X65344Y-35014D01*
X65380Y-35050D01*
X65427Y-35070D01*
X65478Y-35070D01*
X65589Y-35070D01*
X65621Y-35038D01*
X65621Y-35128D01*
X65542Y-35207D01*
X64847Y-35207D01*
X65337Y-34716D01*
X65357Y-34736D01*
X65572Y-34736D01*
X65621Y-34736D01*
X65679Y-34736D01*
X65679Y-34794D01*
X65679Y-34843D01*
X65679Y-35038D01*
X65695Y-35054D01*
X65695Y-35054D01*
G37*
G54D11*
X65695Y-35054D02*
X65621Y-35128D01*
X65621Y-35038D01*
X65621Y-34794D01*
X65357Y-34794D01*
X65325Y-34826D01*
X65325Y-34967D01*
X65344Y-35014D01*
X65380Y-35050D01*
X65427Y-35070D01*
X65478Y-35070D01*
X65589Y-35070D01*
X65621Y-35038D01*
X65621Y-35128D01*
X65542Y-35207D01*
X64847Y-35207D01*
X65337Y-34716D01*
X65357Y-34736D01*
X65572Y-34736D01*
X65621Y-34736D01*
X65679Y-34736D01*
X65679Y-34794D01*
X65679Y-34843D01*
X65679Y-35038D01*
X65695Y-35054D01*
G54D10*
G36*
X67547Y-36769D02*
X67470Y-36846D01*
X67470Y-36750D01*
X67470Y-36486D01*
X67226Y-36486D01*
X67194Y-36518D01*
X67194Y-36629D01*
X67194Y-36680D01*
X67214Y-36727D01*
X67250Y-36763D01*
X67297Y-36782D01*
X67438Y-36782D01*
X67470Y-36750D01*
X67470Y-36846D01*
X67455Y-36861D01*
X66898Y-36861D01*
X66899Y-36860D01*
X66899Y-36684D01*
X66832Y-36522D01*
X66823Y-36513D01*
X66914Y-36423D01*
X67221Y-36423D01*
X67226Y-36428D01*
X67421Y-36428D01*
X67470Y-36428D01*
X67528Y-36428D01*
X67528Y-36486D01*
X67528Y-36535D01*
X67528Y-36750D01*
X67547Y-36769D01*
X67547Y-36769D01*
G37*
G54D11*
X67547Y-36769D02*
X67470Y-36846D01*
X67470Y-36750D01*
X67470Y-36486D01*
X67226Y-36486D01*
X67194Y-36518D01*
X67194Y-36629D01*
X67194Y-36680D01*
X67214Y-36727D01*
X67250Y-36763D01*
X67297Y-36782D01*
X67438Y-36782D01*
X67470Y-36750D01*
X67470Y-36846D01*
X67455Y-36861D01*
X66898Y-36861D01*
X66899Y-36860D01*
X66899Y-36684D01*
X66832Y-36522D01*
X66823Y-36513D01*
X66914Y-36423D01*
X67221Y-36423D01*
X67226Y-36428D01*
X67421Y-36428D01*
X67470Y-36428D01*
X67528Y-36428D01*
X67528Y-36486D01*
X67528Y-36535D01*
X67528Y-36750D01*
X67547Y-36769D01*
G54D10*
G36*
X67992Y-33387D02*
X67963Y-33416D01*
X67939Y-33416D01*
X67910Y-33387D01*
X67939Y-33358D01*
X67963Y-33358D01*
X67992Y-33387D01*
X67992Y-33387D01*
G37*
G54D11*
X67992Y-33387D02*
X67963Y-33416D01*
X67939Y-33416D01*
X67910Y-33387D01*
X67939Y-33358D01*
X67963Y-33358D01*
X67992Y-33387D01*
G54D10*
G36*
X68728Y-32828D02*
X68699Y-32857D01*
X68670Y-32828D01*
X68670Y-32804D01*
X68699Y-32775D01*
X68728Y-32804D01*
X68728Y-32828D01*
X68728Y-32828D01*
G37*
G54D11*
X68728Y-32828D02*
X68699Y-32857D01*
X68670Y-32828D01*
X68670Y-32804D01*
X68699Y-32775D01*
X68728Y-32804D01*
X68728Y-32828D01*
G54D10*
G36*
X68728Y-33970D02*
X68699Y-33999D01*
X68670Y-33970D01*
X68670Y-33946D01*
X68699Y-33917D01*
X68728Y-33946D01*
X68728Y-33970D01*
X68728Y-33970D01*
G37*
G54D11*
X68728Y-33970D02*
X68699Y-33999D01*
X68670Y-33970D01*
X68670Y-33946D01*
X68699Y-33917D01*
X68728Y-33946D01*
X68728Y-33970D01*
G54D10*
G36*
X68740Y-33387D02*
X68699Y-33428D01*
X68658Y-33387D01*
X68699Y-33346D01*
X68740Y-33387D01*
X68740Y-33387D01*
G37*
G54D11*
X68740Y-33387D02*
X68699Y-33428D01*
X68658Y-33387D01*
X68699Y-33346D01*
X68740Y-33387D01*
G54D10*
G36*
X69078Y-30797D02*
X69036Y-30797D01*
X68919Y-30820D01*
X68887Y-30841D01*
X68887Y-30677D01*
X68888Y-30678D01*
X69046Y-30678D01*
X69046Y-30718D01*
X69078Y-30797D01*
X69078Y-30797D01*
G37*
G54D11*
X69078Y-30797D02*
X69036Y-30797D01*
X68919Y-30820D01*
X68887Y-30841D01*
X68887Y-30677D01*
X68888Y-30678D01*
X69046Y-30678D01*
X69046Y-30718D01*
X69078Y-30797D01*
G54D10*
G36*
X69389Y-37389D02*
X69351Y-37351D01*
X69260Y-37314D01*
X69163Y-37314D01*
X69102Y-37314D01*
X69102Y-37173D01*
X69108Y-37176D01*
X69159Y-37176D01*
X69270Y-37176D01*
X69302Y-37144D01*
X69302Y-36949D01*
X69302Y-36900D01*
X69302Y-36842D01*
X69360Y-36842D01*
X69360Y-36900D01*
X69360Y-36949D01*
X69360Y-37144D01*
X69380Y-37164D01*
X69380Y-37165D01*
X69380Y-37342D01*
X69389Y-37389D01*
X69389Y-37389D01*
G37*
G54D11*
X69389Y-37389D02*
X69351Y-37351D01*
X69260Y-37314D01*
X69163Y-37314D01*
X69102Y-37314D01*
X69102Y-37173D01*
X69108Y-37176D01*
X69159Y-37176D01*
X69270Y-37176D01*
X69302Y-37144D01*
X69302Y-36949D01*
X69302Y-36900D01*
X69302Y-36842D01*
X69360Y-36842D01*
X69360Y-36900D01*
X69360Y-36949D01*
X69360Y-37144D01*
X69380Y-37164D01*
X69380Y-37165D01*
X69380Y-37342D01*
X69389Y-37389D01*
G54D10*
G36*
X69488Y-33387D02*
X69459Y-33416D01*
X69435Y-33416D01*
X69406Y-33387D01*
X69435Y-33358D01*
X69459Y-33358D01*
X69488Y-33387D01*
X69488Y-33387D01*
G37*
G54D11*
X69488Y-33387D02*
X69459Y-33416D01*
X69435Y-33416D01*
X69406Y-33387D01*
X69435Y-33358D01*
X69459Y-33358D01*
X69488Y-33387D01*
G54D10*
G36*
X69912Y-39716D02*
X69656Y-39972D01*
X69656Y-38876D01*
X69656Y-38632D01*
X69392Y-38632D01*
X69360Y-38664D01*
X69360Y-38805D01*
X69379Y-38852D01*
X69415Y-38888D01*
X69462Y-38908D01*
X69513Y-38908D01*
X69624Y-38908D01*
X69656Y-38876D01*
X69656Y-39972D01*
X69340Y-40288D01*
X69340Y-38845D01*
X69340Y-38794D01*
X69340Y-38664D01*
X69308Y-38632D01*
X68848Y-38632D01*
X68848Y-38915D01*
X68880Y-38947D01*
X69237Y-38947D01*
X69284Y-38928D01*
X69320Y-38892D01*
X69340Y-38845D01*
X69340Y-40288D01*
X69106Y-40522D01*
X68790Y-40522D01*
X68790Y-38915D01*
X68790Y-38632D01*
X68790Y-38574D01*
X68790Y-38291D01*
X68758Y-38259D01*
X68401Y-38259D01*
X68354Y-38278D01*
X68318Y-38314D01*
X68298Y-38361D01*
X68298Y-38412D01*
X68298Y-38542D01*
X68330Y-38574D01*
X68790Y-38574D01*
X68790Y-38632D01*
X68330Y-38632D01*
X68298Y-38664D01*
X68298Y-38794D01*
X68298Y-38845D01*
X68318Y-38892D01*
X68354Y-38928D01*
X68401Y-38947D01*
X68758Y-38947D01*
X68790Y-38915D01*
X68790Y-40522D01*
X67049Y-40522D01*
X65383Y-40522D01*
X65383Y-37549D01*
X66486Y-37549D01*
X66486Y-37584D01*
X66486Y-37714D01*
X66518Y-37746D01*
X66929Y-37746D01*
X66978Y-37746D01*
X67036Y-37746D01*
X67036Y-37804D01*
X67036Y-37853D01*
X67036Y-38087D01*
X67068Y-38119D01*
X67293Y-38119D01*
X67293Y-38142D01*
X66978Y-38142D01*
X66978Y-38087D01*
X66978Y-37804D01*
X66518Y-37804D01*
X66486Y-37836D01*
X66486Y-37966D01*
X66486Y-38017D01*
X66506Y-38064D01*
X66542Y-38100D01*
X66589Y-38119D01*
X66946Y-38119D01*
X66978Y-38087D01*
X66978Y-38142D01*
X66565Y-38142D01*
X66475Y-38179D01*
X66447Y-38207D01*
X66438Y-38198D01*
X66427Y-38193D01*
X66427Y-38052D01*
X66427Y-37930D01*
X66427Y-37789D01*
X66408Y-37742D01*
X66372Y-37706D01*
X66325Y-37686D01*
X66274Y-37686D01*
X66163Y-37686D01*
X66131Y-37718D01*
X66131Y-37962D01*
X66395Y-37962D01*
X66427Y-37930D01*
X66427Y-38052D01*
X66395Y-38020D01*
X66180Y-38020D01*
X66131Y-38020D01*
X66073Y-38020D01*
X66073Y-37962D01*
X66073Y-37718D01*
X66041Y-37686D01*
X65930Y-37686D01*
X65879Y-37686D01*
X65832Y-37706D01*
X65796Y-37742D01*
X65777Y-37789D01*
X65777Y-37930D01*
X65809Y-37962D01*
X66073Y-37962D01*
X66073Y-38020D01*
X66024Y-38020D01*
X65809Y-38020D01*
X65777Y-38052D01*
X65777Y-38193D01*
X65766Y-38198D01*
X65697Y-38267D01*
X65660Y-38358D01*
X65660Y-38455D01*
X65660Y-38809D01*
X65697Y-38899D01*
X65766Y-38968D01*
X65857Y-39005D01*
X65954Y-39005D01*
X66348Y-39005D01*
X66422Y-38974D01*
X66475Y-39027D01*
X66566Y-39064D01*
X66629Y-39064D01*
X66605Y-39125D01*
X66605Y-39222D01*
X66605Y-39616D01*
X66642Y-39706D01*
X66711Y-39775D01*
X66802Y-39812D01*
X66899Y-39812D01*
X67253Y-39812D01*
X67323Y-39783D01*
X67394Y-39812D01*
X67491Y-39812D01*
X67845Y-39812D01*
X67935Y-39775D01*
X68004Y-39706D01*
X68041Y-39615D01*
X68041Y-39518D01*
X68041Y-39124D01*
X68004Y-39034D01*
X67948Y-38978D01*
X68087Y-38839D01*
X68089Y-38838D01*
X68090Y-38838D01*
X68156Y-38739D01*
X68179Y-38622D01*
X68179Y-38236D01*
X68251Y-38163D01*
X68287Y-38199D01*
X68378Y-38236D01*
X68475Y-38236D01*
X69243Y-38236D01*
X69243Y-38237D01*
X69255Y-38266D01*
X69237Y-38259D01*
X68880Y-38259D01*
X68848Y-38291D01*
X68848Y-38574D01*
X69308Y-38574D01*
X69340Y-38542D01*
X69340Y-38412D01*
X69340Y-38387D01*
X69349Y-38396D01*
X69360Y-38400D01*
X69360Y-38401D01*
X69360Y-38542D01*
X69392Y-38574D01*
X69607Y-38574D01*
X69656Y-38574D01*
X69714Y-38574D01*
X69714Y-38632D01*
X69714Y-38681D01*
X69714Y-38876D01*
X69746Y-38908D01*
X69857Y-38908D01*
X69908Y-38908D01*
X69912Y-38906D01*
X69912Y-39716D01*
X69912Y-39716D01*
G37*
G54D11*
X69912Y-39716D02*
X69656Y-39972D01*
X69656Y-38876D01*
X69656Y-38632D01*
X69392Y-38632D01*
X69360Y-38664D01*
X69360Y-38805D01*
X69379Y-38852D01*
X69415Y-38888D01*
X69462Y-38908D01*
X69513Y-38908D01*
X69624Y-38908D01*
X69656Y-38876D01*
X69656Y-39972D01*
X69340Y-40288D01*
X69340Y-38845D01*
X69340Y-38794D01*
X69340Y-38664D01*
X69308Y-38632D01*
X68848Y-38632D01*
X68848Y-38915D01*
X68880Y-38947D01*
X69237Y-38947D01*
X69284Y-38928D01*
X69320Y-38892D01*
X69340Y-38845D01*
X69340Y-40288D01*
X69106Y-40522D01*
X68790Y-40522D01*
X68790Y-38915D01*
X68790Y-38632D01*
X68790Y-38574D01*
X68790Y-38291D01*
X68758Y-38259D01*
X68401Y-38259D01*
X68354Y-38278D01*
X68318Y-38314D01*
X68298Y-38361D01*
X68298Y-38412D01*
X68298Y-38542D01*
X68330Y-38574D01*
X68790Y-38574D01*
X68790Y-38632D01*
X68330Y-38632D01*
X68298Y-38664D01*
X68298Y-38794D01*
X68298Y-38845D01*
X68318Y-38892D01*
X68354Y-38928D01*
X68401Y-38947D01*
X68758Y-38947D01*
X68790Y-38915D01*
X68790Y-40522D01*
X67049Y-40522D01*
X65383Y-40522D01*
X65383Y-37549D01*
X66486Y-37549D01*
X66486Y-37584D01*
X66486Y-37714D01*
X66518Y-37746D01*
X66929Y-37746D01*
X66978Y-37746D01*
X67036Y-37746D01*
X67036Y-37804D01*
X67036Y-37853D01*
X67036Y-38087D01*
X67068Y-38119D01*
X67293Y-38119D01*
X67293Y-38142D01*
X66978Y-38142D01*
X66978Y-38087D01*
X66978Y-37804D01*
X66518Y-37804D01*
X66486Y-37836D01*
X66486Y-37966D01*
X66486Y-38017D01*
X66506Y-38064D01*
X66542Y-38100D01*
X66589Y-38119D01*
X66946Y-38119D01*
X66978Y-38087D01*
X66978Y-38142D01*
X66565Y-38142D01*
X66475Y-38179D01*
X66447Y-38207D01*
X66438Y-38198D01*
X66427Y-38193D01*
X66427Y-38052D01*
X66427Y-37930D01*
X66427Y-37789D01*
X66408Y-37742D01*
X66372Y-37706D01*
X66325Y-37686D01*
X66274Y-37686D01*
X66163Y-37686D01*
X66131Y-37718D01*
X66131Y-37962D01*
X66395Y-37962D01*
X66427Y-37930D01*
X66427Y-38052D01*
X66395Y-38020D01*
X66180Y-38020D01*
X66131Y-38020D01*
X66073Y-38020D01*
X66073Y-37962D01*
X66073Y-37718D01*
X66041Y-37686D01*
X65930Y-37686D01*
X65879Y-37686D01*
X65832Y-37706D01*
X65796Y-37742D01*
X65777Y-37789D01*
X65777Y-37930D01*
X65809Y-37962D01*
X66073Y-37962D01*
X66073Y-38020D01*
X66024Y-38020D01*
X65809Y-38020D01*
X65777Y-38052D01*
X65777Y-38193D01*
X65766Y-38198D01*
X65697Y-38267D01*
X65660Y-38358D01*
X65660Y-38455D01*
X65660Y-38809D01*
X65697Y-38899D01*
X65766Y-38968D01*
X65857Y-39005D01*
X65954Y-39005D01*
X66348Y-39005D01*
X66422Y-38974D01*
X66475Y-39027D01*
X66566Y-39064D01*
X66629Y-39064D01*
X66605Y-39125D01*
X66605Y-39222D01*
X66605Y-39616D01*
X66642Y-39706D01*
X66711Y-39775D01*
X66802Y-39812D01*
X66899Y-39812D01*
X67253Y-39812D01*
X67323Y-39783D01*
X67394Y-39812D01*
X67491Y-39812D01*
X67845Y-39812D01*
X67935Y-39775D01*
X68004Y-39706D01*
X68041Y-39615D01*
X68041Y-39518D01*
X68041Y-39124D01*
X68004Y-39034D01*
X67948Y-38978D01*
X68087Y-38839D01*
X68089Y-38838D01*
X68090Y-38838D01*
X68156Y-38739D01*
X68179Y-38622D01*
X68179Y-38236D01*
X68251Y-38163D01*
X68287Y-38199D01*
X68378Y-38236D01*
X68475Y-38236D01*
X69243Y-38236D01*
X69243Y-38237D01*
X69255Y-38266D01*
X69237Y-38259D01*
X68880Y-38259D01*
X68848Y-38291D01*
X68848Y-38574D01*
X69308Y-38574D01*
X69340Y-38542D01*
X69340Y-38412D01*
X69340Y-38387D01*
X69349Y-38396D01*
X69360Y-38400D01*
X69360Y-38401D01*
X69360Y-38542D01*
X69392Y-38574D01*
X69607Y-38574D01*
X69656Y-38574D01*
X69714Y-38574D01*
X69714Y-38632D01*
X69714Y-38681D01*
X69714Y-38876D01*
X69746Y-38908D01*
X69857Y-38908D01*
X69908Y-38908D01*
X69912Y-38906D01*
X69912Y-39716D01*
G54D10*
G36*
X70089Y-30501D02*
X70031Y-30501D01*
X70031Y-30443D01*
X70089Y-30443D01*
X70089Y-30501D01*
X70089Y-30501D01*
G37*
G54D11*
X70089Y-30501D02*
X70031Y-30501D01*
X70031Y-30443D01*
X70089Y-30443D01*
X70089Y-30501D01*
G54D10*
G36*
X70169Y-29075D02*
X70147Y-29066D01*
X69971Y-29066D01*
X69809Y-29133D01*
X69684Y-29258D01*
X69617Y-29420D01*
X69617Y-29558D01*
X69596Y-29558D01*
X69361Y-29558D01*
X69361Y-26845D01*
X69460Y-26886D01*
X69698Y-26886D01*
X69749Y-26864D01*
X70169Y-27284D01*
X70169Y-27753D01*
X70169Y-29075D01*
X70169Y-29075D01*
G37*
G54D11*
X70169Y-29075D02*
X70147Y-29066D01*
X69971Y-29066D01*
X69809Y-29133D01*
X69684Y-29258D01*
X69617Y-29420D01*
X69617Y-29558D01*
X69596Y-29558D01*
X69361Y-29558D01*
X69361Y-26845D01*
X69460Y-26886D01*
X69698Y-26886D01*
X69749Y-26864D01*
X70169Y-27284D01*
X70169Y-27753D01*
X70169Y-29075D01*
G54D10*
G36*
X70171Y-32993D02*
X70163Y-33014D01*
X70146Y-33014D01*
X70146Y-33043D01*
X70070Y-33119D01*
X70024Y-33229D01*
X70024Y-33348D01*
X70039Y-33386D01*
X70024Y-33425D01*
X70024Y-33544D01*
X70069Y-33654D01*
X70097Y-33682D01*
X70070Y-33709D01*
X70024Y-33819D01*
X70024Y-33938D01*
X70040Y-33977D01*
X70024Y-34016D01*
X70024Y-34135D01*
X70040Y-34174D01*
X70024Y-34213D01*
X70024Y-34332D01*
X70040Y-34371D01*
X70024Y-34410D01*
X70024Y-34529D01*
X70040Y-34568D01*
X70024Y-34607D01*
X70024Y-34712D01*
X69949Y-34712D01*
X69949Y-34358D01*
X69949Y-34307D01*
X69949Y-33448D01*
X69917Y-33416D01*
X69882Y-33416D01*
X69880Y-33358D01*
X69917Y-33358D01*
X69949Y-33326D01*
X69949Y-32467D01*
X69949Y-32416D01*
X69929Y-32369D01*
X69893Y-32333D01*
X69846Y-32314D01*
X68760Y-32314D01*
X68728Y-32346D01*
X68728Y-32380D01*
X68670Y-32382D01*
X68670Y-32346D01*
X68638Y-32314D01*
X67552Y-32314D01*
X67505Y-32333D01*
X67469Y-32369D01*
X67449Y-32416D01*
X67449Y-32467D01*
X67449Y-33326D01*
X67481Y-33358D01*
X67515Y-33358D01*
X67517Y-33416D01*
X67481Y-33416D01*
X67449Y-33448D01*
X67449Y-34307D01*
X67449Y-34358D01*
X67469Y-34405D01*
X67505Y-34441D01*
X67552Y-34460D01*
X68638Y-34460D01*
X68670Y-34428D01*
X68670Y-34393D01*
X68728Y-34391D01*
X68728Y-34428D01*
X68760Y-34460D01*
X69846Y-34460D01*
X69893Y-34441D01*
X69929Y-34405D01*
X69949Y-34358D01*
X69949Y-34712D01*
X69920Y-34712D01*
X69880Y-34728D01*
X69842Y-34712D01*
X69723Y-34712D01*
X69613Y-34757D01*
X69585Y-34785D01*
X69558Y-34758D01*
X69448Y-34712D01*
X69329Y-34712D01*
X69289Y-34728D01*
X69251Y-34712D01*
X69132Y-34712D01*
X69022Y-34757D01*
X68994Y-34785D01*
X68967Y-34758D01*
X68857Y-34712D01*
X68738Y-34712D01*
X68699Y-34727D01*
X68661Y-34712D01*
X68542Y-34712D01*
X68432Y-34757D01*
X68404Y-34785D01*
X68377Y-34758D01*
X68267Y-34712D01*
X68148Y-34712D01*
X68108Y-34728D01*
X68070Y-34712D01*
X67951Y-34712D01*
X67911Y-34728D01*
X67873Y-34712D01*
X67754Y-34712D01*
X67714Y-34728D01*
X67676Y-34712D01*
X67557Y-34712D01*
X67517Y-34728D01*
X67479Y-34712D01*
X67374Y-34712D01*
X67374Y-34608D01*
X67357Y-34568D01*
X67374Y-34530D01*
X67374Y-34411D01*
X67329Y-34301D01*
X67301Y-34273D01*
X67328Y-34246D01*
X67374Y-34136D01*
X67374Y-34017D01*
X67357Y-33977D01*
X67374Y-33939D01*
X67374Y-33820D01*
X67357Y-33780D01*
X67374Y-33742D01*
X67374Y-33623D01*
X67357Y-33583D01*
X67374Y-33545D01*
X67374Y-33426D01*
X67358Y-33387D01*
X67374Y-33349D01*
X67374Y-33230D01*
X67357Y-33190D01*
X67374Y-33152D01*
X67374Y-33033D01*
X67357Y-32993D01*
X67374Y-32955D01*
X67374Y-32836D01*
X67357Y-32796D01*
X67374Y-32758D01*
X67374Y-32639D01*
X67357Y-32599D01*
X67374Y-32561D01*
X67374Y-32442D01*
X67329Y-32332D01*
X67301Y-32304D01*
X67328Y-32277D01*
X67374Y-32167D01*
X67374Y-32062D01*
X67478Y-32062D01*
X67517Y-32045D01*
X67556Y-32062D01*
X67675Y-32062D01*
X67714Y-32045D01*
X67753Y-32062D01*
X67872Y-32062D01*
X67911Y-32045D01*
X67950Y-32062D01*
X68069Y-32062D01*
X68108Y-32045D01*
X68147Y-32062D01*
X68266Y-32062D01*
X68305Y-32045D01*
X68344Y-32062D01*
X68463Y-32062D01*
X68502Y-32045D01*
X68541Y-32062D01*
X68660Y-32062D01*
X68770Y-32017D01*
X68797Y-31989D01*
X68824Y-32016D01*
X68934Y-32062D01*
X69053Y-32062D01*
X69092Y-32045D01*
X69131Y-32062D01*
X69250Y-32062D01*
X69289Y-32045D01*
X69328Y-32062D01*
X69447Y-32062D01*
X69557Y-32017D01*
X69585Y-31989D01*
X69612Y-32016D01*
X69722Y-32062D01*
X69841Y-32062D01*
X69880Y-32045D01*
X69919Y-32062D01*
X70024Y-32062D01*
X70024Y-32166D01*
X70040Y-32205D01*
X70024Y-32244D01*
X70024Y-32363D01*
X70040Y-32402D01*
X70024Y-32441D01*
X70024Y-32560D01*
X70040Y-32599D01*
X70024Y-32638D01*
X70024Y-32757D01*
X70069Y-32867D01*
X70146Y-32944D01*
X70146Y-32973D01*
X70163Y-32973D01*
X70171Y-32993D01*
X70171Y-32993D01*
G37*
G54D11*
X70171Y-32993D02*
X70163Y-33014D01*
X70146Y-33014D01*
X70146Y-33043D01*
X70070Y-33119D01*
X70024Y-33229D01*
X70024Y-33348D01*
X70039Y-33386D01*
X70024Y-33425D01*
X70024Y-33544D01*
X70069Y-33654D01*
X70097Y-33682D01*
X70070Y-33709D01*
X70024Y-33819D01*
X70024Y-33938D01*
X70040Y-33977D01*
X70024Y-34016D01*
X70024Y-34135D01*
X70040Y-34174D01*
X70024Y-34213D01*
X70024Y-34332D01*
X70040Y-34371D01*
X70024Y-34410D01*
X70024Y-34529D01*
X70040Y-34568D01*
X70024Y-34607D01*
X70024Y-34712D01*
X69949Y-34712D01*
X69949Y-34358D01*
X69949Y-34307D01*
X69949Y-33448D01*
X69917Y-33416D01*
X69882Y-33416D01*
X69880Y-33358D01*
X69917Y-33358D01*
X69949Y-33326D01*
X69949Y-32467D01*
X69949Y-32416D01*
X69929Y-32369D01*
X69893Y-32333D01*
X69846Y-32314D01*
X68760Y-32314D01*
X68728Y-32346D01*
X68728Y-32380D01*
X68670Y-32382D01*
X68670Y-32346D01*
X68638Y-32314D01*
X67552Y-32314D01*
X67505Y-32333D01*
X67469Y-32369D01*
X67449Y-32416D01*
X67449Y-32467D01*
X67449Y-33326D01*
X67481Y-33358D01*
X67515Y-33358D01*
X67517Y-33416D01*
X67481Y-33416D01*
X67449Y-33448D01*
X67449Y-34307D01*
X67449Y-34358D01*
X67469Y-34405D01*
X67505Y-34441D01*
X67552Y-34460D01*
X68638Y-34460D01*
X68670Y-34428D01*
X68670Y-34393D01*
X68728Y-34391D01*
X68728Y-34428D01*
X68760Y-34460D01*
X69846Y-34460D01*
X69893Y-34441D01*
X69929Y-34405D01*
X69949Y-34358D01*
X69949Y-34712D01*
X69920Y-34712D01*
X69880Y-34728D01*
X69842Y-34712D01*
X69723Y-34712D01*
X69613Y-34757D01*
X69585Y-34785D01*
X69558Y-34758D01*
X69448Y-34712D01*
X69329Y-34712D01*
X69289Y-34728D01*
X69251Y-34712D01*
X69132Y-34712D01*
X69022Y-34757D01*
X68994Y-34785D01*
X68967Y-34758D01*
X68857Y-34712D01*
X68738Y-34712D01*
X68699Y-34727D01*
X68661Y-34712D01*
X68542Y-34712D01*
X68432Y-34757D01*
X68404Y-34785D01*
X68377Y-34758D01*
X68267Y-34712D01*
X68148Y-34712D01*
X68108Y-34728D01*
X68070Y-34712D01*
X67951Y-34712D01*
X67911Y-34728D01*
X67873Y-34712D01*
X67754Y-34712D01*
X67714Y-34728D01*
X67676Y-34712D01*
X67557Y-34712D01*
X67517Y-34728D01*
X67479Y-34712D01*
X67374Y-34712D01*
X67374Y-34608D01*
X67357Y-34568D01*
X67374Y-34530D01*
X67374Y-34411D01*
X67329Y-34301D01*
X67301Y-34273D01*
X67328Y-34246D01*
X67374Y-34136D01*
X67374Y-34017D01*
X67357Y-33977D01*
X67374Y-33939D01*
X67374Y-33820D01*
X67357Y-33780D01*
X67374Y-33742D01*
X67374Y-33623D01*
X67357Y-33583D01*
X67374Y-33545D01*
X67374Y-33426D01*
X67358Y-33387D01*
X67374Y-33349D01*
X67374Y-33230D01*
X67357Y-33190D01*
X67374Y-33152D01*
X67374Y-33033D01*
X67357Y-32993D01*
X67374Y-32955D01*
X67374Y-32836D01*
X67357Y-32796D01*
X67374Y-32758D01*
X67374Y-32639D01*
X67357Y-32599D01*
X67374Y-32561D01*
X67374Y-32442D01*
X67329Y-32332D01*
X67301Y-32304D01*
X67328Y-32277D01*
X67374Y-32167D01*
X67374Y-32062D01*
X67478Y-32062D01*
X67517Y-32045D01*
X67556Y-32062D01*
X67675Y-32062D01*
X67714Y-32045D01*
X67753Y-32062D01*
X67872Y-32062D01*
X67911Y-32045D01*
X67950Y-32062D01*
X68069Y-32062D01*
X68108Y-32045D01*
X68147Y-32062D01*
X68266Y-32062D01*
X68305Y-32045D01*
X68344Y-32062D01*
X68463Y-32062D01*
X68502Y-32045D01*
X68541Y-32062D01*
X68660Y-32062D01*
X68770Y-32017D01*
X68797Y-31989D01*
X68824Y-32016D01*
X68934Y-32062D01*
X69053Y-32062D01*
X69092Y-32045D01*
X69131Y-32062D01*
X69250Y-32062D01*
X69289Y-32045D01*
X69328Y-32062D01*
X69447Y-32062D01*
X69557Y-32017D01*
X69585Y-31989D01*
X69612Y-32016D01*
X69722Y-32062D01*
X69841Y-32062D01*
X69880Y-32045D01*
X69919Y-32062D01*
X70024Y-32062D01*
X70024Y-32166D01*
X70040Y-32205D01*
X70024Y-32244D01*
X70024Y-32363D01*
X70040Y-32402D01*
X70024Y-32441D01*
X70024Y-32560D01*
X70040Y-32599D01*
X70024Y-32638D01*
X70024Y-32757D01*
X70069Y-32867D01*
X70146Y-32944D01*
X70146Y-32973D01*
X70163Y-32973D01*
X70171Y-32993D01*
G54D10*
G36*
X70345Y-44301D02*
X65550Y-44301D01*
X65550Y-44060D01*
X65550Y-43639D01*
X65550Y-43581D01*
X65550Y-43160D01*
X65518Y-43128D01*
X65200Y-43128D01*
X65153Y-43147D01*
X65117Y-43183D01*
X65097Y-43230D01*
X65097Y-43281D01*
X65097Y-43549D01*
X65129Y-43581D01*
X65550Y-43581D01*
X65550Y-43639D01*
X65129Y-43639D01*
X65097Y-43671D01*
X65097Y-43939D01*
X65097Y-43990D01*
X65117Y-44037D01*
X65153Y-44073D01*
X65200Y-44092D01*
X65518Y-44092D01*
X65550Y-44060D01*
X65550Y-44301D01*
X61599Y-44301D01*
X61599Y-43120D01*
X61599Y-42979D01*
X61567Y-42947D01*
X61303Y-42947D01*
X61303Y-43191D01*
X61335Y-43223D01*
X61446Y-43223D01*
X61497Y-43223D01*
X61544Y-43203D01*
X61580Y-43167D01*
X61599Y-43120D01*
X61599Y-44301D01*
X61245Y-44301D01*
X61245Y-43191D01*
X61245Y-42947D01*
X61065Y-42947D01*
X61060Y-42942D01*
X60796Y-42942D01*
X60796Y-43186D01*
X60828Y-43218D01*
X60939Y-43218D01*
X60990Y-43218D01*
X61014Y-43207D01*
X61051Y-43223D01*
X61102Y-43223D01*
X61213Y-43223D01*
X61245Y-43191D01*
X61245Y-44301D01*
X60738Y-44301D01*
X60738Y-43186D01*
X60738Y-42942D01*
X60474Y-42942D01*
X60442Y-42974D01*
X60442Y-43115D01*
X60461Y-43162D01*
X60497Y-43198D01*
X60544Y-43218D01*
X60595Y-43218D01*
X60706Y-43218D01*
X60738Y-43186D01*
X60738Y-44301D01*
X54608Y-44301D01*
X54608Y-41370D01*
X54350Y-41112D01*
X54309Y-41153D01*
X54309Y-41071D01*
X54051Y-40813D01*
X53988Y-40843D01*
X53929Y-40999D01*
X53933Y-41166D01*
X53988Y-41299D01*
X54051Y-41329D01*
X54309Y-41071D01*
X54309Y-41153D01*
X54092Y-41370D01*
X54122Y-41433D01*
X54278Y-41492D01*
X54445Y-41488D01*
X54578Y-41433D01*
X54608Y-41370D01*
X54608Y-44301D01*
X53933Y-44301D01*
X53933Y-43057D01*
X53931Y-42801D01*
X53836Y-42570D01*
X53750Y-42511D01*
X53709Y-42552D01*
X53709Y-42470D01*
X53709Y-38672D01*
X53287Y-38250D01*
X53246Y-38291D01*
X53246Y-38209D01*
X52824Y-37787D01*
X52738Y-37846D01*
X52641Y-38085D01*
X52643Y-38341D01*
X52738Y-38572D01*
X52824Y-38631D01*
X53246Y-38209D01*
X53246Y-38291D01*
X52865Y-38672D01*
X52924Y-38758D01*
X53163Y-38855D01*
X53419Y-38853D01*
X53650Y-38758D01*
X53709Y-38672D01*
X53709Y-42470D01*
X53650Y-42384D01*
X53411Y-42287D01*
X53155Y-42289D01*
X52924Y-42384D01*
X52865Y-42470D01*
X53287Y-42892D01*
X53709Y-42470D01*
X53709Y-42552D01*
X53328Y-42933D01*
X53750Y-43355D01*
X53836Y-43296D01*
X53933Y-43057D01*
X53933Y-44301D01*
X53709Y-44301D01*
X53709Y-43396D01*
X53287Y-42974D01*
X53246Y-43015D01*
X53246Y-42933D01*
X52824Y-42511D01*
X52738Y-42570D01*
X52641Y-42809D01*
X52643Y-43065D01*
X52738Y-43296D01*
X52824Y-43355D01*
X53246Y-42933D01*
X53246Y-43015D01*
X52865Y-43396D01*
X52924Y-43482D01*
X53163Y-43579D01*
X53419Y-43577D01*
X53650Y-43482D01*
X53709Y-43396D01*
X53709Y-44301D01*
X50699Y-44301D01*
X50699Y-24596D01*
X66862Y-24596D01*
X66855Y-24601D01*
X66853Y-24603D01*
X66748Y-24708D01*
X66698Y-24688D01*
X66460Y-24688D01*
X66240Y-24779D01*
X66079Y-24940D01*
X65918Y-24779D01*
X65698Y-24688D01*
X65460Y-24688D01*
X65240Y-24779D01*
X65071Y-24948D01*
X64980Y-25168D01*
X64980Y-25323D01*
X64950Y-25278D01*
X64674Y-25002D01*
X64543Y-24915D01*
X64389Y-24884D01*
X63019Y-24884D01*
X62914Y-24779D01*
X62694Y-24688D01*
X62456Y-24688D01*
X62236Y-24779D01*
X62131Y-24884D01*
X62019Y-24884D01*
X61914Y-24779D01*
X61694Y-24688D01*
X61456Y-24688D01*
X61236Y-24779D01*
X61131Y-24884D01*
X61019Y-24884D01*
X60914Y-24779D01*
X60694Y-24688D01*
X60456Y-24688D01*
X60236Y-24779D01*
X60067Y-24948D01*
X59976Y-25168D01*
X59976Y-25406D01*
X60067Y-25626D01*
X60236Y-25795D01*
X60260Y-25805D01*
X60196Y-25805D01*
X60149Y-25824D01*
X60113Y-25860D01*
X60093Y-25907D01*
X60093Y-25958D01*
X60093Y-26226D01*
X60125Y-26258D01*
X60497Y-26258D01*
X60546Y-26258D01*
X60604Y-26258D01*
X60653Y-26258D01*
X61025Y-26258D01*
X61057Y-26226D01*
X61057Y-25958D01*
X61057Y-25907D01*
X61037Y-25860D01*
X61001Y-25824D01*
X60954Y-25805D01*
X60889Y-25805D01*
X60914Y-25795D01*
X61019Y-25690D01*
X61131Y-25690D01*
X61236Y-25795D01*
X61379Y-25854D01*
X61315Y-25880D01*
X61278Y-25949D01*
X61575Y-26246D01*
X61872Y-25949D01*
X61835Y-25880D01*
X61769Y-25854D01*
X61914Y-25795D01*
X62019Y-25690D01*
X62131Y-25690D01*
X62236Y-25795D01*
X62379Y-25854D01*
X62315Y-25880D01*
X62278Y-25949D01*
X62575Y-26246D01*
X62872Y-25949D01*
X62835Y-25880D01*
X62769Y-25854D01*
X62914Y-25795D01*
X63019Y-25690D01*
X64222Y-25690D01*
X64262Y-25730D01*
X64262Y-29055D01*
X64293Y-29209D01*
X64380Y-29340D01*
X64711Y-29671D01*
X64743Y-29748D01*
X64868Y-29873D01*
X65030Y-29940D01*
X65206Y-29940D01*
X65368Y-29873D01*
X65493Y-29748D01*
X65555Y-29596D01*
X65580Y-29596D01*
X65646Y-29568D01*
X65764Y-29686D01*
X65926Y-29753D01*
X66102Y-29753D01*
X66264Y-29686D01*
X66389Y-29561D01*
X66456Y-29399D01*
X66456Y-29223D01*
X66389Y-29061D01*
X66264Y-28936D01*
X66245Y-28928D01*
X66216Y-28883D01*
X66213Y-28881D01*
X65954Y-28621D01*
X65954Y-27313D01*
X66404Y-26863D01*
X66460Y-26886D01*
X66698Y-26886D01*
X66918Y-26795D01*
X67079Y-26634D01*
X67240Y-26795D01*
X67273Y-26808D01*
X67273Y-27382D01*
X67273Y-29773D01*
X67275Y-29783D01*
X67224Y-29773D01*
X66476Y-29773D01*
X66457Y-29773D01*
X66452Y-29774D01*
X66264Y-29774D01*
X66260Y-29773D01*
X66151Y-29796D01*
X66058Y-29857D01*
X66056Y-29859D01*
X65875Y-30040D01*
X63917Y-30040D01*
X63829Y-30040D01*
X63808Y-30018D01*
X63808Y-29775D01*
X63779Y-29704D01*
X63808Y-29634D01*
X63808Y-29537D01*
X63808Y-29197D01*
X63830Y-29175D01*
X63867Y-29084D01*
X63867Y-28987D01*
X63867Y-28593D01*
X63830Y-28503D01*
X63761Y-28434D01*
X63750Y-28429D01*
X63750Y-28274D01*
X63750Y-28223D01*
X63750Y-28112D01*
X63750Y-27990D01*
X63750Y-27879D01*
X63750Y-27828D01*
X63730Y-27781D01*
X63694Y-27745D01*
X63647Y-27726D01*
X63427Y-27726D01*
X63395Y-27758D01*
X63395Y-28022D01*
X63718Y-28022D01*
X63750Y-27990D01*
X63750Y-28112D01*
X63718Y-28080D01*
X63395Y-28080D01*
X63395Y-28344D01*
X63427Y-28376D01*
X63647Y-28376D01*
X63694Y-28357D01*
X63730Y-28321D01*
X63750Y-28274D01*
X63750Y-28429D01*
X63670Y-28397D01*
X63573Y-28397D01*
X63337Y-28397D01*
X63337Y-28344D01*
X63337Y-28080D01*
X63337Y-28022D01*
X63337Y-27758D01*
X63305Y-27726D01*
X63085Y-27726D01*
X63049Y-27740D01*
X63049Y-26371D01*
X63045Y-26183D01*
X62982Y-26027D01*
X62913Y-25990D01*
X62616Y-26287D01*
X62913Y-26584D01*
X62982Y-26547D01*
X63049Y-26371D01*
X63049Y-27740D01*
X63038Y-27745D01*
X63026Y-27756D01*
X63015Y-27745D01*
X62968Y-27726D01*
X62872Y-27726D01*
X62872Y-26625D01*
X62575Y-26328D01*
X62534Y-26369D01*
X62534Y-26287D01*
X62237Y-25990D01*
X62168Y-26027D01*
X62101Y-26203D01*
X62105Y-26391D01*
X62168Y-26547D01*
X62237Y-26584D01*
X62534Y-26287D01*
X62534Y-26369D01*
X62278Y-26625D01*
X62315Y-26694D01*
X62491Y-26761D01*
X62679Y-26757D01*
X62835Y-26694D01*
X62872Y-26625D01*
X62872Y-27726D01*
X62748Y-27726D01*
X62716Y-27758D01*
X62716Y-28022D01*
X63014Y-28022D01*
X63039Y-28022D01*
X63337Y-28022D01*
X63337Y-28080D01*
X63039Y-28080D01*
X63014Y-28080D01*
X62716Y-28080D01*
X62716Y-28344D01*
X62748Y-28376D01*
X62968Y-28376D01*
X63015Y-28357D01*
X63026Y-28345D01*
X63038Y-28357D01*
X63085Y-28376D01*
X63305Y-28376D01*
X63337Y-28344D01*
X63337Y-28397D01*
X63061Y-28397D01*
X63026Y-28411D01*
X62991Y-28397D01*
X62894Y-28397D01*
X62658Y-28397D01*
X62658Y-28344D01*
X62658Y-28080D01*
X62658Y-28022D01*
X62658Y-27758D01*
X62626Y-27726D01*
X62406Y-27726D01*
X62359Y-27745D01*
X62323Y-27781D01*
X62303Y-27828D01*
X62303Y-27879D01*
X62303Y-27990D01*
X62335Y-28022D01*
X62658Y-28022D01*
X62658Y-28080D01*
X62335Y-28080D01*
X62303Y-28112D01*
X62303Y-28223D01*
X62303Y-28274D01*
X62323Y-28321D01*
X62359Y-28357D01*
X62406Y-28376D01*
X62626Y-28376D01*
X62658Y-28344D01*
X62658Y-28397D01*
X62382Y-28397D01*
X62292Y-28434D01*
X62223Y-28503D01*
X62186Y-28594D01*
X62186Y-28691D01*
X62186Y-29085D01*
X62223Y-29175D01*
X62245Y-29197D01*
X62245Y-29281D01*
X62245Y-29635D01*
X62273Y-29705D01*
X62245Y-29776D01*
X62245Y-29873D01*
X62245Y-30099D01*
X62049Y-30099D01*
X62049Y-26371D01*
X62045Y-26183D01*
X61982Y-26027D01*
X61913Y-25990D01*
X61616Y-26287D01*
X61913Y-26584D01*
X61982Y-26547D01*
X62049Y-26371D01*
X62049Y-30099D01*
X61872Y-30099D01*
X61872Y-26625D01*
X61575Y-26328D01*
X61534Y-26369D01*
X61534Y-26287D01*
X61237Y-25990D01*
X61168Y-26027D01*
X61101Y-26203D01*
X61105Y-26391D01*
X61168Y-26547D01*
X61237Y-26584D01*
X61534Y-26287D01*
X61534Y-26369D01*
X61278Y-26625D01*
X61315Y-26694D01*
X61491Y-26761D01*
X61679Y-26757D01*
X61835Y-26694D01*
X61872Y-26625D01*
X61872Y-30099D01*
X61230Y-30099D01*
X61230Y-28760D01*
X61230Y-28506D01*
X61133Y-28271D01*
X61057Y-28194D01*
X61057Y-26667D01*
X61057Y-26616D01*
X61057Y-26348D01*
X61025Y-26316D01*
X60604Y-26316D01*
X60604Y-26737D01*
X60636Y-26769D01*
X60954Y-26769D01*
X61001Y-26750D01*
X61037Y-26714D01*
X61057Y-26667D01*
X61057Y-28194D01*
X60954Y-28091D01*
X60719Y-27993D01*
X60546Y-27993D01*
X60546Y-26737D01*
X60546Y-26316D01*
X60125Y-26316D01*
X60093Y-26348D01*
X60093Y-26616D01*
X60093Y-26667D01*
X60113Y-26714D01*
X60149Y-26750D01*
X60196Y-26769D01*
X60514Y-26769D01*
X60546Y-26737D01*
X60546Y-27993D01*
X60465Y-27993D01*
X60230Y-28090D01*
X60090Y-28229D01*
X59251Y-28229D01*
X59251Y-27189D01*
X59253Y-27187D01*
X59290Y-27096D01*
X59290Y-26999D01*
X59290Y-26645D01*
X59253Y-26555D01*
X59184Y-26486D01*
X59173Y-26481D01*
X59173Y-26340D01*
X59173Y-26218D01*
X59173Y-26077D01*
X59154Y-26030D01*
X59118Y-25994D01*
X59071Y-25974D01*
X59020Y-25974D01*
X58909Y-25974D01*
X58877Y-26006D01*
X58877Y-26250D01*
X59141Y-26250D01*
X59173Y-26218D01*
X59173Y-26340D01*
X59141Y-26308D01*
X58926Y-26308D01*
X58877Y-26308D01*
X58819Y-26308D01*
X58819Y-26250D01*
X58819Y-26006D01*
X58787Y-25974D01*
X58676Y-25974D01*
X58625Y-25974D01*
X58578Y-25994D01*
X58542Y-26030D01*
X58523Y-26077D01*
X58523Y-26218D01*
X58555Y-26250D01*
X58819Y-26250D01*
X58819Y-26308D01*
X58770Y-26308D01*
X58555Y-26308D01*
X58523Y-26340D01*
X58523Y-26481D01*
X58512Y-26486D01*
X58443Y-26555D01*
X58406Y-26646D01*
X58406Y-26743D01*
X58406Y-27097D01*
X58443Y-27187D01*
X58445Y-27189D01*
X58445Y-28142D01*
X58394Y-28091D01*
X58159Y-27993D01*
X57905Y-27993D01*
X57670Y-28090D01*
X57490Y-28269D01*
X57392Y-28504D01*
X57392Y-28758D01*
X57489Y-28993D01*
X57668Y-29173D01*
X57903Y-29271D01*
X58157Y-29271D01*
X58392Y-29174D01*
X58531Y-29035D01*
X58848Y-29035D01*
X60090Y-29035D01*
X60228Y-29173D01*
X60463Y-29271D01*
X60717Y-29271D01*
X60952Y-29174D01*
X61132Y-28995D01*
X61230Y-28760D01*
X61230Y-30099D01*
X61156Y-30099D01*
X61133Y-30043D01*
X60954Y-29863D01*
X60719Y-29765D01*
X60465Y-29765D01*
X60230Y-29862D01*
X60090Y-30001D01*
X58531Y-30001D01*
X58394Y-29863D01*
X58159Y-29765D01*
X57905Y-29765D01*
X57670Y-29862D01*
X57490Y-30041D01*
X57392Y-30276D01*
X57392Y-30530D01*
X57427Y-30617D01*
X57362Y-30617D01*
X57362Y-30098D01*
X57337Y-29974D01*
X57267Y-29869D01*
X54968Y-27570D01*
X54879Y-27510D01*
X54879Y-27396D01*
X54842Y-27306D01*
X54773Y-27237D01*
X54682Y-27200D01*
X54585Y-27200D01*
X53877Y-27200D01*
X53787Y-27237D01*
X53718Y-27306D01*
X53693Y-27365D01*
X53619Y-27291D01*
X53399Y-27200D01*
X53161Y-27200D01*
X52941Y-27291D01*
X52772Y-27460D01*
X52681Y-27680D01*
X52681Y-27918D01*
X52772Y-28138D01*
X52933Y-28299D01*
X52772Y-28460D01*
X52681Y-28680D01*
X52681Y-28918D01*
X52772Y-29138D01*
X52933Y-29299D01*
X52772Y-29460D01*
X52681Y-29680D01*
X52681Y-29918D01*
X52772Y-30138D01*
X52933Y-30299D01*
X52772Y-30460D01*
X52681Y-30680D01*
X52681Y-30918D01*
X52772Y-31138D01*
X52933Y-31299D01*
X52772Y-31460D01*
X52681Y-31680D01*
X52681Y-31918D01*
X52772Y-32138D01*
X52933Y-32299D01*
X52772Y-32460D01*
X52681Y-32680D01*
X52681Y-32918D01*
X52772Y-33138D01*
X52941Y-33307D01*
X53084Y-33366D01*
X53020Y-33392D01*
X52983Y-33461D01*
X53245Y-33723D01*
X53280Y-33758D01*
X53321Y-33799D01*
X53280Y-33840D01*
X53245Y-33875D01*
X53239Y-33881D01*
X53239Y-33799D01*
X52942Y-33502D01*
X52873Y-33539D01*
X52806Y-33715D01*
X52810Y-33903D01*
X52873Y-34059D01*
X52942Y-34096D01*
X53239Y-33799D01*
X53239Y-33881D01*
X52983Y-34137D01*
X53020Y-34206D01*
X53085Y-34231D01*
X52941Y-34291D01*
X52772Y-34460D01*
X52681Y-34680D01*
X52681Y-34918D01*
X52772Y-35138D01*
X52941Y-35307D01*
X53161Y-35398D01*
X53399Y-35398D01*
X53619Y-35307D01*
X53780Y-35146D01*
X53941Y-35307D01*
X54161Y-35398D01*
X54399Y-35398D01*
X54619Y-35307D01*
X54788Y-35138D01*
X54879Y-34918D01*
X54879Y-34680D01*
X54840Y-34586D01*
X55690Y-34586D01*
X55690Y-35202D01*
X55689Y-35207D01*
X55712Y-35316D01*
X55773Y-35409D01*
X56033Y-35668D01*
X56035Y-35671D01*
X56128Y-35732D01*
X56237Y-35754D01*
X56653Y-35754D01*
X56656Y-35757D01*
X56747Y-35794D01*
X56844Y-35794D01*
X57344Y-35794D01*
X57434Y-35757D01*
X57503Y-35688D01*
X57540Y-35597D01*
X57540Y-35500D01*
X57540Y-35340D01*
X57539Y-35338D01*
X57540Y-35337D01*
X57540Y-35240D01*
X57540Y-35087D01*
X57540Y-35080D01*
X57540Y-34990D01*
X57540Y-34830D01*
X57539Y-34828D01*
X57540Y-34827D01*
X57540Y-34730D01*
X57540Y-34570D01*
X57539Y-34568D01*
X57540Y-34567D01*
X57540Y-34470D01*
X57540Y-34317D01*
X57540Y-34310D01*
X57540Y-34220D01*
X57540Y-34060D01*
X57539Y-34058D01*
X57540Y-34057D01*
X57540Y-33960D01*
X57540Y-33800D01*
X57503Y-33710D01*
X57467Y-33674D01*
X57503Y-33638D01*
X57533Y-33561D01*
X57539Y-33563D01*
X57913Y-33563D01*
X58030Y-33540D01*
X58129Y-33474D01*
X58366Y-33237D01*
X58432Y-33138D01*
X58455Y-33021D01*
X58455Y-32585D01*
X59042Y-31998D01*
X59355Y-31998D01*
X59350Y-32011D01*
X59350Y-32108D01*
X59350Y-32261D01*
X59350Y-32268D01*
X59350Y-32358D01*
X59350Y-32518D01*
X59387Y-32608D01*
X59456Y-32677D01*
X59467Y-32681D01*
X59467Y-32710D01*
X59467Y-32727D01*
X59467Y-32754D01*
X59477Y-32779D01*
X59467Y-32804D01*
X59467Y-32831D01*
X59467Y-32848D01*
X59467Y-32866D01*
X59456Y-32871D01*
X59387Y-32940D01*
X59350Y-33031D01*
X59350Y-33114D01*
X58756Y-33114D01*
X58639Y-33137D01*
X58540Y-33203D01*
X58189Y-33554D01*
X58091Y-33554D01*
X57929Y-33621D01*
X57804Y-33746D01*
X57737Y-33908D01*
X57737Y-34084D01*
X57804Y-34246D01*
X57929Y-34371D01*
X58091Y-34438D01*
X58267Y-34438D01*
X58429Y-34371D01*
X58430Y-34370D01*
X58431Y-34371D01*
X58593Y-34438D01*
X58769Y-34438D01*
X58931Y-34371D01*
X59056Y-34246D01*
X59123Y-34084D01*
X59123Y-33986D01*
X59380Y-33986D01*
X59350Y-34061D01*
X59350Y-34158D01*
X59350Y-34311D01*
X59350Y-34318D01*
X59350Y-34408D01*
X59350Y-34556D01*
X59281Y-34528D01*
X59105Y-34528D01*
X58943Y-34595D01*
X58818Y-34720D01*
X58751Y-34882D01*
X58751Y-35058D01*
X58818Y-35220D01*
X58943Y-35345D01*
X59105Y-35412D01*
X59281Y-35412D01*
X59350Y-35383D01*
X59350Y-35438D01*
X59350Y-35598D01*
X59387Y-35688D01*
X59456Y-35757D01*
X59547Y-35794D01*
X59644Y-35794D01*
X60144Y-35794D01*
X60187Y-35776D01*
X60187Y-36076D01*
X60100Y-36163D01*
X57194Y-36163D01*
X57193Y-36163D01*
X57173Y-36166D01*
X57077Y-36186D01*
X56978Y-36252D01*
X56976Y-36254D01*
X56645Y-36585D01*
X56579Y-36684D01*
X56558Y-36786D01*
X56525Y-36800D01*
X56456Y-36869D01*
X56419Y-36960D01*
X56419Y-37057D01*
X56419Y-37411D01*
X56447Y-37481D01*
X56419Y-37552D01*
X56419Y-37649D01*
X56419Y-37776D01*
X56173Y-38022D01*
X55698Y-38022D01*
X55581Y-38045D01*
X55482Y-38111D01*
X55480Y-38113D01*
X54134Y-39459D01*
X54068Y-39558D01*
X54059Y-39601D01*
X54042Y-39609D01*
X53933Y-39717D01*
X53933Y-38333D01*
X53931Y-38077D01*
X53836Y-37846D01*
X53750Y-37787D01*
X53709Y-37828D01*
X53709Y-37746D01*
X53650Y-37660D01*
X53411Y-37563D01*
X53155Y-37565D01*
X52924Y-37660D01*
X52865Y-37746D01*
X53287Y-38168D01*
X53709Y-37746D01*
X53709Y-37828D01*
X53328Y-38209D01*
X53750Y-38631D01*
X53836Y-38572D01*
X53933Y-38333D01*
X53933Y-39717D01*
X53888Y-39762D01*
X53805Y-39962D01*
X53805Y-40179D01*
X53888Y-40379D01*
X54041Y-40533D01*
X54241Y-40616D01*
X54458Y-40616D01*
X54658Y-40533D01*
X54743Y-40448D01*
X54828Y-40533D01*
X54920Y-40571D01*
X54829Y-40609D01*
X54675Y-40762D01*
X54653Y-40814D01*
X54649Y-40813D01*
X54608Y-40854D01*
X54608Y-40772D01*
X54578Y-40709D01*
X54422Y-40650D01*
X54255Y-40654D01*
X54122Y-40709D01*
X54092Y-40772D01*
X54350Y-41030D01*
X54608Y-40772D01*
X54608Y-40854D01*
X54391Y-41071D01*
X54649Y-41329D01*
X54653Y-41326D01*
X54675Y-41379D01*
X54828Y-41533D01*
X55028Y-41616D01*
X55245Y-41616D01*
X55445Y-41533D01*
X55599Y-41380D01*
X55682Y-41180D01*
X55682Y-40963D01*
X55599Y-40763D01*
X55446Y-40609D01*
X55353Y-40570D01*
X55445Y-40533D01*
X55599Y-40380D01*
X55682Y-40180D01*
X55682Y-39963D01*
X55599Y-39763D01*
X55446Y-39609D01*
X55442Y-39607D01*
X55442Y-39308D01*
X55902Y-38848D01*
X56891Y-38848D01*
X57008Y-38825D01*
X57107Y-38759D01*
X57619Y-38247D01*
X57651Y-38197D01*
X57739Y-38162D01*
X57808Y-38093D01*
X57845Y-38002D01*
X57845Y-37905D01*
X57845Y-37578D01*
X57914Y-37607D01*
X58001Y-37607D01*
X57944Y-37747D01*
X57944Y-37923D01*
X58011Y-38085D01*
X58136Y-38210D01*
X58298Y-38277D01*
X58474Y-38277D01*
X58526Y-38255D01*
X58571Y-38300D01*
X58579Y-38303D01*
X58572Y-38321D01*
X58572Y-38541D01*
X58604Y-38573D01*
X58819Y-38573D01*
X58868Y-38573D01*
X58926Y-38573D01*
X58975Y-38573D01*
X59190Y-38573D01*
X59222Y-38541D01*
X59222Y-38321D01*
X59217Y-38310D01*
X59243Y-38300D01*
X59243Y-38395D01*
X59243Y-38907D01*
X59280Y-38997D01*
X59349Y-39066D01*
X59440Y-39103D01*
X59537Y-39103D01*
X59884Y-39103D01*
X59871Y-39116D01*
X59834Y-39207D01*
X59834Y-39304D01*
X59834Y-39540D01*
X59868Y-39623D01*
X59834Y-39707D01*
X59834Y-39804D01*
X59834Y-40040D01*
X59871Y-40130D01*
X59874Y-40133D01*
X59871Y-40136D01*
X59834Y-40227D01*
X59834Y-40324D01*
X59834Y-40470D01*
X59623Y-40470D01*
X59622Y-40470D01*
X59591Y-40476D01*
X59469Y-40501D01*
X59338Y-40588D01*
X59336Y-40590D01*
X59222Y-40704D01*
X59222Y-38883D01*
X59222Y-38663D01*
X59190Y-38631D01*
X58926Y-38631D01*
X58926Y-38954D01*
X58958Y-38986D01*
X59069Y-38986D01*
X59120Y-38986D01*
X59167Y-38966D01*
X59203Y-38930D01*
X59222Y-38883D01*
X59222Y-40704D01*
X59189Y-40737D01*
X59102Y-40868D01*
X59071Y-41022D01*
X59071Y-41419D01*
X58874Y-41419D01*
X58868Y-41420D01*
X58868Y-38954D01*
X58868Y-38631D01*
X58604Y-38631D01*
X58572Y-38663D01*
X58572Y-38883D01*
X58591Y-38930D01*
X58627Y-38966D01*
X58674Y-38986D01*
X58725Y-38986D01*
X58836Y-38986D01*
X58868Y-38954D01*
X58868Y-41420D01*
X58720Y-41450D01*
X58589Y-41537D01*
X58289Y-41837D01*
X58202Y-41968D01*
X58171Y-42122D01*
X58171Y-42134D01*
X58160Y-42139D01*
X58139Y-42160D01*
X58139Y-41480D01*
X58139Y-40434D01*
X58139Y-40312D01*
X58139Y-39266D01*
X58120Y-39219D01*
X58084Y-39183D01*
X58037Y-39163D01*
X57986Y-39163D01*
X57482Y-39163D01*
X57450Y-39195D01*
X57450Y-40344D01*
X58107Y-40344D01*
X58139Y-40312D01*
X58139Y-40434D01*
X58107Y-40402D01*
X57450Y-40402D01*
X57450Y-41551D01*
X57482Y-41583D01*
X57986Y-41583D01*
X58037Y-41583D01*
X58084Y-41563D01*
X58120Y-41527D01*
X58139Y-41480D01*
X58139Y-42160D01*
X58091Y-42208D01*
X58086Y-42219D01*
X57973Y-42219D01*
X57843Y-42165D01*
X57667Y-42165D01*
X57505Y-42232D01*
X57392Y-42345D01*
X57392Y-41551D01*
X57392Y-40402D01*
X57392Y-40344D01*
X57392Y-39195D01*
X57360Y-39163D01*
X56856Y-39163D01*
X56805Y-39163D01*
X56758Y-39183D01*
X56722Y-39219D01*
X56703Y-39266D01*
X56703Y-40312D01*
X56735Y-40344D01*
X57392Y-40344D01*
X57392Y-40402D01*
X56735Y-40402D01*
X56703Y-40434D01*
X56703Y-41480D01*
X56722Y-41527D01*
X56758Y-41563D01*
X56805Y-41583D01*
X56856Y-41583D01*
X57360Y-41583D01*
X57392Y-41551D01*
X57392Y-42345D01*
X57380Y-42357D01*
X57313Y-42519D01*
X57313Y-42695D01*
X57380Y-42857D01*
X57505Y-42982D01*
X57667Y-43049D01*
X57843Y-43049D01*
X57901Y-43025D01*
X58086Y-43025D01*
X58091Y-43036D01*
X58160Y-43105D01*
X58251Y-43142D01*
X58348Y-43142D01*
X58898Y-43142D01*
X58988Y-43105D01*
X59057Y-43036D01*
X59094Y-42945D01*
X59094Y-42848D01*
X59094Y-42824D01*
X59132Y-42917D01*
X59278Y-43063D01*
X59470Y-43143D01*
X59677Y-43143D01*
X59869Y-43064D01*
X60015Y-42918D01*
X60017Y-42912D01*
X60187Y-42912D01*
X60304Y-42889D01*
X60403Y-42823D01*
X60442Y-42783D01*
X60442Y-42852D01*
X60474Y-42884D01*
X60689Y-42884D01*
X60738Y-42884D01*
X60796Y-42884D01*
X60845Y-42884D01*
X60976Y-42884D01*
X60981Y-42889D01*
X61196Y-42889D01*
X61245Y-42889D01*
X61303Y-42889D01*
X61352Y-42889D01*
X61567Y-42889D01*
X61599Y-42857D01*
X61599Y-42716D01*
X61598Y-42715D01*
X61610Y-42711D01*
X61679Y-42642D01*
X61716Y-42551D01*
X61716Y-42454D01*
X61716Y-42150D01*
X61758Y-42108D01*
X61758Y-42107D01*
X61759Y-42107D01*
X61845Y-41977D01*
X61846Y-41976D01*
X61876Y-41823D01*
X61877Y-41822D01*
X61877Y-41365D01*
X61999Y-41487D01*
X61999Y-42122D01*
X61988Y-42127D01*
X61919Y-42196D01*
X61882Y-42287D01*
X61882Y-42384D01*
X61882Y-42934D01*
X61919Y-43024D01*
X61988Y-43093D01*
X62079Y-43130D01*
X62176Y-43130D01*
X62199Y-43130D01*
X62107Y-43168D01*
X61961Y-43314D01*
X61881Y-43506D01*
X61881Y-43713D01*
X61960Y-43905D01*
X62106Y-44051D01*
X62298Y-44131D01*
X62505Y-44131D01*
X62697Y-44052D01*
X62843Y-43906D01*
X62902Y-43764D01*
X62960Y-43905D01*
X63106Y-44051D01*
X63298Y-44131D01*
X63505Y-44131D01*
X63697Y-44052D01*
X63736Y-44013D01*
X63930Y-44013D01*
X64084Y-43982D01*
X64215Y-43895D01*
X64378Y-43732D01*
X64378Y-43731D01*
X64379Y-43731D01*
X64465Y-43601D01*
X64466Y-43600D01*
X64496Y-43447D01*
X64497Y-43446D01*
X64497Y-42284D01*
X64497Y-41230D01*
X65000Y-41230D01*
X65154Y-41199D01*
X65254Y-41132D01*
X67049Y-41132D01*
X67664Y-41132D01*
X67649Y-41135D01*
X67550Y-41201D01*
X67548Y-41203D01*
X66727Y-42023D01*
X66698Y-42011D01*
X66460Y-42011D01*
X66240Y-42102D01*
X66071Y-42271D01*
X66011Y-42414D01*
X65986Y-42350D01*
X65917Y-42313D01*
X65876Y-42354D01*
X65876Y-42272D01*
X65839Y-42203D01*
X65663Y-42136D01*
X65475Y-42140D01*
X65319Y-42203D01*
X65282Y-42272D01*
X65579Y-42569D01*
X65876Y-42272D01*
X65876Y-42354D01*
X65620Y-42610D01*
X65917Y-42907D01*
X65986Y-42870D01*
X66011Y-42804D01*
X66071Y-42949D01*
X66232Y-43110D01*
X66071Y-43271D01*
X66061Y-43295D01*
X66061Y-43281D01*
X66061Y-43230D01*
X66041Y-43183D01*
X66005Y-43147D01*
X65958Y-43128D01*
X65876Y-43128D01*
X65876Y-42948D01*
X65579Y-42651D01*
X65538Y-42692D01*
X65538Y-42610D01*
X65241Y-42313D01*
X65172Y-42350D01*
X65105Y-42526D01*
X65109Y-42714D01*
X65172Y-42870D01*
X65241Y-42907D01*
X65538Y-42610D01*
X65538Y-42692D01*
X65282Y-42948D01*
X65319Y-43017D01*
X65495Y-43084D01*
X65683Y-43080D01*
X65839Y-43017D01*
X65876Y-42948D01*
X65876Y-43128D01*
X65640Y-43128D01*
X65608Y-43160D01*
X65608Y-43532D01*
X65608Y-43581D01*
X65608Y-43639D01*
X65608Y-43688D01*
X65608Y-44060D01*
X65640Y-44092D01*
X65958Y-44092D01*
X66005Y-44073D01*
X66041Y-44037D01*
X66061Y-43990D01*
X66061Y-43939D01*
X66061Y-43924D01*
X66071Y-43949D01*
X66240Y-44118D01*
X66460Y-44209D01*
X66698Y-44209D01*
X66918Y-44118D01*
X67079Y-43957D01*
X67240Y-44118D01*
X67460Y-44209D01*
X67698Y-44209D01*
X67918Y-44118D01*
X68079Y-43957D01*
X68240Y-44118D01*
X68460Y-44209D01*
X68698Y-44209D01*
X68918Y-44118D01*
X69079Y-43957D01*
X69240Y-44118D01*
X69460Y-44209D01*
X69698Y-44209D01*
X69918Y-44118D01*
X70079Y-43957D01*
X70240Y-44118D01*
X70345Y-44161D01*
X70345Y-44301D01*
X70345Y-44301D01*
G37*
G54D11*
X70345Y-44301D02*
X65550Y-44301D01*
X65550Y-44060D01*
X65550Y-43639D01*
X65550Y-43581D01*
X65550Y-43160D01*
X65518Y-43128D01*
X65200Y-43128D01*
X65153Y-43147D01*
X65117Y-43183D01*
X65097Y-43230D01*
X65097Y-43281D01*
X65097Y-43549D01*
X65129Y-43581D01*
X65550Y-43581D01*
X65550Y-43639D01*
X65129Y-43639D01*
X65097Y-43671D01*
X65097Y-43939D01*
X65097Y-43990D01*
X65117Y-44037D01*
X65153Y-44073D01*
X65200Y-44092D01*
X65518Y-44092D01*
X65550Y-44060D01*
X65550Y-44301D01*
X61599Y-44301D01*
X61599Y-43120D01*
X61599Y-42979D01*
X61567Y-42947D01*
X61303Y-42947D01*
X61303Y-43191D01*
X61335Y-43223D01*
X61446Y-43223D01*
X61497Y-43223D01*
X61544Y-43203D01*
X61580Y-43167D01*
X61599Y-43120D01*
X61599Y-44301D01*
X61245Y-44301D01*
X61245Y-43191D01*
X61245Y-42947D01*
X61065Y-42947D01*
X61060Y-42942D01*
X60796Y-42942D01*
X60796Y-43186D01*
X60828Y-43218D01*
X60939Y-43218D01*
X60990Y-43218D01*
X61014Y-43207D01*
X61051Y-43223D01*
X61102Y-43223D01*
X61213Y-43223D01*
X61245Y-43191D01*
X61245Y-44301D01*
X60738Y-44301D01*
X60738Y-43186D01*
X60738Y-42942D01*
X60474Y-42942D01*
X60442Y-42974D01*
X60442Y-43115D01*
X60461Y-43162D01*
X60497Y-43198D01*
X60544Y-43218D01*
X60595Y-43218D01*
X60706Y-43218D01*
X60738Y-43186D01*
X60738Y-44301D01*
X54608Y-44301D01*
X54608Y-41370D01*
X54350Y-41112D01*
X54309Y-41153D01*
X54309Y-41071D01*
X54051Y-40813D01*
X53988Y-40843D01*
X53929Y-40999D01*
X53933Y-41166D01*
X53988Y-41299D01*
X54051Y-41329D01*
X54309Y-41071D01*
X54309Y-41153D01*
X54092Y-41370D01*
X54122Y-41433D01*
X54278Y-41492D01*
X54445Y-41488D01*
X54578Y-41433D01*
X54608Y-41370D01*
X54608Y-44301D01*
X53933Y-44301D01*
X53933Y-43057D01*
X53931Y-42801D01*
X53836Y-42570D01*
X53750Y-42511D01*
X53709Y-42552D01*
X53709Y-42470D01*
X53709Y-38672D01*
X53287Y-38250D01*
X53246Y-38291D01*
X53246Y-38209D01*
X52824Y-37787D01*
X52738Y-37846D01*
X52641Y-38085D01*
X52643Y-38341D01*
X52738Y-38572D01*
X52824Y-38631D01*
X53246Y-38209D01*
X53246Y-38291D01*
X52865Y-38672D01*
X52924Y-38758D01*
X53163Y-38855D01*
X53419Y-38853D01*
X53650Y-38758D01*
X53709Y-38672D01*
X53709Y-42470D01*
X53650Y-42384D01*
X53411Y-42287D01*
X53155Y-42289D01*
X52924Y-42384D01*
X52865Y-42470D01*
X53287Y-42892D01*
X53709Y-42470D01*
X53709Y-42552D01*
X53328Y-42933D01*
X53750Y-43355D01*
X53836Y-43296D01*
X53933Y-43057D01*
X53933Y-44301D01*
X53709Y-44301D01*
X53709Y-43396D01*
X53287Y-42974D01*
X53246Y-43015D01*
X53246Y-42933D01*
X52824Y-42511D01*
X52738Y-42570D01*
X52641Y-42809D01*
X52643Y-43065D01*
X52738Y-43296D01*
X52824Y-43355D01*
X53246Y-42933D01*
X53246Y-43015D01*
X52865Y-43396D01*
X52924Y-43482D01*
X53163Y-43579D01*
X53419Y-43577D01*
X53650Y-43482D01*
X53709Y-43396D01*
X53709Y-44301D01*
X50699Y-44301D01*
X50699Y-24596D01*
X66862Y-24596D01*
X66855Y-24601D01*
X66853Y-24603D01*
X66748Y-24708D01*
X66698Y-24688D01*
X66460Y-24688D01*
X66240Y-24779D01*
X66079Y-24940D01*
X65918Y-24779D01*
X65698Y-24688D01*
X65460Y-24688D01*
X65240Y-24779D01*
X65071Y-24948D01*
X64980Y-25168D01*
X64980Y-25323D01*
X64950Y-25278D01*
X64674Y-25002D01*
X64543Y-24915D01*
X64389Y-24884D01*
X63019Y-24884D01*
X62914Y-24779D01*
X62694Y-24688D01*
X62456Y-24688D01*
X62236Y-24779D01*
X62131Y-24884D01*
X62019Y-24884D01*
X61914Y-24779D01*
X61694Y-24688D01*
X61456Y-24688D01*
X61236Y-24779D01*
X61131Y-24884D01*
X61019Y-24884D01*
X60914Y-24779D01*
X60694Y-24688D01*
X60456Y-24688D01*
X60236Y-24779D01*
X60067Y-24948D01*
X59976Y-25168D01*
X59976Y-25406D01*
X60067Y-25626D01*
X60236Y-25795D01*
X60260Y-25805D01*
X60196Y-25805D01*
X60149Y-25824D01*
X60113Y-25860D01*
X60093Y-25907D01*
X60093Y-25958D01*
X60093Y-26226D01*
X60125Y-26258D01*
X60497Y-26258D01*
X60546Y-26258D01*
X60604Y-26258D01*
X60653Y-26258D01*
X61025Y-26258D01*
X61057Y-26226D01*
X61057Y-25958D01*
X61057Y-25907D01*
X61037Y-25860D01*
X61001Y-25824D01*
X60954Y-25805D01*
X60889Y-25805D01*
X60914Y-25795D01*
X61019Y-25690D01*
X61131Y-25690D01*
X61236Y-25795D01*
X61379Y-25854D01*
X61315Y-25880D01*
X61278Y-25949D01*
X61575Y-26246D01*
X61872Y-25949D01*
X61835Y-25880D01*
X61769Y-25854D01*
X61914Y-25795D01*
X62019Y-25690D01*
X62131Y-25690D01*
X62236Y-25795D01*
X62379Y-25854D01*
X62315Y-25880D01*
X62278Y-25949D01*
X62575Y-26246D01*
X62872Y-25949D01*
X62835Y-25880D01*
X62769Y-25854D01*
X62914Y-25795D01*
X63019Y-25690D01*
X64222Y-25690D01*
X64262Y-25730D01*
X64262Y-29055D01*
X64293Y-29209D01*
X64380Y-29340D01*
X64711Y-29671D01*
X64743Y-29748D01*
X64868Y-29873D01*
X65030Y-29940D01*
X65206Y-29940D01*
X65368Y-29873D01*
X65493Y-29748D01*
X65555Y-29596D01*
X65580Y-29596D01*
X65646Y-29568D01*
X65764Y-29686D01*
X65926Y-29753D01*
X66102Y-29753D01*
X66264Y-29686D01*
X66389Y-29561D01*
X66456Y-29399D01*
X66456Y-29223D01*
X66389Y-29061D01*
X66264Y-28936D01*
X66245Y-28928D01*
X66216Y-28883D01*
X66213Y-28881D01*
X65954Y-28621D01*
X65954Y-27313D01*
X66404Y-26863D01*
X66460Y-26886D01*
X66698Y-26886D01*
X66918Y-26795D01*
X67079Y-26634D01*
X67240Y-26795D01*
X67273Y-26808D01*
X67273Y-27382D01*
X67273Y-29773D01*
X67275Y-29783D01*
X67224Y-29773D01*
X66476Y-29773D01*
X66457Y-29773D01*
X66452Y-29774D01*
X66264Y-29774D01*
X66260Y-29773D01*
X66151Y-29796D01*
X66058Y-29857D01*
X66056Y-29859D01*
X65875Y-30040D01*
X63917Y-30040D01*
X63829Y-30040D01*
X63808Y-30018D01*
X63808Y-29775D01*
X63779Y-29704D01*
X63808Y-29634D01*
X63808Y-29537D01*
X63808Y-29197D01*
X63830Y-29175D01*
X63867Y-29084D01*
X63867Y-28987D01*
X63867Y-28593D01*
X63830Y-28503D01*
X63761Y-28434D01*
X63750Y-28429D01*
X63750Y-28274D01*
X63750Y-28223D01*
X63750Y-28112D01*
X63750Y-27990D01*
X63750Y-27879D01*
X63750Y-27828D01*
X63730Y-27781D01*
X63694Y-27745D01*
X63647Y-27726D01*
X63427Y-27726D01*
X63395Y-27758D01*
X63395Y-28022D01*
X63718Y-28022D01*
X63750Y-27990D01*
X63750Y-28112D01*
X63718Y-28080D01*
X63395Y-28080D01*
X63395Y-28344D01*
X63427Y-28376D01*
X63647Y-28376D01*
X63694Y-28357D01*
X63730Y-28321D01*
X63750Y-28274D01*
X63750Y-28429D01*
X63670Y-28397D01*
X63573Y-28397D01*
X63337Y-28397D01*
X63337Y-28344D01*
X63337Y-28080D01*
X63337Y-28022D01*
X63337Y-27758D01*
X63305Y-27726D01*
X63085Y-27726D01*
X63049Y-27740D01*
X63049Y-26371D01*
X63045Y-26183D01*
X62982Y-26027D01*
X62913Y-25990D01*
X62616Y-26287D01*
X62913Y-26584D01*
X62982Y-26547D01*
X63049Y-26371D01*
X63049Y-27740D01*
X63038Y-27745D01*
X63026Y-27756D01*
X63015Y-27745D01*
X62968Y-27726D01*
X62872Y-27726D01*
X62872Y-26625D01*
X62575Y-26328D01*
X62534Y-26369D01*
X62534Y-26287D01*
X62237Y-25990D01*
X62168Y-26027D01*
X62101Y-26203D01*
X62105Y-26391D01*
X62168Y-26547D01*
X62237Y-26584D01*
X62534Y-26287D01*
X62534Y-26369D01*
X62278Y-26625D01*
X62315Y-26694D01*
X62491Y-26761D01*
X62679Y-26757D01*
X62835Y-26694D01*
X62872Y-26625D01*
X62872Y-27726D01*
X62748Y-27726D01*
X62716Y-27758D01*
X62716Y-28022D01*
X63014Y-28022D01*
X63039Y-28022D01*
X63337Y-28022D01*
X63337Y-28080D01*
X63039Y-28080D01*
X63014Y-28080D01*
X62716Y-28080D01*
X62716Y-28344D01*
X62748Y-28376D01*
X62968Y-28376D01*
X63015Y-28357D01*
X63026Y-28345D01*
X63038Y-28357D01*
X63085Y-28376D01*
X63305Y-28376D01*
X63337Y-28344D01*
X63337Y-28397D01*
X63061Y-28397D01*
X63026Y-28411D01*
X62991Y-28397D01*
X62894Y-28397D01*
X62658Y-28397D01*
X62658Y-28344D01*
X62658Y-28080D01*
X62658Y-28022D01*
X62658Y-27758D01*
X62626Y-27726D01*
X62406Y-27726D01*
X62359Y-27745D01*
X62323Y-27781D01*
X62303Y-27828D01*
X62303Y-27879D01*
X62303Y-27990D01*
X62335Y-28022D01*
X62658Y-28022D01*
X62658Y-28080D01*
X62335Y-28080D01*
X62303Y-28112D01*
X62303Y-28223D01*
X62303Y-28274D01*
X62323Y-28321D01*
X62359Y-28357D01*
X62406Y-28376D01*
X62626Y-28376D01*
X62658Y-28344D01*
X62658Y-28397D01*
X62382Y-28397D01*
X62292Y-28434D01*
X62223Y-28503D01*
X62186Y-28594D01*
X62186Y-28691D01*
X62186Y-29085D01*
X62223Y-29175D01*
X62245Y-29197D01*
X62245Y-29281D01*
X62245Y-29635D01*
X62273Y-29705D01*
X62245Y-29776D01*
X62245Y-29873D01*
X62245Y-30099D01*
X62049Y-30099D01*
X62049Y-26371D01*
X62045Y-26183D01*
X61982Y-26027D01*
X61913Y-25990D01*
X61616Y-26287D01*
X61913Y-26584D01*
X61982Y-26547D01*
X62049Y-26371D01*
X62049Y-30099D01*
X61872Y-30099D01*
X61872Y-26625D01*
X61575Y-26328D01*
X61534Y-26369D01*
X61534Y-26287D01*
X61237Y-25990D01*
X61168Y-26027D01*
X61101Y-26203D01*
X61105Y-26391D01*
X61168Y-26547D01*
X61237Y-26584D01*
X61534Y-26287D01*
X61534Y-26369D01*
X61278Y-26625D01*
X61315Y-26694D01*
X61491Y-26761D01*
X61679Y-26757D01*
X61835Y-26694D01*
X61872Y-26625D01*
X61872Y-30099D01*
X61230Y-30099D01*
X61230Y-28760D01*
X61230Y-28506D01*
X61133Y-28271D01*
X61057Y-28194D01*
X61057Y-26667D01*
X61057Y-26616D01*
X61057Y-26348D01*
X61025Y-26316D01*
X60604Y-26316D01*
X60604Y-26737D01*
X60636Y-26769D01*
X60954Y-26769D01*
X61001Y-26750D01*
X61037Y-26714D01*
X61057Y-26667D01*
X61057Y-28194D01*
X60954Y-28091D01*
X60719Y-27993D01*
X60546Y-27993D01*
X60546Y-26737D01*
X60546Y-26316D01*
X60125Y-26316D01*
X60093Y-26348D01*
X60093Y-26616D01*
X60093Y-26667D01*
X60113Y-26714D01*
X60149Y-26750D01*
X60196Y-26769D01*
X60514Y-26769D01*
X60546Y-26737D01*
X60546Y-27993D01*
X60465Y-27993D01*
X60230Y-28090D01*
X60090Y-28229D01*
X59251Y-28229D01*
X59251Y-27189D01*
X59253Y-27187D01*
X59290Y-27096D01*
X59290Y-26999D01*
X59290Y-26645D01*
X59253Y-26555D01*
X59184Y-26486D01*
X59173Y-26481D01*
X59173Y-26340D01*
X59173Y-26218D01*
X59173Y-26077D01*
X59154Y-26030D01*
X59118Y-25994D01*
X59071Y-25974D01*
X59020Y-25974D01*
X58909Y-25974D01*
X58877Y-26006D01*
X58877Y-26250D01*
X59141Y-26250D01*
X59173Y-26218D01*
X59173Y-26340D01*
X59141Y-26308D01*
X58926Y-26308D01*
X58877Y-26308D01*
X58819Y-26308D01*
X58819Y-26250D01*
X58819Y-26006D01*
X58787Y-25974D01*
X58676Y-25974D01*
X58625Y-25974D01*
X58578Y-25994D01*
X58542Y-26030D01*
X58523Y-26077D01*
X58523Y-26218D01*
X58555Y-26250D01*
X58819Y-26250D01*
X58819Y-26308D01*
X58770Y-26308D01*
X58555Y-26308D01*
X58523Y-26340D01*
X58523Y-26481D01*
X58512Y-26486D01*
X58443Y-26555D01*
X58406Y-26646D01*
X58406Y-26743D01*
X58406Y-27097D01*
X58443Y-27187D01*
X58445Y-27189D01*
X58445Y-28142D01*
X58394Y-28091D01*
X58159Y-27993D01*
X57905Y-27993D01*
X57670Y-28090D01*
X57490Y-28269D01*
X57392Y-28504D01*
X57392Y-28758D01*
X57489Y-28993D01*
X57668Y-29173D01*
X57903Y-29271D01*
X58157Y-29271D01*
X58392Y-29174D01*
X58531Y-29035D01*
X58848Y-29035D01*
X60090Y-29035D01*
X60228Y-29173D01*
X60463Y-29271D01*
X60717Y-29271D01*
X60952Y-29174D01*
X61132Y-28995D01*
X61230Y-28760D01*
X61230Y-30099D01*
X61156Y-30099D01*
X61133Y-30043D01*
X60954Y-29863D01*
X60719Y-29765D01*
X60465Y-29765D01*
X60230Y-29862D01*
X60090Y-30001D01*
X58531Y-30001D01*
X58394Y-29863D01*
X58159Y-29765D01*
X57905Y-29765D01*
X57670Y-29862D01*
X57490Y-30041D01*
X57392Y-30276D01*
X57392Y-30530D01*
X57427Y-30617D01*
X57362Y-30617D01*
X57362Y-30098D01*
X57337Y-29974D01*
X57267Y-29869D01*
X54968Y-27570D01*
X54879Y-27510D01*
X54879Y-27396D01*
X54842Y-27306D01*
X54773Y-27237D01*
X54682Y-27200D01*
X54585Y-27200D01*
X53877Y-27200D01*
X53787Y-27237D01*
X53718Y-27306D01*
X53693Y-27365D01*
X53619Y-27291D01*
X53399Y-27200D01*
X53161Y-27200D01*
X52941Y-27291D01*
X52772Y-27460D01*
X52681Y-27680D01*
X52681Y-27918D01*
X52772Y-28138D01*
X52933Y-28299D01*
X52772Y-28460D01*
X52681Y-28680D01*
X52681Y-28918D01*
X52772Y-29138D01*
X52933Y-29299D01*
X52772Y-29460D01*
X52681Y-29680D01*
X52681Y-29918D01*
X52772Y-30138D01*
X52933Y-30299D01*
X52772Y-30460D01*
X52681Y-30680D01*
X52681Y-30918D01*
X52772Y-31138D01*
X52933Y-31299D01*
X52772Y-31460D01*
X52681Y-31680D01*
X52681Y-31918D01*
X52772Y-32138D01*
X52933Y-32299D01*
X52772Y-32460D01*
X52681Y-32680D01*
X52681Y-32918D01*
X52772Y-33138D01*
X52941Y-33307D01*
X53084Y-33366D01*
X53020Y-33392D01*
X52983Y-33461D01*
X53245Y-33723D01*
X53280Y-33758D01*
X53321Y-33799D01*
X53280Y-33840D01*
X53245Y-33875D01*
X53239Y-33881D01*
X53239Y-33799D01*
X52942Y-33502D01*
X52873Y-33539D01*
X52806Y-33715D01*
X52810Y-33903D01*
X52873Y-34059D01*
X52942Y-34096D01*
X53239Y-33799D01*
X53239Y-33881D01*
X52983Y-34137D01*
X53020Y-34206D01*
X53085Y-34231D01*
X52941Y-34291D01*
X52772Y-34460D01*
X52681Y-34680D01*
X52681Y-34918D01*
X52772Y-35138D01*
X52941Y-35307D01*
X53161Y-35398D01*
X53399Y-35398D01*
X53619Y-35307D01*
X53780Y-35146D01*
X53941Y-35307D01*
X54161Y-35398D01*
X54399Y-35398D01*
X54619Y-35307D01*
X54788Y-35138D01*
X54879Y-34918D01*
X54879Y-34680D01*
X54840Y-34586D01*
X55690Y-34586D01*
X55690Y-35202D01*
X55689Y-35207D01*
X55712Y-35316D01*
X55773Y-35409D01*
X56033Y-35668D01*
X56035Y-35671D01*
X56128Y-35732D01*
X56237Y-35754D01*
X56653Y-35754D01*
X56656Y-35757D01*
X56747Y-35794D01*
X56844Y-35794D01*
X57344Y-35794D01*
X57434Y-35757D01*
X57503Y-35688D01*
X57540Y-35597D01*
X57540Y-35500D01*
X57540Y-35340D01*
X57539Y-35338D01*
X57540Y-35337D01*
X57540Y-35240D01*
X57540Y-35087D01*
X57540Y-35080D01*
X57540Y-34990D01*
X57540Y-34830D01*
X57539Y-34828D01*
X57540Y-34827D01*
X57540Y-34730D01*
X57540Y-34570D01*
X57539Y-34568D01*
X57540Y-34567D01*
X57540Y-34470D01*
X57540Y-34317D01*
X57540Y-34310D01*
X57540Y-34220D01*
X57540Y-34060D01*
X57539Y-34058D01*
X57540Y-34057D01*
X57540Y-33960D01*
X57540Y-33800D01*
X57503Y-33710D01*
X57467Y-33674D01*
X57503Y-33638D01*
X57533Y-33561D01*
X57539Y-33563D01*
X57913Y-33563D01*
X58030Y-33540D01*
X58129Y-33474D01*
X58366Y-33237D01*
X58432Y-33138D01*
X58455Y-33021D01*
X58455Y-32585D01*
X59042Y-31998D01*
X59355Y-31998D01*
X59350Y-32011D01*
X59350Y-32108D01*
X59350Y-32261D01*
X59350Y-32268D01*
X59350Y-32358D01*
X59350Y-32518D01*
X59387Y-32608D01*
X59456Y-32677D01*
X59467Y-32681D01*
X59467Y-32710D01*
X59467Y-32727D01*
X59467Y-32754D01*
X59477Y-32779D01*
X59467Y-32804D01*
X59467Y-32831D01*
X59467Y-32848D01*
X59467Y-32866D01*
X59456Y-32871D01*
X59387Y-32940D01*
X59350Y-33031D01*
X59350Y-33114D01*
X58756Y-33114D01*
X58639Y-33137D01*
X58540Y-33203D01*
X58189Y-33554D01*
X58091Y-33554D01*
X57929Y-33621D01*
X57804Y-33746D01*
X57737Y-33908D01*
X57737Y-34084D01*
X57804Y-34246D01*
X57929Y-34371D01*
X58091Y-34438D01*
X58267Y-34438D01*
X58429Y-34371D01*
X58430Y-34370D01*
X58431Y-34371D01*
X58593Y-34438D01*
X58769Y-34438D01*
X58931Y-34371D01*
X59056Y-34246D01*
X59123Y-34084D01*
X59123Y-33986D01*
X59380Y-33986D01*
X59350Y-34061D01*
X59350Y-34158D01*
X59350Y-34311D01*
X59350Y-34318D01*
X59350Y-34408D01*
X59350Y-34556D01*
X59281Y-34528D01*
X59105Y-34528D01*
X58943Y-34595D01*
X58818Y-34720D01*
X58751Y-34882D01*
X58751Y-35058D01*
X58818Y-35220D01*
X58943Y-35345D01*
X59105Y-35412D01*
X59281Y-35412D01*
X59350Y-35383D01*
X59350Y-35438D01*
X59350Y-35598D01*
X59387Y-35688D01*
X59456Y-35757D01*
X59547Y-35794D01*
X59644Y-35794D01*
X60144Y-35794D01*
X60187Y-35776D01*
X60187Y-36076D01*
X60100Y-36163D01*
X57194Y-36163D01*
X57193Y-36163D01*
X57173Y-36166D01*
X57077Y-36186D01*
X56978Y-36252D01*
X56976Y-36254D01*
X56645Y-36585D01*
X56579Y-36684D01*
X56558Y-36786D01*
X56525Y-36800D01*
X56456Y-36869D01*
X56419Y-36960D01*
X56419Y-37057D01*
X56419Y-37411D01*
X56447Y-37481D01*
X56419Y-37552D01*
X56419Y-37649D01*
X56419Y-37776D01*
X56173Y-38022D01*
X55698Y-38022D01*
X55581Y-38045D01*
X55482Y-38111D01*
X55480Y-38113D01*
X54134Y-39459D01*
X54068Y-39558D01*
X54059Y-39601D01*
X54042Y-39609D01*
X53933Y-39717D01*
X53933Y-38333D01*
X53931Y-38077D01*
X53836Y-37846D01*
X53750Y-37787D01*
X53709Y-37828D01*
X53709Y-37746D01*
X53650Y-37660D01*
X53411Y-37563D01*
X53155Y-37565D01*
X52924Y-37660D01*
X52865Y-37746D01*
X53287Y-38168D01*
X53709Y-37746D01*
X53709Y-37828D01*
X53328Y-38209D01*
X53750Y-38631D01*
X53836Y-38572D01*
X53933Y-38333D01*
X53933Y-39717D01*
X53888Y-39762D01*
X53805Y-39962D01*
X53805Y-40179D01*
X53888Y-40379D01*
X54041Y-40533D01*
X54241Y-40616D01*
X54458Y-40616D01*
X54658Y-40533D01*
X54743Y-40448D01*
X54828Y-40533D01*
X54920Y-40571D01*
X54829Y-40609D01*
X54675Y-40762D01*
X54653Y-40814D01*
X54649Y-40813D01*
X54608Y-40854D01*
X54608Y-40772D01*
X54578Y-40709D01*
X54422Y-40650D01*
X54255Y-40654D01*
X54122Y-40709D01*
X54092Y-40772D01*
X54350Y-41030D01*
X54608Y-40772D01*
X54608Y-40854D01*
X54391Y-41071D01*
X54649Y-41329D01*
X54653Y-41326D01*
X54675Y-41379D01*
X54828Y-41533D01*
X55028Y-41616D01*
X55245Y-41616D01*
X55445Y-41533D01*
X55599Y-41380D01*
X55682Y-41180D01*
X55682Y-40963D01*
X55599Y-40763D01*
X55446Y-40609D01*
X55353Y-40570D01*
X55445Y-40533D01*
X55599Y-40380D01*
X55682Y-40180D01*
X55682Y-39963D01*
X55599Y-39763D01*
X55446Y-39609D01*
X55442Y-39607D01*
X55442Y-39308D01*
X55902Y-38848D01*
X56891Y-38848D01*
X57008Y-38825D01*
X57107Y-38759D01*
X57619Y-38247D01*
X57651Y-38197D01*
X57739Y-38162D01*
X57808Y-38093D01*
X57845Y-38002D01*
X57845Y-37905D01*
X57845Y-37578D01*
X57914Y-37607D01*
X58001Y-37607D01*
X57944Y-37747D01*
X57944Y-37923D01*
X58011Y-38085D01*
X58136Y-38210D01*
X58298Y-38277D01*
X58474Y-38277D01*
X58526Y-38255D01*
X58571Y-38300D01*
X58579Y-38303D01*
X58572Y-38321D01*
X58572Y-38541D01*
X58604Y-38573D01*
X58819Y-38573D01*
X58868Y-38573D01*
X58926Y-38573D01*
X58975Y-38573D01*
X59190Y-38573D01*
X59222Y-38541D01*
X59222Y-38321D01*
X59217Y-38310D01*
X59243Y-38300D01*
X59243Y-38395D01*
X59243Y-38907D01*
X59280Y-38997D01*
X59349Y-39066D01*
X59440Y-39103D01*
X59537Y-39103D01*
X59884Y-39103D01*
X59871Y-39116D01*
X59834Y-39207D01*
X59834Y-39304D01*
X59834Y-39540D01*
X59868Y-39623D01*
X59834Y-39707D01*
X59834Y-39804D01*
X59834Y-40040D01*
X59871Y-40130D01*
X59874Y-40133D01*
X59871Y-40136D01*
X59834Y-40227D01*
X59834Y-40324D01*
X59834Y-40470D01*
X59623Y-40470D01*
X59622Y-40470D01*
X59591Y-40476D01*
X59469Y-40501D01*
X59338Y-40588D01*
X59336Y-40590D01*
X59222Y-40704D01*
X59222Y-38883D01*
X59222Y-38663D01*
X59190Y-38631D01*
X58926Y-38631D01*
X58926Y-38954D01*
X58958Y-38986D01*
X59069Y-38986D01*
X59120Y-38986D01*
X59167Y-38966D01*
X59203Y-38930D01*
X59222Y-38883D01*
X59222Y-40704D01*
X59189Y-40737D01*
X59102Y-40868D01*
X59071Y-41022D01*
X59071Y-41419D01*
X58874Y-41419D01*
X58868Y-41420D01*
X58868Y-38954D01*
X58868Y-38631D01*
X58604Y-38631D01*
X58572Y-38663D01*
X58572Y-38883D01*
X58591Y-38930D01*
X58627Y-38966D01*
X58674Y-38986D01*
X58725Y-38986D01*
X58836Y-38986D01*
X58868Y-38954D01*
X58868Y-41420D01*
X58720Y-41450D01*
X58589Y-41537D01*
X58289Y-41837D01*
X58202Y-41968D01*
X58171Y-42122D01*
X58171Y-42134D01*
X58160Y-42139D01*
X58139Y-42160D01*
X58139Y-41480D01*
X58139Y-40434D01*
X58139Y-40312D01*
X58139Y-39266D01*
X58120Y-39219D01*
X58084Y-39183D01*
X58037Y-39163D01*
X57986Y-39163D01*
X57482Y-39163D01*
X57450Y-39195D01*
X57450Y-40344D01*
X58107Y-40344D01*
X58139Y-40312D01*
X58139Y-40434D01*
X58107Y-40402D01*
X57450Y-40402D01*
X57450Y-41551D01*
X57482Y-41583D01*
X57986Y-41583D01*
X58037Y-41583D01*
X58084Y-41563D01*
X58120Y-41527D01*
X58139Y-41480D01*
X58139Y-42160D01*
X58091Y-42208D01*
X58086Y-42219D01*
X57973Y-42219D01*
X57843Y-42165D01*
X57667Y-42165D01*
X57505Y-42232D01*
X57392Y-42345D01*
X57392Y-41551D01*
X57392Y-40402D01*
X57392Y-40344D01*
X57392Y-39195D01*
X57360Y-39163D01*
X56856Y-39163D01*
X56805Y-39163D01*
X56758Y-39183D01*
X56722Y-39219D01*
X56703Y-39266D01*
X56703Y-40312D01*
X56735Y-40344D01*
X57392Y-40344D01*
X57392Y-40402D01*
X56735Y-40402D01*
X56703Y-40434D01*
X56703Y-41480D01*
X56722Y-41527D01*
X56758Y-41563D01*
X56805Y-41583D01*
X56856Y-41583D01*
X57360Y-41583D01*
X57392Y-41551D01*
X57392Y-42345D01*
X57380Y-42357D01*
X57313Y-42519D01*
X57313Y-42695D01*
X57380Y-42857D01*
X57505Y-42982D01*
X57667Y-43049D01*
X57843Y-43049D01*
X57901Y-43025D01*
X58086Y-43025D01*
X58091Y-43036D01*
X58160Y-43105D01*
X58251Y-43142D01*
X58348Y-43142D01*
X58898Y-43142D01*
X58988Y-43105D01*
X59057Y-43036D01*
X59094Y-42945D01*
X59094Y-42848D01*
X59094Y-42824D01*
X59132Y-42917D01*
X59278Y-43063D01*
X59470Y-43143D01*
X59677Y-43143D01*
X59869Y-43064D01*
X60015Y-42918D01*
X60017Y-42912D01*
X60187Y-42912D01*
X60304Y-42889D01*
X60403Y-42823D01*
X60442Y-42783D01*
X60442Y-42852D01*
X60474Y-42884D01*
X60689Y-42884D01*
X60738Y-42884D01*
X60796Y-42884D01*
X60845Y-42884D01*
X60976Y-42884D01*
X60981Y-42889D01*
X61196Y-42889D01*
X61245Y-42889D01*
X61303Y-42889D01*
X61352Y-42889D01*
X61567Y-42889D01*
X61599Y-42857D01*
X61599Y-42716D01*
X61598Y-42715D01*
X61610Y-42711D01*
X61679Y-42642D01*
X61716Y-42551D01*
X61716Y-42454D01*
X61716Y-42150D01*
X61758Y-42108D01*
X61758Y-42107D01*
X61759Y-42107D01*
X61845Y-41977D01*
X61846Y-41976D01*
X61876Y-41823D01*
X61877Y-41822D01*
X61877Y-41365D01*
X61999Y-41487D01*
X61999Y-42122D01*
X61988Y-42127D01*
X61919Y-42196D01*
X61882Y-42287D01*
X61882Y-42384D01*
X61882Y-42934D01*
X61919Y-43024D01*
X61988Y-43093D01*
X62079Y-43130D01*
X62176Y-43130D01*
X62199Y-43130D01*
X62107Y-43168D01*
X61961Y-43314D01*
X61881Y-43506D01*
X61881Y-43713D01*
X61960Y-43905D01*
X62106Y-44051D01*
X62298Y-44131D01*
X62505Y-44131D01*
X62697Y-44052D01*
X62843Y-43906D01*
X62902Y-43764D01*
X62960Y-43905D01*
X63106Y-44051D01*
X63298Y-44131D01*
X63505Y-44131D01*
X63697Y-44052D01*
X63736Y-44013D01*
X63930Y-44013D01*
X64084Y-43982D01*
X64215Y-43895D01*
X64378Y-43732D01*
X64378Y-43731D01*
X64379Y-43731D01*
X64465Y-43601D01*
X64466Y-43600D01*
X64496Y-43447D01*
X64497Y-43446D01*
X64497Y-42284D01*
X64497Y-41230D01*
X65000Y-41230D01*
X65154Y-41199D01*
X65254Y-41132D01*
X67049Y-41132D01*
X67664Y-41132D01*
X67649Y-41135D01*
X67550Y-41201D01*
X67548Y-41203D01*
X66727Y-42023D01*
X66698Y-42011D01*
X66460Y-42011D01*
X66240Y-42102D01*
X66071Y-42271D01*
X66011Y-42414D01*
X65986Y-42350D01*
X65917Y-42313D01*
X65876Y-42354D01*
X65876Y-42272D01*
X65839Y-42203D01*
X65663Y-42136D01*
X65475Y-42140D01*
X65319Y-42203D01*
X65282Y-42272D01*
X65579Y-42569D01*
X65876Y-42272D01*
X65876Y-42354D01*
X65620Y-42610D01*
X65917Y-42907D01*
X65986Y-42870D01*
X66011Y-42804D01*
X66071Y-42949D01*
X66232Y-43110D01*
X66071Y-43271D01*
X66061Y-43295D01*
X66061Y-43281D01*
X66061Y-43230D01*
X66041Y-43183D01*
X66005Y-43147D01*
X65958Y-43128D01*
X65876Y-43128D01*
X65876Y-42948D01*
X65579Y-42651D01*
X65538Y-42692D01*
X65538Y-42610D01*
X65241Y-42313D01*
X65172Y-42350D01*
X65105Y-42526D01*
X65109Y-42714D01*
X65172Y-42870D01*
X65241Y-42907D01*
X65538Y-42610D01*
X65538Y-42692D01*
X65282Y-42948D01*
X65319Y-43017D01*
X65495Y-43084D01*
X65683Y-43080D01*
X65839Y-43017D01*
X65876Y-42948D01*
X65876Y-43128D01*
X65640Y-43128D01*
X65608Y-43160D01*
X65608Y-43532D01*
X65608Y-43581D01*
X65608Y-43639D01*
X65608Y-43688D01*
X65608Y-44060D01*
X65640Y-44092D01*
X65958Y-44092D01*
X66005Y-44073D01*
X66041Y-44037D01*
X66061Y-43990D01*
X66061Y-43939D01*
X66061Y-43924D01*
X66071Y-43949D01*
X66240Y-44118D01*
X66460Y-44209D01*
X66698Y-44209D01*
X66918Y-44118D01*
X67079Y-43957D01*
X67240Y-44118D01*
X67460Y-44209D01*
X67698Y-44209D01*
X67918Y-44118D01*
X68079Y-43957D01*
X68240Y-44118D01*
X68460Y-44209D01*
X68698Y-44209D01*
X68918Y-44118D01*
X69079Y-43957D01*
X69240Y-44118D01*
X69460Y-44209D01*
X69698Y-44209D01*
X69918Y-44118D01*
X70079Y-43957D01*
X70240Y-44118D01*
X70345Y-44161D01*
X70345Y-44301D01*
G54D10*
G36*
X70915Y-41112D02*
X70837Y-41112D01*
X70837Y-37112D01*
X70837Y-36971D01*
X70805Y-36939D01*
X70541Y-36939D01*
X70541Y-37183D01*
X70573Y-37215D01*
X70684Y-37215D01*
X70735Y-37215D01*
X70782Y-37195D01*
X70818Y-37159D01*
X70837Y-37112D01*
X70837Y-41112D01*
X69334Y-41112D01*
X69350Y-41109D01*
X69449Y-41043D01*
X70430Y-40060D01*
X70432Y-40059D01*
X70433Y-40059D01*
X70499Y-39960D01*
X70522Y-39843D01*
X70522Y-37678D01*
X70521Y-37677D01*
X70522Y-37677D01*
X70499Y-37561D01*
X70433Y-37462D01*
X70430Y-37460D01*
X70255Y-37284D01*
X70156Y-37218D01*
X70140Y-37215D01*
X70192Y-37215D01*
X70243Y-37215D01*
X70266Y-37205D01*
X70289Y-37215D01*
X70340Y-37215D01*
X70451Y-37215D01*
X70483Y-37183D01*
X70483Y-36939D01*
X70313Y-36939D01*
X70219Y-36939D01*
X70098Y-36939D01*
X70049Y-36939D01*
X69991Y-36939D01*
X69991Y-36881D01*
X70049Y-36881D01*
X70098Y-36881D01*
X70219Y-36881D01*
X70313Y-36881D01*
X70434Y-36881D01*
X70483Y-36881D01*
X70541Y-36881D01*
X70590Y-36881D01*
X70805Y-36881D01*
X70837Y-36849D01*
X70837Y-36800D01*
X70915Y-36878D01*
X70915Y-40178D01*
X70915Y-41112D01*
X70915Y-41112D01*
G37*
G54D11*
X70915Y-41112D02*
X70837Y-41112D01*
X70837Y-37112D01*
X70837Y-36971D01*
X70805Y-36939D01*
X70541Y-36939D01*
X70541Y-37183D01*
X70573Y-37215D01*
X70684Y-37215D01*
X70735Y-37215D01*
X70782Y-37195D01*
X70818Y-37159D01*
X70837Y-37112D01*
X70837Y-41112D01*
X69334Y-41112D01*
X69350Y-41109D01*
X69449Y-41043D01*
X70430Y-40060D01*
X70432Y-40059D01*
X70433Y-40059D01*
X70499Y-39960D01*
X70522Y-39843D01*
X70522Y-37678D01*
X70521Y-37677D01*
X70522Y-37677D01*
X70499Y-37561D01*
X70433Y-37462D01*
X70430Y-37460D01*
X70255Y-37284D01*
X70156Y-37218D01*
X70140Y-37215D01*
X70192Y-37215D01*
X70243Y-37215D01*
X70266Y-37205D01*
X70289Y-37215D01*
X70340Y-37215D01*
X70451Y-37215D01*
X70483Y-37183D01*
X70483Y-36939D01*
X70313Y-36939D01*
X70219Y-36939D01*
X70098Y-36939D01*
X70049Y-36939D01*
X69991Y-36939D01*
X69991Y-36881D01*
X70049Y-36881D01*
X70098Y-36881D01*
X70219Y-36881D01*
X70313Y-36881D01*
X70434Y-36881D01*
X70483Y-36881D01*
X70541Y-36881D01*
X70590Y-36881D01*
X70805Y-36881D01*
X70837Y-36849D01*
X70837Y-36800D01*
X70915Y-36878D01*
X70915Y-40178D01*
X70915Y-41112D01*
G54D10*
G36*
X77165Y-44281D02*
X76850Y-44281D01*
X75076Y-44281D01*
X75076Y-43710D01*
X75076Y-43512D01*
X75001Y-43329D01*
X74861Y-43189D01*
X74679Y-43113D01*
X74481Y-43113D01*
X74298Y-43188D01*
X74158Y-43328D01*
X74082Y-43510D01*
X74082Y-43708D01*
X74157Y-43891D01*
X74297Y-44031D01*
X74479Y-44107D01*
X74677Y-44107D01*
X74860Y-44032D01*
X75000Y-43892D01*
X75076Y-43710D01*
X75076Y-44281D01*
X74076Y-44281D01*
X74076Y-43710D01*
X74076Y-43512D01*
X74001Y-43329D01*
X73861Y-43189D01*
X73679Y-43113D01*
X73481Y-43113D01*
X73298Y-43188D01*
X73158Y-43328D01*
X73082Y-43510D01*
X73082Y-43708D01*
X73157Y-43891D01*
X73297Y-44031D01*
X73479Y-44107D01*
X73677Y-44107D01*
X73860Y-44032D01*
X74000Y-43892D01*
X74076Y-43710D01*
X74076Y-44281D01*
X73327Y-44281D01*
X73076Y-44281D01*
X73076Y-43710D01*
X73076Y-43512D01*
X73001Y-43329D01*
X72861Y-43189D01*
X72679Y-43113D01*
X72481Y-43113D01*
X72298Y-43188D01*
X72158Y-43328D01*
X72082Y-43510D01*
X72082Y-43708D01*
X72157Y-43891D01*
X72297Y-44031D01*
X72479Y-44107D01*
X72677Y-44107D01*
X72860Y-44032D01*
X73000Y-43892D01*
X73076Y-43710D01*
X73076Y-44281D01*
X72076Y-44281D01*
X72076Y-43710D01*
X72076Y-43512D01*
X72001Y-43329D01*
X71861Y-43189D01*
X71679Y-43113D01*
X71481Y-43113D01*
X71298Y-43188D01*
X71158Y-43328D01*
X71082Y-43510D01*
X71082Y-43708D01*
X71157Y-43891D01*
X71297Y-44031D01*
X71479Y-44107D01*
X71677Y-44107D01*
X71860Y-44032D01*
X72000Y-43892D01*
X72076Y-43710D01*
X72076Y-44281D01*
X70541Y-44281D01*
X70541Y-44107D01*
X70677Y-44107D01*
X70860Y-44032D01*
X71000Y-43892D01*
X71076Y-43710D01*
X71076Y-43512D01*
X71001Y-43329D01*
X70861Y-43189D01*
X70679Y-43113D01*
X70541Y-43113D01*
X70541Y-43107D01*
X70677Y-43107D01*
X70860Y-43032D01*
X71000Y-42892D01*
X71076Y-42710D01*
X71076Y-42512D01*
X71032Y-42405D01*
X71152Y-42285D01*
X71201Y-42285D01*
X71158Y-42328D01*
X71082Y-42510D01*
X71082Y-42708D01*
X71157Y-42891D01*
X71297Y-43031D01*
X71479Y-43107D01*
X71677Y-43107D01*
X71860Y-43032D01*
X72000Y-42892D01*
X72076Y-42710D01*
X72076Y-42512D01*
X72036Y-42415D01*
X72082Y-42369D01*
X72123Y-42410D01*
X72082Y-42510D01*
X72082Y-42708D01*
X72157Y-42891D01*
X72297Y-43031D01*
X72479Y-43107D01*
X72677Y-43107D01*
X72860Y-43032D01*
X73000Y-42892D01*
X73076Y-42710D01*
X73076Y-42512D01*
X73001Y-42329D01*
X72861Y-42189D01*
X72679Y-42113D01*
X72481Y-42113D01*
X72382Y-42153D01*
X72368Y-42138D01*
X72368Y-41810D01*
X72368Y-41662D01*
X73121Y-42415D01*
X73082Y-42510D01*
X73082Y-42708D01*
X73157Y-42891D01*
X73297Y-43031D01*
X73479Y-43107D01*
X73677Y-43107D01*
X73860Y-43032D01*
X74000Y-42892D01*
X74076Y-42710D01*
X74076Y-42512D01*
X74001Y-42329D01*
X73961Y-42289D01*
X73999Y-42289D01*
X74122Y-42412D01*
X74082Y-42510D01*
X74082Y-42708D01*
X74157Y-42891D01*
X74297Y-43031D01*
X74479Y-43107D01*
X74677Y-43107D01*
X74860Y-43032D01*
X75000Y-42892D01*
X75076Y-42710D01*
X75076Y-42512D01*
X75001Y-42329D01*
X74861Y-42189D01*
X74679Y-42113D01*
X74481Y-42113D01*
X74381Y-42153D01*
X74204Y-41977D01*
X74145Y-41937D01*
X74075Y-41923D01*
X73412Y-41923D01*
X72682Y-41193D01*
X72682Y-40654D01*
X72682Y-40649D01*
X72683Y-40649D01*
X72683Y-36083D01*
X72682Y-36082D01*
X72669Y-36013D01*
X72668Y-36012D01*
X72655Y-35993D01*
X72629Y-35954D01*
X72629Y-35953D01*
X71889Y-35213D01*
X71889Y-34580D01*
X71875Y-34510D01*
X71835Y-34451D01*
X71835Y-34450D01*
X71134Y-33750D01*
X71075Y-33710D01*
X71005Y-33696D01*
X70850Y-33696D01*
X70831Y-33688D01*
X71488Y-33688D01*
X71488Y-33702D01*
X71489Y-33707D01*
X71489Y-33887D01*
X71511Y-33940D01*
X71551Y-33980D01*
X71603Y-34002D01*
X71660Y-34002D01*
X71778Y-34002D01*
X71831Y-33980D01*
X71871Y-33940D01*
X71876Y-33927D01*
X71890Y-33927D01*
X71890Y-33895D01*
X71893Y-33888D01*
X71893Y-33831D01*
X71893Y-33707D01*
X71894Y-33702D01*
X71894Y-33568D01*
X71894Y-33564D01*
X71895Y-33564D01*
X71893Y-33558D01*
X71893Y-33554D01*
X71893Y-33553D01*
X72097Y-33553D01*
X72135Y-33569D01*
X72192Y-33569D01*
X72270Y-33569D01*
X72308Y-33553D01*
X72879Y-33553D01*
X73293Y-34095D01*
X76850Y-34095D01*
X76850Y-32096D01*
X73294Y-32096D01*
X72880Y-32608D01*
X72287Y-32608D01*
X72287Y-32572D01*
X72287Y-32218D01*
X72265Y-32165D01*
X72225Y-32125D01*
X72173Y-32103D01*
X72116Y-32103D01*
X71722Y-32103D01*
X71669Y-32125D01*
X71629Y-32165D01*
X71607Y-32217D01*
X71607Y-32274D01*
X71607Y-32628D01*
X71629Y-32681D01*
X71669Y-32721D01*
X71721Y-32743D01*
X71744Y-32743D01*
X71744Y-32772D01*
X71722Y-32772D01*
X71604Y-32772D01*
X71596Y-32775D01*
X71486Y-32775D01*
X71486Y-33081D01*
X70984Y-33081D01*
X70984Y-33086D01*
X70549Y-33086D01*
X70541Y-33087D01*
X70541Y-32897D01*
X70812Y-32897D01*
X70850Y-32881D01*
X70885Y-32881D01*
X70885Y-32880D01*
X70955Y-32867D01*
X71014Y-32827D01*
X71526Y-32315D01*
X71566Y-32256D01*
X71579Y-32186D01*
X71580Y-32186D01*
X71580Y-30519D01*
X71580Y-30514D01*
X71581Y-30514D01*
X71582Y-29749D01*
X71681Y-29749D01*
X71806Y-29697D01*
X71902Y-29602D01*
X71954Y-29477D01*
X71954Y-29342D01*
X71902Y-29217D01*
X71807Y-29121D01*
X71682Y-29069D01*
X71547Y-29069D01*
X71423Y-29120D01*
X71423Y-27417D01*
X74048Y-27417D01*
X74048Y-27416D01*
X74118Y-27403D01*
X74177Y-27363D01*
X74708Y-26833D01*
X74708Y-26832D01*
X74734Y-26793D01*
X74747Y-26774D01*
X74748Y-26773D01*
X74751Y-26753D01*
X74860Y-26709D01*
X75000Y-26569D01*
X75076Y-26387D01*
X75076Y-26189D01*
X75076Y-25387D01*
X75076Y-25189D01*
X75001Y-25006D01*
X74861Y-24866D01*
X74679Y-24790D01*
X74481Y-24790D01*
X74298Y-24865D01*
X74158Y-25005D01*
X74082Y-25187D01*
X74082Y-25385D01*
X74157Y-25568D01*
X74297Y-25708D01*
X74479Y-25784D01*
X74677Y-25784D01*
X74860Y-25709D01*
X75000Y-25569D01*
X75076Y-25387D01*
X75076Y-26189D01*
X75001Y-26006D01*
X74861Y-25866D01*
X74679Y-25790D01*
X74481Y-25790D01*
X74298Y-25865D01*
X74158Y-26005D01*
X74082Y-26187D01*
X74082Y-26385D01*
X74157Y-26568D01*
X74297Y-26708D01*
X74309Y-26713D01*
X73972Y-27051D01*
X73491Y-27051D01*
X73708Y-26835D01*
X73708Y-26834D01*
X73734Y-26795D01*
X73747Y-26776D01*
X73748Y-26775D01*
X73752Y-26753D01*
X73860Y-26709D01*
X74000Y-26569D01*
X74076Y-26387D01*
X74076Y-26189D01*
X74076Y-25387D01*
X74076Y-25189D01*
X74001Y-25006D01*
X73861Y-24866D01*
X73679Y-24790D01*
X73481Y-24790D01*
X73298Y-24865D01*
X73158Y-25005D01*
X73082Y-25187D01*
X73082Y-25385D01*
X73157Y-25568D01*
X73297Y-25708D01*
X73479Y-25784D01*
X73677Y-25784D01*
X73860Y-25709D01*
X74000Y-25569D01*
X74076Y-25387D01*
X74076Y-26189D01*
X74001Y-26006D01*
X73861Y-25866D01*
X73679Y-25790D01*
X73481Y-25790D01*
X73298Y-25865D01*
X73158Y-26005D01*
X73082Y-26187D01*
X73082Y-26385D01*
X73157Y-26568D01*
X73297Y-26708D01*
X73311Y-26714D01*
X73141Y-26884D01*
X72653Y-26884D01*
X72708Y-26830D01*
X72708Y-26829D01*
X72734Y-26790D01*
X72747Y-26771D01*
X72748Y-26770D01*
X72751Y-26753D01*
X72860Y-26709D01*
X73000Y-26569D01*
X73076Y-26387D01*
X73076Y-26189D01*
X73076Y-25387D01*
X73076Y-25189D01*
X73001Y-25006D01*
X72861Y-24866D01*
X72679Y-24790D01*
X72481Y-24790D01*
X72298Y-24865D01*
X72158Y-25005D01*
X72082Y-25187D01*
X72082Y-25385D01*
X72157Y-25568D01*
X72297Y-25708D01*
X72479Y-25784D01*
X72677Y-25784D01*
X72860Y-25709D01*
X73000Y-25569D01*
X73076Y-25387D01*
X73076Y-26189D01*
X73001Y-26006D01*
X72861Y-25866D01*
X72679Y-25790D01*
X72481Y-25790D01*
X72298Y-25865D01*
X72158Y-26005D01*
X72082Y-26187D01*
X72082Y-26385D01*
X72157Y-26568D01*
X72297Y-26708D01*
X72308Y-26712D01*
X72293Y-26727D01*
X71816Y-26727D01*
X71860Y-26709D01*
X72000Y-26569D01*
X72076Y-26387D01*
X72076Y-26189D01*
X72076Y-25387D01*
X72076Y-25189D01*
X72001Y-25006D01*
X71861Y-24866D01*
X71679Y-24790D01*
X71481Y-24790D01*
X71298Y-24865D01*
X71158Y-25005D01*
X71082Y-25187D01*
X71082Y-25385D01*
X71157Y-25568D01*
X71297Y-25708D01*
X71479Y-25784D01*
X71677Y-25784D01*
X71860Y-25709D01*
X72000Y-25569D01*
X72076Y-25387D01*
X72076Y-26189D01*
X72001Y-26006D01*
X71861Y-25866D01*
X71679Y-25790D01*
X71481Y-25790D01*
X71298Y-25865D01*
X71158Y-26005D01*
X71082Y-26187D01*
X71082Y-26385D01*
X71122Y-26483D01*
X70793Y-26813D01*
X70793Y-26736D01*
X70860Y-26709D01*
X71000Y-26569D01*
X71076Y-26387D01*
X71076Y-26189D01*
X71001Y-26006D01*
X70861Y-25866D01*
X70679Y-25790D01*
X70541Y-25790D01*
X70541Y-25784D01*
X70677Y-25784D01*
X70860Y-25709D01*
X71000Y-25569D01*
X71076Y-25387D01*
X71076Y-25189D01*
X71001Y-25006D01*
X70861Y-24866D01*
X70679Y-24790D01*
X70541Y-24790D01*
X70541Y-24616D01*
X77165Y-24616D01*
X77165Y-44281D01*
X77165Y-44281D01*
G37*
G54D48*
X77165Y-44281D02*
X76850Y-44281D01*
X75076Y-44281D01*
X75076Y-43710D01*
X75076Y-43512D01*
X75001Y-43329D01*
X74861Y-43189D01*
X74679Y-43113D01*
X74481Y-43113D01*
X74298Y-43188D01*
X74158Y-43328D01*
X74082Y-43510D01*
X74082Y-43708D01*
X74157Y-43891D01*
X74297Y-44031D01*
X74479Y-44107D01*
X74677Y-44107D01*
X74860Y-44032D01*
X75000Y-43892D01*
X75076Y-43710D01*
X75076Y-44281D01*
X74076Y-44281D01*
X74076Y-43710D01*
X74076Y-43512D01*
X74001Y-43329D01*
X73861Y-43189D01*
X73679Y-43113D01*
X73481Y-43113D01*
X73298Y-43188D01*
X73158Y-43328D01*
X73082Y-43510D01*
X73082Y-43708D01*
X73157Y-43891D01*
X73297Y-44031D01*
X73479Y-44107D01*
X73677Y-44107D01*
X73860Y-44032D01*
X74000Y-43892D01*
X74076Y-43710D01*
X74076Y-44281D01*
X73327Y-44281D01*
X73076Y-44281D01*
X73076Y-43710D01*
X73076Y-43512D01*
X73001Y-43329D01*
X72861Y-43189D01*
X72679Y-43113D01*
X72481Y-43113D01*
X72298Y-43188D01*
X72158Y-43328D01*
X72082Y-43510D01*
X72082Y-43708D01*
X72157Y-43891D01*
X72297Y-44031D01*
X72479Y-44107D01*
X72677Y-44107D01*
X72860Y-44032D01*
X73000Y-43892D01*
X73076Y-43710D01*
X73076Y-44281D01*
X72076Y-44281D01*
X72076Y-43710D01*
X72076Y-43512D01*
X72001Y-43329D01*
X71861Y-43189D01*
X71679Y-43113D01*
X71481Y-43113D01*
X71298Y-43188D01*
X71158Y-43328D01*
X71082Y-43510D01*
X71082Y-43708D01*
X71157Y-43891D01*
X71297Y-44031D01*
X71479Y-44107D01*
X71677Y-44107D01*
X71860Y-44032D01*
X72000Y-43892D01*
X72076Y-43710D01*
X72076Y-44281D01*
X70541Y-44281D01*
X70541Y-44107D01*
X70677Y-44107D01*
X70860Y-44032D01*
X71000Y-43892D01*
X71076Y-43710D01*
X71076Y-43512D01*
X71001Y-43329D01*
X70861Y-43189D01*
X70679Y-43113D01*
X70541Y-43113D01*
X70541Y-43107D01*
X70677Y-43107D01*
X70860Y-43032D01*
X71000Y-42892D01*
X71076Y-42710D01*
X71076Y-42512D01*
X71032Y-42405D01*
X71152Y-42285D01*
X71201Y-42285D01*
X71158Y-42328D01*
X71082Y-42510D01*
X71082Y-42708D01*
X71157Y-42891D01*
X71297Y-43031D01*
X71479Y-43107D01*
X71677Y-43107D01*
X71860Y-43032D01*
X72000Y-42892D01*
X72076Y-42710D01*
X72076Y-42512D01*
X72036Y-42415D01*
X72082Y-42369D01*
X72123Y-42410D01*
X72082Y-42510D01*
X72082Y-42708D01*
X72157Y-42891D01*
X72297Y-43031D01*
X72479Y-43107D01*
X72677Y-43107D01*
X72860Y-43032D01*
X73000Y-42892D01*
X73076Y-42710D01*
X73076Y-42512D01*
X73001Y-42329D01*
X72861Y-42189D01*
X72679Y-42113D01*
X72481Y-42113D01*
X72382Y-42153D01*
X72368Y-42138D01*
X72368Y-41810D01*
X72368Y-41662D01*
X73121Y-42415D01*
X73082Y-42510D01*
X73082Y-42708D01*
X73157Y-42891D01*
X73297Y-43031D01*
X73479Y-43107D01*
X73677Y-43107D01*
X73860Y-43032D01*
X74000Y-42892D01*
X74076Y-42710D01*
X74076Y-42512D01*
X74001Y-42329D01*
X73961Y-42289D01*
X73999Y-42289D01*
X74122Y-42412D01*
X74082Y-42510D01*
X74082Y-42708D01*
X74157Y-42891D01*
X74297Y-43031D01*
X74479Y-43107D01*
X74677Y-43107D01*
X74860Y-43032D01*
X75000Y-42892D01*
X75076Y-42710D01*
X75076Y-42512D01*
X75001Y-42329D01*
X74861Y-42189D01*
X74679Y-42113D01*
X74481Y-42113D01*
X74381Y-42153D01*
X74204Y-41977D01*
X74145Y-41937D01*
X74075Y-41923D01*
X73412Y-41923D01*
X72682Y-41193D01*
X72682Y-40654D01*
X72682Y-40649D01*
X72683Y-40649D01*
X72683Y-36083D01*
X72682Y-36082D01*
X72669Y-36013D01*
X72668Y-36012D01*
X72655Y-35993D01*
X72629Y-35954D01*
X72629Y-35953D01*
X71889Y-35213D01*
X71889Y-34580D01*
X71875Y-34510D01*
X71835Y-34451D01*
X71835Y-34450D01*
X71134Y-33750D01*
X71075Y-33710D01*
X71005Y-33696D01*
X70850Y-33696D01*
X70831Y-33688D01*
X71488Y-33688D01*
X71488Y-33702D01*
X71489Y-33707D01*
X71489Y-33887D01*
X71511Y-33940D01*
X71551Y-33980D01*
X71603Y-34002D01*
X71660Y-34002D01*
X71778Y-34002D01*
X71831Y-33980D01*
X71871Y-33940D01*
X71876Y-33927D01*
X71890Y-33927D01*
X71890Y-33895D01*
X71893Y-33888D01*
X71893Y-33831D01*
X71893Y-33707D01*
X71894Y-33702D01*
X71894Y-33568D01*
X71894Y-33564D01*
X71895Y-33564D01*
X71893Y-33558D01*
X71893Y-33554D01*
X71893Y-33553D01*
X72097Y-33553D01*
X72135Y-33569D01*
X72192Y-33569D01*
X72270Y-33569D01*
X72308Y-33553D01*
X72879Y-33553D01*
X73293Y-34095D01*
X76850Y-34095D01*
X76850Y-32096D01*
X73294Y-32096D01*
X72880Y-32608D01*
X72287Y-32608D01*
X72287Y-32572D01*
X72287Y-32218D01*
X72265Y-32165D01*
X72225Y-32125D01*
X72173Y-32103D01*
X72116Y-32103D01*
X71722Y-32103D01*
X71669Y-32125D01*
X71629Y-32165D01*
X71607Y-32217D01*
X71607Y-32274D01*
X71607Y-32628D01*
X71629Y-32681D01*
X71669Y-32721D01*
X71721Y-32743D01*
X71744Y-32743D01*
X71744Y-32772D01*
X71722Y-32772D01*
X71604Y-32772D01*
X71596Y-32775D01*
X71486Y-32775D01*
X71486Y-33081D01*
X70984Y-33081D01*
X70984Y-33086D01*
X70549Y-33086D01*
X70541Y-33087D01*
X70541Y-32897D01*
X70812Y-32897D01*
X70850Y-32881D01*
X70885Y-32881D01*
X70885Y-32880D01*
X70955Y-32867D01*
X71014Y-32827D01*
X71526Y-32315D01*
X71566Y-32256D01*
X71579Y-32186D01*
X71580Y-32186D01*
X71580Y-30519D01*
X71580Y-30514D01*
X71581Y-30514D01*
X71582Y-29749D01*
X71681Y-29749D01*
X71806Y-29697D01*
X71902Y-29602D01*
X71954Y-29477D01*
X71954Y-29342D01*
X71902Y-29217D01*
X71807Y-29121D01*
X71682Y-29069D01*
X71547Y-29069D01*
X71423Y-29120D01*
X71423Y-27417D01*
X74048Y-27417D01*
X74048Y-27416D01*
X74118Y-27403D01*
X74177Y-27363D01*
X74708Y-26833D01*
X74708Y-26832D01*
X74734Y-26793D01*
X74747Y-26774D01*
X74748Y-26773D01*
X74751Y-26753D01*
X74860Y-26709D01*
X75000Y-26569D01*
X75076Y-26387D01*
X75076Y-26189D01*
X75076Y-25387D01*
X75076Y-25189D01*
X75001Y-25006D01*
X74861Y-24866D01*
X74679Y-24790D01*
X74481Y-24790D01*
X74298Y-24865D01*
X74158Y-25005D01*
X74082Y-25187D01*
X74082Y-25385D01*
X74157Y-25568D01*
X74297Y-25708D01*
X74479Y-25784D01*
X74677Y-25784D01*
X74860Y-25709D01*
X75000Y-25569D01*
X75076Y-25387D01*
X75076Y-26189D01*
X75001Y-26006D01*
X74861Y-25866D01*
X74679Y-25790D01*
X74481Y-25790D01*
X74298Y-25865D01*
X74158Y-26005D01*
X74082Y-26187D01*
X74082Y-26385D01*
X74157Y-26568D01*
X74297Y-26708D01*
X74309Y-26713D01*
X73972Y-27051D01*
X73491Y-27051D01*
X73708Y-26835D01*
X73708Y-26834D01*
X73734Y-26795D01*
X73747Y-26776D01*
X73748Y-26775D01*
X73752Y-26753D01*
X73860Y-26709D01*
X74000Y-26569D01*
X74076Y-26387D01*
X74076Y-26189D01*
X74076Y-25387D01*
X74076Y-25189D01*
X74001Y-25006D01*
X73861Y-24866D01*
X73679Y-24790D01*
X73481Y-24790D01*
X73298Y-24865D01*
X73158Y-25005D01*
X73082Y-25187D01*
X73082Y-25385D01*
X73157Y-25568D01*
X73297Y-25708D01*
X73479Y-25784D01*
X73677Y-25784D01*
X73860Y-25709D01*
X74000Y-25569D01*
X74076Y-25387D01*
X74076Y-26189D01*
X74001Y-26006D01*
X73861Y-25866D01*
X73679Y-25790D01*
X73481Y-25790D01*
X73298Y-25865D01*
X73158Y-26005D01*
X73082Y-26187D01*
X73082Y-26385D01*
X73157Y-26568D01*
X73297Y-26708D01*
X73311Y-26714D01*
X73141Y-26884D01*
X72653Y-26884D01*
X72708Y-26830D01*
X72708Y-26829D01*
X72734Y-26790D01*
X72747Y-26771D01*
X72748Y-26770D01*
X72751Y-26753D01*
X72860Y-26709D01*
X73000Y-26569D01*
X73076Y-26387D01*
X73076Y-26189D01*
X73076Y-25387D01*
X73076Y-25189D01*
X73001Y-25006D01*
X72861Y-24866D01*
X72679Y-24790D01*
X72481Y-24790D01*
X72298Y-24865D01*
X72158Y-25005D01*
X72082Y-25187D01*
X72082Y-25385D01*
X72157Y-25568D01*
X72297Y-25708D01*
X72479Y-25784D01*
X72677Y-25784D01*
X72860Y-25709D01*
X73000Y-25569D01*
X73076Y-25387D01*
X73076Y-26189D01*
X73001Y-26006D01*
X72861Y-25866D01*
X72679Y-25790D01*
X72481Y-25790D01*
X72298Y-25865D01*
X72158Y-26005D01*
X72082Y-26187D01*
X72082Y-26385D01*
X72157Y-26568D01*
X72297Y-26708D01*
X72308Y-26712D01*
X72293Y-26727D01*
X71816Y-26727D01*
X71860Y-26709D01*
X72000Y-26569D01*
X72076Y-26387D01*
X72076Y-26189D01*
X72076Y-25387D01*
X72076Y-25189D01*
X72001Y-25006D01*
X71861Y-24866D01*
X71679Y-24790D01*
X71481Y-24790D01*
X71298Y-24865D01*
X71158Y-25005D01*
X71082Y-25187D01*
X71082Y-25385D01*
X71157Y-25568D01*
X71297Y-25708D01*
X71479Y-25784D01*
X71677Y-25784D01*
X71860Y-25709D01*
X72000Y-25569D01*
X72076Y-25387D01*
X72076Y-26189D01*
X72001Y-26006D01*
X71861Y-25866D01*
X71679Y-25790D01*
X71481Y-25790D01*
X71298Y-25865D01*
X71158Y-26005D01*
X71082Y-26187D01*
X71082Y-26385D01*
X71122Y-26483D01*
X70793Y-26813D01*
X70793Y-26736D01*
X70860Y-26709D01*
X71000Y-26569D01*
X71076Y-26387D01*
X71076Y-26189D01*
X71001Y-26006D01*
X70861Y-25866D01*
X70679Y-25790D01*
X70541Y-25790D01*
X70541Y-25784D01*
X70677Y-25784D01*
X70860Y-25709D01*
X71000Y-25569D01*
X71076Y-25387D01*
X71076Y-25189D01*
X71001Y-25006D01*
X70861Y-24866D01*
X70679Y-24790D01*
X70541Y-24790D01*
X70541Y-24616D01*
X77165Y-24616D01*
X77165Y-44281D01*
M02*
