<?xml version="1.0" standalone="no"?>
 <!DOCTYPE svg PUBLIC "-//W3C//DTD SVG 1.1//EN" 
 "http://www.w3.org/Graphics/SVG/1.1/DTD/svg11.dtd"> 
<svg xmlns="http://www.w3.org/2000/svg" version="1.1" 
    width="29.7002cm" height="21.0007cm" viewBox="0 0 116930 82680 ">
<title>SVG Picture created as rfAtmega128-Edge_Cuts.svg date 2013/01/07 10:59:33 </title>
  <desc>Picture generated by PCBNEW </desc>
<g style="fill:#000000; fill-opacity:1;stroke:#000000; stroke-opacity:1;
stroke-linecap:round; stroke-linejoin:round; "
 transform="translate(0 0) scale(1 1)">
</g>
<g style="fill:#000000; fill-opacity:0.0; 
stroke:#000000; stroke-width:98; stroke-opacity:1; 
stroke-linecap:round; stroke-linejoin:round;">
<path d="M73768 44982
L73768 44588
L73918 44588
L73956 44607
L73975 44626
L73993 44663
L73993 44719
L73975 44757
L73956 44776
L73918 44794
L73768 44794
" />
<path d="M74387 44944
L74369 44963
L74312 44982
L74275 44982
L74218 44963
L74181 44926
L74162 44888
L74143 44813
L74143 44757
L74162 44682
L74181 44644
L74218 44607
L74275 44588
L74312 44588
L74369 44607
L74387 44626
" />
<path d="M74687 44776
L74744 44794
L74763 44813
L74781 44851
L74781 44907
L74763 44944
L74744 44963
L74706 44982
L74556 44982
L74556 44588
L74687 44588
L74725 44607
L74744 44626
L74763 44663
L74763 44701
L74744 44738
L74725 44757
L74687 44776
L74556 44776
" />
<path d="M75250 44776
L75382 44776
" />
<path d="M75438 44982
L75250 44982
L75250 44588
L75438 44588
" />
<path d="M75607 44982
L75607 44588
L75701 44588
L75757 44607
L75794 44644
L75813 44682
L75832 44757
L75832 44813
L75813 44888
L75794 44926
L75757 44963
L75701 44982
L75607 44982
" />
<path d="M76207 44607
L76170 44588
L76113 44588
L76057 44607
L76020 44644
L76001 44682
L75982 44757
L75982 44813
L76001 44888
L76020 44926
L76057 44963
L76113 44982
L76151 44982
L76207 44963
L76226 44944
L76226 44813
L76151 44813
" />
<path d="M76395 44776
L76526 44776
" />
<path d="M76582 44982
L76395 44982
L76395 44588
L76582 44588
" />
<path d="M76733 44963
L76789 44982
L76883 44982
L76920 44963
L76939 44944
L76958 44907
L76958 44869
L76939 44832
L76920 44813
L76883 44794
L76808 44776
L76770 44757
L76751 44738
L76733 44701
L76733 44663
L76751 44626
L76770 44607
L76808 44588
L76901 44588
L76958 44607
" />
</g> 
</svg>
