<?xml version="1.0" standalone="no"?>
 <!DOCTYPE svg PUBLIC "-//W3C//DTD SVG 1.1//EN" 
 "http://www.w3.org/Graphics/SVG/1.1/DTD/svg11.dtd"> 
<svg xmlns="http://www.w3.org/2000/svg" version="1.1" 
    width="29.7002cm" height="21.0007cm" viewBox="0 0 116930 82680 ">
<title>SVG Picture created as rfAtmega128-B_SilkS.svg date 2013/01/07 10:59:33 </title>
  <desc>Picture generated by PCBNEW </desc>
<g style="fill:#000000; fill-opacity:1;stroke:#000000; stroke-opacity:1;
stroke-linecap:round; stroke-linejoin:round; "
 transform="translate(0 0) scale(1 1)">
</g>
<g style="fill:#000000; fill-opacity:0.0; 
stroke:#000000; stroke-width:295; stroke-opacity:1; 
stroke-linecap:round; stroke-linejoin:round;">
<path d="M74941 38001
L75335 37064
" />
<path d="M75616 38001
L75616 36032
L75166 36032
L75054 36126
L74997 36220
L74941 36408
L74941 36689
L74997 36876
L75054 36970
L75166 37064
L75616 37064
" />
<path d="M74041 36970
L74435 36970
" />
<path d="M74435 38001
L74435 36032
L73873 36032
" />
<path d="M73479 37439
L72916 37439
" />
<path d="M73591 38001
L73198 36032
L72804 38001
" />
<path d="M72579 36032
L71904 36032
" />
<path d="M72242 38001
L72242 36032
" />
<path d="M71511 38001
L71511 36032
L71117 37439
L70723 36032
L70723 38001
" />
<path d="M70161 36970
L69767 36970
" />
<path d="M69598 38001
L70161 38001
L70161 36032
L69598 36032
" />
<path d="M68474 36126
L68586 36032
L68755 36032
L68924 36126
L69036 36314
L69092 36501
L69149 36876
L69149 37158
L69092 37533
L69036 37720
L68924 37908
L68755 38001
L68642 38001
L68474 37908
L68417 37814
L68417 37158
L68642 37158
" />
<path d="M67968 37439
L67405 37439
" />
<path d="M68080 38001
L67686 36032
L67293 38001
" />
<path d="M66280 38001
L66955 38001
" />
<path d="M66618 38001
L66618 36032
L66730 36314
L66843 36501
L66955 36595
" />
<path d="M65830 36220
L65774 36126
L65662 36032
L65381 36032
L65268 36126
L65212 36220
L65156 36408
L65156 36595
L65212 36876
L65887 38001
L65156 38001
" />
<path d="M64481 36876
L64593 36783
L64649 36689
L64706 36501
L64706 36408
L64649 36220
L64593 36126
L64481 36032
L64256 36032
L64143 36126
L64087 36220
L64031 36408
L64031 36501
L64087 36689
L64143 36783
L64256 36876
L64481 36876
L64593 36970
L64649 37064
L64706 37251
L64706 37626
L64649 37814
L64593 37908
L64481 38001
L64256 38001
L64143 37908
L64087 37814
L64031 37626
L64031 37251
L64087 37064
L64143 36970
L64256 36876
" />
</g>
<g style="fill:#000000; fill-opacity:0.0; 
stroke:#000000; stroke-width:98; stroke-opacity:1; 
stroke-linecap:round; stroke-linejoin:round;">
<path d="M63574 27324
L63574 26930
L63424 26930
L63387 26949
L63368 26968
L63349 27005
L63349 27061
L63368 27099
L63387 27118
L63424 27136
L63574 27136
" />
<path d="M63218 26930
L63124 27324
L63049 27043
L62974 27324
L62880 26930
" />
<path d="M62505 27324
L62636 27136
" />
<path d="M62730 27324
L62730 26930
L62580 26930
L62542 26949
L62523 26968
L62505 27005
L62505 27061
L62523 27099
L62542 27118
L62580 27136
L62730 27136
" />
<path d="M62430 27362
L62129 27362
" />
<path d="M62054 27211
L61867 27211
" />
<path d="M62092 27324
L61961 26930
L61829 27324
" />
<path d="M61754 26930
L61529 26930
" />
<path d="M61642 27324
L61642 26930
" />
<path d="M61398 27324
L61398 26930
L61266 27211
L61135 26930
L61135 27324
" />
<path d="M60947 27118
L60816 27118
" />
<path d="M60760 27324
L60947 27324
L60947 26930
L60760 26930
" />
<path d="M60385 26949
L60422 26930
L60478 26930
L60535 26949
L60572 26986
L60591 27024
L60610 27099
L60610 27155
L60591 27230
L60572 27268
L60535 27305
L60478 27324
L60441 27324
L60385 27305
L60366 27286
L60366 27155
L60441 27155
" />
<path d="M60216 27211
L60028 27211
" />
<path d="M60253 27324
L60122 26930
L59991 27324
" />
<path d="M62111 27598
L62148 27580
L62204 27580
L62261 27598
L62298 27636
L62317 27673
L62336 27748
L62336 27805
L62317 27880
L62298 27917
L62261 27955
L62204 27974
L62167 27974
L62111 27955
L62092 27936
L62092 27805
L62167 27805
" />
<path d="M61923 27974
L61923 27580
L61698 27974
L61698 27580
" />
<path d="M61510 27974
L61510 27580
L61417 27580
L61360 27598
L61323 27636
L61304 27673
L61285 27748
L61285 27805
L61304 27880
L61323 27917
L61360 27955
L61417 27974
L61510 27974
" />
<path d="M67848 41891
L67848 41497
L67698 41497
L67660 41516
L67641 41535
L67623 41572
L67623 41628
L67641 41666
L67660 41685
L67698 41703
L67848 41703
" />
<path d="M67491 41497
L67398 41891
L67323 41610
L67247 41891
L67154 41497
" />
<path d="M66778 41891
L66910 41703
" />
<path d="M67004 41891
L67004 41497
L66853 41497
L66816 41516
L66797 41535
L66778 41572
L66778 41628
L66797 41666
L66816 41685
L66853 41703
L67004 41703
" />
<path d="M66048 41516
L66085 41497
L66141 41497
L66198 41516
L66235 41553
L66254 41591
L66273 41666
L66273 41722
L66254 41797
L66235 41835
L66198 41872
L66141 41891
L66104 41891
L66048 41872
L66029 41853
L66029 41722
L66104 41722
" />
<path d="M65860 41891
L65860 41497
L65635 41891
L65635 41497
" />
<path d="M65447 41891
L65447 41497
L65354 41497
L65297 41516
L65260 41553
L65241 41591
L65222 41666
L65222 41722
L65241 41797
L65260 41835
L65297 41872
L65354 41891
L65447 41891
" />
<path d="M74318 28112
L74318 27718
L74168 27718
L74130 27737
L74111 27756
L74093 27793
L74093 27849
L74111 27887
L74130 27906
L74168 27924
L74318 27924
" />
<path d="M73717 27737
L73755 27718
L73811 27718
L73867 27737
L73905 27774
L73924 27812
L73942 27887
L73942 27943
L73924 28018
L73905 28056
L73867 28093
L73811 28112
L73774 28112
L73717 28093
L73699 28074
L73699 27943
L73774 27943
" />
<path d="M73455 27718
L73417 27718
L73380 27737
L73361 27756
L73342 27793
L73323 27868
L73323 27962
L73342 28037
L73361 28074
L73380 28093
L73417 28112
L73455 28112
L73492 28093
L73511 28074
L73530 28037
L73548 27962
L73548 27868
L73530 27793
L73511 27756
L73492 27737
L73455 27718
" />
<path d="M72854 27962
L72554 27962
" />
<path d="M72066 28112
L72066 27718
L71916 27718
L71879 27737
L71860 27756
L71841 27793
L71841 27849
L71860 27887
L71879 27906
L71916 27924
L72066 27924
" />
<path d="M71466 27737
L71503 27718
L71560 27718
L71616 27737
L71654 27774
L71672 27812
L71691 27887
L71691 27943
L71672 28018
L71654 28056
L71616 28093
L71560 28112
L71522 28112
L71466 28093
L71447 28074
L71447 27943
L71522 27943
" />
<path d="M71091 27718
L71278 27718
L71297 27906
L71278 27887
L71241 27868
L71147 27868
L71109 27887
L71091 27906
L71072 27943
L71072 28037
L71091 28074
L71109 28093
L71147 28112
L71241 28112
L71278 28093
L71297 28074
" />
<path d="M70603 28112
L70603 27718
L70509 27718
L70453 27737
L70415 27774
L70396 27812
L70378 27887
L70378 27943
L70396 28018
L70415 28056
L70453 28093
L70509 28112
L70603 28112
" />
<path d="M70228 27756
L70209 27737
L70171 27718
L70078 27718
L70040 27737
L70021 27756
L70002 27793
L70002 27831
L70021 27887
L70246 28112
L70002 28112
" />
<path d="M69627 28112
L69852 28112
" />
<path d="M69740 28112
L69740 27718
L69777 27774
L69815 27812
L69852 27831
" />
<path d="M69158 27962
L68858 27962
" />
<path d="M68370 28112
L68370 27718
L68276 27718
L68220 27737
L68183 27774
L68164 27812
L68145 27887
L68145 27943
L68164 28018
L68183 28056
L68220 28093
L68276 28112
L68370 28112
" />
<path d="M67770 28112
L67995 28112
" />
<path d="M67882 28112
L67882 27718
L67920 27774
L67957 27812
L67995 27831
" />
<path d="M67545 27887
L67582 27868
L67601 27849
L67620 27812
L67620 27793
L67601 27756
L67582 27737
L67545 27718
L67470 27718
L67432 27737
L67413 27756
L67395 27793
L67395 27812
L67413 27849
L67432 27868
L67470 27887
L67545 27887
L67582 27906
L67601 27924
L67620 27962
L67620 28037
L67601 28074
L67582 28093
L67545 28112
L67470 28112
L67432 28093
L67413 28074
L67395 28037
L67395 27962
L67413 27924
L67432 27906
L67470 27887
" />
<path d="M73660 41891
L73660 41497
L73566 41497
L73510 41516
L73472 41553
L73454 41591
L73435 41666
L73435 41722
L73454 41797
L73472 41835
L73510 41872
L73566 41891
L73660 41891
" />
<path d="M73304 41497
L73041 41497
L73210 41891
" />
<path d="M72591 41741
L72290 41741
" />
<path d="M71803 41891
L71803 41497
L71709 41497
L71653 41516
L71615 41553
L71596 41591
L71577 41666
L71577 41722
L71596 41797
L71615 41835
L71653 41872
L71709 41891
L71803 41891
" />
<path d="M71427 41535
L71409 41516
L71371 41497
L71277 41497
L71240 41516
L71221 41535
L71202 41572
L71202 41610
L71221 41666
L71446 41891
L71202 41891
" />
<path d="M70378 41497
L70153 41497
" />
<path d="M70265 41891
L70265 41497
" />
<path d="M70059 41497
L69796 41891
" />
<path d="M69796 41497
L70059 41891
" />
<path d="M68962 41891
L69094 41703
" />
<path d="M69187 41891
L69187 41497
L69037 41497
L69000 41516
L68981 41535
L68962 41572
L68962 41628
L68981 41666
L69000 41685
L69037 41703
L69187 41703
" />
<path d="M68831 41497
L68568 41891
" />
<path d="M68568 41497
L68831 41891
" />
<path d="M74242 27324
L74242 26930
L74148 26930
L74092 26949
L74054 26986
L74035 27024
L74017 27099
L74017 27155
L74035 27230
L74054 27268
L74092 27305
L74148 27324
L74242 27324
" />
<path d="M73791 27099
L73829 27080
L73848 27061
L73866 27024
L73866 27005
L73848 26968
L73829 26949
L73791 26930
L73716 26930
L73679 26949
L73660 26968
L73641 27005
L73641 27024
L73660 27061
L73679 27080
L73716 27099
L73791 27099
L73829 27118
L73848 27136
L73866 27174
L73866 27249
L73848 27286
L73829 27305
L73791 27324
L73716 27324
L73679 27305
L73660 27286
L73641 27249
L73641 27174
L73660 27136
L73679 27118
L73716 27099
" />
<path d="M73172 27174
L72872 27174
" />
<path d="M72384 27324
L72384 26930
L72290 26930
L72234 26949
L72197 26986
L72178 27024
L72159 27099
L72159 27155
L72178 27230
L72197 27268
L72234 27305
L72290 27324
L72384 27324
" />
<path d="M71784 27324
L72009 27324
" />
<path d="M71896 27324
L71896 26930
L71934 26986
L71971 27024
L72009 27043
" />
<path d="M71652 26930
L71390 26930
L71559 27324
" />
<path d="M73623 40991
L73435 40991
" />
<path d="M73660 41104
L73529 40710
L73397 41104
" />
<path d="M73266 41104
L73266 40710
L73172 40710
L73116 40729
L73078 40766
L73060 40804
L73041 40879
L73041 40935
L73060 41010
L73078 41048
L73116 41085
L73172 41104
L73266 41104
" />
<path d="M72647 41066
L72666 41085
L72722 41104
L72759 41104
L72816 41085
L72853 41048
L72872 41010
L72891 40935
L72891 40879
L72872 40804
L72853 40766
L72816 40729
L72759 40710
L72722 40710
L72666 40729
L72647 40748
" />
<path d="M72516 40710
L72253 40710
L72422 41104
" />
<path d="M71803 40954
L71502 40954
" />
<path d="M71033 40991
L70846 40991
" />
<path d="M71071 41104
L70940 40710
L70808 41104
" />
<path d="M70677 41104
L70677 40710
L70583 40710
L70527 40729
L70489 40766
L70471 40804
L70452 40879
L70452 40935
L70471 41010
L70489 41048
L70527 41085
L70583 41104
L70677 41104
" />
<path d="M70058 41066
L70077 41085
L70133 41104
L70170 41104
L70227 41085
L70264 41048
L70283 41010
L70302 40935
L70302 40879
L70283 40804
L70264 40766
L70227 40729
L70170 40710
L70133 40710
L70077 40729
L70058 40748
" />
<path d="M69814 40710
L69776 40710
L69739 40729
L69720 40748
L69701 40785
L69683 40860
L69683 40954
L69701 41029
L69720 41066
L69739 41085
L69776 41104
L69814 41104
L69851 41085
L69870 41066
L69889 41029
L69908 40954
L69908 40860
L69889 40785
L69870 40748
L69851 40729
L69814 40710
" />
<path d="M67960 40991
L67773 40991
" />
<path d="M67998 41104
L67867 40710
L67735 41104
" />
<path d="M67379 41104
L67510 40916
" />
<path d="M67604 41104
L67604 40710
L67454 40710
L67416 40729
L67398 40748
L67379 40785
L67379 40841
L67398 40879
L67416 40898
L67454 40916
L67604 40916
" />
<path d="M67210 40898
L67079 40898
" />
<path d="M67022 41104
L67210 41104
L67210 40710
L67022 40710
" />
<path d="M66722 40898
L66853 40898
" />
<path d="M66853 41104
L66853 40710
L66666 40710
" />
<path d="M66048 40729
L66085 40710
L66141 40710
L66198 40729
L66235 40766
L66254 40804
L66273 40879
L66273 40935
L66254 41010
L66235 41048
L66198 41085
L66141 41104
L66104 41104
L66048 41085
L66029 41066
L66029 40935
L66104 40935
" />
<path d="M65860 41104
L65860 40710
L65635 41104
L65635 40710
" />
<path d="M65447 41104
L65447 40710
L65354 40710
L65297 40729
L65260 40766
L65241 40804
L65222 40879
L65222 40935
L65241 41010
L65260 41048
L65297 41085
L65354 41104
L65447 41104
" />
</g>
<g style="fill:#000000; fill-opacity:0.0; 
stroke:#000000; stroke-width:4; stroke-opacity:1; 
stroke-linecap:round; stroke-linejoin:round;">
<path d="M77244 44272
L77244 24606
" />
<path d="M50640 24606
L50640 44272
" />
<path d="M50640 44272
L77244 44272
" />
<path d="M50640 24606
L77244 24606
" />
</g>
<g style="fill:#000000; fill-opacity:0.0; 
stroke:#000000; stroke-width:50; stroke-opacity:1; 
stroke-linecap:round; stroke-linejoin:round;">
<path d="M63315 37707
L63315 38907
" />
<path d="M63315 38907
L63615 38907
" />
<path d="M63615 38907
L63615 37707
" />
<path d="M63615 37707
L63315 37707
" />
<path d="M58176 31657
L57856 31657
" />
<path d="M57866 31217
L58176 31217
" />
<path d="M57856 31117
L57856 31757
" />
<path d="M57856 31757
L58176 31757
" />
<path d="M58176 31757
L58176 31117
" />
<path d="M58176 31117
L57856 31117
" />
<path d="M63718 38993
L64038 38993
" />
<path d="M64028 39433
L63718 39433
" />
<path d="M64038 39533
L64038 38893
" />
<path d="M64038 38893
L63718 38893
" />
<path d="M63718 38893
L63718 39533
" />
<path d="M63718 39533
L64038 39533
" />
<path d="M64210 38993
L64530 38993
" />
<path d="M64520 39433
L64210 39433
" />
<path d="M64530 39533
L64530 38893
" />
<path d="M64530 38893
L64210 38893
" />
<path d="M64210 38893
L64210 39533
" />
<path d="M64210 39533
L64530 39533
" />
<path d="M56281 42114
L57301 42114
" />
<path d="M57301 42019
L56281 42019
" />
<path d="M56281 42069
L57301 42069
" />
<path d="M56281 41969
L57301 41969
" />
<path d="M56281 40549
L57301 40549
" />
<path d="M57301 40549
L57301 42599
" />
<path d="M57301 42599
L56281 42599
" />
<path d="M56281 42599
L56281 40549
" />
<path d="M58304 33063
L58304 32743
" />
<path d="M58744 32753
L58744 33063
" />
<path d="M58844 32743
L58204 32743
" />
<path d="M58204 32743
L58204 33063
" />
<path d="M58204 33063
L58844 33063
" />
<path d="M58844 33063
L58844 32743
" />
</g>
<g style="fill:#000000; fill-opacity:0.0; 
stroke:#000000; stroke-width:75; stroke-opacity:1; 
stroke-linecap:round; stroke-linejoin:round;">
<path d="M63600 37261
L63600 37504
L63586 37532
L63571 37547
L63543 37561
L63486 37561
L63457 37547
L63443 37532
L63429 37504
L63429 37261
" />
<path d="M63129 37561
L63300 37561
" />
<path d="M63214 37561
L63214 37261
L63243 37304
L63271 37332
L63300 37347
" />
<path d="M62871 37361
L62871 37561
" />
<path d="M62943 37247
L63014 37461
L62829 37461
" />
</g>
<g style="fill:#000000; fill-opacity:0.0; 
stroke:#000000; stroke-width:79; stroke-opacity:1; 
stroke-linecap:round; stroke-linejoin:round;">
</g>
<g style="fill:#000000; fill-opacity:0.0; 
stroke:#000000; stroke-width:78.75; stroke-opacity:1; 
stroke-linecap:round; stroke-linejoin:round;">
<path d="M58601 31204
L58451 31099
" />
<path d="M58601 31024
L58286 31024
L58286 31144
L58301 31174
L58316 31189
L58346 31204
L58391 31204
L58421 31189
L58436 31174
L58451 31144
L58451 31024
" />
<path d="M58601 31504
L58601 31324
" />
<path d="M58601 31414
L58286 31414
L58331 31384
L58361 31354
L58376 31324
" />
<path d="M58316 31624
L58301 31639
L58286 31669
L58286 31744
L58301 31774
L58316 31789
L58346 31804
L58376 31804
L58421 31789
L58601 31609
L58601 31804
" />
</g>
<g style="fill:#000000; fill-opacity:0.0; 
stroke:#000000; stroke-width:79; stroke-opacity:1; 
stroke-linecap:round; stroke-linejoin:round;">
</g>
<g style="fill:#000000; fill-opacity:0.0; 
stroke:#000000; stroke-width:78.75; stroke-opacity:1; 
stroke-linecap:round; stroke-linejoin:round;">
<path d="M64034 39954
L63884 39849
" />
<path d="M64034 39774
L63719 39774
L63719 39894
L63734 39924
L63749 39939
L63779 39954
L63824 39954
L63854 39939
L63869 39924
L63884 39894
L63884 39774
" />
<path d="M64034 40254
L64034 40074
" />
<path d="M64034 40164
L63719 40164
L63764 40134
L63794 40104
L63809 40074
" />
<path d="M63719 40524
L63719 40464
L63734 40434
L63749 40419
L63794 40389
L63854 40374
L63974 40374
L64004 40389
L64019 40404
L64034 40434
L64034 40494
L64019 40524
L64004 40539
L63974 40554
L63899 40554
L63869 40539
L63854 40524
L63839 40494
L63839 40434
L63854 40404
L63869 40389
L63899 40374
" />
</g>
<g style="fill:#000000; fill-opacity:0.0; 
stroke:#000000; stroke-width:79; stroke-opacity:1; 
stroke-linecap:round; stroke-linejoin:round;">
</g>
<g style="fill:#000000; fill-opacity:0.0; 
stroke:#000000; stroke-width:78.75; stroke-opacity:1; 
stroke-linecap:round; stroke-linejoin:round;">
<path d="M64527 39954
L64377 39849
" />
<path d="M64527 39774
L64212 39774
L64212 39894
L64227 39924
L64242 39939
L64272 39954
L64317 39954
L64347 39939
L64362 39924
L64377 39894
L64377 39774
" />
<path d="M64527 40254
L64527 40074
" />
<path d="M64527 40164
L64212 40164
L64257 40134
L64287 40104
L64302 40074
" />
<path d="M64212 40539
L64212 40389
L64362 40374
L64347 40389
L64332 40419
L64332 40494
L64347 40524
L64362 40539
L64392 40554
L64467 40554
L64497 40539
L64512 40524
L64527 40494
L64527 40419
L64512 40389
L64497 40374
" />
</g>
<g style="fill:#000000; fill-opacity:0.0; 
stroke:#000000; stroke-width:79; stroke-opacity:1; 
stroke-linecap:round; stroke-linejoin:round;">
</g>
<g style="fill:#000000; fill-opacity:0.0; 
stroke:#000000; stroke-width:99; stroke-opacity:1; 
stroke-linecap:round; stroke-linejoin:round;">
</g>
<g style="fill:#000000; fill-opacity:0.0; 
stroke:#000000; stroke-width:98.5; stroke-opacity:1; 
stroke-linecap:round; stroke-linejoin:round;">
<path d="M55671 41490
L55990 41490
L56027 41509
L56046 41528
L56065 41565
L56065 41640
L56046 41678
L56027 41697
L55990 41715
L55671 41715
" />
<path d="M55709 41884
L55690 41903
L55671 41941
L55671 42034
L55690 42072
L55709 42091
L55746 42109
L55784 42109
L55840 42091
L56065 41866
L56065 42109
" />
</g>
<g style="fill:#000000; fill-opacity:0.0; 
stroke:#000000; stroke-width:99; stroke-opacity:1; 
stroke-linecap:round; stroke-linejoin:round;">
</g>
<g style="fill:#000000; fill-opacity:0.0; 
stroke:#000000; stroke-width:79; stroke-opacity:1; 
stroke-linecap:round; stroke-linejoin:round;">
</g>
<g style="fill:#000000; fill-opacity:0.0; 
stroke:#000000; stroke-width:78.75; stroke-opacity:1; 
stroke-linecap:round; stroke-linejoin:round;">
<path d="M58735 32617
L58750 32632
L58795 32647
L58825 32647
L58870 32632
L58900 32602
L58915 32572
L58930 32512
L58930 32467
L58915 32407
L58900 32377
L58870 32347
L58825 32332
L58795 32332
L58750 32347
L58735 32362
" />
<path d="M58435 32647
L58615 32647
" />
<path d="M58525 32647
L58525 32332
L58555 32377
L58585 32407
L58615 32422
" />
<path d="M58315 32362
L58300 32347
L58270 32332
L58195 32332
L58165 32347
L58150 32362
L58135 32392
L58135 32422
L58150 32467
L58330 32647
L58135 32647
" />
</g>
<g style="fill:#000000; fill-opacity:0.0; 
stroke:#000000; stroke-width:79; stroke-opacity:1; 
stroke-linecap:round; stroke-linejoin:round;">
</g> 
</svg>
