<?xml version="1.0" standalone="no"?>
 <!DOCTYPE svg PUBLIC "-//W3C//DTD SVG 1.1//EN" 
 "http://www.w3.org/Graphics/SVG/1.1/DTD/svg11.dtd"> 
<svg xmlns="http://www.w3.org/2000/svg" version="1.1" 
    width="29.7002cm" height="21.0007cm" viewBox="0 0 116930 82680 ">
<title>SVG Picture created as rfAtmega128-F_SilkS.svg date 2013/01/07 10:59:33 </title>
  <desc>Picture generated by PCBNEW </desc>
<g style="fill:#000000; fill-opacity:1;stroke:#000000; stroke-opacity:1;
stroke-linecap:round; stroke-linejoin:round; "
 transform="translate(0 0) scale(1 1)">
</g>
<g style="fill:#000000; fill-opacity:0.0; 
stroke:#000000; stroke-width:79; stroke-opacity:1; 
stroke-linecap:round; stroke-linejoin:round;">
<path d="M67855 41931
L67855 41668
" />
<path d="M67855 41743
L67874 41706
L67892 41687
L67930 41668
L67967 41668
" />
<path d="M68249 41912
L68211 41931
L68136 41931
L68099 41912
L68080 41875
L68080 41725
L68099 41687
L68136 41668
L68211 41668
L68249 41687
L68268 41725
L68268 41762
L68080 41800
" />
<path d="M68399 41668
L68493 41931
L68586 41668
" />
<path d="M68737 41893
L68755 41912
L68737 41931
L68718 41912
L68737 41893
L68737 41931
" />
<path d="M68905 41818
L69093 41818
" />
<path d="M68868 41931
L68999 41537
L69131 41931
" />
</g>
<g style="fill:#000000; fill-opacity:0.0; 
stroke:#000000; stroke-width:148; stroke-opacity:1; 
stroke-linecap:round; stroke-linejoin:round;">
</g>
<g style="fill:#000000; fill-opacity:0.0; 
stroke:#000000; stroke-width:147.75; stroke-opacity:1; 
stroke-linecap:round; stroke-linejoin:round;">
<path d="M71424 27582
L71424 26991
" />
<path d="M72128 26963
L71621 27722
" />
<path d="M72437 26991
L72550 26991
L72606 27019
L72662 27075
L72691 27188
L72691 27385
L72662 27497
L72606 27554
L72550 27582
L72437 27582
L72381 27554
L72325 27497
L72297 27385
L72297 27188
L72325 27075
L72381 27019
L72437 26991
" />
<path d="M72916 27554
L72972 27582
L73085 27582
L73141 27554
L73169 27497
L73169 27469
L73141 27413
L73085 27385
L73000 27385
L72944 27357
L72916 27300
L72916 27272
L72944 27216
L73000 27188
L73085 27188
L73141 27216
" />
<path d="M73816 26991
L74182 26991
L73985 27216
L74070 27216
L74126 27244
L74154 27272
L74182 27328
L74182 27469
L74154 27525
L74126 27554
L74070 27582
L73901 27582
L73844 27554
L73816 27525
" />
<path d="M74435 27525
L74464 27554
L74435 27582
L74407 27554
L74435 27525
L74435 27582
" />
<path d="M74661 26991
L75026 26991
L74829 27216
L74914 27216
L74970 27244
L74998 27272
L75026 27328
L75026 27469
L74998 27525
L74970 27554
L74914 27582
L74745 27582
L74689 27554
L74661 27525
" />
<path d="M75195 26991
L75392 27582
L75589 26991
" />
</g>
<g style="fill:#000000; fill-opacity:0.0; 
stroke:#000000; stroke-width:148; stroke-opacity:1; 
stroke-linecap:round; stroke-linejoin:round;">
</g>
<g style="fill:#000000; fill-opacity:0.0; 
stroke:#000000; stroke-width:197; stroke-opacity:1; 
stroke-linecap:round; stroke-linejoin:round;">
</g>
<g style="fill:#000000; fill-opacity:0.0; 
stroke:#000000; stroke-width:196.75; stroke-opacity:1; 
stroke-linecap:round; stroke-linejoin:round;">
<path d="M69618 41893
L69618 41368
" />
<path d="M69618 41518
L69656 41443
L69693 41406
L69768 41368
L69843 41368
" />
<path d="M70443 41893
L70443 41106
" />
<path d="M70443 41856
L70368 41893
L70218 41893
L70143 41856
L70105 41818
L70068 41743
L70068 41518
L70105 41443
L70143 41406
L70218 41368
L70368 41368
L70443 41406
" />
<path d="M70817 41893
L70817 41368
" />
<path d="M70817 41518
L70855 41443
L70892 41406
L70967 41368
L71042 41368
" />
<path d="M71417 41893
L71342 41856
L71305 41781
L71305 41106
" />
<path d="M72054 41893
L72054 41481
L72017 41406
L71942 41368
L71792 41368
L71717 41406
" />
<path d="M72054 41856
L71979 41893
L71792 41893
L71717 41856
L71679 41781
L71679 41706
L71717 41631
L71792 41593
L71979 41593
L72054 41556
" />
<path d="M72429 41893
L72429 41106
" />
<path d="M72429 41406
L72504 41368
L72654 41368
L72729 41406
L72766 41443
L72804 41518
L72804 41743
L72766 41818
L72729 41856
L72654 41893
L72504 41893
L72429 41856
" />
<path d="M73141 41818
L73178 41856
L73141 41893
L73103 41856
L73141 41818
L73141 41893
" />
<path d="M73853 41856
L73778 41893
L73628 41893
L73553 41856
L73516 41818
L73478 41743
L73478 41518
L73516 41443
L73553 41406
L73628 41368
L73778 41368
L73853 41406
" />
<path d="M74303 41893
L74228 41856
L74190 41818
L74153 41743
L74153 41518
L74190 41443
L74228 41406
L74303 41368
L74415 41368
L74490 41406
L74528 41443
L74565 41518
L74565 41743
L74528 41818
L74490 41856
L74415 41893
L74303 41893
" />
<path d="M74902 41893
L74902 41368
" />
<path d="M74902 41443
L74940 41406
L75015 41368
L75127 41368
L75202 41406
L75240 41481
L75240 41893
" />
<path d="M75240 41481
L75277 41406
L75352 41368
L75464 41368
L75539 41406
L75577 41481
L75577 41893
" />
</g>
<g style="fill:#000000; fill-opacity:0.0; 
stroke:#000000; stroke-width:197; stroke-opacity:1; 
stroke-linecap:round; stroke-linejoin:round;">
</g>
<g style="fill:#000000; fill-opacity:0.0; 
stroke:#000000; stroke-width:79; stroke-opacity:1; 
stroke-linecap:round; stroke-linejoin:round;">
</g>
<g style="fill:#000000; fill-opacity:0.0; 
stroke:#000000; stroke-width:78.75; stroke-opacity:1; 
stroke-linecap:round; stroke-linejoin:round;">
<path d="M64103 28888
L63953 28993
" />
<path d="M64103 29068
L63788 29068
L63788 28948
L63803 28918
L63818 28903
L63848 28888
L63893 28888
L63923 28903
L63938 28918
L63953 28948
L63953 29068
" />
<path d="M63938 28648
L63938 28753
" />
<path d="M64103 28753
L63788 28753
L63788 28603
" />
<path d="M64103 28303
L63953 28408
" />
<path d="M64103 28483
L63788 28483
L63788 28363
L63803 28333
L63818 28318
L63848 28303
L63893 28303
L63923 28318
L63938 28333
L63953 28363
L63953 28483
" />
<path d="M63788 28198
L64103 27988
" />
<path d="M63788 27988
L64103 28198
" />
</g>
<g style="fill:#000000; fill-opacity:0.0; 
stroke:#000000; stroke-width:79; stroke-opacity:1; 
stroke-linecap:round; stroke-linejoin:round;">
</g>
<g style="fill:#000000; fill-opacity:0.0; 
stroke:#000000; stroke-width:78.75; stroke-opacity:1; 
stroke-linecap:round; stroke-linejoin:round;">
<path d="M62233 28850
L62083 28955
" />
<path d="M62233 29030
L61918 29030
L61918 28910
L61933 28880
L61948 28865
L61978 28850
L62023 28850
L62053 28865
L62068 28880
L62083 28910
L62083 29030
" />
<path d="M62068 28610
L62068 28715
" />
<path d="M62233 28715
L61918 28715
L61918 28565
" />
<path d="M61918 28490
L61918 28310
" />
<path d="M62233 28400
L61918 28400
" />
<path d="M61918 28235
L62233 28025
" />
<path d="M61918 28025
L62233 28235
" />
</g>
<g style="fill:#000000; fill-opacity:0.0; 
stroke:#000000; stroke-width:79; stroke-opacity:1; 
stroke-linecap:round; stroke-linejoin:round;">
</g>
<g style="fill:#000000; fill-opacity:0.0; 
stroke:#000000; stroke-width:78.75; stroke-opacity:1; 
stroke-linecap:round; stroke-linejoin:round;">
<path d="M58539 36426
L58719 36426
" />
<path d="M58629 36741
L58629 36426
" />
<path d="M58794 36426
L59004 36741
" />
<path d="M59004 36426
L58794 36741
" />
<path d="M59349 36411
L59079 36816
" />
<path d="M59634 36741
L59529 36591
" />
<path d="M59454 36741
L59454 36426
L59574 36426
L59604 36441
L59619 36456
L59634 36486
L59634 36531
L59619 36561
L59604 36576
L59574 36591
L59454 36591
" />
<path d="M59739 36426
L59949 36741
" />
<path d="M59949 36426
L59739 36741
" />
</g>
<g style="fill:#000000; fill-opacity:0.0; 
stroke:#000000; stroke-width:79; stroke-opacity:1; 
stroke-linecap:round; stroke-linejoin:round;">
</g>
<g style="fill:#000000; fill-opacity:0.0; 
stroke:#000000; stroke-width:78.75; stroke-opacity:1; 
stroke-linecap:round; stroke-linejoin:round;">
<path d="M57651 38907
L57651 38592
L57771 38592
L57801 38607
L57816 38622
L57831 38652
L57831 38697
L57816 38727
L57801 38742
L57771 38757
L57651 38757
" />
<path d="M57936 38592
L58011 38907
L58071 38682
L58131 38907
L58206 38592
" />
<path d="M58506 38907
L58401 38757
" />
<path d="M58326 38907
L58326 38592
L58446 38592
L58476 38607
L58491 38622
L58506 38652
L58506 38697
L58491 38727
L58476 38742
L58446 38757
L58326 38757
" />
</g>
<g style="fill:#000000; fill-opacity:0.0; 
stroke:#000000; stroke-width:79; stroke-opacity:1; 
stroke-linecap:round; stroke-linejoin:round;">
</g>
<g style="fill:#000000; fill-opacity:0.0; 
stroke:#000000; stroke-width:78.75; stroke-opacity:1; 
stroke-linecap:round; stroke-linejoin:round;">
<path d="M58991 28080
L58886 27930
" />
<path d="M58811 28080
L58811 27765
L58931 27765
L58961 27780
L58976 27795
L58991 27825
L58991 27870
L58976 27900
L58961 27915
L58931 27930
L58811 27930
" />
<path d="M59126 27915
L59231 27915
" />
<path d="M59276 28080
L59126 28080
L59126 27765
L59276 27765
" />
<path d="M59396 28065
L59441 28080
L59516 28080
L59546 28065
L59561 28050
L59576 28020
L59576 27990
L59561 27960
L59546 27945
L59516 27930
L59456 27915
L59426 27900
L59411 27885
L59396 27855
L59396 27825
L59411 27795
L59426 27780
L59456 27765
L59531 27765
L59576 27780
" />
<path d="M59711 27915
L59816 27915
" />
<path d="M59861 28080
L59711 28080
L59711 27765
L59861 27765
" />
<path d="M59951 27765
L60131 27765
" />
<path d="M60041 28080
L60041 27765
" />
</g>
<g style="fill:#000000; fill-opacity:0.0; 
stroke:#000000; stroke-width:79; stroke-opacity:1; 
stroke-linecap:round; stroke-linejoin:round;">
</g>
<g style="fill:#000000; fill-opacity:0.0; 
stroke:#000000; stroke-width:78.75; stroke-opacity:1; 
stroke-linecap:round; stroke-linejoin:round;">
<path d="M63551 41942
L63551 41792
" />
<path d="M63641 41972
L63326 41867
L63641 41762
" />
<path d="M63326 41702
L63326 41522
" />
<path d="M63641 41612
L63326 41612
" />
<path d="M63641 41417
L63326 41417
L63551 41312
L63326 41207
L63641 41207
" />
<path d="M63476 41057
L63476 40952
" />
<path d="M63641 40907
L63641 41057
L63326 41057
L63326 40907
" />
<path d="M63341 40607
L63326 40637
L63326 40682
L63341 40727
L63371 40757
L63401 40772
L63461 40787
L63506 40787
L63566 40772
L63596 40757
L63626 40727
L63641 40682
L63641 40652
L63626 40607
L63611 40592
L63506 40592
L63506 40652
" />
<path d="M63551 40472
L63551 40322
" />
<path d="M63641 40502
L63326 40397
L63641 40292
" />
</g>
<g style="fill:#000000; fill-opacity:0.0; 
stroke:#000000; stroke-width:79; stroke-opacity:1; 
stroke-linecap:round; stroke-linejoin:round;">
</g>
<g style="fill:#000000; fill-opacity:0.0; 
stroke:#000000; stroke-width:78.75; stroke-opacity:1; 
stroke-linecap:round; stroke-linejoin:round;">
<path d="M62432 41783
L62432 41888
" />
<path d="M62597 41888
L62282 41888
L62282 41738
" />
<path d="M62282 41663
L62282 41483
" />
<path d="M62597 41573
L62282 41573
" />
<path d="M62597 41378
L62282 41378
L62282 41303
L62297 41258
L62327 41228
L62357 41213
L62417 41198
L62462 41198
L62522 41213
L62552 41228
L62582 41258
L62597 41303
L62597 41378
" />
<path d="M62597 41063
L62282 41063
" />
</g>
<g style="fill:#000000; fill-opacity:0.0; 
stroke:#000000; stroke-width:79; stroke-opacity:1; 
stroke-linecap:round; stroke-linejoin:round;">
</g>
<g style="fill:#000000; fill-opacity:0.0; 
stroke:#000000; stroke-width:78.75; stroke-opacity:1; 
stroke-linecap:round; stroke-linejoin:round;">
<path d="M58260 43345
L58320 43345
L58350 43360
L58380 43390
L58395 43450
L58395 43555
L58380 43615
L58350 43645
L58320 43660
L58260 43660
L58230 43645
L58200 43615
L58185 43555
L58185 43450
L58200 43390
L58230 43360
L58260 43345
" />
<path d="M58530 43660
L58530 43345
L58710 43660
L58710 43345
" />
<path d="M59085 43330
L58815 43735
" />
<path d="M59250 43345
L59310 43345
L59340 43360
L59370 43390
L59385 43450
L59385 43555
L59370 43615
L59340 43645
L59310 43660
L59250 43660
L59220 43645
L59190 43615
L59175 43555
L59175 43450
L59190 43390
L59220 43360
L59250 43345
" />
<path d="M59625 43495
L59520 43495
" />
<path d="M59520 43660
L59520 43345
L59670 43345
" />
<path d="M59895 43495
L59790 43495
" />
<path d="M59790 43660
L59790 43345
L59940 43345
" />
</g>
<g style="fill:#000000; fill-opacity:0.0; 
stroke:#000000; stroke-width:79; stroke-opacity:1; 
stroke-linecap:round; stroke-linejoin:round;">
</g>
<g style="fill:#000000; fill-opacity:0.0; 
stroke:#000000; stroke-width:98; stroke-opacity:1; 
stroke-linecap:round; stroke-linejoin:round;">
<path d="M67476 44964
L67533 44983
L67626 44983
L67664 44964
L67683 44945
L67701 44908
L67701 44870
L67683 44833
L67664 44814
L67626 44795
L67551 44777
L67514 44758
L67495 44739
L67476 44702
L67476 44664
L67495 44627
L67514 44608
L67551 44589
L67645 44589
L67701 44608
" />
<path d="M67870 44983
L67870 44589
" />
<path d="M68246 44983
L68058 44983
L68058 44589
" />
<path d="M68377 44983
L68377 44589
" />
<path d="M68602 44983
L68433 44758
" />
<path d="M68602 44589
L68377 44814
" />
<path d="M69052 44964
L69109 44983
L69202 44983
L69240 44964
L69259 44945
L69277 44908
L69277 44870
L69259 44833
L69240 44814
L69202 44795
L69127 44777
L69090 44758
L69071 44739
L69052 44702
L69052 44664
L69071 44627
L69090 44608
L69127 44589
L69221 44589
L69277 44608
" />
<path d="M69671 44945
L69653 44964
L69596 44983
L69559 44983
L69503 44964
L69465 44927
L69446 44889
L69428 44814
L69428 44758
L69446 44683
L69465 44645
L69503 44608
L69559 44589
L69596 44589
L69653 44608
L69671 44627
" />
<path d="M70065 44983
L69934 44795
" />
<path d="M69840 44983
L69840 44589
L69990 44589
L70028 44608
L70047 44627
L70065 44664
L70065 44720
L70047 44758
L70028 44777
L69990 44795
L69840 44795
" />
<path d="M70234 44777
L70366 44777
" />
<path d="M70422 44983
L70234 44983
L70234 44589
L70422 44589
" />
<path d="M70591 44777
L70722 44777
" />
<path d="M70778 44983
L70591 44983
L70591 44589
L70778 44589
" />
<path d="M70947 44983
L70947 44589
L71172 44983
L71172 44589
" />
<path d="M71792 44777
L71660 44777
" />
<path d="M71660 44983
L71660 44589
L71848 44589
" />
<path d="M72223 44983
L72092 44795
" />
<path d="M71998 44983
L71998 44589
L72148 44589
L72186 44608
L72204 44627
L72223 44664
L72223 44720
L72204 44758
L72186 44777
L72148 44795
L71998 44795
" />
<path d="M72467 44589
L72542 44589
L72580 44608
L72617 44645
L72636 44720
L72636 44852
L72617 44927
L72580 44964
L72542 44983
L72467 44983
L72429 44964
L72392 44927
L72373 44852
L72373 44720
L72392 44645
L72429 44608
L72467 44589
" />
<path d="M72805 44983
L72805 44589
L73030 44983
L73030 44589
" />
<path d="M73161 44589
L73386 44589
" />
<path d="M73274 44983
L73274 44589
" />
</g>
<g style="fill:#000000; fill-opacity:0.0; 
stroke:#000000; stroke-width:150; stroke-opacity:1; 
stroke-linecap:round; stroke-linejoin:round;">
<path d="M57677 26378.3 A952.339 952.339 0.0 1 0 57677 26378.3 " />
<circle cx="74213" cy="40354" r="984" /> 
</g>
<g style="fill:#000000; fill-opacity:0.0; 
stroke:#000000; stroke-width:50; stroke-opacity:1; 
stroke-linecap:round; stroke-linejoin:round;">
<circle cx="57595" cy="31989" r="141.421" /> 
<path d="M58695 31789
L58695 32089
" />
<path d="M58695 32089
L58195 32089
" />
<path d="M58195 32089
L58195 31789
" />
<path d="M57395 35839
L57395 31789
" />
<path d="M59495 31789
L59495 35839
" />
<path d="M59495 31789
L57395 31789
" />
<path d="M59495 35839
L57395 35839
" />
<path d="M63315 38907
L63315 37707
" />
<path d="M63315 37707
L63615 37707
" />
<path d="M63615 37707
L63615 38907
" />
<path d="M63615 38907
L63315 38907
" />
</g>
<g style="fill:#000000; fill-opacity:0.0; 
stroke:#000000; stroke-width:79; stroke-opacity:1; 
stroke-linecap:round; stroke-linejoin:round;">
<path d="M77618 31920
L77618 34282
" />
<path d="M79685 34184
L79390 34184
" />
<path d="M79390 33298
L78898 34479
" />
<path d="M79390 32510
L78504 34479
" />
<path d="M79291 31920
L78110 34479
" />
<path d="M78996 31723
L77716 34479
" />
<path d="M78602 31723
L77618 33888
" />
<path d="M79390 32018
L79390 34184
" />
<path d="M78209 31723
L77618 33101
" />
<path d="M77913 31723
L77618 32412
" />
<path d="M77618 34184
L77716 34479
" />
<path d="M79685 32018
L79685 34184
" />
<path d="M79390 34184
L79094 34479
" />
<path d="M79094 34479
L77716 34479
" />
<path d="M77618 34282
L76831 34282
" />
<path d="M79685 32018
L79390 32018
" />
<path d="M79390 32018
L79094 31723
" />
<path d="M79094 31723
L77716 31723
" />
<path d="M77716 31723
L77618 32018
" />
<path d="M77618 31920
L76831 31920
" />
<path d="M73287 33101
L73287 31329
" />
<path d="M73287 31329
L76831 31329
" />
<path d="M76831 31329
L76831 34873
" />
<path d="M76831 34873
L73287 34873
" />
<path d="M73287 34873
L73287 33101
" />
</g>
<g style="fill:#000000; fill-opacity:0.0; 
stroke:#000000; stroke-width:50; stroke-opacity:1; 
stroke-linecap:round; stroke-linejoin:round;">
<path d="M58688 26795
L59008 26795
" />
<path d="M58998 26355
L58688 26355
" />
<path d="M59008 26255
L59008 26895
" />
<path d="M59008 26895
L58688 26895
" />
<path d="M58688 26895
L58688 26255
" />
<path d="M58688 26255
L59008 26255
" />
<path d="M61178 32035
L61178 32355
" />
<path d="M61618 32345
L61618 32035
" />
<path d="M61718 32355
L61078 32355
" />
<path d="M61078 32355
L61078 32035
" />
<path d="M61078 32035
L61718 32035
" />
<path d="M61718 32035
L61718 32355
" />
<path d="M61178 32547
L61178 32867
" />
<path d="M61618 32857
L61618 32547
" />
<path d="M61718 32867
L61078 32867
" />
<path d="M61078 32867
L61078 32547
" />
<path d="M61078 32547
L61718 32547
" />
<path d="M61718 32547
L61718 32867
" />
<path d="M60350 37074
L60350 37394
" />
<path d="M60790 37384
L60790 37074
" />
<path d="M60890 37394
L60250 37394
" />
<path d="M60250 37394
L60250 37074
" />
<path d="M60250 37074
L60890 37074
" />
<path d="M60890 37074
L60890 37394
" />
<path d="M60927 42397
L60607 42397
" />
<path d="M60617 42837
L60927 42837
" />
<path d="M60607 42937
L60607 42297
" />
<path d="M60607 42297
L60927 42297
" />
<path d="M60927 42297
L60927 42937
" />
<path d="M60927 42937
L60607 42937
" />
<path d="M60350 37684
L60350 38004
" />
<path d="M60790 37994
L60790 37684
" />
<path d="M60890 38004
L60250 38004
" />
<path d="M60250 38004
L60250 37684
" />
<path d="M60250 37684
L60890 37684
" />
<path d="M60890 37684
L60890 38004
" />
<path d="M67543 39530
L67543 39210
" />
<path d="M67103 39220
L67103 39530
" />
<path d="M67003 39210
L67643 39210
" />
<path d="M67643 39210
L67643 39530
" />
<path d="M67643 39530
L67003 39530
" />
<path d="M67003 39530
L67003 39210
" />
<path d="M69984 30160
L69984 29840
" />
<path d="M69544 29850
L69544 30160
" />
<path d="M69444 29840
L70084 29840
" />
<path d="M70084 29840
L70084 30160
" />
<path d="M70084 30160
L69444 30160
" />
<path d="M69444 30160
L69444 29840
" />
<path d="M57021 37261
L56701 37261
" />
<path d="M56711 37701
L57021 37701
" />
<path d="M56701 37801
L56701 37161
" />
<path d="M56701 37161
L57021 37161
" />
<path d="M57021 37161
L57021 37801
" />
<path d="M57021 37801
L56701 37801
" />
<path d="M57563 37261
L57243 37261
" />
<path d="M57253 37701
L57563 37701
" />
<path d="M57243 37801
L57243 37161
" />
<path d="M57243 37161
L57563 37161
" />
<path d="M57563 37161
L57563 37801
" />
<path d="M57563 37801
L57243 37801
" />
<path d="M60790 38762
L60790 38442
" />
<path d="M60350 38452
L60350 38762
" />
<path d="M60250 38442
L60890 38442
" />
<path d="M60890 38442
L60890 38762
" />
<path d="M60890 38762
L60250 38762
" />
<path d="M60250 38762
L60250 38442
" />
<path d="M63526 29485
L63206 29485
" />
<path d="M63216 29925
L63526 29925
" />
<path d="M63206 30025
L63206 29385
" />
<path d="M63206 29385
L63526 29385
" />
<path d="M63526 29385
L63526 30025
" />
<path d="M63526 30025
L63206 30025
" />
<path d="M62847 29485
L62527 29485
" />
<path d="M62537 29925
L62847 29925
" />
<path d="M62527 30025
L62527 29385
" />
<path d="M62527 29385
L62847 29385
" />
<path d="M62847 29385
L62847 30025
" />
<path d="M62847 30025
L62527 30025
" />
</g>
<g style="fill:#000000; fill-opacity:0.0; 
stroke:#000000; stroke-width:150; stroke-opacity:1; 
stroke-linecap:round; stroke-linejoin:round;">
<path d="M64398 44102
L75618 44102
" />
<path d="M64398 42134
L75618 42134
" />
<path d="M75618 42126
L75618 44094
" />
<path d="M64398 44094
L64398 42126
" />
<path d="M64398 26779
L75618 26779
" />
<path d="M64398 24811
L75618 24811
" />
<path d="M75618 24803
L75618 26771
" />
<path d="M64398 26771
L64398 24803
" />
</g>
<g style="fill:#000000; fill-opacity:0.0; 
stroke:#000000; stroke-width:79; stroke-opacity:1; 
stroke-linecap:round; stroke-linejoin:round;">
<path d="M59183 37993
L59183 37679
" />
<path d="M59419 37993
L59419 37679
" />
<path d="M59419 37679
L59183 37836
" />
<path d="M59183 37836
L59419 37993
" />
<path d="M59892 37541
L58710 37541
" />
<path d="M58671 37541
L58671 38131
" />
<path d="M58710 38131
L59892 38131
" />
<path d="M59931 38131
L59931 37541
" />
<path d="M59183 37324
L59183 37010
" />
<path d="M59419 37324
L59419 37010
" />
<path d="M59419 37010
L59183 37167
" />
<path d="M59183 37167
L59419 37324
" />
<path d="M59892 36872
L58710 36872
" />
<path d="M58671 36872
L58671 37462
" />
<path d="M58710 37462
L59892 37462
" />
<path d="M59931 37462
L59931 36872
" />
<path d="M62530 28327
L62844 28327
" />
<path d="M62530 28563
L62844 28563
" />
<path d="M62844 28563
L62687 28327
" />
<path d="M62687 28327
L62530 28563
" />
<path d="M62982 29036
L62982 27854
" />
<path d="M62982 27815
L62392 27815
" />
<path d="M62392 27854
L62392 29036
" />
<path d="M62392 29075
L62982 29075
" />
<path d="M63209 28327
L63523 28327
" />
<path d="M63209 28563
L63523 28563
" />
<path d="M63523 28563
L63366 28327
" />
<path d="M63366 28327
L63209 28563
" />
<path d="M63661 29036
L63661 27854
" />
<path d="M63661 27815
L63071 27815
" />
<path d="M63071 27854
L63071 29036
" />
<path d="M63071 29075
L63661 29075
" />
<path d="M59173 38759
L59173 38445
" />
<path d="M59409 38759
L59409 38445
" />
<path d="M59409 38445
L59173 38602
" />
<path d="M59173 38602
L59409 38759
" />
<path d="M59882 38307
L58700 38307
" />
<path d="M58661 38307
L58661 38897
" />
<path d="M58700 38897
L59882 38897
" />
<path d="M59921 38897
L59921 38307
" />
</g>
<g style="fill:#000000; fill-opacity:0.0; 
stroke:#000000; stroke-width:150; stroke-opacity:1; 
stroke-linecap:round; stroke-linejoin:round;">
<path d="M63902 42110
L63902 44110
" />
<path d="M63902 44110
L62902 44110
" />
<path d="M62902 44110
L62902 42110
" />
<path d="M62902 42110
L63902 42110
" />
<path d="M58074 42122
L60074 42122
" />
<path d="M60074 42122
L60074 43122
" />
<path d="M60074 43122
L58074 43122
" />
<path d="M58074 43122
L58074 42122
" />
<path d="M62902 42110
L62902 44110
" />
<path d="M62902 44110
L61902 44110
" />
<path d="M61902 44110
L61902 42110
" />
<path d="M61902 42110
L62902 42110
" />
</g>
<g style="fill:#000000; fill-opacity:0.0; 
stroke:#000000; stroke-width:98; stroke-opacity:1; 
stroke-linecap:round; stroke-linejoin:round;">
<path d="M66437 37402
L69389 37402
" />
<path d="M69389 37402
L69389 38976
" />
<path d="M69389 38976
L66437 38976
" />
<path d="M66437 38976
L66437 37402
" />
</g>
<g style="fill:#000000; fill-opacity:0.0; 
stroke:#000000; stroke-width:50; stroke-opacity:1; 
stroke-linecap:round; stroke-linejoin:round;">
<path d="M61698 40121
L61698 39621
" />
<path d="M62198 40121
L62198 39631
" />
<path d="M62348 40121
L61548 40121
" />
<path d="M61548 40121
L61548 39621
" />
<path d="M61548 39621
L62348 39621
" />
<path d="M62348 39621
L62348 40121
" />
<path d="M61167 34414
L61167 33914
" />
<path d="M61667 34414
L61667 33924
" />
<path d="M61817 34414
L61017 34414
" />
<path d="M61017 34414
L61017 33914
" />
<path d="M61017 33914
L61817 33914
" />
<path d="M61817 33914
L61817 34414
" />
<path d="M61178 33413
L61178 33733
" />
<path d="M61618 33723
L61618 33413
" />
<path d="M61718 33733
L61078 33733
" />
<path d="M61078 33733
L61078 33413
" />
<path d="M61078 33413
L61718 33413
" />
<path d="M61718 33413
L61718 33733
" />
<path d="M61158 34594
L61158 34914
" />
<path d="M61598 34904
L61598 34594
" />
<path d="M61698 34914
L61058 34914
" />
<path d="M61058 34914
L61058 34594
" />
<path d="M61058 34594
L61698 34594
" />
<path d="M61698 34594
L61698 34914
" />
<path d="M69491 36355
L69171 36355
" />
<path d="M69181 36795
L69491 36795
" />
<path d="M69171 36895
L69171 36255
" />
<path d="M69171 36255
L69491 36255
" />
<path d="M69491 36255
L69491 36895
" />
<path d="M69491 36895
L69171 36895
" />
<path d="M71787 32347
L72107 32347
" />
<path d="M72097 31907
L71787 31907
" />
<path d="M72107 31807
L72107 32447
" />
<path d="M72107 32447
L71787 32447
" />
<path d="M71787 32447
L71787 31807
" />
<path d="M71787 31807
L72107 31807
" />
<path d="M61434 42402
L61114 42402
" />
<path d="M61124 42842
L61434 42842
" />
<path d="M61114 42942
L61114 42302
" />
<path d="M61114 42302
L61434 42302
" />
<path d="M61434 42302
L61434 42942
" />
<path d="M61434 42942
L61114 42942
" />
<path d="M72554 32977
L72874 32977
" />
<path d="M72864 32537
L72554 32537
" />
<path d="M72874 32437
L72874 33077
" />
<path d="M72874 33077
L72554 33077
" />
<path d="M72554 33077
L72554 32437
" />
<path d="M72554 32437
L72874 32437
" />
<path d="M70180 36394
L69860 36394
" />
<path d="M69870 36834
L70180 36834
" />
<path d="M69860 36934
L69860 36294
" />
<path d="M69860 36294
L70180 36294
" />
<path d="M70180 36294
L70180 36934
" />
<path d="M70180 36934
L69860 36934
" />
<path d="M70672 36394
L70352 36394
" />
<path d="M70362 36834
L70672 36834
" />
<path d="M70352 36934
L70352 36294
" />
<path d="M70352 36294
L70672 36294
" />
<path d="M70672 36294
L70672 36934
" />
<path d="M70672 36934
L70352 36934
" />
<path d="M61158 35086
L61158 35406
" />
<path d="M61598 35396
L61598 35086
" />
<path d="M61698 35406
L61058 35406
" />
<path d="M61058 35406
L61058 35086
" />
<path d="M61058 35086
L61698 35086
" />
<path d="M61698 35086
L61698 35406
" />
<path d="M65929 32129
L65929 31809
" />
<path d="M65489 31819
L65489 32129
" />
<path d="M65389 31809
L66029 31809
" />
<path d="M66029 31809
L66029 32129
" />
<path d="M66029 32129
L65389 32129
" />
<path d="M65389 32129
L65389 31809
" />
<path d="M65810 34249
L65490 34249
" />
<path d="M65500 34689
L65810 34689
" />
<path d="M65490 34789
L65490 34149
" />
<path d="M65490 34149
L65810 34149
" />
<path d="M65810 34149
L65810 34789
" />
<path d="M65810 34789
L65490 34789
" />
<path d="M68015 36617
L68015 36297
" />
<path d="M67575 36307
L67575 36617
" />
<path d="M67475 36297
L68115 36297
" />
<path d="M68115 36297
L68115 36617
" />
<path d="M68115 36617
L67475 36617
" />
<path d="M67475 36617
L67475 36297
" />
<path d="M61178 31425
L61178 31745
" />
<path d="M61618 31735
L61618 31425
" />
<path d="M61718 31745
L61078 31745
" />
<path d="M61078 31745
L61078 31425
" />
<path d="M61078 31425
L61718 31425
" />
<path d="M61718 31425
L61718 31745
" />
<path d="M69544 30312
L69544 30632
" />
<path d="M69984 30622
L69984 30312
" />
<path d="M70084 30632
L69444 30632
" />
<path d="M69444 30632
L69444 30312
" />
<path d="M69444 30312
L70084 30312
" />
<path d="M70084 30312
L70084 30632
" />
<path d="M65942 38507
L66262 38507
" />
<path d="M66252 38067
L65942 38067
" />
<path d="M66262 37967
L66262 38607
" />
<path d="M66262 38607
L65942 38607
" />
<path d="M65942 38607
L65942 37967
" />
<path d="M65942 37967
L66262 37967
" />
<path d="M69845 38087
L69525 38087
" />
<path d="M69535 38527
L69845 38527
" />
<path d="M69525 38627
L69525 37987
" />
<path d="M69525 37987
L69845 37987
" />
<path d="M69845 37987
L69845 38627
" />
<path d="M69845 38627
L69525 38627
" />
</g>
<g style="fill:#000000; fill-opacity:0.0; 
stroke:#000000; stroke-width:150; stroke-opacity:1; 
stroke-linecap:round; stroke-linejoin:round;">
<path d="M59980 40373
L59980 41554
" />
<path d="M59980 41554
L57815 41554
" />
<path d="M57815 41554
L57815 39192
" />
<path d="M57815 39192
L59980 39192
" />
<path d="M59980 39192
L59980 40373
" />
</g>
<g style="fill:#000000; fill-opacity:0.0; 
stroke:#000000; stroke-width:79; stroke-opacity:1; 
stroke-linecap:round; stroke-linejoin:round;">
<path d="M71573 32856
L72321 32856
" />
<path d="M71573 33918
L72321 33918
" />
<path d="M72321 32875
L72321 33879
" />
<path d="M71572 32875
L71572 33879
" />
</g>
<g style="fill:#000000; fill-opacity:0.0; 
stroke:#000000; stroke-width:150; stroke-opacity:1; 
stroke-linecap:round; stroke-linejoin:round;">
<path d="M59406 26811
L63579 26811
" />
<path d="M59406 24763
L63579 24763
" />
<path d="M63614 24803
L63614 26771
" />
<path d="M59394 26771
L59394 24803
" />
</g>
<g style="fill:#000000; fill-opacity:0.0; 
stroke:#000000; stroke-width:50; stroke-opacity:1; 
stroke-linecap:round; stroke-linejoin:round;">
<path d="M49237 38171
L49237 42971
" />
<path d="M49237 42971
L55937 42971
" />
<path d="M55937 42971
L55937 38171
" />
<path d="M55937 38171
L49237 38171
" />
</g>
<g style="fill:#000000; fill-opacity:0.0; 
stroke:#000000; stroke-width:79; stroke-opacity:1; 
stroke-linecap:round; stroke-linejoin:round;">
<path d="M49280 32299
L49780 32299
" />
<path d="M49780 32299
L49780 30299
" />
<path d="M49780 30299
L49280 30299
" />
<path d="M52780 37299
L54780 37299
" />
<path d="M52780 25299
L54780 25299
" />
<path d="M52780 31299
L52780 25299
" />
<path d="M52780 25299
L49280 25299
" />
<path d="M49280 25299
L49280 30299
" />
<path d="M52780 37299
L49280 37299
" />
<path d="M52780 31299
L52780 37299
" />
<path d="M54780 31299
L54780 37299
" />
<path d="M54780 31299
L54780 25299
" />
<path d="M49280 30299
L49280 37299
" />
<path d="M66899 35587
L66499 35587
" />
<path d="M66499 35587
L66499 35187
" />
<path d="M70899 35187
L70899 35587
" />
<path d="M70899 35587
L70499 35587
" />
<path d="M66899 31187
L66499 31187
" />
<path d="M66499 31187
L66499 31587
" />
<path d="M70899 31587
L70899 31187
" />
<path d="M70899 31187
L70499 31187
" />
<circle cx="70577" cy="35225" r="98" /> 
<path d="M70871 33387
L70871 35159
" />
<path d="M70471 35559
L66927 35559
" />
<path d="M66527 35159
L66527 31615
" />
<path d="M66927 31215
L70471 31215
" />
<path d="M70871 31615
L70871 33387
" />
</g>
<g style="fill:#000000; fill-opacity:0.0; 
stroke:#000000; stroke-width:120; stroke-opacity:1; 
stroke-linecap:round; stroke-linejoin:round;">
<path d="M58111 30718
L58111 28318
" />
<path d="M58111 28318
L60511 28318
" />
<path d="M60511 28318
L60511 30718
" />
<path d="M60511 30718
L58111 30718
" />
</g>
<g style="fill:#000000; fill-opacity:0.0; 
stroke:#000000; stroke-width:1000; stroke-opacity:1; 
stroke-linecap:round; stroke-linejoin:round;">
<circle cx="59311" cy="29518" r="316.228" /> 
</g>
<g style="fill:#000000; fill-opacity:0.0; 
stroke:#000000; stroke-width:79; stroke-opacity:1; 
stroke-linecap:round; stroke-linejoin:round;">
</g>
<g style="fill:#000000; fill-opacity:0.0; 
stroke:#000000; stroke-width:78.75; stroke-opacity:1; 
stroke-linecap:round; stroke-linejoin:round;">
<path d="M57437 31357
L57437 31612
L57452 31642
L57467 31657
L57497 31672
L57557 31672
L57587 31657
L57602 31642
L57617 31612
L57617 31357
" />
<path d="M57737 31357
L57947 31357
L57812 31672
" />
</g>
<g style="fill:#000000; fill-opacity:0.0; 
stroke:#000000; stroke-width:79; stroke-opacity:1; 
stroke-linecap:round; stroke-linejoin:round;">
</g>
<g style="fill:#000000; fill-opacity:0.0; 
stroke:#000000; stroke-width:75; stroke-opacity:1; 
stroke-linecap:round; stroke-linejoin:round;">
<path d="M62837 37301
L62837 37544
L62851 37572
L62866 37587
L62894 37601
L62951 37601
L62980 37587
L62994 37572
L63009 37544
L63009 37301
" />
<path d="M63309 37601
L63137 37601
" />
<path d="M63223 37601
L63223 37301
L63194 37344
L63166 37372
L63137 37387
" />
<path d="M63409 37301
L63594 37301
L63494 37415
L63537 37415
L63566 37430
L63580 37444
L63594 37472
L63594 37544
L63580 37572
L63566 37587
L63537 37601
L63451 37601
L63423 37587
L63409 37572
" />
</g>
<g style="fill:#000000; fill-opacity:0.0; 
stroke:#000000; stroke-width:79; stroke-opacity:1; 
stroke-linecap:round; stroke-linejoin:round;">
</g>
<g style="fill:#000000; fill-opacity:0.0; 
stroke:#000000; stroke-width:78.75; stroke-opacity:1; 
stroke-linecap:round; stroke-linejoin:round;">
<path d="M73249 35009
L73459 35324
" />
<path d="M73459 35009
L73249 35324
" />
<path d="M73744 35324
L73564 35324
" />
<path d="M73654 35324
L73654 35009
L73624 35054
L73594 35084
L73564 35099
" />
</g>
<g style="fill:#000000; fill-opacity:0.0; 
stroke:#000000; stroke-width:79; stroke-opacity:1; 
stroke-linecap:round; stroke-linejoin:round;">
</g>
<g style="fill:#000000; fill-opacity:0.0; 
stroke:#000000; stroke-width:78.75; stroke-opacity:1; 
stroke-linecap:round; stroke-linejoin:round;">
<path d="M58592 26627
L58442 26732
" />
<path d="M58592 26807
L58277 26807
L58277 26687
L58292 26657
L58307 26642
L58337 26627
L58382 26627
L58412 26642
L58427 26657
L58442 26687
L58442 26807
" />
<path d="M58382 26357
L58592 26357
" />
<path d="M58262 26432
L58487 26507
L58487 26312
" />
</g>
<g style="fill:#000000; fill-opacity:0.0; 
stroke:#000000; stroke-width:79; stroke-opacity:1; 
stroke-linecap:round; stroke-linejoin:round;">
</g>
<g style="fill:#000000; fill-opacity:0.0; 
stroke:#000000; stroke-width:78.75; stroke-opacity:1; 
stroke-linecap:round; stroke-linejoin:round;">
<path d="M62199 32312
L62094 32162
" />
<path d="M62019 32312
L62019 31997
L62139 31997
L62169 32012
L62184 32027
L62199 32057
L62199 32102
L62184 32132
L62169 32147
L62139 32162
L62019 32162
" />
<path d="M62499 32312
L62319 32312
" />
<path d="M62409 32312
L62409 31997
L62379 32042
L62349 32072
L62319 32087
" />
<path d="M62694 31997
L62724 31997
L62754 32012
L62769 32027
L62784 32057
L62799 32117
L62799 32192
L62784 32252
L62769 32282
L62754 32297
L62724 32312
L62694 32312
L62664 32297
L62649 32282
L62634 32252
L62619 32192
L62619 32117
L62634 32057
L62649 32027
L62664 32012
L62694 31997
" />
</g>
<g style="fill:#000000; fill-opacity:0.0; 
stroke:#000000; stroke-width:79; stroke-opacity:1; 
stroke-linecap:round; stroke-linejoin:round;">
</g>
<g style="fill:#000000; fill-opacity:0.0; 
stroke:#000000; stroke-width:78.75; stroke-opacity:1; 
stroke-linecap:round; stroke-linejoin:round;">
<path d="M62199 32903
L62094 32753
" />
<path d="M62019 32903
L62019 32588
L62139 32588
L62169 32603
L62184 32618
L62199 32648
L62199 32693
L62184 32723
L62169 32738
L62139 32753
L62019 32753
" />
<path d="M62499 32903
L62319 32903
" />
<path d="M62409 32903
L62409 32588
L62379 32633
L62349 32663
L62319 32678
" />
<path d="M62799 32903
L62619 32903
" />
<path d="M62709 32903
L62709 32588
L62679 32633
L62649 32663
L62619 32678
" />
</g>
<g style="fill:#000000; fill-opacity:0.0; 
stroke:#000000; stroke-width:79; stroke-opacity:1; 
stroke-linecap:round; stroke-linejoin:round;">
</g>
<g style="fill:#000000; fill-opacity:0.0; 
stroke:#000000; stroke-width:78.75; stroke-opacity:1; 
stroke-linecap:round; stroke-linejoin:round;">
<path d="M61544 37210
L61394 37315
" />
<path d="M61544 37390
L61229 37390
L61229 37270
L61244 37240
L61259 37225
L61289 37210
L61334 37210
L61364 37225
L61379 37240
L61394 37270
L61394 37390
" />
<path d="M61544 36910
L61544 37090
" />
<path d="M61544 37000
L61229 37000
L61274 37030
L61304 37060
L61319 37090
" />
<path d="M61229 36805
L61229 36610
L61349 36715
L61349 36670
L61364 36640
L61379 36625
L61409 36610
L61484 36610
L61514 36625
L61529 36640
L61544 36670
L61544 36760
L61529 36790
L61514 36805
" />
</g>
<g style="fill:#000000; fill-opacity:0.0; 
stroke:#000000; stroke-width:79; stroke-opacity:1; 
stroke-linecap:round; stroke-linejoin:round;">
</g>
<g style="fill:#000000; fill-opacity:0.0; 
stroke:#000000; stroke-width:78.75; stroke-opacity:1; 
stroke-linecap:round; stroke-linejoin:round;">
<path d="M60905 43526
L60755 43631
" />
<path d="M60905 43706
L60590 43706
L60590 43586
L60605 43556
L60620 43541
L60650 43526
L60695 43526
L60725 43541
L60740 43556
L60755 43586
L60755 43706
" />
<path d="M60620 43406
L60605 43391
L60590 43361
L60590 43286
L60605 43256
L60620 43241
L60650 43226
L60680 43226
L60725 43241
L60905 43421
L60905 43226
" />
</g>
<g style="fill:#000000; fill-opacity:0.0; 
stroke:#000000; stroke-width:79; stroke-opacity:1; 
stroke-linecap:round; stroke-linejoin:round;">
</g>
<g style="fill:#000000; fill-opacity:0.0; 
stroke:#000000; stroke-width:78.75; stroke-opacity:1; 
stroke-linecap:round; stroke-linejoin:round;">
<path d="M61544 38194
L61394 38299
" />
<path d="M61544 38374
L61229 38374
L61229 38254
L61244 38224
L61259 38209
L61289 38194
L61334 38194
L61364 38209
L61379 38224
L61394 38254
L61394 38374
" />
<path d="M61544 37894
L61544 38074
" />
<path d="M61544 37984
L61229 37984
L61274 38014
L61304 38044
L61319 38074
" />
<path d="M61334 37624
L61544 37624
" />
<path d="M61214 37699
L61439 37774
L61439 37579
" />
</g>
<g style="fill:#000000; fill-opacity:0.0; 
stroke:#000000; stroke-width:79; stroke-opacity:1; 
stroke-linecap:round; stroke-linejoin:round;">
</g>
<g style="fill:#000000; fill-opacity:0.0; 
stroke:#000000; stroke-width:78.75; stroke-opacity:1; 
stroke-linecap:round; stroke-linejoin:round;">
<path d="M68156 39792
L68051 39642
" />
<path d="M67976 39792
L67976 39477
L68096 39477
L68126 39492
L68141 39507
L68156 39537
L68156 39582
L68141 39612
L68126 39627
L68096 39642
L67976 39642
" />
<path d="M68261 39477
L68456 39477
L68351 39597
L68396 39597
L68426 39612
L68441 39627
L68456 39657
L68456 39732
L68441 39762
L68426 39777
L68396 39792
L68306 39792
L68276 39777
L68261 39762
" />
</g>
<g style="fill:#000000; fill-opacity:0.0; 
stroke:#000000; stroke-width:79; stroke-opacity:1; 
stroke-linecap:round; stroke-linejoin:round;">
</g>
<g style="fill:#000000; fill-opacity:0.0; 
stroke:#000000; stroke-width:78.75; stroke-opacity:1; 
stroke-linecap:round; stroke-linejoin:round;">
<path d="M70528 30137
L70423 29987
" />
<path d="M70348 30137
L70348 29822
L70468 29822
L70498 29837
L70513 29852
L70528 29882
L70528 29927
L70513 29957
L70498 29972
L70468 29987
L70348 29987
" />
<path d="M70813 29822
L70663 29822
L70648 29972
L70663 29957
L70693 29942
L70768 29942
L70798 29957
L70813 29972
L70828 30002
L70828 30077
L70813 30107
L70798 30122
L70768 30137
L70693 30137
L70663 30122
L70648 30107
" />
</g>
<g style="fill:#000000; fill-opacity:0.0; 
stroke:#000000; stroke-width:79; stroke-opacity:1; 
stroke-linecap:round; stroke-linejoin:round;">
</g>
<g style="fill:#000000; fill-opacity:0.0; 
stroke:#000000; stroke-width:78.75; stroke-opacity:1; 
stroke-linecap:round; stroke-linejoin:round;">
<path d="M57007 38349
L56857 38454
" />
<path d="M57007 38529
L56692 38529
L56692 38409
L56707 38379
L56722 38364
L56752 38349
L56797 38349
L56827 38364
L56842 38379
L56857 38409
L56857 38529
" />
<path d="M56692 38244
L56692 38034
L57007 38169
" />
</g>
<g style="fill:#000000; fill-opacity:0.0; 
stroke:#000000; stroke-width:79; stroke-opacity:1; 
stroke-linecap:round; stroke-linejoin:round;">
</g>
<g style="fill:#000000; fill-opacity:0.0; 
stroke:#000000; stroke-width:16; stroke-opacity:1; 
stroke-linecap:round; stroke-linejoin:round;">
<path d="M57517 38043
L57491 38006
" />
<path d="M57472 38043
L57472 37964
L57502 37964
L57510 37968
L57514 37972
L57517 37980
L57517 37991
L57514 37998
L57510 38002
L57502 38006
L57472 38006
" />
<path d="M57585 37964
L57570 37964
L57562 37968
L57559 37972
L57551 37983
L57547 37998
L57547 38028
L57551 38036
L57555 38040
L57562 38043
L57578 38043
L57585 38040
L57589 38036
L57593 38028
L57593 38010
L57589 38002
L57585 37998
L57578 37995
L57562 37995
L57555 37998
L57551 38002
L57547 38010
" />
</g>
<g style="fill:#000000; fill-opacity:0.0; 
stroke:#000000; stroke-width:79; stroke-opacity:1; 
stroke-linecap:round; stroke-linejoin:round;">
</g>
<g style="fill:#000000; fill-opacity:0.0; 
stroke:#000000; stroke-width:78.75; stroke-opacity:1; 
stroke-linecap:round; stroke-linejoin:round;">
<path d="M61544 38832
L61394 38937
" />
<path d="M61544 39012
L61229 39012
L61229 38892
L61244 38862
L61259 38847
L61289 38832
L61334 38832
L61364 38847
L61379 38862
L61394 38892
L61394 39012
" />
<path d="M61544 38532
L61544 38712
" />
<path d="M61544 38622
L61229 38622
L61274 38652
L61304 38682
L61319 38712
" />
</g>
<g style="fill:#000000; fill-opacity:0.0; 
stroke:#000000; stroke-width:79; stroke-opacity:1; 
stroke-linecap:round; stroke-linejoin:round;">
</g>
<g style="fill:#000000; fill-opacity:0.0; 
stroke:#000000; stroke-width:78.75; stroke-opacity:1; 
stroke-linecap:round; stroke-linejoin:round;">
<path d="M64005 29973
L63855 30078
" />
<path d="M64005 30153
L63690 30153
L63690 30033
L63705 30003
L63720 29988
L63750 29973
L63795 29973
L63825 29988
L63840 30003
L63855 30033
L63855 30153
" />
<path d="M64005 29823
L64005 29763
L63990 29733
L63975 29718
L63930 29688
L63870 29673
L63750 29673
L63720 29688
L63705 29703
L63690 29733
L63690 29793
L63705 29823
L63720 29838
L63750 29853
L63825 29853
L63855 29838
L63870 29823
L63885 29793
L63885 29733
L63870 29703
L63855 29688
L63825 29673
" />
</g>
<g style="fill:#000000; fill-opacity:0.0; 
stroke:#000000; stroke-width:79; stroke-opacity:1; 
stroke-linecap:round; stroke-linejoin:round;">
</g>
<g style="fill:#000000; fill-opacity:0.0; 
stroke:#000000; stroke-width:78.75; stroke-opacity:1; 
stroke-linecap:round; stroke-linejoin:round;">
<path d="M62332 29973
L62182 30078
" />
<path d="M62332 30153
L62017 30153
L62017 30033
L62032 30003
L62047 29988
L62077 29973
L62122 29973
L62152 29988
L62167 30003
L62182 30033
L62182 30153
" />
<path d="M62152 29793
L62137 29823
L62122 29838
L62092 29853
L62077 29853
L62047 29838
L62032 29823
L62017 29793
L62017 29733
L62032 29703
L62047 29688
L62077 29673
L62092 29673
L62122 29688
L62137 29703
L62152 29733
L62152 29793
L62167 29823
L62182 29838
L62212 29853
L62272 29853
L62302 29838
L62317 29823
L62332 29793
L62332 29733
L62317 29703
L62302 29688
L62272 29673
L62212 29673
L62182 29688
L62167 29703
L62152 29733
" />
</g>
<g style="fill:#000000; fill-opacity:0.0; 
stroke:#000000; stroke-width:79; stroke-opacity:1; 
stroke-linecap:round; stroke-linejoin:round;">
</g>
<g style="fill:#000000; fill-opacity:0.0; 
stroke:#000000; stroke-width:78.75; stroke-opacity:1; 
stroke-linecap:round; stroke-linejoin:round;">
<path d="M64487 41643
L64697 41958
" />
<path d="M64697 41643
L64487 41958
" />
<path d="M64772 41643
L64952 41643
" />
<path d="M64862 41958
L64862 41643
" />
<path d="M65042 41673
L65057 41658
L65087 41643
L65162 41643
L65192 41658
L65207 41673
L65222 41703
L65222 41733
L65207 41778
L65027 41958
L65222 41958
" />
</g>
<g style="fill:#000000; fill-opacity:0.0; 
stroke:#000000; stroke-width:79; stroke-opacity:1; 
stroke-linecap:round; stroke-linejoin:round;">
</g>
<g style="fill:#000000; fill-opacity:0.0; 
stroke:#000000; stroke-width:78.75; stroke-opacity:1; 
stroke-linecap:round; stroke-linejoin:round;">
<path d="M64586 26977
L64796 27292
" />
<path d="M64796 26977
L64586 27292
" />
<path d="M64871 26977
L65051 26977
" />
<path d="M64961 27292
L64961 26977
" />
<path d="M65126 26977
L65321 26977
L65216 27097
L65261 27097
L65291 27112
L65306 27127
L65321 27157
L65321 27232
L65306 27262
L65291 27277
L65261 27292
L65171 27292
L65141 27277
L65126 27262
" />
</g>
<g style="fill:#000000; fill-opacity:0.0; 
stroke:#000000; stroke-width:79; stroke-opacity:1; 
stroke-linecap:round; stroke-linejoin:round;">
</g>
<g style="fill:#000000; fill-opacity:0.0; 
stroke:#000000; stroke-width:78.75; stroke-opacity:1; 
stroke-linecap:round; stroke-linejoin:round;">
<path d="M66394 37017
L66394 37272
L66409 37302
L66424 37317
L66454 37332
L66514 37332
L66544 37317
L66559 37302
L66574 37272
L66574 37017
" />
<path d="M66694 37017
L66889 37017
L66784 37137
L66829 37137
L66859 37152
L66874 37167
L66889 37197
L66889 37272
L66874 37302
L66859 37317
L66829 37332
L66739 37332
L66709 37317
L66694 37302
" />
</g>
<g style="fill:#000000; fill-opacity:0.0; 
stroke:#000000; stroke-width:79; stroke-opacity:1; 
stroke-linecap:round; stroke-linejoin:round;">
</g>
<g style="fill:#000000; fill-opacity:0.0; 
stroke:#000000; stroke-width:59; stroke-opacity:1; 
stroke-linecap:round; stroke-linejoin:round;">
<path d="M61796 39452
L61785 39463
L61751 39474
L61728 39474
L61695 39463
L61672 39440
L61661 39418
L61650 39373
L61650 39339
L61661 39294
L61672 39272
L61695 39249
L61728 39238
L61751 39238
L61785 39249
L61796 39261
" />
<path d="M62021 39474
L61886 39474
" />
<path d="M61953 39474
L61953 39238
L61931 39272
L61908 39294
L61886 39305
" />
<path d="M62245 39474
L62110 39474
" />
<path d="M62178 39474
L62178 39238
L62155 39272
L62133 39294
L62110 39305
" />
</g>
<g style="fill:#000000; fill-opacity:0.0; 
stroke:#000000; stroke-width:79; stroke-opacity:1; 
stroke-linecap:round; stroke-linejoin:round;">
</g>
<g style="fill:#000000; fill-opacity:0.0; 
stroke:#000000; stroke-width:78.75; stroke-opacity:1; 
stroke-linecap:round; stroke-linejoin:round;">
<path d="M62395 34251
L62380 34266
L62335 34281
L62305 34281
L62260 34266
L62230 34236
L62215 34206
L62200 34146
L62200 34101
L62215 34041
L62230 34011
L62260 33981
L62305 33966
L62335 33966
L62380 33981
L62395 33996
" />
<path d="M62695 34281
L62515 34281
" />
<path d="M62605 34281
L62605 33966
L62575 34011
L62545 34041
L62515 34056
" />
<path d="M62800 33966
L62995 33966
L62890 34086
L62935 34086
L62965 34101
L62980 34116
L62995 34146
L62995 34221
L62980 34251
L62965 34266
L62935 34281
L62845 34281
L62815 34266
L62800 34251
" />
</g>
<g style="fill:#000000; fill-opacity:0.0; 
stroke:#000000; stroke-width:79; stroke-opacity:1; 
stroke-linecap:round; stroke-linejoin:round;">
</g>
<g style="fill:#000000; fill-opacity:0.0; 
stroke:#000000; stroke-width:78.75; stroke-opacity:1; 
stroke-linecap:round; stroke-linejoin:round;">
<path d="M62199 33660
L62184 33675
L62139 33690
L62109 33690
L62064 33675
L62034 33645
L62019 33615
L62004 33555
L62004 33510
L62019 33450
L62034 33420
L62064 33390
L62109 33375
L62139 33375
L62184 33390
L62199 33405
" />
<path d="M62499 33690
L62319 33690
" />
<path d="M62409 33690
L62409 33375
L62379 33420
L62349 33450
L62319 33465
" />
<path d="M62769 33480
L62769 33690
" />
<path d="M62694 33360
L62619 33585
L62814 33585
" />
</g>
<g style="fill:#000000; fill-opacity:0.0; 
stroke:#000000; stroke-width:79; stroke-opacity:1; 
stroke-linecap:round; stroke-linejoin:round;">
</g>
<g style="fill:#000000; fill-opacity:0.0; 
stroke:#000000; stroke-width:78.75; stroke-opacity:1; 
stroke-linecap:round; stroke-linejoin:round;">
<path d="M62199 34841
L62184 34856
L62139 34871
L62109 34871
L62064 34856
L62034 34826
L62019 34796
L62004 34736
L62004 34691
L62019 34631
L62034 34601
L62064 34571
L62109 34556
L62139 34556
L62184 34571
L62199 34586
" />
<path d="M62499 34871
L62319 34871
" />
<path d="M62409 34871
L62409 34556
L62379 34601
L62349 34631
L62319 34646
" />
<path d="M62784 34556
L62634 34556
L62619 34706
L62634 34691
L62664 34676
L62739 34676
L62769 34691
L62784 34706
L62799 34736
L62799 34811
L62784 34841
L62769 34856
L62739 34871
L62664 34871
L62634 34856
L62619 34841
" />
</g>
<g style="fill:#000000; fill-opacity:0.0; 
stroke:#000000; stroke-width:79; stroke-opacity:1; 
stroke-linecap:round; stroke-linejoin:round;">
</g>
<g style="fill:#000000; fill-opacity:0.0; 
stroke:#000000; stroke-width:78.75; stroke-opacity:1; 
stroke-linecap:round; stroke-linejoin:round;">
<path d="M68995 36863
L69010 36878
L69025 36923
L69025 36953
L69010 36998
L68980 37028
L68950 37043
L68890 37058
L68845 37058
L68785 37043
L68755 37028
L68725 36998
L68710 36953
L68710 36923
L68725 36878
L68740 36863
" />
<path d="M68815 36593
L69025 36593
" />
<path d="M68695 36668
L68920 36743
L68920 36548
" />
</g>
<g style="fill:#000000; fill-opacity:0.0; 
stroke:#000000; stroke-width:79; stroke-opacity:1; 
stroke-linecap:round; stroke-linejoin:round;">
</g>
<g style="fill:#000000; fill-opacity:0.0; 
stroke:#000000; stroke-width:78.75; stroke-opacity:1; 
stroke-linecap:round; stroke-linejoin:round;">
<path d="M71613 32131
L71628 32146
L71643 32191
L71643 32221
L71628 32266
L71598 32296
L71568 32311
L71508 32326
L71463 32326
L71403 32311
L71373 32296
L71343 32266
L71328 32221
L71328 32191
L71343 32146
L71358 32131
" />
<path d="M71643 31831
L71643 32011
" />
<path d="M71643 31921
L71328 31921
L71373 31951
L71403 31981
L71418 32011
" />
<path d="M71328 31726
L71328 31516
L71643 31651
" />
</g>
<g style="fill:#000000; fill-opacity:0.0; 
stroke:#000000; stroke-width:79; stroke-opacity:1; 
stroke-linecap:round; stroke-linejoin:round;">
</g>
<g style="fill:#000000; fill-opacity:0.0; 
stroke:#000000; stroke-width:78.75; stroke-opacity:1; 
stroke-linecap:round; stroke-linejoin:round;">
<path d="M61396 43517
L61411 43532
L61426 43577
L61426 43607
L61411 43652
L61381 43682
L61351 43697
L61291 43712
L61246 43712
L61186 43697
L61156 43682
L61126 43652
L61111 43607
L61111 43577
L61126 43532
L61141 43517
" />
<path d="M61426 43217
L61426 43397
" />
<path d="M61426 43307
L61111 43307
L61156 43337
L61186 43367
L61201 43397
" />
</g>
<g style="fill:#000000; fill-opacity:0.0; 
stroke:#000000; stroke-width:79; stroke-opacity:1; 
stroke-linecap:round; stroke-linejoin:round;">
</g>
<g style="fill:#000000; fill-opacity:0.0; 
stroke:#000000; stroke-width:78.75; stroke-opacity:1; 
stroke-linecap:round; stroke-linejoin:round;">
<path d="M72853 31974
L72868 31989
L72883 32034
L72883 32064
L72868 32109
L72838 32139
L72808 32154
L72748 32169
L72703 32169
L72643 32154
L72613 32139
L72583 32109
L72568 32064
L72568 32034
L72583 31989
L72598 31974
" />
<path d="M72883 31674
L72883 31854
" />
<path d="M72883 31764
L72568 31764
L72613 31794
L72643 31824
L72658 31854
" />
<path d="M72703 31494
L72688 31524
L72673 31539
L72643 31554
L72628 31554
L72598 31539
L72583 31524
L72568 31494
L72568 31434
L72583 31404
L72598 31389
L72628 31374
L72643 31374
L72673 31389
L72688 31404
L72703 31434
L72703 31494
L72718 31524
L72733 31539
L72763 31554
L72823 31554
L72853 31539
L72868 31524
L72883 31494
L72883 31434
L72868 31404
L72853 31389
L72823 31374
L72763 31374
L72733 31389
L72718 31404
L72703 31434
" />
</g>
<g style="fill:#000000; fill-opacity:0.0; 
stroke:#000000; stroke-width:79; stroke-opacity:1; 
stroke-linecap:round; stroke-linejoin:round;">
</g>
<g style="fill:#000000; fill-opacity:0.0; 
stroke:#000000; stroke-width:78.75; stroke-opacity:1; 
stroke-linecap:round; stroke-linejoin:round;">
<path d="M70294 37473
L70309 37488
L70324 37533
L70324 37563
L70309 37608
L70279 37638
L70249 37653
L70189 37668
L70144 37668
L70084 37653
L70054 37638
L70024 37608
L70009 37563
L70009 37533
L70024 37488
L70039 37473
" />
<path d="M70009 37188
L70009 37338
L70159 37353
L70144 37338
L70129 37308
L70129 37233
L70144 37203
L70159 37188
L70189 37173
L70264 37173
L70294 37188
L70309 37203
L70324 37233
L70324 37308
L70309 37338
L70294 37353
" />
</g>
<g style="fill:#000000; fill-opacity:0.0; 
stroke:#000000; stroke-width:79; stroke-opacity:1; 
stroke-linecap:round; stroke-linejoin:round;">
</g>
<g style="fill:#000000; fill-opacity:0.0; 
stroke:#000000; stroke-width:78.75; stroke-opacity:1; 
stroke-linecap:round; stroke-linejoin:round;">
<path d="M71081 36902
L71096 36917
L71111 36962
L71111 36992
L71096 37037
L71066 37067
L71036 37082
L70976 37097
L70931 37097
L70871 37082
L70841 37067
L70811 37037
L70796 36992
L70796 36962
L70811 36917
L70826 36902
" />
<path d="M70796 36632
L70796 36692
L70811 36722
L70826 36737
L70871 36767
L70931 36782
L71051 36782
L71081 36767
L71096 36752
L71111 36722
L71111 36662
L71096 36632
L71081 36617
L71051 36602
L70976 36602
L70946 36617
L70931 36632
L70916 36662
L70916 36722
L70931 36752
L70946 36767
L70976 36782
" />
</g>
<g style="fill:#000000; fill-opacity:0.0; 
stroke:#000000; stroke-width:79; stroke-opacity:1; 
stroke-linecap:round; stroke-linejoin:round;">
</g>
<g style="fill:#000000; fill-opacity:0.0; 
stroke:#000000; stroke-width:78.75; stroke-opacity:1; 
stroke-linecap:round; stroke-linejoin:round;">
<path d="M62199 35333
L62184 35348
L62139 35363
L62109 35363
L62064 35348
L62034 35318
L62019 35288
L62004 35228
L62004 35183
L62019 35123
L62034 35093
L62064 35063
L62109 35048
L62139 35048
L62184 35063
L62199 35078
" />
<path d="M62499 35363
L62319 35363
" />
<path d="M62409 35363
L62409 35048
L62379 35093
L62349 35123
L62319 35138
" />
<path d="M62769 35048
L62709 35048
L62679 35063
L62664 35078
L62634 35123
L62619 35183
L62619 35303
L62634 35333
L62649 35348
L62679 35363
L62739 35363
L62769 35348
L62784 35333
L62799 35303
L62799 35228
L62784 35198
L62769 35183
L62739 35168
L62679 35168
L62649 35183
L62634 35198
L62619 35228
" />
</g>
<g style="fill:#000000; fill-opacity:0.0; 
stroke:#000000; stroke-width:79; stroke-opacity:1; 
stroke-linecap:round; stroke-linejoin:round;">
</g>
<g style="fill:#000000; fill-opacity:0.0; 
stroke:#000000; stroke-width:78.75; stroke-opacity:1; 
stroke-linecap:round; stroke-linejoin:round;">
<path d="M65606 32538
L65591 32553
L65546 32568
L65516 32568
L65471 32553
L65441 32523
L65426 32493
L65411 32433
L65411 32388
L65426 32328
L65441 32298
L65471 32268
L65516 32253
L65546 32253
L65591 32268
L65606 32283
" />
<path d="M65711 32253
L65921 32253
L65786 32568
" />
</g>
<g style="fill:#000000; fill-opacity:0.0; 
stroke:#000000; stroke-width:79; stroke-opacity:1; 
stroke-linecap:round; stroke-linejoin:round;">
</g>
<g style="fill:#000000; fill-opacity:0.0; 
stroke:#000000; stroke-width:78.75; stroke-opacity:1; 
stroke-linecap:round; stroke-linejoin:round;">
<path d="M65597 35333
L65582 35348
L65537 35363
L65507 35363
L65462 35348
L65432 35318
L65417 35288
L65402 35228
L65402 35183
L65417 35123
L65432 35093
L65462 35063
L65507 35048
L65537 35048
L65582 35063
L65597 35078
" />
<path d="M65777 35183
L65747 35168
L65732 35153
L65717 35123
L65717 35108
L65732 35078
L65747 35063
L65777 35048
L65837 35048
L65867 35063
L65882 35078
L65897 35108
L65897 35123
L65882 35153
L65867 35168
L65837 35183
L65777 35183
L65747 35198
L65732 35213
L65717 35243
L65717 35303
L65732 35333
L65747 35348
L65777 35363
L65837 35363
L65867 35348
L65882 35333
L65897 35303
L65897 35243
L65882 35213
L65867 35198
L65837 35183
" />
</g>
<g style="fill:#000000; fill-opacity:0.0; 
stroke:#000000; stroke-width:79; stroke-opacity:1; 
stroke-linecap:round; stroke-linejoin:round;">
</g>
<g style="fill:#000000; fill-opacity:0.0; 
stroke:#000000; stroke-width:78.75; stroke-opacity:1; 
stroke-linecap:round; stroke-linejoin:round;">
<path d="M67467 36121
L67452 36136
L67407 36151
L67377 36151
L67332 36136
L67302 36106
L67287 36076
L67272 36016
L67272 35971
L67287 35911
L67302 35881
L67332 35851
L67377 35836
L67407 35836
L67452 35851
L67467 35866
" />
<path d="M67617 36151
L67677 36151
L67707 36136
L67722 36121
L67752 36076
L67767 36016
L67767 35896
L67752 35866
L67737 35851
L67707 35836
L67647 35836
L67617 35851
L67602 35866
L67587 35896
L67587 35971
L67602 36001
L67617 36016
L67647 36031
L67707 36031
L67737 36016
L67752 36001
L67767 35971
" />
</g>
<g style="fill:#000000; fill-opacity:0.0; 
stroke:#000000; stroke-width:79; stroke-opacity:1; 
stroke-linecap:round; stroke-linejoin:round;">
</g>
<g style="fill:#000000; fill-opacity:0.0; 
stroke:#000000; stroke-width:78.75; stroke-opacity:1; 
stroke-linecap:round; stroke-linejoin:round;">
<path d="M62199 31691
L62184 31706
L62139 31721
L62109 31721
L62064 31706
L62034 31676
L62019 31646
L62004 31586
L62004 31541
L62019 31481
L62034 31451
L62064 31421
L62109 31406
L62139 31406
L62184 31421
L62199 31436
" />
<path d="M62499 31721
L62319 31721
" />
<path d="M62409 31721
L62409 31406
L62379 31451
L62349 31481
L62319 31496
" />
<path d="M62649 31721
L62709 31721
L62739 31706
L62754 31691
L62784 31646
L62799 31586
L62799 31466
L62784 31436
L62769 31421
L62739 31406
L62679 31406
L62649 31421
L62634 31436
L62619 31466
L62619 31541
L62634 31571
L62649 31586
L62679 31601
L62739 31601
L62769 31586
L62784 31571
L62799 31541
" />
</g>
<g style="fill:#000000; fill-opacity:0.0; 
stroke:#000000; stroke-width:79; stroke-opacity:1; 
stroke-linecap:round; stroke-linejoin:round;">
</g>
<g style="fill:#000000; fill-opacity:0.0; 
stroke:#000000; stroke-width:78.75; stroke-opacity:1; 
stroke-linecap:round; stroke-linejoin:round;">
<path d="M70535 30599
L70520 30614
L70475 30629
L70445 30629
L70400 30614
L70370 30584
L70355 30554
L70340 30494
L70340 30449
L70355 30389
L70370 30359
L70400 30329
L70445 30314
L70475 30314
L70520 30329
L70535 30344
" />
<path d="M70835 30629
L70655 30629
" />
<path d="M70745 30629
L70745 30314
L70715 30359
L70685 30389
L70655 30404
" />
<path d="M71030 30314
L71060 30314
L71090 30329
L71105 30344
L71120 30374
L71135 30434
L71135 30509
L71120 30569
L71105 30599
L71090 30614
L71060 30629
L71030 30629
L71000 30614
L70985 30599
L70970 30569
L70955 30509
L70955 30434
L70970 30374
L70985 30344
L71000 30329
L71030 30314
" />
</g>
<g style="fill:#000000; fill-opacity:0.0; 
stroke:#000000; stroke-width:79; stroke-opacity:1; 
stroke-linecap:round; stroke-linejoin:round;">
</g>
<g style="fill:#000000; fill-opacity:0.0; 
stroke:#000000; stroke-width:78.75; stroke-opacity:1; 
stroke-linecap:round; stroke-linejoin:round;">
<path d="M65990 37695
L65975 37710
L65930 37725
L65900 37725
L65855 37710
L65825 37680
L65810 37650
L65795 37590
L65795 37545
L65810 37485
L65825 37455
L65855 37425
L65900 37410
L65930 37410
L65975 37425
L65990 37440
" />
<path d="M66095 37410
L66290 37410
L66185 37530
L66230 37530
L66260 37545
L66275 37560
L66290 37590
L66290 37665
L66275 37695
L66260 37710
L66230 37725
L66140 37725
L66110 37710
L66095 37695
" />
</g>
<g style="fill:#000000; fill-opacity:0.0; 
stroke:#000000; stroke-width:79; stroke-opacity:1; 
stroke-linecap:round; stroke-linejoin:round;">
</g>
<g style="fill:#000000; fill-opacity:0.0; 
stroke:#000000; stroke-width:78.75; stroke-opacity:1; 
stroke-linecap:round; stroke-linejoin:round;">
<path d="M70274 38635
L70289 38650
L70304 38695
L70304 38725
L70289 38770
L70259 38800
L70229 38815
L70169 38830
L70124 38830
L70064 38815
L70034 38800
L70004 38770
L69989 38725
L69989 38695
L70004 38650
L70019 38635
" />
<path d="M70019 38515
L70004 38500
L69989 38470
L69989 38395
L70004 38365
L70019 38350
L70049 38335
L70079 38335
L70124 38350
L70304 38530
L70304 38335
" />
</g>
<g style="fill:#000000; fill-opacity:0.0; 
stroke:#000000; stroke-width:79; stroke-opacity:1; 
stroke-linecap:round; stroke-linejoin:round;">
</g>
<g style="fill:#000000; fill-opacity:0.0; 
stroke:#000000; stroke-width:98; stroke-opacity:1; 
stroke-linecap:round; stroke-linejoin:round;">
<path d="M56261 40959
L56580 40959
L56617 40940
L56636 40921
L56655 40884
L56655 40809
L56636 40771
L56617 40752
L56580 40734
L56261 40734
" />
<path d="M56392 40377
L56655 40377
" />
<path d="M56242 40471
L56524 40565
L56524 40321
" />
</g>
<g style="fill:#000000; fill-opacity:0.0; 
stroke:#000000; stroke-width:79; stroke-opacity:1; 
stroke-linecap:round; stroke-linejoin:round;">
</g>
<g style="fill:#000000; fill-opacity:0.0; 
stroke:#000000; stroke-width:78.75; stroke-opacity:1; 
stroke-linecap:round; stroke-linejoin:round;">
<path d="M70980 33670
L70980 33925
L70995 33955
L71010 33970
L71040 33985
L71100 33985
L71130 33970
L71145 33955
L71160 33925
L71160 33670
" />
<path d="M71355 33805
L71325 33790
L71310 33775
L71295 33745
L71295 33730
L71310 33700
L71325 33685
L71355 33670
L71415 33670
L71445 33685
L71460 33700
L71475 33730
L71475 33745
L71460 33775
L71445 33790
L71415 33805
L71355 33805
L71325 33820
L71310 33835
L71295 33865
L71295 33925
L71310 33955
L71325 33970
L71355 33985
L71415 33985
L71445 33970
L71460 33955
L71475 33925
L71475 33865
L71460 33835
L71445 33820
L71415 33805
" />
</g>
<g style="fill:#000000; fill-opacity:0.0; 
stroke:#000000; stroke-width:79; stroke-opacity:1; 
stroke-linecap:round; stroke-linejoin:round;">
</g>
<g style="fill:#000000; fill-opacity:0.0; 
stroke:#000000; stroke-width:78.75; stroke-opacity:1; 
stroke-linecap:round; stroke-linejoin:round;">
<path d="M59468 26977
L59678 27292
" />
<path d="M59678 26977
L59468 27292
" />
<path d="M59753 26977
L59933 26977
" />
<path d="M59843 27292
L59843 26977
" />
<path d="M60188 26977
L60038 26977
L60023 27127
L60038 27112
L60068 27097
L60143 27097
L60173 27112
L60188 27127
L60203 27157
L60203 27232
L60188 27262
L60173 27277
L60143 27292
L60068 27292
L60038 27277
L60023 27262
" />
</g>
<g style="fill:#000000; fill-opacity:0.0; 
stroke:#000000; stroke-width:79; stroke-opacity:1; 
stroke-linecap:round; stroke-linejoin:round;">
</g>
<g style="fill:#000000; fill-opacity:0.0; 
stroke:#000000; stroke-width:78.75; stroke-opacity:1; 
stroke-linecap:round; stroke-linejoin:round;">
<path d="M55235 43099
L55445 43414
" />
<path d="M55445 43099
L55235 43414
" />
<path d="M55520 43099
L55700 43099
" />
<path d="M55610 43414
L55610 43099
" />
<path d="M55970 43414
L55790 43414
" />
<path d="M55880 43414
L55880 43099
L55850 43144
L55820 43174
L55790 43189
" />
</g>
<g style="fill:#000000; fill-opacity:0.0; 
stroke:#000000; stroke-width:79; stroke-opacity:1; 
stroke-linecap:round; stroke-linejoin:round;">
</g>
<g style="fill:#000000; fill-opacity:0.0; 
stroke:#000000; stroke-width:78.75; stroke-opacity:1; 
stroke-linecap:round; stroke-linejoin:round;">
<path d="M54891 26044
L55206 25834
" />
<path d="M54891 25834
L55206 26044
" />
<path d="M54891 25759
L54891 25579
" />
<path d="M55206 25669
L54891 25669
" />
<path d="M54996 25339
L55206 25339
" />
<path d="M54876 25414
L55101 25489
L55101 25294
" />
</g>
<g style="fill:#000000; fill-opacity:0.0; 
stroke:#000000; stroke-width:79; stroke-opacity:1; 
stroke-linecap:round; stroke-linejoin:round;">
</g>
<g style="fill:#000000; fill-opacity:0.0; 
stroke:#000000; stroke-width:78.75; stroke-opacity:1; 
stroke-linecap:round; stroke-linejoin:round;">
<path d="M66512 35658
L66512 35913
L66527 35943
L66542 35958
L66572 35973
L66632 35973
L66662 35958
L66677 35943
L66692 35913
L66692 35658
" />
<path d="M66977 35658
L66917 35658
L66887 35673
L66872 35688
L66842 35733
L66827 35793
L66827 35913
L66842 35943
L66857 35958
L66887 35973
L66947 35973
L66977 35958
L66992 35943
L67007 35913
L67007 35838
L66992 35808
L66977 35793
L66947 35778
L66887 35778
L66857 35793
L66842 35808
L66827 35838
" />
</g>
<g style="fill:#000000; fill-opacity:0.0; 
stroke:#000000; stroke-width:79; stroke-opacity:1; 
stroke-linecap:round; stroke-linejoin:round;">
</g> 
</svg>
